<?xml version="1.0" encoding="utf-8"?>
<!-- Generator: Adobe Illustrator 21.0.0, SVG Export Plug-In . SVG Version: 6.00 Build 0)  -->
<svg version="1.1" id="Layer_1" xmlns="http://www.w3.org/2000/svg" xmlns:xlink="http://www.w3.org/1999/xlink" x="0px" y="0px"
	 viewBox="0 0 282 216" style="enable-background:new 0 0 282 216;" xml:space="preserve">
<g>
	<path d="M0,106.8C1.9,101,6.2,99,12,99c70.3,0,13,0,83.2,0c50.1,0,100.3,0,150.4,0c1.1,0,2.3-0.1,3.4-0.2c0.3-0.4,0.5-0.7,0.8-1.1
		c-1.5-1.2-3.1-2.3-4.5-3.7c-23.8-23.7-47.5-47.5-71.2-71.3c-4.7-4.7-5.4-9.6-1.9-13.8c3.1-3.8,8.6-4.5,12.5-1.5
		c1.4,1,2.6,2.3,3.8,3.5c29.5,29.5,59,59,88.5,88.5c6.7,6.7,6.7,11.1-0.1,17.9c-29.9,29.9-59.8,59.8-89.6,89.7
		c-4.8,4.8-9.9,5.4-14.1,1.8c-3.5-3.1-4.2-8.1-1.5-11.9c1.1-1.6,2.6-3.1,4-4.5c23.6-23.6,47.1-47.1,70.7-70.7c1-1,2-2.1,3.8-3.9
		c-2.6,0-4.2,0-5.9,0c-119.6,0-111.6,0-231.2,0c-5.8,0-10.4-1.4-13-7.1C0,109.5,0,108.1,0,106.8z"/>
</g>
</svg>
