<?xml version="1.0" encoding="utf-8"?>
<!-- Generator: Adobe Illustrator 21.0.0, SVG Export Plug-In . SVG Version: 6.00 Build 0)  -->
<svg version="1.1" id="Layer_1" xmlns="http://www.w3.org/2000/svg" xmlns:xlink="http://www.w3.org/1999/xlink" x="0px" y="0px"
	 viewBox="0 0 712 610" style="enable-background:new 0 0 712 610;" xml:space="preserve">
<path d="M235.6,293.6c22.1,0,43.9,0,65.7,0c125.5,0,251,0,376.4,0c11.6,0,17.8,4,20.4,13c2.8,9.7-3.7,20-13.8,21.5
	c-2.3,0.3-4.6,0.4-7,0.4c-138.8,0-277.6,0-416.4,0c-8.5,0-17,0-25.6,0c-1.5,4.4-2.8,8.7-4.5,12.8c-13.2,32.4-44.3,51.6-76.9,50.3
	c-36.5-1.5-65.6-24.6-75-58.3c-1.1-4.1-3-5-6.9-4.9c-15,0.2-30,0.3-45,0.1c-13.4-0.2-21.8-12.4-16.8-24c3.3-7.5,9.4-10.8,17.5-10.8
	c14.5,0,29,0,43.5,0c2,0,4,0,5.8,0c10.9-41.5,44.9-63.6,78.2-63C197.2,231.3,223.1,254.1,235.6,293.6z M110.8,311.2
	c0,25.3,20.6,45.9,45.6,45.8c25-0.1,45.6-20.8,45.6-45.9c0-25-20.8-45.8-45.8-45.7C131.1,265.3,110.8,285.8,110.8,311.2z"/>
<path d="M179.1,502.7c50.2,0,100.3-0.1,150.5,0.1c4.5,0,6.2-1.2,7.5-5.5c9.8-34.3,42.6-58.6,78-57.9c35.6,0.6,66.8,24.3,76.6,58.6
	c1.1,3.9,2.6,4.9,6.4,4.8c60.2-0.1,120.3,0,180.5-0.1c6.9,0,12.9,1.4,17.1,7.3c7.9,10.9,1.1,26-12.3,27.4c-2,0.2-4,0.2-6,0.2
	c-59.7,0-119.3,0-179-0.1c-3.9,0-5.6,0.9-6.8,5c-9.9,34.3-41.1,57.9-76.6,58.5c-35.2,0.5-67.9-23.5-77.7-57.6
	c-1.4-4.9-3.6-5.9-8.2-5.9c-99.7,0.1-199.3,0.1-299,0.1c-5.1,0-9.9-0.3-14.2-3.6c-5.4-4.2-8-11.4-6.3-17.8
	c1.9-7.3,7.4-12.3,14.6-13.1c2.5-0.3,5-0.3,7.5-0.3C80.8,502.7,130,502.7,179.1,502.7z M368.5,519.5c-0.6,24.8,19.8,45.8,45.1,46.4
	c24.4,0.6,45.8-20.1,46.4-44.8c0.5-25.2-19.8-46.3-45.2-46.9C389.9,473.7,369.2,494,368.5,519.5z"/>
<path d="M638.5,119.5c-3.8,15.3-10.8,28.5-21.8,39.5c-43.4,43.4-117.7,24.3-134.4-34.8c-1.1-3.9-2.8-4.7-6.5-4.7
	c-112.7,0.1-225.3,0.1-338,0.1c-36.3,0-72.7,0-109,0c-6.9,0-12.8-1.8-16.8-7.9c-7.2-10.8-0.5-25.3,12.4-26.7c2.3-0.3,4.7-0.2,7-0.2
	c147.8,0,295.6,0,443.5,0.1c4.2,0,6.2-0.7,7.5-5.3c9.8-34.2,41.4-57.8,76.9-58.1c35.3-0.3,67.6,23.7,77.5,58c1.3,4.4,3,5.6,7.4,5.5
	c13-0.3,26-0.3,39,0.2c8.2,0.3,14.6,6.9,15.6,15c1,7.8-3.8,15.8-11.5,18.4c-2.6,0.9-5.5,1.1-8.3,1.1c-12,0.1-24,0-36,0
	C641.6,119.5,640.1,119.5,638.5,119.5z M605.2,102.1c0-25.3-20.4-45.8-45.6-45.8c-25,0-45.7,20.8-45.7,45.8
	c0,25.1,20.7,45.8,45.7,45.8C584.8,147.9,605.2,127.4,605.2,102.1z"/>
</svg>
