<svg id="_3225191_app_instagram_logo_media_popular_icon" data-name="3225191_app_instagram_logo_media_popular_icon" xmlns="http://www.w3.org/2000/svg" xmlns:xlink="http://www.w3.org/1999/xlink" width="47.019" height="47.019" viewBox="0 0 47.019 47.019">
  <defs>
    <linearGradient id="linear-gradient" x1="0.146" y1="0.854" x2="0.854" y2="0.146" gradientUnits="objectBoundingBox">
      <stop offset="0" stop-color="#ffd521"/>
      <stop offset="0.055" stop-color="#ffd020"/>
      <stop offset="0.124" stop-color="#fec01e"/>
      <stop offset="0.2" stop-color="#fca71b"/>
      <stop offset="0.282" stop-color="#fa8316"/>
      <stop offset="0.368" stop-color="#f85510"/>
      <stop offset="0.456" stop-color="#f51e09"/>
      <stop offset="0.5" stop-color="#f30005"/>
      <stop offset="0.503" stop-color="#f20007"/>
      <stop offset="0.597" stop-color="#e1003b"/>
      <stop offset="0.688" stop-color="#d30067"/>
      <stop offset="0.776" stop-color="#c70088"/>
      <stop offset="0.859" stop-color="#bf00a0"/>
      <stop offset="0.936" stop-color="#bb00af"/>
      <stop offset="1" stop-color="#b900b4"/>
    </linearGradient>
  </defs>
  <path id="Path_2485" data-name="Path 2485" d="M23.51,47.019h0A23.512,23.512,0,0,1,0,23.51H0A23.512,23.512,0,0,1,23.51,0h0a23.512,23.512,0,0,1,23.51,23.51h0A23.512,23.512,0,0,1,23.51,47.019Z" fill="url(#linear-gradient)"/>
  <g id="Group_147" data-name="Group 147" transform="translate(7.457 7.462)">
    <path id="Path_2486" data-name="Path 2486" d="M174.652,161.592c4.283,0,4.791.014,6.484.094a8.8,8.8,0,0,1,2.981.555,5.307,5.307,0,0,1,3.042,3.042,8.926,8.926,0,0,1,.555,2.981c.075,1.693.094,2.2.094,6.484s-.014,4.791-.094,6.484a8.8,8.8,0,0,1-.555,2.981,5.307,5.307,0,0,1-3.042,3.042,8.927,8.927,0,0,1-2.981.555c-1.693.075-2.2.094-6.484.094s-4.791-.014-6.484-.094a8.8,8.8,0,0,1-2.981-.555,5.307,5.307,0,0,1-3.042-3.042,8.927,8.927,0,0,1-.555-2.981c-.075-1.693-.094-2.2-.094-6.484s.014-4.791.094-6.484a8.8,8.8,0,0,1,.555-2.981,5.307,5.307,0,0,1,3.042-3.042,8.926,8.926,0,0,1,2.981-.555c1.693-.08,2.2-.094,6.484-.094m0-2.892c-4.359,0-4.9.019-6.616.1a11.8,11.8,0,0,0-3.9.748,7.746,7.746,0,0,0-2.84,1.848,7.9,7.9,0,0,0-1.853,2.845,11.866,11.866,0,0,0-.748,3.9c-.08,1.712-.1,2.257-.1,6.616s.019,4.9.1,6.616a11.8,11.8,0,0,0,.748,3.9,8.234,8.234,0,0,0,4.7,4.688,11.867,11.867,0,0,0,3.9.748c1.712.08,2.257.1,6.616.1s4.9-.019,6.616-.1a11.8,11.8,0,0,0,3.9-.748,8.233,8.233,0,0,0,4.688-4.7,11.866,11.866,0,0,0,.748-3.9c.08-1.712.1-2.257.1-6.616s-.019-4.9-.1-6.616a11.8,11.8,0,0,0-.748-3.9,8.234,8.234,0,0,0-4.7-4.688,11.866,11.866,0,0,0-3.9-.748c-1.707-.075-2.252-.094-6.611-.094Z" transform="translate(-158.6 -158.7)" fill="#fff"/>
    <path id="Path_2487" data-name="Path 2487" d="M332.942,324.7a8.242,8.242,0,1,0,8.242,8.242A8.243,8.243,0,0,0,332.942,324.7Zm0,13.593a5.351,5.351,0,1,1,5.351-5.351A5.351,5.351,0,0,1,332.942,338.293Z" transform="translate(-316.89 -316.895)" fill="#fff"/>
    <circle id="Ellipse_10" data-name="Ellipse 10" cx="1.928" cy="1.928" r="1.928" transform="translate(22.691 5.553)" fill="#fff"/>
  </g>
</svg>
