<?xml version="1.0" encoding="utf-8"?>
<!-- Generator: Adobe Illustrator 21.0.0, SVG Export Plug-In . SVG Version: 6.00 Build 0)  -->
<svg version="1.1" id="Layer_1" xmlns="http://www.w3.org/2000/svg" xmlns:xlink="http://www.w3.org/1999/xlink" x="0px" y="0px"
	 viewBox="0 0 513.1 753" style="enable-background:new 0 0 513.1 753;" xml:space="preserve">
<style type="text/css">
	.st0{fill:#3A3B3A;}
</style>
<path class="st0" d="M156.4,550.5c17.5,9.2,36.3,15.4,55,21.7c9.7,3.3,19.4,6.7,29,10.1c10.5,3.7,19.9,9.3,29.1,15.6
	c9.2,6.3,18,13.2,26.3,20.6c4.1,3.6,8,7.4,12,11.2c1.1,1,2.1,2.1,3.2,3.1c1.9,5.5,3.6,11.1,5,16.8c1.4,5.7,2.6,11.5,4.8,17
	c0.8,2.1,1.8,4.1,3.3,5.8c2.3,7.9,5.1,15.7,8,23.5c2,5.4,4.1,10.8,6.1,16.2c1.2,3.3,6.5,1.9,5.3-1.5c-5.6-15.1-11.4-30-15.4-45.5
	c0-1.5,0-3,0-4.5c0.1-3.4,1.2-6.6,2.1-9.9c0.8-3.2,1.8-6.4,3.6-9.1c1.5-2.3,3.6-4.2,5.9-5.7c6.1-4.2,13-6.6,19.7-9.3
	c6.7-2.7,13.1-5.9,18.5-10.8c20.4-18.6,17.1-49.7,9.7-73.5c-2.5-8-5.7-15.7-8.9-23.4c-3.5-8.4-7.2-16.8-11.6-24.8
	c-1.5-2.7-5.9-0.8-5,2.1c0.4,1.2,0.3,2.3,0.3,3.6c0,1.4,0.1,2.8,0.1,4.3c0.1,3.3,0.2,6.6,0.2,10c0,6.4-0.2,12.7-0.7,19.1
	c-0.6,6.2-1.5,12.3-2.5,18.4c-0.8,4.5-1.7,9-4,13c-2.8,4.7-7.3,8.1-11.5,11.5c-4.5,3.6-9.2,6.9-12.9,11.3c-3.3,4-5.9,8.5-8,13.2
	c-1.2,2.7-2.3,5.4-3.1,8.1c-0.8-10.2-1.6-20.5-2.4-30.7c-1.4-16.2-2.6-32.5-4-48.8c0.8-0.4,1.1-1.2,0.9-2.1
	c-1.3-9.5-2.1-19-2.2-28.6c0.2-1.3,0.3-2.6,0.5-3.9c0.4-5-0.4-10.1,0.2-15.1c0.6-4.7,3.2-8.7,5.4-12.8c2.4-4.5,4.1-9.6,6-14.3
	c2-5,3.1-10.2,4.6-15.3c1.5-5,4-9.3,6.7-13.8c2.7-4.6,4.6-9.5,7.1-14.2c2.6-4.8,5-9.6,6.8-14.8c1.8-4.9,3.2-9.9,4.8-14.8
	c1.7-5.3,3.7-10.6,5.7-15.8c4-10.2,7.8-20.5,10.7-31.1c2.8-10.5,5.1-21.4,6.2-32.2c1.1-10.8,0.1-21.7-1.4-32.4
	c-0.8-5.8-1.9-11.5-3.2-17.1c-1.2-5.2-2.6-10.3-3.6-15.5c0-0.3-0.1-0.5-0.1-0.8c0,0,0-0.1,0-0.1c0-0.1,0-0.2,0-0.2
	c-0.1-0.8-0.2-1.5-0.3-2.3c-0.2-1.9-0.5-3.7-0.7-5.6c-0.5-3.4-1.2-7-2.8-10.1c-0.7-1.3-1.7-2.4-2.9-3.2c-1.8-1.1-3.8,0.4-4,2.3
	c-0.4,5.2,0.2,10.4-0.5,15.5c-0.7,5.1-2.3,10.1-4,14.9c-3.6,9.7-8.2,19-11.6,28.8c-3.5,10-6.5,20.2-9.3,30.5
	c-2.6,9.6-4.7,19.3-5.9,29.2c-1.3,10.1-1.2,20.1-1,30.3c0.2,10.7,0.1,21.5-1.2,32.2c-2.4,21-10,40.9-13.1,61.7
	c-0.8,5.2-1.4,10.4-1.8,15.6c-1,2.9-1.2,5.9-1.2,8.9c-2.2-13.3-4.9-26.4-8.2-39.5c-2.8-11-6-21.9-8.6-32.9
	c-2.1-8.9-4.2-17.9-6.6-26.7c0.3-0.3,0.5-0.8,0.3-1.4c-2-6.2-4.3-12.3-6-18.6c-0.7-4.5-1.4-9.1-2-13.6c0-0.4-0.2-0.6-0.3-0.9
	c-0.3-3.6-0.4-7.3-0.5-11c0-0.7,0-1.4,0-2.1c0.1-3.7,0.1-7.5,0.6-11.2c0.2-1.8,0.5-3.6,0.7-5.4c0.1-1.1,0.3-2.1,0.1-3.1
	c0-0.1,0-0.2,0-0.3c2-10.4,5.2-20.5,9-30.4c8.4-21.8,21.1-42.2,25.2-65.5c1.1-6.1,2.1-12.1,3.6-18.1c1.4-5.8,2.3-11.4,2.8-17.3
	c0.1-1.3,0.2-2.6,0.3-3.9c0.3-0.5,0.3-1.2,0.2-1.8c0.2-2.2,0.4-4.5,0.6-6.7c0.6-2,1.4-3.9,2.3-5.8c2.2-4.8,4.1-9.7,6.6-14.4
	c2.8-5.2,5.9-10.1,8.9-15.2c3.1-5.2,5.7-10.6,8.9-15.8c6.1-10,13.2-19.4,19.3-29.4c6-9.8,11.2-20,12-31.6c0.4-6.6-0.4-13.2-1.2-19.7
	c-0.9-7.4-2.3-14.8-6-21.4c-1.2-2.2-4.2-1.4-5,0.7c-1.7,4.5-0.3,9.4-1.2,14.1c-1.2,5.6-3.4,10.8-6,15.8
	c-5.7,10.8-12.9,20.6-19.4,30.9c-6.1,9.7-11.1,19.8-14.6,30.7c-3.4,10.3-5.5,21-7,31.7c-1.5,11-2.5,22.1-3.4,33.2
	c-0.5,5.6-0.7,11.2-1.7,16.7c-1,5.9-2.8,11.7-3.9,17.6c-1.1,6.1-1.9,12.2-3.6,18.2c-1.6,5.8-3.7,11.5-6,17.1
	c-4.5,10.7-9.8,21.1-14.2,31.8c-8.3,19.9-14.1,40.9-14.1,62.6c0,1.9,0.1,3.7,0.2,5.6c-4.7-9.3-10-18.3-15.8-27
	c-2.3-3.5-4.7-6.9-7.1-10.3c-2.4-8-3.3-16.4-3.5-24.8c-0.4-17.2,2.3-34.5-1.6-51.5c-0.1-0.2-0.1-0.5-0.2-0.7
	c0.7,0.3,1.8-0.1,1.8-1.1c-0.1-1.3-0.5-2.1-1.3-3.1c1-3.3,1.8-6.6,2.2-10c0.7-5.2,1.2-10.5,1.5-15.7c0.6-10.9,0.6-21.9-1.4-32.7
	c-0.9-5.1-2.3-10.2-4.9-14.7c-2.5-4.5-5.8-8.5-9.3-12.3c-6.6-7.3-13.7-14.1-18.7-22.6c-2.9-4.9-4.9-10-6.5-15.4
	c-0.9-3-1.7-6.1-2.1-9.2c-0.3-2.4,0-5-1.6-7c-0.8-1-1.8-1.4-3-0.7c-1.5,0.8-2,2.5-2.4,4c-0.6,1.8-1.4,3.5-2.1,5.3
	c-1.4,3.8-2.2,7.8-2.7,11.8c-1,7.9-0.8,15.9,0.2,23.8c2.1,17.9,8.4,35.1,17.5,50.6c2.2,3.9,4.7,7.6,7.3,11.2c2.5,3.4,5.4,6.6,8,10
	c2.6,3.3,4.9,6.8,6.6,10.7c1.7,3.8,3,7.8,4.3,11.8c2.7,8.4,4.1,16.9,4.2,25.7c0.2,8.7-0.4,17.4-0.4,26.1c0.1,7.3,0.5,14.6,1.8,21.8
	c-1.9-2.6-3.7-5.3-5.6-7.9c-6-8.5-11.4-17.5-18.6-25.1c-6.8-7.1-15.2-12.3-22.9-18.3c-4.1-3.2-7.9-6.7-10.9-11
	c-2.9-4.1-5.2-8.5-7.7-12.8c-10.8-18.8-27.7-33.5-37.4-52.9c-9-18-7.3-39.5-5.3-58.9c0.5-4.8,1-9.5,1.5-14.3
	c0.3-2.6-4.3-3.3-4.7-0.6c-2.6,19.3-5.7,39.1-2.2,58.5c3.8,21.2,18.5,36.9,31.4,53.3c3.8,4.9,7.1,10,10.3,15.3
	c-1.4-1.6-2.8-3.2-4.3-4.6c-4-3.9-8.6-6.7-13.6-9c-5.9-2.6-12-4.9-18-7.3c-5.6-2.2-11.4-3.7-17.3-4.7c-6.3-1-12.5-1.5-18.9-0.6
	c-6.1,0.9-12.1,2.6-18.2,3.5c-5.7,0.9-11.4,0.8-17-0.7c-5.5-1.4-10.7-3.8-15.6-6.9c-5.5-3.4-10.4-7.6-14.8-12.2
	c-2.2-2.3-4.2-4.7-6.3-7.1c-2.1-2.4-4.2-4.8-5.4-7.8c-0.4-1.1-1.4-1.8-2.6-1.5c-1.1,0.3-1.9,1.5-1.5,2.6c2.4,7.1,4.4,14.3,7.3,21.2
	c2.6,6,5.6,11.8,9.2,17.3c6.9,10.5,15.9,20.2,27.2,26c10.7,5.5,22.6,7.5,34.5,8.6c7.2,0.6,14.5,1,21.7,0.8
	c7.3-0.2,14.5-1.3,21.6-2.9c7.6-1.7,15.3-3.6,23.1-4.4c3.2-0.3,6.8-0.7,9.9,0.5c2.5,1,4.7,2.6,6.8,4.3c0.4,1.1,1.6,2.1,3,1.6
	c4.6,5.7,10.1,10.3,16.2,14.7c8.5,6.2,16.5,12.5,23,21c6.5,8.5,12.3,17.6,18.5,26.3c2.9,4.1,5.9,8.3,8.8,12.5
	c1.8,3.9,4,7.7,6.5,11.4c1.2,1.8,2.5,3.6,3.7,5.4c0.3,0.5,0.8,0.7,1.3,0.8c4.7,7.8,9,15.7,12.6,24c0.3,1,0.6,2,0.9,3.1
	c0,0.2,0.1,0.3,0.2,0.4c0.3,1.5,0.6,3,0.9,4.4c-0.1,0.3-0.1,0.7,0.1,1.1c0.1,0.3,0.2,0.5,0.3,0.8c0.5,2.2,1.1,4.3,1.8,6.5
	c0.2,0.8,0.9,1.1,1.5,1.1c0,0.1,0.1,0.2,0.1,0.3c1.1,3.5,2.4,7,3.4,10.5c0.5,1.7,1,3.5,1.5,5.2c3,11.9,5.6,23.8,8.8,35.6
	c6,21.9,11.3,43.9,14.5,66.5c0,0,0,0.1,0,0.1c-0.1-0.3-0.2-0.5-0.3-0.8c-3.5-10.1-8.2-19.8-13.8-29c-5.7-9.3-12.4-18.1-19.3-26.6
	c-6.9-8.6-14.1-16.9-21.5-25c-7.2-7.9-15.1-15.1-23.7-21.4c-8.7-6.3-17.9-11.7-26.6-18c-8.4-6.2-15.8-13.5-22.4-21.4
	c-6.9-8.2-13.1-17-19.9-25.3c-6.5-8-13.5-15.6-21.4-22.4c-3.7-3.1-7.5-6-11.7-8.4c-4.4-2.5-9.2-4.1-14.1-5.5
	c-2.5-0.7-4.9-1.4-7.3-2.4c-2.2-0.9-3.8,2-2.8,3.8c2.3,4.2,5.8,7.7,8.6,11.6c3.1,4.4,6,8.8,8.9,13.3c5.8,8.8,11.7,17.5,17.8,26
	c12.3,17.1,25.1,33.9,37.4,51c6,8.3,12,16.8,19.1,24.3c6.6,7,14.2,13,22.1,18.5c8.1,5.6,16.7,10.6,25,15.9
	c8.2,5.2,16,11.1,23.9,16.8c4,2.8,7.9,5.7,11.6,8.8c3.8,3.2,7.4,6.8,11,10.3c7.2,7,14.3,14.6,19.9,23c0.2,0.3,0.4,0.5,0.6,0.8
	c0.6,2.2,1.2,4.4,1.8,6.7c1.4,14.7,2.5,29.5,3.7,44.2c1.8,22.1,3.5,44.1,5.7,66.2c-1.1-0.8-1.8-2-2.5-3.2
	c-2.8-7.9-6.1-15.6-10.1-22.9c-5.7-10.3-13-19.6-21-28.2c-7.7-8.4-16.3-15.9-25.5-22.6c-9.7-7-20.1-12.8-31.2-17.5
	c-5.5-2.3-11.3-3.9-17.1-5.3c-5.8-1.5-11.6-3.2-17.4-4.8c-11.6-3.3-23.2-6.6-34.2-11.5c-4.8-2.2-9.5-4.7-13.7-7.8
	c-4.3-3.2-8-7-11.4-11.1c-7.3-8.8-13.9-18.3-22.2-26.4c-3.3-3.2-6.9-6-11.2-7.6c-4.9-1.9-9.9-1.8-15-1.2c-1.5,0.2-3,0.4-4.5,0.3
	c-1.5,0-2.9-0.1-4.3,0.4c-2.1,0.9-2.6,3.5-0.6,4.9C83,469.9,89,478.1,95.4,486c6.3,7.8,11.5,16.4,16.9,24.8
	c5.5,8.5,11.5,16.8,19.4,23.3C139.3,540.4,147.6,545.9,156.4,550.5z M320.1,434.6c2.7-10.2,5.5-20.3,7.3-30.7
	c1.8-10.5,2.5-21.2,2.6-31.9c0.1-10.3-0.4-20.6,0.5-31c1.7-20.1,7.5-39.8,13.9-59c1.7-5.1,3.5-10.2,5.5-15.1c1.9-4.7,4.1-9.4,6-14.1
	c1.9-4.7,3.7-9.5,5-14.5c0.8-2.9,1.2-5.8,1.5-8.7c0.2,1.4,0.3,2.8,0.5,4.2c0.6,4.3,1.7,8.6,2.7,12.8c1.3,5.5,2.6,11.1,3.6,16.7
	c1.8,10.5,2.9,21.4,2.4,32.1c-0.5,10.7-2.8,21.4-5.4,31.7c-2.6,10.6-6.1,20.8-10.1,30.9c-2,5.1-4,10.2-5.8,15.4
	c-1.7,5-3.2,10.1-4.8,15.1c-1.6,4.9-3.5,9.7-5.9,14.2c-1.3,2.5-2.7,4.9-3.9,7.4c-1.1,2.3-2,4.8-3.3,7.1c-1.2,2.3-2.6,4.4-3.8,6.7
	c3.2-9,5.9-18.1,8.9-27.2c3.5-10.6,6.6-21.3,9.6-32c1.5-5.3,3-10.7,4.1-16.1c1.1-5.4,1.7-10.8,2.3-16.2c1.4-12.8,3.1-25.6,3.6-38.5
	c0.1-1.6-2.2-1.5-2.4,0c-1.2,11.4-2.2,22.8-3.5,34.2c-0.6,5.6-1.1,11.3-2.1,16.9c-1,5.4-2.3,10.6-3.8,15.9c-3,10.7-6,21.3-9.4,31.9
	c-1.8,5.5-3.6,10.9-5.3,16.4c-1.7,5.4-3.3,10.7-5.3,16c-2.1,5.6-4.5,11.2-6.1,17c-1.3,4.8-2,9.7-2.4,14.6c-0.5,1.3-0.9,2.6-1.4,3.9
	c-0.4,0.9-0.8,1.8-1.2,2.8C315.4,453.9,317.6,444.2,320.1,434.6z M321,151.9c2.5-21.6,7.2-43.1,18.2-62.1
	c6-10.4,13.2-20.2,19.4-30.5c3.1-5.1,5.9-10.4,8-16c1-2.6,1.8-5.3,2.3-8c0.1-0.5,0.2-1.1,0.2-1.6c0.5,2.3,0.8,4.6,1.1,6.8
	c0.7,5.8,1.5,11.8,1.4,17.7c-0.1,5.3-1.1,10.4-3,15.3c-2.1,5.5-5.1,10.6-8.2,15.6c-6.1,10-13.2,19.4-19.3,29.4
	c-3.1,5.1-5.7,10.4-8.8,15.5c-1.8,3.1-3.7,6.1-5.5,9.2c1.3-4.9,2.5-9.8,4.3-14.6c2-5.3,4.7-10.4,7.3-15.5c2.8-5.5,5.4-11,8.1-16.6
	c1.4-2.9,2.6-5.7,3.8-8.7c1.2-3,2.4-6.1,4-8.9c0.7-1.1-1-2-1.7-1c-3.4,4.7-4.9,10.5-7.3,15.7c-2.7,5.7-5.5,11.5-8.3,17.1
	c-2.5,5-5.2,10-7.3,15.2c-2.2,5.5-3.6,11.4-5.2,17.1c-0.7,2.4-1.3,4.8-1.8,7.3c-0.7,1.4-1.4,2.8-2.1,4.3
	C320.8,153.9,320.9,152.9,321,151.9z M218.6,188.4c-10-14.3-17.4-30.7-21.1-47.8c-1.7-7.8-2.5-15.8-2.4-23.9c0.1-3.8,0.3-7.6,1-11.4
	c0.6-3.3,1.6-6.4,2.7-9.5c0.4,2.7,1,5.3,1.7,7.9c1.3,4.9,2.9,9.7,5.2,14.3c4.3,8.7,10.6,16.1,17.2,23.2c3.4,3.6,6.8,7.2,9.7,11.2
	c2.9,4.1,4.9,8.3,6.1,13.1c2.7,10.2,3,20.9,2.8,31.4c-0.1,5.9-0.6,11.8-1.1,17.7c-0.2,2.6-0.5,5.1-1,7.6c-0.4-0.6-0.7-1.3-1-2
	c-0.5-1.4-0.8-2.9-1.1-4.3c-0.5-3-0.6-6-1.3-8.9c-0.8-3.1-1.5-6.1-2.1-9.3c-0.6-3.1-1.1-6.2-2.1-9.2c-1-3.1-2.5-5.8-4-8.7
	c-1.5-2.9-2.9-5.8-4.5-8.7c-0.7-1.3-1.5-2.6-2.3-3.9c-0.9-1.4-2-2.6-3-4c-4.5-6.1-6.5-13.7-8-21c-0.3-1.6-2.8-0.9-2.4,0.7
	c0.7,3.3,1.6,6.6,2.6,9.8c1,3.1,2.1,6.2,3.8,9c1.6,2.7,3.8,5,5.4,7.7c1.7,2.7,3.1,5.6,4.5,8.4c1.5,2.9,3.2,5.7,4.4,8.7
	c1.2,2.9,1.9,6,2.5,9.1c0.6,3.1,1.1,6.3,1.9,9.3c0.3,1.2,0.6,2.4,0.9,3.6c-0.1-0.1-0.1-0.2-0.2-0.4
	C229.5,201.1,223.4,195.2,218.6,188.4z M165.2,230.5c-6.8,0-13.6,1.3-20.2,2.8c-7.1,1.6-14.2,3.6-21.4,4.4
	c-7.1,0.8-14.2,0.9-21.3,0.6c-12.1-0.6-24.5-1.7-36-6.1c-11.4-4.4-20.6-12.5-27.9-22.2c-4.4-5.9-8.2-12.4-11.2-19.1
	c-1.5-3.2-2.7-6.6-3.9-9.9c0.6,0.7,1.3,1.4,1.9,2.2c3.8,4.4,8,8.5,12.7,12.1c9.3,7,20.6,12.4,32.5,12.5c12.4,0.1,24.2-5.6,36.6-4.6
	c5.9,0.5,11.8,1.5,17.5,3.1c6,1.7,11.9,4.2,17.7,6.5c6.1,2.3,12.2,4.8,17.2,9.1c0.4,0.4,0.9,0.8,1.3,1.2c-1,0-1.9-0.1-2.9-0.2
	c-1.8-0.3-3.6-0.6-5.4-0.9c-3.6-0.5-7.1-0.6-10.7-0.4c-7.1,0.5-14,2-21.2,2c-6.9,0-13.7-0.9-20.5-2.3c-7.6-1.6-15-3.7-22.5-5.8
	c-1.6-0.4-2.2,2-0.7,2.5c13.3,3.7,26.7,7.7,40.6,8.2c7.3,0.3,14.3-0.9,21.5-1.7c3.6-0.4,7.2-0.5,10.8-0.1c3.5,0.3,7,1.3,10.5,1.4
	c1.3,0,2.5,0.2,3.7,0.6c1.3,1.4,2.6,2.9,3.8,4.4C167,230.6,166.1,230.5,165.2,230.5z M295.3,490.9c-6.9-7.3-14.2-14.5-22.2-20.6
	c-4-3-8.1-5.9-12.1-8.8c-4-2.8-7.8-5.8-11.8-8.6c-8.1-5.6-16.7-10.6-25-15.8c-8.2-5.2-16.2-10.7-23.4-17.2
	c-7.4-6.7-13.5-14.4-19.5-22.5c-6.3-8.5-12.4-17.1-18.7-25.5c-6.3-8.5-12.7-17-19-25.5c-6.2-8.5-12.4-17-18.3-25.7
	c-5.7-8.5-11.1-17.4-17.5-25.5c2.5,0.7,5,1.5,7.4,2.4c4.2,1.7,8.2,4.1,11.8,6.8c8,6,15,13.4,21.5,20.9
	c13.7,15.9,24.8,33.9,41.1,47.3c8.1,6.7,17.1,12.1,25.8,17.8c8.8,5.8,16.9,12.2,24.4,19.6c7.7,7.6,14.7,15.8,21.7,24
	c7,8.3,13.9,16.8,20.1,25.7c6,8.6,11.3,17.8,15.4,27.5c0.1,0.3,0.3,0.6,0.4,0.9c-1.3-1.2-2.5-2.4-3.6-3.7c-1.8-2.3-3.6-4.6-5.5-6.8
	c-7.6-9.1-15.7-17.8-24-26.3c-8.2-8.4-16.5-16.6-25.4-24.2c-9-7.6-18.9-14.2-27.9-21.7c-10.5-8.7-20.4-18.3-30-28
	c-1.1-1.1-2.9,0.6-1.7,1.8c8.5,8.5,17.1,16.9,26.2,24.8c8.9,7.7,18.6,14.3,27.7,21.7c9,7.3,17.4,15.3,25.5,23.6
	c8.2,8.3,16.3,16.8,23.9,25.7c2.2,2.6,4.4,5.2,6.5,7.8c1.8,2.2,3.4,4.5,5.5,6.5c1.5,1.4,3.2,2.7,4.9,4.1c0.5,1.3,0.9,2.6,1.4,4
	C299,495,297.2,492.9,295.3,490.9z M321.5,627c0-2.6,0-5.3,0.3-7.9c0.6-5.3,2-10.5,4.2-15.3c2.1-4.6,4.5-9.2,7.7-13.2
	c7.3-8.8,18.5-13.4,25.2-22.9c2.6-3.7,3.9-8.1,4.8-12.6c1.2-6.1,2.2-12.3,2.9-18.4c0.9-7.1,1.2-14.2,1.3-21.4c0-2.4,0-4.9,0-7.3
	c1.6,3.4,3.1,6.8,4.6,10.3c2.9,7,5.8,14,8.3,21.1c4.4,12.8,7.4,26.5,6.8,40.1c-0.5,11.8-4.3,23.3-13,31.6
	c-10.4,10.1-25.5,11.8-37.3,19.6c-2.8,1.8-5.4,4-7.4,6.6c-0.3,0.3-0.5,0.7-0.7,1c1.4-4.2,3.1-8.2,5.2-12.1c3.5-6.4,8.1-12,13.4-17
	c5.4-5.2,10.8-10.2,15-16.4c4-5.8,7.2-12,9.7-18.5c2.9-7.3,5.1-15.1,6.2-22.9c0.2-1.5-1.9-2.1-2.3-0.6c-1.7,6.8-3.2,13.6-5.6,20.2
	c-2.4,6.6-5.5,13-9.4,18.9c-2,3.1-4.2,6-6.7,8.6c-2.6,2.8-5.4,5.3-8.1,7.9c-5.2,5-9.9,10.4-13.6,16.6c-3.4,5.8-5.9,12-7.6,18.5
	c-0.8-1.3-1.7-2.5-2.6-3.7C322.3,634.3,321.9,630.6,321.5,627z M129.4,524.7c-3.4-3.6-6.4-7.5-9.2-11.6c-5.8-8.3-10.9-17.2-17-25.3
	c-3.1-4.1-6.4-8-9.6-12c-3.2-3.9-6.6-7.9-10.3-11.3c-0.1-0.1-0.3-0.2-0.4-0.4c0.7-0.1,1.4-0.2,2-0.2c2.6-0.3,5.2-0.5,7.8-0.1
	c4,0.6,7.6,2.5,10.7,5c8.3,6.9,14.7,16,21.4,24.4c3.6,4.5,7.2,9,11.6,12.8c3.9,3.4,8.2,6.3,12.7,8.7c10.3,5.6,21.7,9.1,32.9,12.4
	c5.8,1.7,11.6,3.4,17.5,5c5.5,1.6,11.2,2.8,16.7,4.4c5.8,1.7,11.2,4.1,16.6,6.8c5.4,2.6,10.6,5.6,15.6,8.9
	c9.3,6.1,17.9,13.2,25.8,21c8,8,15.5,16.7,21.6,26.3c1.8,2.9,3.5,5.8,5,8.8c-0.1-0.1-0.2-0.2-0.2-0.3c-2.1-2.2-4.1-4.6-6.2-6.9
	c-2-2.3-4-4.5-6.2-6.5c-2.4-2.2-5-4.1-7.7-6c-5.3-3.9-10.8-7.3-16.4-10.6c-11.2-6.7-22.7-13-34.4-18.7c-6-2.9-12-5.5-18-8.3
	c-6-2.8-12-5.7-17.9-8.6c-13.3-6.5-26.5-12.9-40.2-18.5c-1.5-0.6-2.1,1.8-0.6,2.4c12.2,5,24.2,10.8,36,16.6
	c5.9,2.9,11.7,5.8,17.6,8.6c6,2.9,12,5.5,18,8.4c11.8,5.6,23.2,11.7,34.4,18.3c5.6,3.3,11.3,6.6,16.6,10.3
	c5.2,3.6,10.3,7.4,14.6,12.1c2.3,2.5,4.6,5.2,6.9,7.7c2.4,2.6,4.9,5.1,7.2,7.7c0.1,0.1,0.3,0.3,0.4,0.4c0.7,1.6,1.3,3.1,2,4.7
	c-0.2-0.2-0.3-0.3-0.5-0.5c-8.2-7.7-16.7-15-25.7-21.7c-9-6.7-18.4-13.1-28.6-17.9c-5.1-2.4-10.4-4.1-15.7-6
	c-4.8-1.7-9.6-3.4-14.4-5.1c-18.7-6.4-37.6-12.2-55.5-20.6c-9-4.2-17.6-9.2-25.7-15C136.6,531.4,132.8,528.3,129.4,524.7z"/>
</svg>
