<?xml version="1.0" encoding="utf-8"?>
<!-- Generator: Adobe Illustrator 21.0.0, SVG Export Plug-In . SVG Version: 6.00 Build 0)  -->
<svg version="1.1" id="Layer_1" xmlns="http://www.w3.org/2000/svg" xmlns:xlink="http://www.w3.org/1999/xlink" x="0px" y="0px"
	 viewBox="0 0 513.1 753" style="enable-background:new 0 0 513.1 753;" xml:space="preserve">
<style type="text/css">
	.st0{fill:#75706D;}
</style>
<path class="st0" d="M95.1,390.5c3.2,5,6,10.2,8.5,15.6c5.3,11.2,9.7,23,12.2,35.2c2.7,12.8,3.4,26,4.2,39.1c0.4,6,0.6,12,0.8,18
	c0.2,5.9,0.7,11.7,2.3,17.4c1,3.3,1.5,6.8,1.7,10.2c0.2,3.5-0.1,7-0.2,10.5c-0.1,3.6-0.4,7.2-1.4,10.7c-0.9,3.3-2.1,6.6-3.3,9.8
	c-10.7,17.7-21.1,35.4-31.4,53.3c-8.3,14.4-16.1,28.9-24,43.5c-5.5,8-10.6,16.2-15.8,24.4c0.5-1.9,0.9-3.7,1.3-5.6
	c2-9.9,2.6-20,2.3-30.1c-0.5-19.3-4.2-39.1-12.7-56.5c-2.6-5.3-5.4-10.5-8.5-15.6c-2-3.4-4.3-7.5-7.7-9.6c-1.8-1.1-3.9-0.8-4.9,1.2
	c-2.4,4.8-1,10.7-0.1,15.7c1.1,6.1,1.1,12.4,1.3,18.6c0.5,14.3,0.8,28.6,1.4,42.9c0.3,7.1,0.6,14.2,1,21.2c0.3,6.5,0.5,13,1.7,19.4
	c0.5,3,1.3,6,2.3,8.9c1,2.9,2.4,5.5,3.8,8.2c1.3,2.4,2.6,5,3,7.8c0.5,2.9,0,5.4-1.5,7.9c-1.9,3.2-4,6.1-5.4,9.5
	c-1.4,3.5-2.7,7-4.2,10.4c-3.2,7.2-8.1,13.4-11.3,20.5c-0.9,2,0.6,3.7,2.4,3.9c1.4,1.1,3.9,1.1,4.9-1c10-21.8,21.4-42.9,32.9-63.9
	c2.1-3.8,4.2-7.7,6.3-11.5c2.4-1.5,4.9-2.9,7.3-4.2c10.9-5.5,22.2-10.1,32.9-16c10.9-5.9,21.1-13.1,30.8-20.8
	c4.9-3.9,9.6-8,14.1-12.4c4.5-4.5,8.6-9.3,12.4-14.4c4.3-5.6,8.2-11.4,12.4-17.1c4.4-5.8,9.2-11.3,12.3-17.9c1-2-0.9-4.8-3.2-4.4
	c-1.3,0.3-2.5,0.6-3.6,1.4c-1,0.6-1.7,1.5-2.7,2.1c-2.1,1.2-4.3,2.2-6.6,3c-5.1,1.8-10.1,3.8-15,6.3c-9.9,4.9-19.3,10.8-28.7,16.7
	c-9.2,5.8-18.2,11.9-26.5,18.9c-2.6,2.2-5.1,4.5-7.5,6.8c11.2-20.1,23.1-39.9,35-59.7c0.2-0.1,0.4-0.3,0.5-0.5
	c6.8-8,13-16.6,20.8-23.7c7.8-7.1,16.5-13.4,25.4-19.1c4.3-2.7,8.6-5.4,13-7.9c0.6,1.2,1.8,1.8,3.2,1.8c4.9-0.1,9.8-0.8,14.7-1.2
	c2.3-0.2,4.7-0.3,7-0.2c2.6,0.2,5.2,0.6,7.8,1c10.5,1.4,21,2.1,31.6,2.4c3,0.1,6,0.1,8.9-0.3c0.2,0,0.3,0,0.5-0.1
	c-0.1,1.5,0.2,3,0.8,4.4c0,2.7,0.6,5.3,1.6,7.4c1.6,3.2,4.4,5.5,8.2,5.2c3.6-0.3,6.9-2.7,10-4.5c3.6-2.1,7.2-5.2,8.6-9.3
	c1.1-3.3,0.7-7-1.6-9.8c-4.8-5.7-13.2-5.5-19.6-2.9c-1.7,0.7-3.4,1.7-4.7,2.9c-1.2,0-2.3,0.1-3.5,0.3c-2.5,0.3-5,0.5-7.5,0.5
	c-5-0.1-10.1-0.5-15.1-0.7c-5.4-0.2-10.8-0.9-16.1-1.6c-5.2-0.7-10.3-1.4-15.5-1.1c-3.5,0.2-7,0.6-10.5,1
	c11.5-6.3,23.2-12.2,34.8-18.2c19.7-10.2,39.8-19.6,59-31c9.4-5.6,18.8-11.2,27.8-17.3c4.5-3.1,9-6.1,13.7-8.9
	c4.6-2.7,9.3-5.3,13.8-8.2c0.6-0.4,1.2-0.8,1.8-1.2c1.7,1.3,3.5,2.1,5.9,2.7c3.5,0.8,6.8,1.7,10.1,3.1c3.2,1.4,6.2,3.3,9.6,4.3
	c2.6,0.8,5.2,1,7.9,0.9c2.5-0.1,5.4-0.7,6.7-3c1.4-2.4,0.5-5.3-1.1-7.3c-3.4-4.4-8.7-6.6-14-7.9c-4.5-1.1-9.1-1.4-13.7-1.6
	c3-2.9,5.8-6.1,8.1-9.6c2.9-4.3,5.9-8.7,7.9-13.5c1.5-3.8,2.8-8.6,2.2-12.7c-0.3-2.3-1.4-4.2-3-5.8c-1-1-2.8-0.8-3.8-0.1
	c-7.4,4.9-11.5,13.8-15,21.6c-2.1,4.6-3.7,9.4-6,13.8c-1.3,2.6-3.4,5.3-3.2,8.4c0,0.1,0,0.2,0,0.3c-0.9,0.7-1.9,1.3-2.8,1.9
	c-4.3,2.8-8.8,5.3-13.2,7.9c-4.6,2.7-9.1,5.6-13.5,8.6c-8.9,6.1-18.1,11.7-27.3,17.2c-6.3,3.8-12.6,7.4-19,10.9
	c7.8-6.9,15-14.3,20.6-23.1c5-7.9,9-16.3,11.8-25.2c2.9-8.9,4.5-18.2,6-27.5c0.6-3.8,1-7.7,1.9-11.5c0.7-2.9,1.7-6.4,0.1-9.2
	c-0.9-1.7-3.9-1.7-5-0.1c-4.5,7-9.3,14-14.1,20.8c-4.8,6.8-10.2,13.2-15.1,20c-4.8,6.7-9.3,13.7-13.4,20.8
	c-4.1,7.1-8.2,14.3-11.5,21.8c-1.9,4.3-3.5,8.8-4.6,13.3c-1,4.2-2,8.1-3.7,12c-0.3,0.6-0.3,1.2-0.2,1.8c-3.6,1.8-7.1,3.7-10.7,5.5
	c-18.8,9.8-37.9,19.2-55.9,30.6c-8.8,5.6-17.3,11.7-25.2,18.4c-1.6,1.3-3.1,2.7-4.5,4.1c0-0.1-0.1-0.2-0.1-0.2
	c-0.1-0.2-0.2-0.4-0.3-0.7c7.3-11.9,14.6-23.7,22.2-35.4c9.5-14.7,19.4-29.2,29.1-43.7c3.7-3.9,6.4-8.7,8.9-13.4
	c0.5-0.8,1-1.6,1.6-2.4c2.6-3.9,5-7.9,7.3-12c0.4-0.2,0.8-0.5,1.2-0.9c0.4-0.5,0.6-1.1,0.6-1.7c7.8-10,17.3-18.6,25.7-28.1
	c5.9-6.7,11.9-13.4,18-19.9c5.2-4.2,10.7-7.7,16.4-11.2c6.3-3.9,12.6-7.7,19.3-10.8c6.9-3.3,14-6,21.1-8.7c3.9-1.5,7.8-2.9,11.8-3.9
	c1.3-0.3,2.6-0.7,3.9-1.2c0.3,1.7,1.4,3.2,2.8,4.3c3.9,2.9,9.1,1.6,13.3,0c3.7-1.5,7.4-4.2,8.7-8.1c1.5-4.6-0.6-9.9-5.3-11.5
	c-3.2-1.1-6.6-0.8-9.5,0.7c-0.1,0-0.3,0-0.4,0c-3.3-0.4-6.6,1.2-8.3,4.3c-0.2,0.4-0.4,0.8-0.6,1.1c-0.4,0.7-0.8,1.4-1,2.2
	c-1.1,0.7-1.9,1.3-3.3,1.7c-3.5,1.1-7,2-10.5,3.3c-7.5,2.7-14.9,5.6-22.1,8.9c-5.8,2.7-11.5,5.8-17,9.1c5.4-5.4,10.9-10.9,16.2-16.5
	c8.9-9.3,17.7-18.5,27.3-27c9.7-8.6,19.4-17.1,28.8-26c9.5-8.9,18.8-18,28.6-26.6c4.5-4,9.3-7.8,14.3-11c2.7-1.7,5.5-3.4,8.2-5.2
	c9.2,1.9,18.8,1.4,27.9-0.7c4.8-1.1,9.5-2.6,14-4.5c3-1.3,6.1-2.5,9-4.2c3.2-1.8,6.4-4.7,6.3-8.7c-0.1-3.8-3.2-6-6.6-6.7
	c-3.1-0.6-6.5-0.2-9.7,0.2c-4,0.5-8,0.8-11.9,1.6c-3.9,0.8-7.8,1.9-11.3,3.7c3.6-5.1,6.8-10.4,9.7-15.9c2.7-5.3,5.4-10.6,6.9-16.4
	c1.1-4,2-9.1,1.1-13.1c-0.5-2.4-1.8-4.1-3.9-5.3c-0.9-0.5-2.3-0.3-3.1,0.3c-5,3.7-8.6,8.7-11.4,14.2c-3,5.8-5.5,11.9-7.9,17.9
	c-2.5,6.3-4.9,12.7-6.3,19.4c-0.3,1.5-0.6,3-0.8,4.5c-0.2,1.4-0.5,3.2-0.8,4.2c-0.1,0.4-0.2,0.7-0.3,1.1c-3.6,3.3-8,5.7-12.2,8.3
	c-5,3.2-9.7,6.8-14.1,10.7c-9.5,8.3-18.5,17.2-27.7,25.9c-5.9,5.6-12,11.1-18.1,16.6c6.6-8.5,13-17.2,18.6-26.5
	c8.9-14.9,15.5-31.3,15.9-48.9c0.1-4.8,0-9.6-0.7-14.3c-0.4-3-1-6-1.5-9c0.4-2.3,0.3-4.8-1.2-6.5c-1.7-2-5-0.9-4.8,1.9
	c0.1,1.6,0.3,3.2,0.6,4.8c-0.2,0.9-0.4,1.7-0.7,2.6c-1.1,3.1-2.3,6.3-3.6,9.3c-3.7,8.8-8.4,17.3-13.8,25.1
	c-5.5,7.9-11.9,15.3-16.5,23.8c-4.4,8.3-8.2,17.1-9.6,26.5c-0.7,5.1-1.1,10.2-1.8,15.3c-0.4,2.6-0.9,5.1-1.4,7.7
	c-0.5,2.6-0.3,5.3-0.8,7.8c-5.5,5.3-10.8,10.6-16,16.2c-13.1,13.9-26.7,27.2-39.6,41.2c-5.3,4.7-10.2,10-14.9,15.3
	c-0.6,0.7-0.7,1.4-0.6,2.1c-3.1,3.6-6.2,7.2-9.3,10.7c-2.1,2.3-4.2,4.5-6.4,6.8c4.3-10.8,8.1-21.8,12.4-32.7
	c4.5-11.3,8.1-22.7,11.8-34.3c3.5-11.1,7.2-22.3,10.2-33.6c0.9-3.6,1.7-7.1,2.5-10.7c0.1-0.3,0.2-0.7,0.3-1
	c2.9-8.6,6.5-16.7,10.9-24.6c4.2-7.6,9-14.9,13.9-22.1c4.8-7.2,9.7-14.3,15-21.1c2.9-3.7,6-7.3,9.4-10.7c1.6-1.6,3.2-3.1,4.7-4.7
	c0.7,0.3,1.4,0.6,2.3,0.8c1.7,0.3,3.6,0.4,5.5,0.2c3.2,0.2,6.4-1.1,8.8-3.2c5.2-4.4,9.1-12.8,5.2-19.2c-4.5-7.6-16.9-3.7-22.2,0.9
	c-3.4,2.9-5.1,6.9-5,11.3c0,1.7,0.4,3.3,1.1,4.8c-0.6,0.7-1.3,1.4-1.9,2c-3.2,3.2-6.3,6.4-9.2,9.9c-5.8,6.9-10.8,14.3-15.8,21.8
	c-4.6,6.8-9,13.6-13.1,20.7c2-6.7,3.7-13.6,5-20.5c4.4-22.5,6.7-45.3,11.4-67.8c2.4-11.6,5.2-23,8-34.5c2.7-11.4,4.4-23.2,8.4-34.3
	c1.1-3,2.3-6,3.6-9c1.6,0.8,3.2,1.5,5,1.9c2.6,0.6,5.3,0.9,8,0.9c5.4,0,10.8-1.1,15.8-3.1c9.4-3.6,17.7-10.1,24.1-17.7
	c3.1-3.7,6.3-8.2,6.7-13.2c0.5-5.2-2-9.7-7.3-10.8c-4.3-0.9-9,0.5-13.1,1.8c-5.1,1.7-10,3.9-14.8,6.5c-2.7,1.5-5.2,3.1-7.7,4.9
	c2.6-4.2,5.2-8.4,7.7-12.7c3.1-5.3,6-10.8,8.2-16.6c2-5.6,3.8-11.7,3.9-17.6c0-2.7-0.3-6.2-2-8.4c-2-2.6-4.9-2.5-7.6-2
	c-4.3,0.8-7.5,4.2-9.8,7.8c-2.3,3.6-4.1,7.5-5.9,11.4c-2.8,6-5.2,12.1-7.3,18.4c-2.3,7.2-4,14.5-5.6,21.8c-0.8,3.4-1.5,6.9-2.4,10.3
	c-0.9,3.1-1.9,6.2-2,9.5c0,0.5,0,1,0.2,1.5c-0.2,1,0.1,2.1,0.9,2.8c-3.9,7.8-6.8,15.8-8.6,24.6c-2.5,11.6-5.3,23.2-8,34.8
	c-2.6,11.2-4.9,22.3-6.9,33.6c-0.3-3-0.6-5.9-1-8.9c-1.4-9.3-3.5-18.6-6.4-27.6c-2.7-8.6-6.2-16.9-10.9-24.5
	c-2.6-4.3-5.7-8.2-8.6-12.2c-3.1-4.4-6.3-8.7-10.3-12.3c-1.6-1.5-4.5-0.3-4.7,1.8c-1.6,14.7-0.2,29.6,2,44.2
	c2.1,13.6,6.1,27.1,12.6,39.2c3.5,6.7,7.3,13.3,10.9,19.9c1.4,2.5,3.5,4.9,4.2,7.8c0.7,2.9,0.7,6.2,0.8,9.2c0,3.2-0.2,6.3-0.3,9.5
	c-0.2,3.7-0.1,7.5-0.3,11.2c-0.2,3.8-0.6,7.6-0.9,11.3c-0.1,1.5-0.3,3.1-0.5,4.6c-2.8,9.4-6.4,18.5-8.6,28.2c-1.6,7-3.4,14-5.2,20.9
	c-0.6,1.4-1.1,2.9-1.2,4.3c-3.9,14.4-8.4,28.7-13.2,42.9c-1.8,5.3-3.8,10.6-5.9,15.8c1.8-8.5,2.7-17.2,2.9-26
	c0.3-11.4-0.5-22.7-2.1-34c-1.6-11.1-4.6-22-7.9-32.7c-1.8-6.1-4.1-11.9-7.4-17.3c-1.5-2.5-3.4-5.2-4.7-7.5
	c-1.1-1.9-2.2-4.5-4.5-5.5c-2-0.9-4.2,0.8-4,3c0.7,6.4,1.6,12.9,1.9,19.4c0.3,6.6-0.2,13.3-0.8,19.9c-1.2,12.6-3.7,24.9-6.5,37.3
	c-1.3,5.7-2.5,11.4-2.7,17.3c-0.2,6.3,1,12.2,2.5,18.3c1.6,6.2,3.6,12.3,5.4,18.4c0.8,2.9,1.5,5.9,2.5,8.7c0.9,2.6,2,5.2,3,7.8
	c1.1,2.7,2.1,5.5,2.6,8.4c0.1,0.8,0.2,1.6,0.3,2.4c0,0.3,0,0.6,0,0.9c0,0,0,0.1,0,0.1c-0.1,0.8-0.2,1.6-0.4,2.5
	c-0.3,1.9-1.1,4.6-1.1,7.2c-0.2,0.2-0.3,0.5-0.3,0.8c-0.3,1.5-0.7,3-1.2,4.5c-5.2,8.7-11,17.1-16.7,25.5
	c-6.7,9.9-13.3,19.9-19.9,29.8c-8.6,13.1-17,26.3-25.3,39.6c0.5-1.4,1-2.9,1.5-4.4c2-6.5,3.2-13.2,4.1-20
	c1.8-12.7,3.3-25.5,3.3-38.3c0-12.5-1.9-25.4-6.1-37.2c-2.1-5.9-5-11.5-8.2-16.9c-3.2-5.2-6.8-10.3-10.9-14.7
	c-4.8-5.2-10.2-9.7-15.7-14.1c-2.5-2-5.1-3.9-7.6-5.9c-2.6-2.1-5.3-4.1-8.6-4.9c-2.4-0.6-4.1,2.2-3.4,4.2
	C88.7,380.4,92,385.5,95.1,390.5z M36.5,695.9c-0.5-0.9-0.9-1.8-1.4-2.7c-1.5-2.8-2.7-5.6-3.6-8.6c-1.7-5.6-2.2-11.4-2.6-17.2
	c-0.4-7.2-0.8-14.5-1.1-21.7c-0.7-14.3-1-28.5-1.4-42.8c-0.1-4-0.3-8-0.4-12.1c-0.2-3.6-0.2-7.2-0.6-10.8c-0.3-2.8-1-5.6-1.4-8.4
	c-0.1-0.4-0.1-0.9-0.2-1.4c0.7,1,1.3,2.1,1.9,3.1c2.4,4,4.7,8,6.8,12.2c4.2,8.4,7.5,17.1,9.6,26.3c4.1,18.2,5.4,37.5,2.3,56
	c-0.6,3.8-1.5,7.4-2.4,11.1c-0.7-4.5-1.2-9.1-1.9-13.6c-1.5-9.9-3.2-19.8-4.5-29.8c-0.2-1.8-3-1.5-2.8,0.3
	c1.2,9.8,2.9,19.5,4.3,29.2c0.7,4.9,1.3,9.8,1.9,14.6c0.3,1.9,0.7,3.9,1.1,5.8c-0.8,2.9-1.7,5.8-2.8,8.6
	C37.1,694.7,36.8,695.3,36.5,695.9z M93,629.4c8-7.1,16.8-13.3,25.8-19c9-5.7,18-11.4,27.4-16.4c5.3-2.8,10.7-5.4,16.3-7.4
	c1.6-0.6,3.2-1.1,4.8-1.7c-1.4,1.9-2.9,3.7-4.3,5.6c-3.8,5-7.4,10.3-11.1,15.3c-3.8,5.1-7.7,10-12.1,14.6
	c-4.2,4.5-8.9,8.6-13.7,12.5c-9.5,7.8-19.6,15-30.2,21c-5.3,3-10.9,5.5-16.4,8.1c-5.4,2.5-10.8,5.1-16.1,7.7
	c-0.2,0.1-0.5,0.2-0.7,0.4c0,0,0,0,0,0c0.7-0.6,1.4-1.3,2.2-1.8c3-2.2,7-3.9,9.2-7c11.4-10.2,24.3-18.4,35.9-28.4
	c3.6-3.1,7.1-6.4,10.3-10c1.1-1.3-0.8-2.7-2-1.6c-12.2,11.9-26.3,21.2-39.5,31.9c-1.8,1.4-3.5,2.9-5.2,4.4c0,0-0.1,0-0.1,0
	c-2.1,0.7-3.9,1.9-5.6,3.1c1.2-2.2,2.4-4.5,3.6-6.7C77.8,645.2,84.8,636.8,93,629.4z M350.6,425.4c4.9,0.3,10,0.5,14.7,2
	c1.1,0.4,2.2,0.8,3.3,1.3c0.5,0.2,1,0.5,1.5,0.8c0,0,0,0,0.1,0c0.1,0.1,0.2,0.1,0.3,0.2c0.5,0.4,1,0.8,1.5,1.2
	c0.3,0.3,0.6,0.5,0.9,0.8c0,0,0.1,0.1,0.1,0.1c0.1,0.1,0.3,0.4,0.4,0.4c0.1,0.1,0.1,0.2,0.2,0.2c-0.2,0-0.5,0.1-0.7,0.1
	c-0.4,0-0.8,0-1.2,0.1c-0.1,0-0.2,0-0.3,0c0,0-0.5,0-0.6,0c-5.2-0.2-9.4-3.3-14.1-5.2c-2.1-0.8-4.4-1.6-6.6-2.2
	C350.3,425.4,350.5,425.4,350.6,425.4z M362.8,385c0,0.3,0,0.6,0,0.7c-0.1,1.9-0.5,3.7-1,5.5c-1.2,4.6-4.1,8.7-6.7,12.7
	c-2.1,3.3-4.5,6.4-7.2,9.2c1.7-3.6,3-7.3,4.6-10.9C355.2,396.3,358.1,389.6,362.8,385z M258.9,438.6c3.9-6.9,8.2-13.7,12.7-20.2
	c4.7-6.8,10-13.1,14.9-19.8c2.9-4,5.7-8.2,8.5-12.3c-0.2,1-0.3,2.1-0.5,3.1c-1.3,8.6-2.7,17.3-5.2,25.7c-2.6,8.6-6.2,16.8-10.8,24.5
	c-4.2,7-9.5,13.1-15.3,18.8c-2.8,2.8-5.8,5.4-8.8,8c4.1-5.4,8.4-10.7,12.5-16.2c3.3-4.3,6.4-8.8,9.3-13.4c1.4-2.3,2.9-4.6,4.4-6.9
	c1.1-1.7,2.1-3.5,3.2-5.2c1.5,0.1,2.4-2.2,0.8-2.7c-0.3-0.1-0.6-0.2-0.9-0.3c-0.5-0.2-1.1-0.2-1.5,0.2c-1.7,1.6-2.6,3.9-3.9,5.9
	c-1.4,2.3-2.9,4.5-4.3,6.8c-2.9,4.6-6,9-9.3,13.4c-6.6,8.8-13.7,17.3-19.9,26.4c0,0.1-0.1,0.1-0.1,0.2c-0.4,0.3-0.8,0.7-1.2,1
	c0.4-1.3,0.7-2.6,1-3.9c0.8-3.9,2-7.6,3.5-11.3C250.9,452.8,254.9,445.6,258.9,438.6z M410.8,239.8c3-2.7,6.2-4.5,10.1-5.7
	c3.9-1.2,8-1.8,12.1-2.2c2.6-0.3,5.2-0.6,7.7-0.8c1.4-0.1,2.6-0.1,3.9,0.1c0.7,0.1,0.6,0,1.2,0.3c0.3,0.1,0.3,0.2,0.3,0.1
	c0.1,0.4,0.2,0.2,0.1,0.7c0.1-0.5-0.1,0.1-0.2,0.4c0,0-0.1,0.1-0.2,0.2c-0.8,1-2.1,1.8-3.2,2.4c-2.4,1.3-5,2.3-7.6,3.4
	c-3.7,1.6-7.6,2.9-11.5,3.9c-5.9,1.5-11.9,2.2-17.9,2C407.4,243,409,241.4,410.8,239.8z M417.9,197.3c1.9-3.6,4.1-7,7-9.9
	c0,0.4,0,0.7,0,1.1c-0.1,1.9-0.4,3.8-0.7,5.7c-1,5.7-3.7,11-6.3,16.1c-2.8,5.5-5.8,10.9-9.4,15.9c-1.2,1.7-2.5,3.5-3.8,5.2
	c0.1-0.3,0.1-0.6,0.2-1c1.4-5.8,3.7-11.5,5.9-17.1C412.9,208,415.2,202.5,417.9,197.3z M312.5,295.2c0.6-4.4,1.3-8.9,2.9-13.1
	c1.7-4.6,3.8-9.2,6-13.6c4.4-8.7,10.8-16,16.3-24c5.6-8.2,10.3-17.2,14.1-26.4c0.3-0.8,0.7-1.7,1-2.6c0.3,2.9,0.5,5.9,0.5,8.8
	c0.1,7.9-1,15.9-3.3,23.5c-5.2,16.7-14.5,31.8-24.9,45.8c-3.2,4.4-6.6,8.7-10,13c1.3-3.8,2-7.8,3.1-11.7c2.5-8.7,6-17,9.6-25.3
	c0.8-1.9-2.1-3.1-2.9-1.3c-3.7,8.2-7.1,16.6-9.6,25.2c-1.2,4.1-1.9,8.4-3.4,12.4c-0.3,1-0.8,1.9-1.1,2.8
	C311.6,304.2,312,299.7,312.5,295.2z M322.4,200c-0.3,0.1-0.5,0.3-0.7,0.5c-0.1-0.2-0.3-0.4-0.5-0.6c-0.1-0.1-0.3-0.2-0.4-0.3
	C321.4,199.7,321.9,199.8,322.4,200z M321.6,77.6c4.3-2.9,8.9-5.3,13.7-7.3c3.5-1.4,7.2-2.7,10.6-3.3c0.9-0.1,1.8-0.2,2.7-0.3
	c0.1,0,0.4,0,0.4,0c0.2,0,0.4,0,0.6,0.1c0.2,0,0.4,0.1,0.6,0.1c0.1,0,0.2,0.1,0.3,0.1c0.2,0.1,0.6,0.3,0.6,0.3
	c0.2,0.2,0.5,0.4,0.4,0.3c0.4,0.4,0.5,0.8,0.6,1.7c0.1,0.9,0.1,1.2-0.1,2.2c-0.2,1-0.3,1.4-0.8,2.4c-0.9,2-1.9,3.5-3.2,5.3
	c-2.6,3.3-5.4,6-8.4,8.6c-3.5,3-7.3,5.6-11.5,7.5c-4.8,2.2-9.8,3.7-15.1,3.9c-2.3,0.1-4.6-0.1-6.9-0.5c0.2,0,0.3-0.1,0.5-0.1
	c3.4-1,6.7-2.2,10-3.6c5.7-2.4,11.2-5.6,17-7.9c0.8-0.3,1.7-0.6,2.5-0.9c1.9-0.8,0.8-3.6-1.2-3c-0.8,0.3-1.7,0.6-2.5,0.9
	c-3.6,1.2-7.3,1.9-10.8,3.2c-4.6,1.7-9.1,3.7-13.7,5.4c-1,0.4-1.2,1.5-0.7,2.3c-0.5,0.2-1,0.3-1.5,0.5c-1.3,0.4-2.7,0.7-4.1,0.9
	c0,0,0,0,0-0.1c0.1-0.3,0.2-0.5,0.2-0.8c0.2-0.2,0.3-0.4,0.5-0.6c0.7-1.2,1.4-2.4,2.2-3.6C310,86.3,315.5,81.6,321.6,77.6z
	 M306.9,62.8c2.8-10.6,7.1-20.7,12-30.5c0.4-0.8,0.8-1.5,1.2-2.3c0.6-1,0.7-1.4,1.3-2.2c0.5-0.7,1-1.5,1.6-2.2
	c0.3-0.3,0.6-0.7,0.9-1c0,0,0.1-0.1,0.2-0.2c0.2-0.1,0.3-0.3,0.5-0.4c0.3-0.3,0.6-0.5,1-0.7c0,0,0,0,0,0c0.1-0.1,0.3-0.1,0.4-0.2
	c0.1,0,0.7-0.2,0.8-0.2c0.4-0.1,0.9,0,1.3-0.1c0.2,0,0.3,0,0.4-0.1c0.1,0.3,0.2,0.6,0.2,0.6c0.3,1.1,0.5,2.3,0.5,3.4
	c0,2.5-0.5,5.1-1,7.5c-0.6,2.6-1.3,5.2-2.3,7.7c-2,5.4-4.6,10.4-7.4,15.3c-5.2,9.1-11,17.9-16.5,26.8c0.3-1.1,0.5-2.2,0.8-3.4
	C304.1,74.7,305.3,68.7,306.9,62.8z M252.5,196.8c-3.4-6.1-6.7-12.1-9.2-18.7c-2.4-6.3-4.3-12.9-5.7-19.6
	c-1.6-7.8-2.6-15.8-3.4-23.8c-0.5-6.1-0.8-12.3-0.5-18.4c1.5,1.8,2.9,3.8,4.3,5.7c2.6,3.6,5.3,7,7.7,10.7c4.8,7.1,8.3,15,11.1,23.1
	c5.7,16.9,9.2,35.2,8.7,53.2c-0.1,3.5-0.4,7-0.7,10.5c-0.7-2.3-1.1-4.6-1.7-6.9c-1.1-4.9-2.7-9.7-4.2-14.5
	c-3.1-9.8-6.7-19.4-9.6-29.2c-0.6-1.9-3.5-0.8-2.9,1.1c2.9,9.6,6.3,19.1,9.4,28.7c1,3.1,2,6.3,2.9,9.4c-0.2-0.3-0.4-0.7-0.6-1
	C256.3,203.6,254.4,200.2,252.5,196.8z M207.3,405.6c-1.9-5.3-4.2-10.3-5.6-15.7c-1.6-6.1-3.6-12.1-5.3-18.2
	c-1.6-5.6-3.1-11.5-3.2-17.4c-0.1-5.5,1-11.1,2.2-16.4c1.2-5.6,2.6-11.2,3.7-16.8c1.2-6.5,2.2-13,2.9-19.6
	c0.8-7.5,1.4-15.1,1.2-22.6c-0.1-3.3-0.5-6.5-0.9-9.8c0.4,0.6,0.7,1.1,1.1,1.7c2.8,4.5,4.8,9.3,6.5,14.3c3.3,10.3,6.3,20.8,8,31.5
	c3.5,21.2,4.2,43.3-0.8,64.3c-1.6,6.8-3.7,13.5-6,20.1c-1-3.8-1.5-7.7-1.9-11.6c-1.1-10.8-0.9-21.7-1.2-32.5
	c-0.2-6.4-0.4-12.7-0.7-19.1c-0.1-2-3.2-1.7-3.1,0.4c0.4,10.9,0.7,21.9,1,32.9c0.2,10.2,0.2,20.7,2.8,30.6c0.4,1.5,0.9,3,1.4,4.4
	c-0.3,0.9-0.6,1.8-1,2.7C208.1,407.7,207.7,406.6,207.3,405.6z M136.8,542.2c-0.2,0.2-0.5,0.5-0.7,0.7c0.2-0.3,0.3-0.5,0.5-0.8
	C136.6,542.1,136.7,542.2,136.8,542.2z M101.6,385.5c4.7,3.7,9.3,7.5,13.6,11.7c8.2,8.2,14.8,18.5,19.2,29.3
	c4.4,10.9,6.3,22.9,6.8,34.6c0.5,12.2-0.9,24.3-2.3,36.3c-0.8,6.7-1.6,13.5-3.3,20c-0.3-3.6-0.5-7.3-0.6-11
	c-0.2-12.8,0.7-25.5,1.5-38.3c0.5-7.2,1-14.4,1.3-21.6c0.1-1.6-2.5-2-2.5-0.4c-0.6,13.1-1.9,26.1-2.6,39.1
	c-0.7,12.8-1.4,26.1,0.6,38.9c0,0.3,0.1,0.5,0.1,0.8c-0.7,2.1-1.5,4.1-2.2,6.2c0-0.2,0-0.4,0-0.5c0.2-3.3,0-6.6-0.5-9.9
	c-0.5-3.1-1.4-6-2.1-9.1c-0.7-2.9-1-5.8-1.2-8.7c-0.4-5.9-0.3-11.8-0.7-17.7c-0.8-13.2-1.4-26.5-3.6-39.6
	c-2.1-12.8-6.2-25.2-11.5-37.1c-2.8-6.4-5.9-12.7-9.5-18.6c-1.6-2.5-3.2-5-4.7-7.6C98.7,383.4,100.2,384.4,101.6,385.5z"/>
</svg>
