<?xml version="1.0" encoding="utf-8"?>
<!-- Generator: Adobe Illustrator 21.0.0, SVG Export Plug-In . SVG Version: 6.00 Build 0)  -->
<svg version="1.1" id="Layer_1" xmlns="http://www.w3.org/2000/svg" xmlns:xlink="http://www.w3.org/1999/xlink" x="0px" y="0px"
	 viewBox="0 0 411 576" style="enable-background:new 0 0 411 576;" xml:space="preserve">
<style type="text/css">
	.st0{fill:#5191C3;}
</style>
<path class="st0" d="M373.5,365.3c-17.7,11.1-27.5,27.6-36.5,46.1c-11.1,22.7-13.1,45.9-21,69c-0.3,0.3-0.6,0.5-1,0.8
	c-1.3,1.1-1.2,2.5-0.5,3.5c0,0.1-0.1,0.2-0.1,0.4c-3.7,4.3-7.4,8.4-11.1,12.3c-5.5-19.3-12.2-38.4-19.6-57.3
	c6.3-10.5,11-22.4,14.5-34.9c0.1-0.1,0.3-0.1,0.4-0.2c37.4-43.7,47.5-112.1,22.3-163.7c-0.7-1.4-2.7-2.3-4.1-1.4
	c-21.5,13.9-26.9,43.5-31.7,66.8c-7.5,35.9-1.2,70.5,1.4,106.6c-1.9,6.4-3.9,12.8-5.8,19.3c-13.8-34.7-29.5-68.6-43.9-101.4
	c2.7-8.5,4.7-17.3,6.1-26.2c1,1,2.8,1.1,3.6-0.7c21.2-48.5,29.6-111.6,0.3-158.9c-1.2-1.9-4.1-2.6-5.5-0.4
	c-29.7,48.3-31.8,104-4.8,153.9c-1.1,8.1-2.2,16.1-3.3,24.2c-13.2-30.3-27.1-60.4-42.7-89.6c3.3-15,2.7-30.8,0.8-46.6
	c7.5-42.4,11.4-89.4-18.6-123.9c-1.2-1.4-3.4-1.2-4.5,0.3c-23.2,33-8,103.5,17.9,133.4c0.6,9.8,0.9,19.5,0.4,29.3
	c-10.8-19.5-22.4-38.6-35.3-56.7c-2.2-13.9-6.6-27.3-11.5-40.5c0.5-0.5,0.9-1.2,0.8-2.2c-2.9-23.4-7.5-42.6-16.9-64.1
	c-6.5-15-12.4-32.3-26.6-41.9c-1.5-1-3.7-0.3-4.3,1.4c-12.2,37.2,13.9,84.3,43.2,107.1c0,0,0.1,0,0.1,0c2.1,5.7,4,11.5,5.3,17.1
	c0.9,4,1.3,7.9,1.8,11.9c-6.5-8.7-13.4-17.2-20.6-25.4c-2.7-18-18.6-37.3-30.6-49.3C77.5,68.8,58.3,61.5,38.6,69.3
	c-1.3,0.5-1.7,2.2-1.2,3.3c15.8,32.3,46,51.1,79.9,60.7c0.7,1.3,1.5,2.6,2.3,3.8c0.6,1,2.2,1.3,3.1,0.6c7.8,9.6,15.3,19.5,22.4,29.6
	c0.5,1.8,1.1,3.5,1.9,5.3c0.6,1.2,1.6,1.5,2.6,1.3c1.4,2.1,2.8,4.2,4.2,6.4c-3.9-2.4-8.1-4.4-11.8-6.2c-1.7-0.9-3.5-1.7-5.2-2.6
	c0.6-0.8,0.8-2,0.2-2.9c-13.4-19.9-32.7-28.8-54.6-36.1c-8.9-3-39-15.2-46.5-3.9c-9,13.5,25.6,27.6,32.4,32.8
	c20.3,15.5,49.1,37.7,74.3,19.9c0.5-0.3,0.5-0.8,0.4-1.3c2.2,1.2,4.5,2.4,6.6,3.7c4.2,2.5,7.8,5.8,11.8,8.4
	c13.7,21.8,26,44.5,37.3,67.7c-6.3-4.1-14.3-6.4-20.7-8.4c-2.1-0.6-4.2-1-6.4-1.5c0.8-0.9,0.8-2.6-0.3-3.5
	c-24.2-20.8-69.6-36.4-99.9-22.2c-1.6,0.7-1.9,2.5-1.4,4c12.4,32.1,85.3,59.1,109.7,27.9c3.5,1.3,6.9,2.7,10.1,4.6
	c5.5,3.2,9.6,8,14.8,11.5c6.8,14.5,13.4,29.2,19.6,44.1c2.6,6.1,5.1,12.1,7.6,18.2c0,0.1,0,0.2,0,0.4c-0.1,0.9,0.3,1.5,1,1.8
	c2.2,5.3,4.5,10.7,6.7,16c-3.9-2.5-8.4-4.3-13.3-5.8c0-0.3,0-0.6-0.1-0.9c-10-18.9-41.5-26.9-60.3-31.2c-22-5.1-47.6-6-67.8,5.3
	c-1.5,0.9-1.8,2.6-0.8,4c13.8,18.3,39.6,26.4,60.2,34.3c23.7,9.1,48.4,12.6,69.7-3.6c6.6,3.7,12.2,8.3,18.5,12.7
	c12.6,30.4,24.7,60.8,35.8,91.7c-3.9-3.5-8.2-6.6-12.8-9.3c-12.2-17.5-33.9-32-51.4-41.7c-21.2-11.8-45.6-16-67.5-4.2
	c-1.3,0.7-2.2,2.5-1.4,4c22.5,38.5,81,73.5,125.6,51.8c4.8,4.1,9,8.7,12.6,13.8c10.4,30.2,19.7,60.8,27.1,92.1
	c0.5,2.4,3.9,1.7,3.6-0.7c-2.2-20.7-6.5-41.4-12.2-62c5.8-5.8,11.7-12.4,17.2-19.4c18.9-12.4,38.5-23.3,47.6-45.4
	c9.3-22.7,9.8-46.1,8.3-70.4C377.9,365.6,375.1,364.2,373.5,365.3z M285.9,342.7c-0.5-23.2,6.7-47.6,14.2-69.4
	c6-17.4,16.3-33.1,24.4-6.5c5,16.1,4.7,33.4,3.3,50c-2.3,27.4-13.8,51.4-26.5,75c5.2-24.3,7-50,8.5-72c0.1-2-3-2.2-3.1-0.2
	c-1.8,28.9-8.9,55.4-16.8,82C289.4,381.9,286.4,362.4,285.9,342.7z M238.3,162.5c12.9-25.8,20.4,48.1,20.8,57.5
	c1.3,26.8-8.5,50.1-14.8,75.2c2.7-22.9,2.5-46.5,3.6-68.7c0.1-2.2-3.3-2.5-3.4-0.3c-1.5,21.5-4,42.7-6.7,63.8
	C222.4,246.4,216.1,207.2,238.3,162.5z M163.4,96.8c0.3-9.6,2.5-18.8,7.1-27.2c0.9-1.7,17,33.7,18,38.5c4.1,18.9,1.8,38.3-0.4,57.4
	c-2.3-13.4-4.9-26.7-6.1-39.4c-0.2-1.8-2.9-1.3-2.8,0.5c1.6,20.5,4.7,41,6.4,61.5C170.9,160.1,162.6,128.7,163.4,96.8z M94.1,40.3
	c-0.5-17.4,10.4-3.2,14.1,3.9c3.6,6.8,6.5,14.1,9.5,21.1c5.5,12.8,9.1,24.9,12.3,37.5c-2.6-6.6-5.9-13.2-10-17.1c0,0,0,0,0,0
	c-0.1-0.1-0.3-0.2-0.5-0.2c-0.1,0-0.2,0.1-0.3,0.1c-0.1,0-0.2,0.1-0.3,0.1c-0.1,0.2-0.2,0.4-0.2,0.6c0,0,0,0,0,0
	c0.7,7.8,7.5,17.9,10.4,24.8c1.1,2.7,2.3,5.5,3.4,8.3C112.8,97.3,94.9,70.7,94.1,40.3z M72.3,107.1c-10.2-6.7-18-15.7-24.7-25.8
	c-8.2-12.6,8.4-11.2,16.2-9.4c23.9,5.4,35,26.1,45.2,46.1c-1.7-1.7-3.3-3.5-5.1-5.2c0,0,0,0,0-0.1c-0.5-1-1-1.9-1.5-2.8
	c-0.1-0.2-0.5-0.1-0.4,0.2c0.3,0.6,0.5,1.1,0.8,1.7c-2.2-2.1-4.3-4.3-6.5-6.4c-0.9-0.9-2.5,0.4-1.5,1.4c6.7,6.9,13.1,14,19.3,21.2
	c0.1,0.2,0.2,0.4,0.3,0.6C100.5,121.3,85.7,115.9,72.3,107.1z M70.8,157.3c-5.8-4.5-12.3-8.1-18.5-12.1c-8.4-5.3-17.7-16.5-1.7-15.2
	c13.7,1.1,27.7,6.6,40.5,11.4c7.8,2.9,15.4,6.1,22.3,10.7c6.7,4.4,11.6,10.9,17.3,16.4c-9.4-4.6-18.8-9.2-28.2-14
	c-0.9-0.4-2.1,0.6-1.2,1.4c8.4,7.9,18.9,12.6,29.2,17.6c3.5,1.7,6.9,3.4,10.2,5.2C114.3,191,91.1,173.1,70.8,157.3z M88.4,242.1
	c-2.8-2.1-14.6-12.6-10.6-14.5c11.3-5.2,25.1-3.4,36.7-0.8c17.9,4,32.6,14.5,49.1,21.3c-11-1.9-22.2-2.7-33.2-4.4
	c-1.6-0.2-1.7,2.1-0.2,2.4c13.5,2.4,27.1,4,40.5,7.1c1.8,0.4,3.6,1.1,5.4,1.6C152.3,274.5,109.7,257.9,88.4,242.1z M150.1,349.9
	c-9.8-3.8-19.3-8.1-28.6-13c-2.4-1.3-20.4-12.9-17.2-14.3c19.7-8.8,44.6-5.1,64.8-0.3c17.3,4.1,30.4,13.1,44.9,21.4
	c-12.6-2.3-25.6-3.1-34.1-4.1c-1.9-0.2-2.1,2.7-0.2,2.9c12.3,1.7,24.5,3.6,36.4,7.2c2.6,0.8,4.9,1.7,7.2,2.8
	C199.3,367.6,174.3,359.4,150.1,349.9z M199.2,447.4c-11.3-5.7-21.4-13.7-30.5-22.4c-3.8-3.7-7-7.9-10.2-12.1
	c-6.8-8.9,3.3-8.6,9.5-9.9c32.6-7.3,58.4,16.4,81.5,37.9c-7.8-2.8-15.7-5-23.4-6.9c-1.6-0.4-2.5,1.9-0.8,2.5
	c12,4.2,23.9,8.6,35.2,14.4c2.6,2.3,5.1,4.5,7.7,6.5C243.9,461.9,222,458.9,199.2,447.4z M372,399.8c-0.7,14.4-4.6,28.2-11.1,41
	c-6.5,12.9-17.6,20.3-28.8,27.8c6.3-10.6,10.8-21.8,11.7-33.3c0.2-2.1-3-2.3-3.2-0.2c-1.7,14.9-9.2,28.2-18.5,40.4
	c-0.1,0.1-0.2,0.1-0.3,0.2c4.2-13.1,6.2-26.8,10.3-40.1c6.2-19.9,19.8-43.2,34.6-57.8C373.2,371.5,372.1,398.8,372,399.8z"/>
</svg>
