<?xml version="1.0" encoding="utf-8"?>
<!-- Generator: Adobe Illustrator 21.0.0, SVG Export Plug-In . SVG Version: 6.00 Build 0)  -->
<svg version="1.1" id="Layer_1" xmlns="http://www.w3.org/2000/svg" xmlns:xlink="http://www.w3.org/1999/xlink" x="0px" y="0px"
	 viewBox="0 0 513.1 600" style="enable-background:new 0 0 513.1 600;" xml:space="preserve">
<style type="text/css">
	.st0{fill:#B9CFDD;}
</style>
<path class="st0" d="M332,191.2c-2.4-1.7-5.4-1.8-8.1-1.4c-3.6,0.6-7.1,2.1-10.4,3.8c-3.6,1.8-7,4-10.2,6.5
	c-6.8,5.2-13.2,11.2-18.9,17.6c-5.6,6.2-10.2,13.1-14.4,20.2c-2.1,3.5-4.1,7-5.8,10.7c-0.7,1.5-1.3,2.9-1.9,4.4
	c1.3-14.6,1.3-29.4,2-44c0.3-7.9,0.8-15.7,1.2-23.6c0-0.1,0.1-0.1,0.1-0.2c0.3-0.9,0.5-1.8,0.7-2.8c0.2-0.8,0.5-1.6,0.9-2.4
	c0.8-1.8,1.7-3.5,2.7-5.2c1.7-3,4.1-5.5,6.4-8.1c2.2-2.5,4.3-5.2,6.4-7.7c2.1-2.5,4.3-4.8,6.5-7c9-9,19.3-17,26.7-27.5
	c3.1-4.4,6.5-9.7,6.8-15.2c0.2-3.2-1.1-6.2-4.5-6.8c-1.4-0.3-2.9-0.1-4.3,0.3c-1.7,0.4-3.3,0.8-4.9,1.5c-6.8,2.7-12.7,7.5-18,12.6
	c-5.2,4.9-9.6,10.4-13.3,16.5c-3.7,6.1-6.7,12.6-9.1,19.3c-1.1,2.9-2.1,5.9-3,8.8c-0.2-4.4-0.5-8.8-1.1-13.3c-0.4-3.1-1-6.2-1.7-9.2
	c0.1-0.2,0.2-0.4,0.2-0.6c0-0.4,0-0.8,0-1.1c0-0.1,0-0.2,0-0.3c0-0.1,0-0.1,0-0.1l0-0.1c0,0,0,0,0,0c0-0.1,0-0.1,0-0.2
	c0-0.1,0-0.2,0-0.3c0-0.8,0.1-1.5,0.3-2.3c0-0.1,0-0.2,0-0.3c0,0,0-0.1,0-0.1c0.1-0.2,0.1-0.5,0.2-0.7c0,0,0.1-0.3,0.1-0.2
	c0-0.1,0.1-0.2,0.1-0.3c0.1-0.3,0.2-0.6,0-1c-0.1-0.3-0.3-0.5-0.5-0.6c1.2-3.6,1.5-7.7,1.6-11.4c0.1-3.1-0.1-6,0.4-9.1
	c0.5-3.2,1.1-6.4,1.7-9.6c2.6-12.7,2.5-25.7,4.5-38.4c1-6.3,2.1-12.5,2.2-18.9c0.1-5.2,0-13.6-5.9-15.9c-2.1-0.8-3.2,0.3-4.6,1.7
	c-2,1.8-3.8,3.9-5.5,6c-3.1,4-5.6,8.5-7.6,13.2c-4.3,9.7-7.7,20.4-7.7,31.2c0,12.2,4,24.2,8.1,35.6c2.2,5.9,4.5,11.8,6.3,17.8
	c1.9,6.2,3,12.5,3.7,18.9c0.5,4.8,0.8,9.5,1,14.3c-1.5-3.8-3.5-7.4-5.6-10.8c-5-7.9-11.8-15.1-20.4-19.1c-4.4-2-9.2-2.8-13.9-1.4
	c-3.7,1.1-8.2,3.5-8,8c0.1,2.4,1.7,4.3,3.2,6c1.7,1.9,3.5,3.8,5.4,5.6c3.7,3.6,7.9,6.8,12.1,9.7c4.8,3.3,9.8,6.2,14.8,9.1
	c2.3,1.4,4.7,2.8,6.7,4.6c1.7,1.5,3.2,3.4,3.5,5.7c0,0.4,0.2,0.8,0.4,1.1c0.5,2,0.8,4,1.1,6c0.1,0.8,0.2,1.6,0.3,2.4
	c-0.7,12.3-1.2,24.6-1.6,37c-0.4,12.8-1.1,25.5-3.2,38.1c-0.4-2.8-0.8-5.5-1.4-8.2c-1.5-7-3.9-13.5-7.5-19.6
	c-3.3-5.7-7.4-10.9-11.7-15.9c-3.9-4.5-8.1-8.9-13.3-12.1c-4.6-2.8-10.7-4.6-15.9-2.5c-2.8,1.1-4.8,3.5-5.1,6.5
	c-0.3,3.1,1,5.9,2.6,8.4c1.6,2.5,3.5,4.7,5.4,6.9c2.4,2.8,4.8,5.6,7.2,8.4c4.9,5.5,9.8,11,14.5,16.7c2.3,2.8,4.5,5.7,6.7,8.6
	c1.1,1.5,2.2,3,3,4.6c0.8,1.5,1.4,3,2.1,4.6c1.4,3.3,3.1,6.5,4.4,9.8c1.3,3.4,1.8,7,2.2,10.6c0.1,0.8,0.3,1.6,0.3,2.5
	c-0.6,2.4-1.3,4.7-2,7.1c-7,24.1-16.6,47.2-27.9,69.6c-0.5,1-1,1.9-1.5,2.9c1.4-6.8,1.9-13.9,1.5-20.8c-0.4-7.8-1.8-15.5-4.1-23
	c-1.2-3.8-2.6-7.4-4.3-11c-1.4-3.1-2.7-6.2-5.2-8.7c-1.1-1.1-2.5-1.9-3.7-2.9c-1.3-1-2.7-1.7-4.3-2.1c-3.3-0.8-7,0-10,1.5
	c-1.6,0.8-3,1.8-4.1,3.2c-0.9,1.2-1.5,2.6-1.9,4.2c-0.3,1.7-0.1,3.3,0,4.9c0.1,2.1,0.4,4.1,0.7,6.2c0.6,4,1.6,7.9,3.1,11.6
	c1.4,3.6,3.3,7,5.1,10.4c1.8,3.3,3.7,6.5,5.2,9.9c1.5,3.5,2.7,7.2,3.4,11.1c0.7,4,0.9,8,1.2,12c0.3,3.8-0.1,7.6-0.8,11.3
	c-0.7,3.9-1.7,7.7-2.8,11.5c-0.5,1.9-1.1,3.7-1.6,5.6c-0.5,1.7-0.8,3.5-1.5,5.1c-0.3,0.7-0.8,1-1.2,1.6c-0.2,0.3-0.4,0.6-0.6,1
	c-0.1,0.1-0.1,0.3-0.2,0.5c0.1-0.1,0.3-0.1,0.6-0.2c-0.2,0-0.4,0.1-0.6,0.2c0,0.1,0,0.1,0,0.2c0,0.2-0.2,0,0-0.2
	c-0.8,0.5-1,1.5-0.6,2.3c-0.4,0.6-0.9,1.3-1.3,1.9c-3.6,5-6.5,10.6-9.5,16c-5.9,10.8-11.3,21.9-16.6,33
	c-5.3,11.2-10.3,22.6-14.5,34.2c-1.8,4.9-3.4,9.8-4.9,14.8c0.5-4.3,0.8-8.7,1-13c0.6-11.1-0.2-22.1-2-33.1
	c-1.8-10.9-4.4-21.6-7.5-32.2c-1.5-5-3.1-9.9-5.2-14.7c-1.9-4.3-3.9-8.6-6.8-12.2c-2.6-3.2-5.8-5.6-9.8-6.6
	c-4.3-1.1-8.8-0.2-12.2,2.5c-3.3,2.6-5.9,6.5-6.6,10.7c-0.4,2.6-0.6,5.3-0.5,7.9c0.1,2.7,0.5,5.3,0.9,8c1.7,10.8,4.4,21.3,8.2,31.5
	c1.9,5.1,3.9,10.1,6,15.2c2,5,4,10.1,6,15.1c4,10.1,8.4,20,13.2,29.7c1.1,2.2,2.1,4.5,2.6,7c0.5,2.7,0.8,5.4,0.9,8.1
	c0.1,2.6,0,5.3-0.1,7.9c-0.1,2.7-0.3,5.5,0.1,8.1c0.2,1.1,0.3,2,0.2,3.1c-0.2,1.3-0.5,2.5-0.4,3.8c0,0.2,0.1,0.4,0.1,0.6
	c-0.7,3.5-1.4,7.1-2,10.6c-1.1,6.2-2.2,12.4-3.1,18.6c-0.4,2.6,3.6,3.3,4,0.7c4.2-26.8,9.7-53.4,18-79.2c1.6-1.7,3.4-3.1,5-4.7
	c1.7-1.8,3.3-3.6,5.1-5.3c3.5-3.3,7.9-5.9,12-8.4c2.1-1.3,4.1-2.4,6.3-3.4c2.3-1.1,4.6-2,7-3c4.8-2.1,9.5-4.5,14.2-6.7
	c9.6-4.4,19.5-8.3,29.3-12.2c8.3-3.3,16.6-6.7,24.3-11.2c3.8-2.2,7.5-4.8,10.7-7.8c3-2.7,6.1-5.7,7.7-9.5c0.8-1.9,1.2-4,0.7-6.1
	c-0.6-2.2-2.3-3.7-4.2-4.8c-3.6-2-8-2.3-12.1-2.2c-9.7,0.4-19,3.4-28,6.9c-9.5,3.8-18.6,8.4-27.2,13.8c-8.4,5.3-16.3,11.3-23.6,18
	c-5.5,5-11,10.2-15.7,16c0.8-1.9,1.6-3.7,2.4-5.6c8-17.7,16.6-35.3,26.6-52.1c5.2-8.7,11.3-16.8,16.5-25.5c5-8.1,9.4-16.6,13.7-25.1
	c0.6-0.3,1.1-0.8,1-1.7c0,0.3,0.2-0.6,0-0.3c0.1-0.3,0.2-0.4,0.3-0.5c0.4-0.6,0.8-0.9,1.2-1.3c0.2-0.2,0.4-0.3,0.6-0.5
	c0.4,0.1,0.8,0.1,1.1-0.4c0.1-0.2,0.3-0.4,0.4-0.6c0.6-0.3,1.1-0.7,1.7-1c3.1-1.7,6.1-3.7,9.2-5.4c8.6-4.6,18.1-7.3,27.3-10.3
	c18.5-6.1,36.8-13,54-22.2c3.5-1.9,7-3.9,10-6.4c1.5-1.3,3-2.7,4.2-4.3c0.7-0.9,1.2-2,1.8-3c0.7-1.1,1.4-2.2,2-3.3
	c0.5-1.1,0.7-2.2,0.7-3.4c0-1.2-0.6-2.2-1-3.3c-0.7-1.7-1.7-3.1-3.4-3.9c-0.8-0.4-1.6-0.5-2.5-0.7c-1.3-0.3-2.5-0.7-3.7-0.8
	c-2.3-0.4-4.7-0.3-7-0.3c-4.9,0.1-9.7,1.1-14.4,2.4c-4.7,1.4-9.3,3.1-13.7,5.1c-8.8,3.9-17.3,8.7-25.5,13.8
	c-8,4.9-15.6,10.5-22.5,16.8c-3.5,3.2-6.7,6.7-9.7,10.3c11-24.7,19.8-50.3,25.4-76.8c0.4-1.4,0.8-2.7,1.1-4.1c0.5-1.8,1-3.5,1.8-5.2
	c0.8-1.8,2-3.3,3.4-4.8c2.8-3.1,5.4-6.4,8.4-9.4c2.9-2.9,6.3-5.3,9.6-7.7c7-5.2,14.2-10.3,20.9-16c3.4-2.8,6.8-5.4,10.4-7.9
	c3.3-2.2,6.6-4.3,9.8-6.7c6-4.5,11.7-10.1,11.8-18.1C335.5,196.5,334.7,193.1,332,191.2z M270.1,159.9c2.3-6.7,4.8-13.3,8.1-19.5
	c3.2-6,7-11.6,11.6-16.6c4.5-5,9.7-9.6,15.5-13.1c2.7-1.6,5.8-3,8.7-3.7c1.2-0.3,2.5-0.5,3.5-0.3c0.1,0,0.2,0.1,0.4,0.2
	c0,0,0,0,0.1,0.1c0,0,0,0.1,0.1,0.1c0,0.1,0.1,0.1,0.1,0.1c0,0,0,0.1,0.1,0.2c0,0,0,0.1,0.1,0.2c0,0.1,0.1,0.3,0.1,0.3
	c0.1,0.7,0.1,0.8,0,1.4c-0.1,0.6-0.2,1.3-0.4,1.9c-0.3,1-0.5,1.8-1,2.9c-1,2.4-2.5,4.8-3.9,7c-6.9,10.2-16.6,18-25.4,26.5
	c-2.2,2.2-4.4,4.4-6.5,6.7c-2.1,2.4-4,4.9-6,7.3c-1,1.2-2.1,2.4-3.2,3.6c1.5-2.8,3.1-5.5,4.8-8.2c3.7-5.9,8.1-11.2,13-16.1
	c2.8-2.7,5.6-5.4,8.4-8.1c0.7-0.7-0.5-2-1.2-1.3c-5.1,4.7-10.4,9.3-15,14.5c-4.5,5.3-8.2,11.3-11.6,17.4c-1.1,2-2.1,3.9-3.1,5.9
	C268.1,166.1,269.1,163,270.1,159.9z M248,91.4c-1.9-9.6-1.5-18.8,1.2-28.2c2.4-8.1,5.5-16.3,10.3-23.3c2.1-3,4.5-5.9,7.2-8.3
	c2.8,1.7,2.6,7.7,2.7,10.2c0,5-0.6,10-1.4,14.9c-1.1,6.8-1.9,13.6-2.5,20.5c-0.7,9.4-2.2,18.4-3.8,27.7c-0.4,2.4-0.9,4.7-1.1,7.1
	c-0.3,2.4,0,4.8-0.1,7.2c0,1.9-0.2,4.1-0.5,6.2c-1.2-6.2-2.3-12.4-2.9-18.7c-0.7-7.6-0.6-15.3-0.4-22.8c0.1-4.4,0.5-8.7,1-13
	c0.1-1.1-1.5-1.4-1.7-0.3c-1.2,7.6-1.6,15.3-1.5,22.9c0,7.8,0.6,15.6,1.8,23.3c0.2,1.1,0.4,2.1,0.5,3.2
	C253.4,110.5,249.9,101.2,248,91.4z M255.8,172.2c-4.1-2.8-8.6-5-12.8-7.6c-8.2-5-16-11-22.5-18.2c-1-1.1-2.9-2.8-2.7-4.3
	c0.2-1.1,1.6-2,2.8-2.5c0.7-0.3,1.5-0.6,2.3-0.9c0.1,0,0.8-0.2,0.8-0.2c0.5-0.1,1.1-0.2,1.6-0.2c2.1-0.2,4.2,0.1,6.2,0.8
	c8.2,2.9,14.7,9.4,19.5,16.4c2.8,4.1,5.2,8.5,7,13.2c0,0.1,0.1,0.2,0.1,0.3c-2.3-2.8-4.7-5.4-7.5-7.7c-4.8-3.9-10.1-7.1-15.5-10.1
	c-1.2-0.7-2.1,1.3-0.9,2c5.2,3,10.5,6,15.1,9.9c4,3.3,7,7.5,10.4,11.4c0.1,0.4,0.2,0.9,0.3,1.3C258.7,174.4,257.2,173.2,255.8,172.2
	z M137.4,547.5c0.1,0.1,0.3,0.1,0.5,0.1c-0.2,0.7-0.4,1.5-0.5,2.2C137.4,549,137.4,548.2,137.4,547.5z M142.1,501.9
	c0,6.4-0.4,12.8-1,19.2c-0.2-2.4-0.5-4.7-0.9-7c-2.1-12.7-6.2-24.9-10.8-36.9c-2.6-6.8-5.4-13.5-8.2-20.2c-0.5-1.3-2.5-0.5-2,0.8
	c4.7,11.6,9.6,23.1,13.5,35c1.9,6,3.6,12,4.8,18.2c1.2,6.1,1.9,12.3,2.2,18.5c0.1,1.4,0.1,2.7,0,4c0,0,0,0,0,0.1
	c-0.3,2.6-0.7,5.2-1.1,7.9c0,0.3,0,0.5,0,0.7c-0.2,1.3-0.6,2.5-1.2,3.6c0-2.5-0.3-5-0.7-7.4c-0.9-5.1-3.4-9.5-5.7-14.1
	c-2.3-4.8-4.5-9.6-6.6-14.5c-4.2-9.7-7.9-19.7-11.9-29.5c-4-9.7-7.7-19.6-10.1-29.8c-1.2-5.1-2.1-10.2-2.8-15.3
	c-0.4-2.4-0.5-4.9-0.3-7.4c0.1-2.2,0.4-4.4,1.3-6.4c1.5-3.3,4.3-6.1,7.9-7.1c3.4-0.9,7.2,0.4,9.9,2.5c2.8,2.3,4.9,5.6,6.5,8.8
	c2.3,4.6,4.2,9.3,5.9,14.2c3.3,9.9,5.9,20.2,7.9,30.5C140.8,480.5,142.1,491.2,142.1,501.9z M154.9,506.1c0.2-0.4,0.3-0.9,0.5-1.3
	c0.2-0.1,0.3-0.2,0.5-0.4C155.5,505,155.2,505.5,154.9,506.1z M164.2,492.1c3.1-3.8,6.6-7.3,10.2-10.7c7-6.7,14.3-13,22.3-18.4
	c8.1-5.5,16.6-10.4,25.5-14.3c8.7-3.9,18-7.5,27.5-9c3.8-0.6,7.8-1,11.7-0.5c1.8,0.3,3.6,0.7,5.2,1.7c0.7,0.4,1.3,0.9,1.6,1.6
	c0.2,0.5,0.3,1.2,0.3,1.6c-0.4,3.5-3.4,6.5-5.8,8.8c-3,2.9-6.4,5.4-9.9,7.7c-7.2,4.5-15.2,7.8-23.1,10.9
	c-9.3,3.7-18.6,7.4-27.8,11.4c-4.7,2-9.3,4.3-13.9,6.5c-4.4,2.1-9.1,3.7-13.4,6c-4.4,2.3-8.7,5-12.7,7.9c-2,1.4-3.7,3-5.4,4.6
	c1.2-2.2,2.5-4.3,4-6.4c2.7-3.6,6-6.4,9.6-9.1c3.8-2.8,7.7-5.5,11.4-8.4c3.5-2.7,7.1-5.2,11.2-6.9c5.1-2.3,10.6-3.3,15.6-5.7
	c1.1-0.5,0.5-2.2-0.7-1.7c-4.8,1.9-9.8,2.9-14.5,4.9c-4.1,1.7-8,4-11.5,6.7c-3.9,2.9-7.9,5.8-11.9,8.8c-3.6,2.7-7.2,5.6-10,9.1
	c-1,1.2-1.8,2.4-2.6,3.7C159,499.1,161.4,495.5,164.2,492.1z M208.8,394.4c-0.2,0.6-0.5,1.2-0.8,1.7c0,0.1-0.1,0.1-0.1,0.2
	c1.2-6.7,2.4-13.4,2.8-20.1c0.5-8.3-0.1-16.5-2.5-24.5c-0.6-2.1-1.4-4.3-2.3-6.3c-0.9-2-1.9-4.1-2.1-6.4c-0.1-1-1.7-1.1-1.8-0.1
	c-0.3,3.9,2,7.3,3.3,10.8c1.4,3.9,2.3,8,2.8,12.1c1.1,8.4,0.4,16.8-0.9,25.1c-0.7,4.7-1.6,9.3-2.4,13.9c0,0.2,0,0.5,0.1,0.6
	c-1.2,2-2.4,4-3.6,6c-0.1,0.1-0.2,0.3-0.3,0.4c0.3-0.9,0.5-1.8,0.8-2.7c2.2-7.4,3.7-15,3.1-22.7c-0.3-4-0.6-7.9-1.3-11.8
	c-0.7-3.8-1.8-7.5-3.4-11.1c-3-6.8-7.4-12.9-10.4-19.7c-1.6-3.5-2.7-7.2-3.4-11c-0.4-1.9-0.6-3.8-0.8-5.8c-0.2-1.6-0.5-3.2-0.3-4.8
	c0.2-1.3,0.7-2.5,1.6-3.6c1-1.2,2.6-2,4-2.5c2.8-1,6.2-1.3,8.7,0.4c0.6,0.4,1.1,1,1.7,1.4c0.6,0.4,1.3,0.8,1.8,1.3
	c1.1,0.9,2,2.1,2.8,3.3c0.8,1.4,1.4,3,2.1,4.5c0.8,1.8,1.6,3.6,2.3,5.4c2.7,7.1,4.6,14.5,5.4,22.1c0.8,7.4,0.8,15-0.3,22.3
	C214.4,380.4,211.8,387.4,208.8,394.4z M239.9,353.3c6.2-6.6,13.4-12.3,21-17.4c7.7-5.2,15.7-9.9,24-14c8.4-4.2,17.3-8,26.6-9.7
	c4.5-0.8,9.3-1.1,13.8-0.4c1.1,0.2,2.1,0.5,3.2,0.8c0.7,0.2,1.5,0.3,2,0.6c0.5,0.3,0.7,0.7,0.9,1.2c0.3,0.8,0.9,1.7,0.9,2.6
	c0,1-0.5,1.8-1,2.6c-0.6,1.1-1.3,2.1-1.9,3.2c-0.9,1.5-2.1,2.9-3.5,4.1c-2.9,2.6-6.3,4.6-9.7,6.4c-16.6,9-34.4,15.7-52.3,21.6
	c-9.2,3-18.5,5.6-27.2,10c-1.1,0.6-2.3,1.2-3.4,1.8c9.3-9.1,21.3-15.5,33-21c4.4-2.1,8.8-4.1,13.2-6.3c1-0.5,0.5-2.2-0.7-1.7
	c-8.2,3.5-16.2,7.2-24.1,11.4c-7.8,4.2-15.4,9-21.9,15.1c-2.3,2.2-4.5,4.5-6.4,6.9c-0.3,0.2-0.5,0.3-0.8,0.5
	C230,365.2,234.6,358.9,239.9,353.3z M252.6,276.6c0,1.8,0,3.5,0.2,5.3c0,0.4,0.2,0.7,0.3,0.9c-0.3,1.3-0.6,2.7-0.9,4
	c-0.4-1.8-0.9-3.6-1.5-5.3c-1-6-2.9-11.9-4.9-17.6c-1.4-4.1-2.9-8.3-4.8-12.2c-1.9-3.8-4.2-7.5-6.7-10.9c-2.8-3.9-5.9-7.7-9-11.4
	c-0.8-1-2.5,0.2-1.7,1.2c5.3,6.6,10.8,13.1,14.7,20.6c2,3.8,3.4,7.8,4.9,11.8c0.9,2.5,1.8,5,2.6,7.6c-1.4-3.2-3.3-6-5.4-8.8
	c-8.4-11.5-18.4-21.7-27.5-32.5c-1.9-2.2-3.8-4.4-5.4-6.8c-1.3-1.9-2.5-4.3-2-6.5c0.6-2.2,2.6-2.8,4.6-2.9c2.1-0.2,4.4,0.2,6.6,1.1
	c5.1,2,9.3,5.9,12.9,9.9c4.1,4.5,8.1,9.2,11.4,14.3c3.6,5.5,6.5,11.3,8.4,17.6c1,3.4,1.7,6.8,2.2,10.3
	C252.2,269.6,252.6,273.1,252.6,276.6z M322.4,213.3c-6.3,4.9-13.4,8.6-19.5,13.7c-6.4,5.4-13.1,10.4-19.8,15.4
	c-3.2,2.4-6.5,4.7-9.7,7.3c-2.5,2.1-4.8,4.5-7,6.9c1.8-2.8,3.8-5.5,5.9-8c4.7-5.8,10-11.1,15.3-16.4c3.1-3,6.1-5.9,9.1-8.9
	c0.7-0.7-0.5-2-1.2-1.3c-5.8,5.2-11.4,10.5-16.8,16.1c-4.6,4.8-9,9.9-12.8,15.4c1.2-2.9,2.6-5.8,4.1-8.6c3.8-6.9,8.1-13.6,12.9-19.7
	c5-6.3,10.7-12,16.8-17.2c5.9-5.1,12.2-9.8,19.5-12.6c0.9-0.3,1.7-0.6,2.6-0.9c0.6-0.2,1.3-0.4,1.8-0.5c0.6-0.1,1.2-0.2,1.8-0.3
	c0.3,0,0.6,0,0.9,0c0,0,0.2,0,0.3,0c0.1,0,0.3,0,0.4,0c0.3,0,0.6,0.1,0.9,0.1c0.3,0.1,0.5,0.1,0.5,0.1c0.2,0.1,0.5,0.2,0.7,0.3
	c0,0,0.1,0.1,0.2,0.1c0.1,0.1,0.2,0.2,0.3,0.2c0.4,0.3,0.6,0.5,0.8,1c0.2,0.3,0.5,1.1,0.5,1.5C332.4,204,327.5,209.4,322.4,213.3z"
	/>
</svg>
