<?xml version="1.0" encoding="utf-8"?>
<!-- Generator: Adobe Illustrator 21.0.0, SVG Export Plug-In . SVG Version: 6.00 Build 0)  -->
<svg version="1.1" id="Layer_1" xmlns="http://www.w3.org/2000/svg" xmlns:xlink="http://www.w3.org/1999/xlink" x="0px" y="0px"
	 viewBox="0 0 513.1 753" style="enable-background:new 0 0 513.1 753;" xml:space="preserve">
<style type="text/css">
	.st0{fill:#468CC0;}
</style>
<path class="st0" d="M241.4,189.1c-3.7,0.4-6.7,2.8-8.9,5.6c-2.9,3.7-5,8.1-6.7,12.4c-1.9,4.8-3.2,9.8-4.2,14.9
	c-2,10.8-3,21.9-3.1,32.8c0,10.6,1.4,21.2,3.5,31.6c1,5.1,2.1,10.1,3.6,15.1c0.6,2,1.3,3.9,2,5.8c-11.2-15.1-23.7-29.2-35.6-43.7
	c-6.4-7.8-12.6-15.7-19-23.5c0-0.1,0-0.2-0.1-0.2c-0.5-1.2-1.1-2.2-1.7-3.3c-0.6-1-0.9-2-1.2-3c-0.7-2.4-1.3-4.8-1.8-7.3
	c-0.9-4.3-0.8-8.8-0.8-13.1c0-4.3-0.3-8.6-0.4-12.9c-0.1-4.1,0-8.2,0.2-12.3c1-16.3,4-32.6,2-49c-0.8-6.8-2.1-14.7-6.5-20.3
	c-2.5-3.2-6.3-5-10.1-2.7c-1.6,1-2.8,2.4-3.9,3.9c-1.3,1.8-2.5,3.6-3.5,5.6c-4.2,8.4-5.7,18-6.4,27.3c-0.7,9.1-0.3,18.1,1.3,27.1
	c1.6,9,4.4,17.7,7.7,26.2c1.5,3.7,3,7.3,4.6,11c-4-4.1-8-8-12.4-11.7c-3-2.6-6.2-5-9.4-7.3c-0.1-0.3-0.2-0.5-0.4-0.7
	c-0.3-0.4-0.7-0.7-1-1.1c-0.1-0.1-0.1-0.2-0.2-0.3c-0.1-0.1-0.1-0.1-0.1-0.1l-0.1-0.1c0,0,0,0,0,0c0-0.1-0.1-0.1-0.1-0.2
	c-0.1-0.1-0.1-0.2-0.2-0.3c-0.6-0.8-1.2-1.6-1.7-2.4c-0.1-0.1-0.2-0.2-0.3-0.3c0,0,0-0.1-0.1-0.1c-0.1-0.3-0.3-0.6-0.4-0.9
	c0,0-0.1-0.3-0.1-0.2c-0.1-0.1-0.1-0.3-0.2-0.4c-0.2-0.4-0.4-0.7-0.8-1c-0.3-0.2-0.7-0.2-1-0.1c-1.9-4.5-5.1-8.7-8.1-12.2
	c-2.5-3-5.2-5.7-7.3-9c-2.3-3.5-4.4-7.1-6.5-10.7c-8.4-14.3-19.5-26.6-28.4-40.6c-4.4-6.9-8.7-13.7-14-20
	c-4.3-5.1-11.6-13-19.2-10.2c-2.7,1-2.7,3-3,5.6c-0.3,3.5-0.4,7-0.1,10.4c0.5,6.5,1.9,12.9,3.9,19.1c4.1,13,10,26.1,19.2,36.3
	c10.5,11.6,24.4,19.7,38.1,27c7.1,3.8,14.3,7.4,21.2,11.6c7.1,4.3,13.5,9.4,19.6,14.9c4.5,4.1,8.9,8.4,13.1,12.9
	c-4.7-2.3-9.6-4.1-14.6-5.5c-11.5-3.3-24.1-4.4-35.7-0.8c-5.9,1.8-11.1,5.2-14.5,10.5c-2.6,4.1-4.8,10.4-0.9,14.5
	c2.1,2.2,5.3,2.7,8.1,3c3.3,0.4,6.6,0.7,9.9,0.8c6.6,0.2,13.3-0.2,19.8-1c7.4-0.9,14.6-2.5,21.9-4c3.4-0.7,6.8-1.3,10.3-1.3
	c2.9,0,6,0.4,8.1,2.5c0.4,0.4,0.9,0.6,1.3,0.7c2.1,1.5,4.2,3.1,6.2,4.8c0.8,0.7,1.5,1.4,2.3,2c9.8,12.3,19.8,24.6,29.9,36.7
	c10.5,12.5,20.7,25.3,29.4,39.1c-2.7-2.3-5.5-4.5-8.3-6.6c-7.4-5.3-15.2-9.5-23.9-12.3c-8-2.6-16.3-4.1-24.7-5.2
	c-7.6-1-15.3-1.6-22.9-0.2c-6.7,1.2-14.1,4.8-17.3,11.1c-1.7,3.4-1.6,7.5,0.7,10.6c2.3,3.2,6,4.8,9.7,5.9c3.6,1,7.3,1.5,11,2
	c4.7,0.7,9.3,1.3,14,1.8c9.4,1.1,18.7,2.2,28,3.6c4.6,0.7,9.2,1.5,13.7,2.6c2.3,0.5,4.6,1,6.8,1.8c2,0.7,4,1.7,5.9,2.6
	c4.1,2,8.5,3.5,12.5,5.6c4.1,2.1,7.7,5.2,11.1,8.2c0.7,0.7,1.6,1.3,2.4,2.1c1.4,2.8,2.8,5.6,4.2,8.4c13.9,29,24.4,59.2,32.7,90.2
	c0.4,1.3,0.7,2.7,1.1,4c-4.5-7.7-10-14.8-16.3-21.1c-7-7.1-14.9-13.3-23.5-18.4c-4.3-2.6-8.8-4.9-13.4-6.9
	c-4.1-1.8-7.8-3.7-12.3-3.9c-2-0.1-4,0.3-6,0.4c-2.1,0.1-4.1,0.7-5.9,1.7c-3.8,2-6.7,6-8.3,9.9c-0.8,2.1-1.4,4.3-1.1,6.6
	c0.2,2,0.8,3.8,1.8,5.5c1.1,1.9,2.7,3.2,4.2,4.7c1.9,1.9,3.9,3.6,5.9,5.3c4,3.2,8.2,6.2,12.8,8.5c4.4,2.2,9.1,3.9,13.7,5.5
	c4.5,1.6,9.1,3.1,13.4,5.1c4.5,2.1,8.8,4.6,12.6,7.7c4,3.2,7.7,6.8,11.4,10.4c3.5,3.4,6.3,7.3,8.9,11.4c2.6,4.3,4.9,8.8,7.1,13.4
	c1.1,2.2,2.2,4.5,3.2,6.7c1,2,2.2,4,2.9,6.1c0.3,0.9,0.2,1.6,0.2,2.6c0,0.5,0.1,0.9,0.3,1.4c0.1,0.2,0.1,0.4,0.2,0.6
	c0-0.2,0.2-0.4,0.4-0.7c-0.2,0.2-0.3,0.5-0.4,0.7c0,0.1,0.1,0.1,0.1,0.2c0.2,0.1-0.2,0.2-0.2-0.1c-0.4,1.2,0.4,2.3,1.4,2.7
	c0.1,1,0.2,1.9,0.4,2.9c0.9,7.8,2.8,15.7,4.6,23.3c3.5,15.3,7.8,30.5,12.3,45.7c4.4,15.2,9.4,30.3,15.3,45
	c2.5,6.2,5.1,12.3,7.9,18.3c-3.3-4.5-6.6-9-10.1-13.3c-8.9-11.1-19-21-30-29.9c-10.9-8.9-22.6-16.9-34.5-24.3
	c-5.7-3.5-11.4-6.8-17.5-9.6c-5.4-2.5-11-4.9-16.9-5.9c-5.1-0.9-10.3-0.4-15,2c-5,2.5-8.6,7.2-9.6,12.8c-1,5.3-0.1,11.2,2.9,15.8
	c1.8,2.8,3.9,5.5,6.3,7.9c2.4,2.5,5.1,4.6,7.7,6.8c10.8,8.9,22.3,16.6,34.6,23.1c6.1,3.3,12.4,6.3,18.6,9.4
	c6.2,3.1,12.4,6.2,18.5,9.3c12.4,6.2,25.1,11.9,37.9,17.1c2.9,1.2,5.9,2.5,8.4,4.4c2.8,2.1,5.3,4.5,7.7,7c2.3,2.4,4.5,5,6.7,7.6
	c2.2,2.7,4.3,5.5,7,7.7c1.1,0.9,2.1,1.7,2.8,2.8c0.9,1.4,1.7,2.7,2.8,3.9c0.2,0.2,0.4,0.3,0.6,0.4c2.3,4,4.7,7.9,7.1,11.9
	c4.2,6.9,8.5,13.7,12.9,20.4c1.8,2.8,6.3,0.1,4.5-2.7c-18.8-29.1-36.2-59.3-50.2-90.9c0.1-2.9,0.6-5.8,0.7-8.7
	c0.1-3.1,0.1-6.3,0.3-9.4c0.5-6.2,2.5-12.3,4.3-18.2c0.9-2.9,1.8-5.8,3.1-8.6c1.3-3,2.7-5.9,4.1-8.8c2.8-6.1,5.2-12.3,7.9-18.5
	c5.4-12.4,11.5-24.5,17.5-36.6c5.1-10.2,10.2-20.5,13.7-31.4c1.7-5.4,3-10.9,3.6-16.5c0.5-5.1,0.9-10.6-0.8-15.6
	c-0.8-2.5-2.3-4.9-4.5-6.4c-2.4-1.6-5.3-1.6-8.1-0.9c-5.2,1.2-9.6,4.6-13.4,8.2c-8.9,8.6-15.3,19.4-20.8,30.4
	c-5.9,11.7-10.5,23.8-14.2,36.4c-3.6,12.2-5.9,24.6-7.2,37.3c-1,9.5-1.8,19-1.4,28.6c-0.8-2.5-1.6-4.9-2.4-7.4
	c-7.4-23.7-14.2-47.9-19-72.3c-2.5-12.7-3.6-25.7-5.9-38.4c-2.2-12-5.2-23.9-8.3-35.7c0.4-0.8,0.3-1.7-0.4-2.4
	c0.3,0.3-0.3-0.7-0.2-0.3c-0.2-0.4-0.2-0.6-0.2-0.8c-0.1-0.9,0-1.5,0.1-2.2c0.1-0.3,0.1-0.7,0.2-1c0.5-0.2,0.8-0.6,0.7-1.3
	c0-0.3-0.1-0.6-0.1-0.9c0.2-0.8,0.5-1.6,0.8-2.4c1.5-4.3,2.6-8.7,4.2-13c4.3-11.7,11-22.4,17.3-33.1c12.5-21.6,24.1-43.8,32.7-67.2
	c1.7-4.8,3.4-9.6,4.1-14.7c0.4-2.5,0.5-5.1,0.3-7.7c-0.1-1.5-0.5-2.9-0.8-4.4c-0.3-1.6-0.5-3.3-1-4.9c-0.5-1.4-1.2-2.7-2.2-3.8
	c-1.1-1.1-2.4-1.6-3.8-2.3c-2.1-1.1-4.3-1.6-6.6-0.9c-1.1,0.3-2,0.9-3,1.4c-1.4,0.8-2.9,1.5-4.3,2.4c-2.5,1.6-4.7,3.7-6.9,5.7
	c-4.6,4.2-8.3,9.3-11.6,14.6c-3.3,5.3-6.2,10.8-8.8,16.5c-5.1,11.3-9.1,23.1-12.6,34.9c-3.4,11.5-6,23.3-7.1,35.2
	c-0.6,6-0.7,12-0.5,18.1c-10.5-33-23.9-64.9-41.2-94.9c-0.8-1.6-1.6-3.2-2.4-4.9c-1-2.1-2-4.3-2.7-6.5c-0.7-2.4-0.9-4.9-0.9-7.4
	c0-5.3-0.2-10.7,0-16.1c0.2-5.2,1.5-10.4,2.5-15.5c2.2-11,4.7-21.9,6.3-33c0.8-5.5,1.9-11,3.3-16.4c1.3-4.9,2.6-9.7,3.7-14.7
	c1.9-9.4,2.5-19.6-4.1-27.4C249.3,191.3,245.5,188.6,241.4,189.1z M155.7,211.9c-3.5-8.3-6.7-16.8-8.9-25.5c-2-8.4-3.2-17-3.1-25.7
	c0.1-8.6,1.1-17.5,3.6-25.7c1.2-3.8,2.9-7.8,5.1-10.9c0.9-1.2,1.9-2.7,3.1-3.3c0.1-0.1,0.3-0.1,0.6-0.2c0,0,0.1,0,0.2,0
	c0,0,0.1,0,0.2,0c0.1,0,0.1,0,0.1,0c0,0,0.1,0.1,0.2,0.1c0,0,0.1,0.1,0.2,0.1c0.1,0.1,0.4,0.3,0.3,0.3c0.7,0.6,0.7,0.7,1.1,1.3
	c0.5,0.7,0.9,1.4,1.3,2.1c0.6,1.2,1,2.2,1.5,3.6c1.1,3.2,1.7,6.6,2.2,10c2.1,15.6-0.5,31.3-1.7,46.9c-0.3,4-0.5,7.9-0.5,11.9
	c0,4,0.4,8,0.5,12.1c0,2.1,0,4.1,0,6.2c-0.9-4-1.8-7.9-2.5-11.9c-1.5-8.8-1.8-17.5-1.3-26.4c0.3-4.9,0.8-9.9,1.1-14.8
	c0.1-1.3-2.1-1.5-2.2-0.2c-0.9,8.8-2.1,17.7-1.9,26.6c0.2,8.9,1.8,17.8,3.8,26.5c0.6,2.8,1.3,5.5,2,8.3
	C159,219.6,157.3,215.8,155.7,211.9z M76.2,165.4c-9.9-7.6-17.5-16.7-22.9-27.9c-4.7-9.8-8.6-20.3-10-31.1
	c-0.6-4.7-0.7-9.4-0.2-14.1c4.1-0.7,9.1,5.1,11.2,7.5c4.3,4.7,7.9,10.1,11.3,15.4c4.7,7.4,9.7,14.6,15.1,21.7
	c7.3,9.6,13.6,19.4,19.9,29.7c1.6,2.6,3.2,5.3,5,7.8c1.8,2.5,4,4.6,6,6.9c1.6,1.9,3.3,4,4.8,6.3c-6.4-4.9-12.7-9.9-18.7-15.4
	c-7.1-6.6-13.6-14-19.8-21.5c-3.6-4.3-7-8.7-10.2-13.3c-0.8-1.2-2.7-0.1-1.9,1.2c5.3,8.3,11.5,15.9,18,23.2
	c6.7,7.5,13.8,14.4,21.6,20.7c1.1,0.9,2.1,1.7,3.2,2.6C97.7,179,86.4,173.2,76.2,165.4z M152.4,235.9c-6.3,0.8-12.5,2.5-18.7,3.6
	c-12.1,2.2-24.6,3.2-36.9,1.8c-1.9-0.2-5.1-0.2-6.2-1.9c-0.7-1.2-0.1-3.3,0.5-4.7c0.4-1,0.9-1.9,1.5-2.8c0.1-0.1,0.6-0.9,0.6-0.9
	c0.4-0.6,0.9-1.1,1.3-1.6c1.8-2,4.2-3.5,6.7-4.5c10.3-4.2,22-3.5,32.5-0.9c6.1,1.5,12.3,3.7,17.9,6.6c0.1,0.1,0.2,0.1,0.3,0.2
	c-4.5-0.7-9.1-1.2-13.7-1c-7.9,0.3-15.7,1.9-23.4,3.5c-1.7,0.4-0.9,3,0.8,2.6c7.5-1.6,15.1-3.2,22.9-3.4c6.7-0.2,13.1,1.2,19.6,2.1
	c0.5,0.3,0.9,0.6,1.4,1C157.1,235.5,154.7,235.6,152.4,235.9z M359,694.9c0.2-0.1,0.4-0.2,0.5-0.4c0.5,0.9,0.9,1.7,1.4,2.6
	C360.3,696.4,359.7,695.6,359,694.9z M324.7,647.3c5.5,6.1,10.6,12.6,15.4,19.2c-2.2-2-4.5-4-6.9-5.9c-12.8-10.3-27.1-18.5-41.8-26
	c-8.3-4.2-16.7-8.3-25-12.4c-1.6-0.8-2.9,1.7-1.3,2.5c14.3,7.1,28.9,13.9,42.7,21.9c6.9,4,13.7,8.4,20,13.3
	c6.3,4.8,12.3,10.2,17.9,15.7c1.2,1.2,2.4,2.5,3.4,3.8c0,0,0,0,0.1,0.1c1.9,2.8,3.8,5.6,5.6,8.5c0.2,0.3,0.4,0.5,0.6,0.6
	c0.9,1.4,1.6,2.9,1.9,4.4c-2.2-2.3-4.5-4.5-7-6.5c-5.2-4.1-11.3-6.1-17.4-8.6c-6.3-2.6-12.5-5.4-18.6-8.3c-12.3-5.7-24.3-12-36.5-18
	c-12.1-5.9-24-12.1-35-19.9c-5.4-3.8-10.7-7.9-15.7-12.2c-2.4-2-4.7-4.3-6.6-6.8c-1.7-2.2-3.4-4.5-4.2-7.2
	c-1.4-4.4-1.1-9.5,1.5-13.5c2.5-3.8,7.2-5.8,11.6-6c4.6-0.2,9.4,1.1,13.7,2.8c6.1,2.4,12,5.3,17.7,8.5c11.6,6.7,22.8,14.3,33.5,22.3
	C305.2,628.1,315.5,637.2,324.7,647.3z M340.5,640.5c-0.2-0.5-0.4-1.1-0.7-1.6c0.1-0.2,0.1-0.5,0.2-0.8
	C340.1,638.9,340.3,639.7,340.5,640.5z M337.4,619.2c-0.3-6.3,0.1-12.6,0.6-18.8c1-12.3,2.6-24.6,5.7-36.5c3-12.1,7-24.1,12.2-35.4
	c5.1-11.1,10.8-22.5,18.6-32c3.1-3.8,6.6-7.6,10.7-10.4c1.9-1.3,4.1-2.4,6.4-2.8c1-0.2,2-0.2,3,0.2c0.6,0.2,1.3,0.8,1.6,1.4
	c2.6,3.6,2.2,9.1,2,13.3c-0.4,5.3-1.5,10.6-3,15.8c-3.1,10.5-7.9,20.3-12.7,30.1c-5.7,11.5-11.5,22.9-16.8,34.6
	c-2.7,5.9-5.2,12-7.7,18c-2.4,5.8-5.5,11.3-7.7,17.1c-2.3,5.9-4,12.2-5.4,18.3c-0.7,3-1,6-1.3,9c-0.7-3.1-1.3-6.3-1.6-9.5
	c-0.5-5.7,0.3-11.3,1.4-16.9c1.2-5.9,2.6-11.8,3.7-17.7c1-5.5,2.4-11,4.7-16.1c2.9-6.5,7.2-12.2,10.1-18.7c0.6-1.4-1.4-2.5-2.1-1.1
	c-3,5.8-6.8,11.1-9.7,17c-2.5,5.1-4.2,10.6-5.3,16.2c-1.3,6.2-2.6,12.3-3.9,18.5c-1.2,5.7-2.1,11.4-1.8,17.2
	c0.1,1.9,0.3,3.9,0.6,5.8C338.4,630.3,337.7,624.8,337.4,619.2z M296.8,488c0.3,0.8,0.5,1.5,0.7,2.3c0,0.1,0,0.2,0.1,0.2
	c-4.5-7.4-9.1-14.8-14.5-21.6c-6.5-8.3-14.2-15.6-23.2-21.3c-2.4-1.5-4.9-2.9-7.6-4.1c-2.6-1.2-5.3-2.3-7.4-4.3
	c-0.9-0.9-2.6,0.4-1.8,1.5c3,4,8.1,5.2,12.3,7.5c4.6,2.6,9,5.7,13,9.1c8.2,7,14.7,15.7,20.6,24.7c3.3,5.1,6.4,10.2,9.5,15.4
	c0.2,0.3,0.4,0.4,0.6,0.5c0.6,2.9,1.1,5.8,1.7,8.7c0,0.2,0.1,0.4,0.1,0.6c-0.5-1.1-1-2.2-1.5-3.2c-4.2-8.9-9.2-17.5-16.4-24.3
	c-3.7-3.5-7.3-7.1-11.3-10.2c-3.9-3-8.2-5.6-12.7-7.7c-8.7-4-18.1-6-26.8-10c-4.5-2-8.7-4.6-12.6-7.6c-2-1.5-3.9-3.1-5.7-4.8
	c-1.5-1.4-3.2-2.6-4.4-4.3c-1-1.4-1.5-3-1.5-4.8c-0.1-2,0.8-4.1,1.7-5.8c1.8-3.3,4.8-6.4,8.7-7c0.9-0.1,1.9,0,2.8-0.2
	c1-0.2,1.9-0.3,2.9-0.3c1.9,0,3.7,0.3,5.5,0.8c2,0.6,3.9,1.7,5.8,2.5c2.3,1,4.5,2.1,6.7,3.2c8.7,4.5,16.7,9.9,24,16.4
	c7.1,6.4,13.5,13.6,18.7,21.6C290.2,469.9,293.8,478.7,296.8,488z M291.5,422.3c0.3-11.6,2.4-23.2,5.2-34.4
	c2.9-11.5,6.6-22.8,10.9-33.8c4.4-11.2,9.7-22.4,17.2-31.9c3.6-4.6,7.9-9,12.9-12.1c1.2-0.8,2.5-1.4,3.7-2c0.8-0.4,1.6-1,2.4-1.1
	c0.7-0.1,1.3,0,2,0.4c1,0.5,2.2,0.9,3,1.7c0.8,0.9,1,2.1,1.2,3.3c0.3,1.6,0.6,3.1,0.8,4.7c0.4,2.3,0.5,4.6,0.2,6.9
	c-0.6,4.9-2.1,9.7-3.8,14.4c-8.2,22.7-19.5,44.3-31.6,65.2c-6.2,10.7-12.9,21.1-17.4,32.6c-0.6,1.5-1.2,3-1.7,4.6
	c1.2-16.6,7.2-32.9,13.6-48.1c2.4-5.7,4.9-11.4,7.2-17.2c0.5-1.4-1.4-2.5-2.1-1.1c-4.9,10.3-9.4,20.7-13.3,31.4
	c-3.9,10.7-7,21.7-8.1,33c-0.4,4-0.5,8.1-0.3,12.1c-0.1,0.4-0.2,0.7-0.4,1.1C292.2,442,291.3,432.2,291.5,422.3z M238.3,338.3
	c1.5,1.7,3,3.4,4.6,4.9c0.3,0.3,0.7,0.5,1.1,0.6c0.8,1.5,1.7,3.1,2.5,4.6c-1.9-1.4-3.9-2.7-6-3.7c-6.1-4.8-12.8-8.9-19.6-12.6
	c-4.9-2.7-9.8-5.4-15-7.5c-5.1-2.1-10.4-3.5-15.7-4.7c-6-1.3-12.2-2.3-18.3-3.3c-1.7-0.3-2.2,2.3-0.6,2.6
	c10.6,1.8,21.5,3.3,31.6,7.1c5.1,1.9,9.9,4.5,14.7,7.1c3,1.7,6,3.3,8.9,5c-4.1-1.8-8.3-2.9-12.6-3.9c-17.8-3.8-36-5-53.9-7.6
	c-3.7-0.5-7.4-1-11-1.9c-2.9-0.7-6.1-1.9-7.4-4.5c-1.3-2.5,0.1-4.8,1.9-6.7c1.9-2,4.4-3.6,7.2-4.6c6.6-2.4,13.9-2.3,20.8-1.6
	c7.8,0.8,15.6,1.9,23.1,3.9c8.1,2.1,15.9,5.2,23,9.7c3.8,2.4,7.4,5.1,10.9,7.9C232,332,235.3,334.9,238.3,338.3z M251.1,218.4
	c-1.8,10-5.5,19.6-6.9,29.7c-1.5,10.6-3.7,21.1-5.8,31.5c-1,5-2.2,10.1-3,15.2c-0.6,4.2-0.8,8.4-0.8,12.6c-0.7-4.2-1.1-8.4-1.3-12.7
	c-0.4-9.6,0-19.1,0.7-28.7c0.4-5.4,0.8-10.9,1.1-16.3c0.1-1.3-2.1-1.5-2.3-0.2c-1.1,9.9-2,19.8-2.3,29.7c-0.3,8.5-0.2,17.1,0.9,25.5
	c-1.3-3.8-2.5-7.7-3.4-11.7c-2.2-9.8-3.9-19.8-4.5-29.8c-0.6-10.3,0-20.6,1.4-30.8c1.3-9.9,3.3-19.7,7.9-28.6c0.5-1,1.1-2.1,1.7-3.1
	c0.4-0.7,1-1.5,1.3-2c0.5-0.6,1-1.2,1.5-1.8c0.3-0.3,0.5-0.5,0.8-0.8c0,0,0.2-0.2,0.3-0.2c0.1-0.1,0.3-0.3,0.4-0.3
	c0.3-0.2,0.7-0.5,1-0.6c0.4-0.2,0.6-0.3,0.5-0.3c0.3-0.1,0.6-0.2,1-0.3c0,0,0.2,0,0.3-0.1c0.1,0,0.4,0,0.4,0c0.7,0,1,0,1.6,0.2
	c0.5,0.2,1.4,0.7,1.8,1C252.7,201,252.5,210.4,251.1,218.4z"/>
</svg>
