<?xml version="1.0" encoding="utf-8"?>
<!-- Generator: Adobe Illustrator 21.0.0, SVG Export Plug-In . SVG Version: 6.00 Build 0)  -->
<svg version="1.1" id="Layer_1" xmlns="http://www.w3.org/2000/svg" xmlns:xlink="http://www.w3.org/1999/xlink" x="0px" y="0px"
	 viewBox="0 0 513.1 600" style="enable-background:new 0 0 513.1 600;" xml:space="preserve">
<style type="text/css">
	.st0{fill:#4E92C3;}
</style>
<path class="st0" d="M47.7,366.1c7.1,16.4,16.8,31.5,26.4,46.6c5,7.8,9.8,15.7,14.7,23.6c5.3,8.6,8.8,17.9,11.7,27.5
	c2.9,9.7,5.2,19.5,6.8,29.5c0.8,4.9,1.5,9.8,2.1,14.7c0.2,1.3,0.3,2.7,0.5,4c-1.8,5-3.8,9.9-6,14.6c-2.3,4.8-4.8,9.6-6.3,14.7
	c-0.6,1.9-1.1,4-1,6c-2.9,6.9-5.4,14-7.7,21.1c-1.7,4.9-3.3,9.9-4.9,14.8c-1,3,3.5,5,4.6,2c4.6-13.8,9.1-27.6,15-40.8
	c0.9-1,1.7-2.1,2.6-3.1c2-2.4,4.6-4,7.1-5.8c2.4-1.8,4.9-3.5,7.7-4.4c2.4-0.7,4.9-0.9,7.4-0.7c6.6,0.5,12.8,2.7,19.2,4.7
	c6.3,1.9,12.6,3.3,19.2,2.9c24.9-1.5,40.3-25.2,48.6-46.2c2.8-7,4.9-14.3,7.1-21.5c2.3-7.9,4.5-15.9,5.9-24.1
	c0.5-2.7-3.7-3.9-4.7-1.3c-0.4,1-1.1,1.8-1.8,2.7c-0.8,1-1.6,2-2.3,3.1c-1.8,2.4-3.6,4.8-5.5,7.1c-3.6,4.5-7.3,8.9-11.4,13
	c-3.9,4-8,7.9-12.3,11.5c-3.1,2.7-6.3,5.4-10.2,6.8c-4.6,1.7-9.8,1.6-14.6,1.5c-5.2-0.1-10.4-0.4-15.5,0.6c-4.6,0.9-9,2.7-13.1,4.7
	c-2.4,1.2-4.6,2.5-6.8,3.9c5.2-7.7,10.5-15.3,15.7-23c8.3-12.2,16.7-24.3,24.9-36.6c0.8,0.2,1.4-0.3,1.8-0.9
	c4.5-7.4,9.4-14.6,14.7-21.4c0.9-0.8,1.7-1.6,2.5-2.5c3.2-3.3,5.4-7.4,8.7-10.6c3.1-3,7.2-4.3,11.1-5.9c4.3-1.8,8.3-4.4,12.4-6.7
	c4.2-2.4,7.9-5.4,11.9-8.1c3.9-2.7,8.2-4.3,12.6-5.9c4.5-1.7,8.6-4.1,13-5.9c4.6-1.9,9-3.9,13.2-6.5c4-2.4,7.9-5.1,11.8-7.7
	c4.2-2.8,8.6-5.3,13-7.9c8.6-4.9,17.2-10,25.2-15.8c8-5.8,15.8-12.2,22.7-19.2c6.9-7,12.4-15.2,17.4-23.6c2.7-4.5,5.2-9.2,7.5-13.9
	c2.1-4.3,4-8.8,6.3-13c0.1-0.2,0.2-0.4,0.4-0.7c0,0,0-0.1,0.1-0.1c0-0.1,0.1-0.1,0.1-0.2c0.4-0.6,0.7-1.2,1.1-1.8
	c0.9-1.4,1.8-2.9,2.6-4.3c1.6-2.7,3.2-5.6,3.7-8.7c0.2-1.3,0.2-2.6-0.2-3.9c-0.6-1.8-2.9-1.9-4.1-0.6c-3.2,3.4-5.8,7.4-9.2,10.7
	c-3.3,3.2-7.4,5.8-11.3,8.2c-8,4.8-16.6,8.7-24.6,13.6c-8.2,5-16.1,10.6-23.9,16.2c-7.3,5.3-14.3,11-20.8,17.2
	c-6.6,6.4-12.3,13.5-18,20.8c-6,7.7-12.2,15.2-19.1,22c-13.6,13.4-30.3,23.1-44.3,36c-3.5,3.2-6.9,6.5-10.2,10
	c-2.3,1.5-4.2,3.4-5.9,5.6c6-10.6,11.5-21.4,16.6-32.5c4.3-9.3,8.2-18.8,12.6-28.1c3.6-7.5,7.2-15,10.5-22.6c0.4,0,0.8-0.3,1-0.8
	c2.1-5.5,3.9-11.1,6.3-16.5c2.1-3.6,4.2-7.2,6.3-10.7c0.2-0.3,0.2-0.6,0.3-0.8c1.9-2.7,3.8-5.4,5.9-8c0.4-0.5,0.8-1,1.2-1.5
	c2.2-2.6,4.3-5.2,6.8-7.5c1.2-1.1,2.4-2.2,3.5-3.4c0.7-0.7,1.4-1.3,1.9-2.1c0.1-0.1,0.1-0.1,0.2-0.2c7.3-6.2,15.3-11.5,23.6-16.3
	c18.4-10.6,38.8-17.7,55-31.8c4.2-3.7,8.4-7.3,12.8-10.7c4.3-3.3,8.1-6.7,11.9-10.6c0.8-0.8,1.6-1.7,2.4-2.5
	c0.5-0.2,0.9-0.6,1.1-1.2c1.4-1.5,2.8-2.9,4.2-4.4c1.6-1,3.2-1.9,4.9-2.8c4.3-2.1,8.4-4.5,12.8-6.4c4.9-2.1,9.9-3.8,14.9-5.6
	c5.1-1.9,10.1-4.2,15.2-6.1c10-3.6,20.3-6.2,30.3-9.7c9.8-3.5,19.3-7.7,26.4-15.5c4-4.4,7.2-9.5,10.3-14.5
	c3.6-5.8,6.8-11.8,7.9-18.5c0.4-2.3-2.2-3.4-3.9-2.3c-3.8,2.3-5.6,6.5-8.9,9.2c-4,3.3-8.5,5.7-13.2,7.7
	c-10.1,4.3-20.8,7.2-31.2,10.7c-9.8,3.3-19.1,7.7-27.7,13.3c-8.2,5.3-15.8,11.6-23,18.3c-7.3,6.9-14.3,14.1-21.2,21.4
	c-3.5,3.7-6.9,7.5-10.7,10.8c-4.1,3.6-8.6,6.6-12.8,10.2c-4.3,3.7-8.3,7.6-12.9,10.8c-4.5,3.2-9.2,6-14,8.6
	c-9.2,5-18.8,9.3-28.1,14.3c-17.1,9.3-33.2,20.7-45.5,36.1c-1.1,1.3-2.1,2.7-3.1,4c2-9.2,3.3-18.6,4.2-28c0.3-3.8,0.6-7.5,0.9-11.3
	c2.9-7,7-13.5,11.6-19.5c9.5-12.4,21.2-23,28.2-37.2c0.1-0.2,0.2-0.4,0.3-0.6c0.4,0.6,1.4,0.9,1.9,0.2c0.7-0.9,0.8-1.8,0.8-2.9
	c2.6-1.7,5-3.7,7.2-5.8c3.4-3.3,6.8-6.7,10-10.2c6.6-7.3,12.9-15.1,17.6-23.8c2.2-4.1,4.1-8.5,4.9-13.2c0.8-4.6,0.7-9.3,0.4-13.9
	c-0.5-8.9-1.6-17.7-0.3-26.6c0.7-5,2.2-9.9,4.2-14.5c1.1-2.6,2.3-5.3,3.8-7.7c1.1-1.8,2.8-3.6,2.9-5.8c0-1.1-0.5-2-1.7-2.2
	c-1.5-0.3-2.8,0.6-4,1.4c-1.4,1-3,1.7-4.5,2.6c-3.2,1.9-6,4.3-8.6,6.8c-5.2,5-9.6,10.8-13.4,16.8c-8.7,13.8-14,29.5-16.4,45.6
	c-0.6,4-1,8-1.2,12c-0.2,3.9,0,7.7,0,11.6c0,3.8-0.5,7.6-1.4,11.3c-0.9,3.7-2.3,7.2-3.7,10.7c-2.9,7.5-6.7,14.2-11.6,20.5
	c-4.8,6.2-10.2,12-15.1,18.2c-4.1,5.2-8,10.6-11.2,16.4c0.2-2.9,0.3-5.8,0.5-8.7c0.6-9.4,1.9-18.8,1.2-28.2
	c-0.7-8.9-3.7-17.3-5.7-25.9c-1.1-4.6-1.7-9.2-1.4-13.9c0.3-4.5,1.1-8.9,1.8-13.4c3.1-19.4-0.5-39.3,3.7-58.6
	c3.9-17.8,17.3-32,29.8-44.5c3.1-3.1,6.1-6.2,9.2-9.2c1.7-1.7-1.2-4.7-2.9-3.1C273,44.1,259.6,56.3,251,72
	c-9.4,17.1-7.9,36.6-8.2,55.4c-0.1,5.6-0.7,11.1-1.4,16.6c0-1.9-0.2-3.8-0.4-5.7c-0.6-5-2.2-9.6-4.5-14.1
	c-2.7-5.2-5.7-10.2-8.6-15.4c-2.6-4.7-5.9-9.1-9.5-13.1c-3.8-4.3-8-8.2-13-11.2c-4.8-2.9-10-5-14.8-7.8c-4.5-2.6-8.5-5.9-11.6-10.1
	c-3.1-4.2-5.4-8.8-7.1-13.7c-1.9-5.5-3-11.2-3.5-17c-0.2-2.8-0.3-5.7-0.4-8.5c-0.1-2.8-0.2-5.8,0.6-8.5c0.3-1,0-2.1-1-2.6
	c-0.9-0.4-2.2,0-2.6,1c-2.3,6.4-5.1,12.6-6.9,19.1c-1.6,5.7-2.8,11.5-3.3,17.4c-1.1,11.4-0.3,23.2,4.4,33.8
	c4.4,10,11.6,18.2,19.4,25.7c4.7,4.6,9.6,9,14.9,12.9c5.3,4,10.9,7.3,16.8,10.3c6.3,3.2,12.8,6.1,18.8,10.1c2.4,1.6,5.2,3.3,6.7,5.9
	c1.2,2.1,1.8,4.5,2.3,6.9c-0.4,1,0,2.4,1.2,2.8c0,6.6,1.2,13,3,19.6c2.5,9.3,4.5,18.2,4.2,27.8c-0.3,9.7-1.4,19.4-1.9,29
	c-0.3,4.6-0.6,9.2-0.9,13.8c-1,3.8-1.6,7.7-1.9,11.7c-0.2,2-0.3,3.9-0.4,5.9c0,0.5,0.1,1,0.4,1.3c-1.1,8.1-2.6,16.2-4.8,24.1
	c-0.4,0.9-0.8,1.8-1.1,2.7c-0.1,0.1-0.1,0.3-0.1,0.4c-0.7,1.2-1.3,2.4-1.9,3.6c-0.2,0.2-0.4,0.4-0.5,0.8c-0.1,0.2-0.1,0.5-0.2,0.7
	c-0.9,1.8-1.7,3.7-2.4,5.6c-0.3,0.7,0,1.3,0.4,1.7c0,0.1-0.1,0.2-0.1,0.3c-1.2,3.1-2.3,6.3-3.5,9.4c-0.6,1.5-1.2,3-1.9,4.6
	c-4.6,10.1-9.6,20-14,30.1c-8.3,18.8-17.1,37.3-27.6,55c0,0,0,0.1-0.1,0.1c0.1-0.2,0.2-0.5,0.3-0.7c3.3-9.1,5.5-18.6,6.8-28.3
	c1.3-9.8,1.5-19.8,1.5-29.7c0-10-0.3-19.9-0.9-29.9c-0.6-9.6-2.1-19.2-4.6-28.5c-2.5-9.4-6-18.4-8.5-27.8
	c-2.4-9.1-3.4-18.4-3.6-27.8c-0.2-9.7,0.4-19.4,0.4-29.1c0-9.4-0.6-18.7-2.4-27.9c-0.8-4.3-1.9-8.5-3.5-12.6
	c-1.7-4.3-4.1-8.1-6.7-11.9c-1.3-1.9-2.6-3.8-3.8-5.8c-1.1-1.9-3.8-0.8-4.1,1c-0.8,4.3-0.2,8.7-0.5,13c-0.3,4.8-0.8,9.6-1.3,14.4
	c-0.9,9.5-1.7,18.9-2.2,28.4c-1.1,19.1-1.6,38.1-2.7,57.2c-0.5,9.3-1.1,18.7-0.4,28c0.7,8.7,2.6,17.3,5.1,25.6
	c2.5,8.6,5.7,16.9,8.6,25.4c2.8,8.4,4.9,16.9,7.3,25.4c1.2,4.2,2.4,8.5,3.2,12.8c0.8,4.4,1.4,9,1.9,13.5c1.1,9.1,1.8,18.4,1,27.5
	c0,0.3,0,0.6-0.1,0.9c-0.8,1.9-1.7,3.8-2.5,5.7c-7.4,11.2-15,22.2-22.6,33.2c-11.3,16.5-22.6,33.1-33.6,49.8
	c-0.3-1.2-0.2-2.4,0.1-3.6c2.5-7.1,4.6-14.4,5.9-21.9c1.9-10.5,2-21.2,1.3-31.8c-0.7-10.3-2.4-20.5-5.1-30.4
	c-2.8-10.5-6.9-20.5-12-30c-2.6-4.8-5.8-9.2-9-13.5c-3.3-4.3-6.4-8.8-9.5-13.3c-6.3-8.9-12.6-17.8-17.5-27.6
	c-2.2-4.3-4-8.7-5.2-13.3c-1.2-4.7-1.7-9.5-1.7-14.3c-0.1-10.4,0.6-20.8-0.6-31.2c-0.5-4.1-1.5-8.1-3.6-11.8c-2.4-4.1-6-6.9-9.9-9.4
	c-1.1-0.7-2.3-1.4-3.3-2.3c-1-0.9-2-1.8-3.3-2.2c-2-0.6-3.9,1-3.2,3.1c2.8,8.9,2.4,18.1,2.3,27.2c0,9.1-1.3,18.1-2.2,27.1
	c-0.9,9.1-1.4,18.4,0.4,27.4C41.4,349.3,44.2,357.9,47.7,366.1z M229,377.6c7.7-5.6,15.5-11.2,22.6-17.5c7.3-6.4,13.8-13.5,19.9-21
	c6-7.2,11.5-14.7,18-21.5c12.7-13.2,28-23.8,43.3-33.6c4.1-2.6,8.2-5.2,12.5-7.5c4-2.2,8.2-4.3,12.3-6.5c4.1-2.2,8-4.6,11.8-7.3
	c2.2-1.6,4.2-3.4,6-5.3c-0.7,1.1-1.3,2.2-2,3.3c-2.1,3.4-3.7,7-5.4,10.6c-2.2,4.6-4.5,9.3-7,13.8c-4.7,8.5-10.1,16.8-16.6,24
	c-6.4,7.2-14.2,13.4-21.8,19.3c-7.9,6-16.1,11.2-24.7,16.1c-4.3,2.5-8.7,4.9-12.9,7.6c-4.1,2.5-8,5.3-12,7.9
	c-3.9,2.5-8,4.8-12.3,6.6c-2.3,1-4.7,1.9-6.9,3c-2.1,1-4.1,2.2-6.3,3.1c-2.1,0.9-4.3,1.7-6.5,2.5c7.3-4.5,14.5-9.4,21.7-14.1
	c8.5-5.5,16.7-11.2,25-17c4.1-2.9,8.1-5.8,12-9c3.8-3.1,7.4-6.6,10.9-10.1c8.3-8.2,16.8-16.3,24.4-25.1c0.9-1.1-0.7-2.3-1.7-1.4
	c-7.3,7.4-14.5,14.8-21.9,22.1c-3.6,3.6-7.2,7.3-11.1,10.7c-3.7,3.2-7.7,6.2-11.7,9c-8.2,5.8-16.4,11.6-24.8,17.1
	c-4.4,2.8-8.7,5.6-13.1,8.5c-4.2,2.8-8.4,5.7-12.8,8.3c-4.7,2.8-9.5,5.4-13.9,8.5c-3.6,2.6-6.9,5.7-10,8.9c-1.1,0.7-2.1,1.3-3.2,1.9
	c-0.8,0.4-1.6,0.8-2.4,1.2C214.7,388.5,221.7,382.9,229,377.6z M390.3,179c14-13.8,29.6-26.3,48.1-33.4c10.2-3.9,20.8-6.7,31-10.5
	c5.1-1.9,10.1-4,14.7-6.7c2.2-1.3,4.3-2.7,6.2-4.3c0.4-0.3,0.8-0.7,1.1-1c-0.9,1.9-2,3.7-3.1,5.5c-2.8,4.5-5.6,9.1-9.1,13.2
	c-3.1,3.6-6.7,6.7-10.9,9.1c-4.6,2.6-9.7,4.6-14.7,6.3c-10,3.6-20.3,6.1-30.3,9.7c-5.1,1.8-10,4.1-15,6c-3,1.1-6.1,2.2-9.1,3.3
	c3.7-2.7,7.4-5.5,11.3-7.8c4.5-2.6,9.2-4.6,13.9-6.8c5.1-2.3,10.1-4.7,15.1-7.1c2.6-1.2,5.1-2.5,7.6-3.9c2.6-1.5,5.1-2.9,7.9-3.9
	c1.1-0.4,0.4-2-0.7-1.7c-5,1.4-9.4,4.6-14.1,6.9c-5.2,2.5-10.4,4.9-15.6,7.3c-4.6,2.1-9.3,4.1-13.8,6.6c-4.7,2.6-9,5.9-13.4,9.1
	c-1.8,1.3-3.7,2.7-5.4,4.1c-1.3,0.6-2.6,1.2-3.9,1.8C389.1,180.3,389.7,179.6,390.3,179z M297.5,146.5c1.1-15.8,5.2-31.5,12.3-45.6
	c3.3-6.5,7.2-12.6,11.8-18.2c2.2-2.7,4.6-5.2,7.2-7.5c2.3-2,4.8-3.6,7.3-5.1c-1.2,2.1-2.3,4.3-3.3,6.5c-1.9,4.2-3.5,8.5-4.5,13
	c-2,8.6-1.7,17.4-1.1,26.1c0.3,4.5,0.7,8.9,0.4,13.4c-0.3,4.5-1.3,8.6-3.2,12.7c-3.9,8.7-9.8,16.4-15.9,23.7
	c-3.4,4.1-7.1,8-10.8,11.8c-1.6,1.7-3.3,3.3-5,4.8c0.1-0.7,0.2-1.3,0.5-1.9c0.4-1.3,1-2.5,1.7-3.6c1.4-2.4,3-4.6,4.2-7
	c1.2-2.6,2.4-5.2,3.8-7.7c1.4-2.5,2.7-5,3.8-7.7c1.1-2.7,1.6-5.5,2.2-8.4c0.6-2.9,1.2-5.8,1.8-8.7c0.2-1.4,0.4-2.7,0.6-4.1
	c0.2-1.5,0.1-3,0.2-4.5c0.3-6.8,3.2-13.3,6.3-19.3c0.7-1.3-1.4-2.2-2.1-0.9c-1.4,2.7-2.7,5.5-3.7,8.4c-1.1,2.8-2,5.6-2.4,8.5
	c-0.4,2.8-0.2,5.7-0.6,8.5c-0.4,2.9-1,5.7-1.6,8.5c-0.6,2.9-1,5.8-1.8,8.6c-0.8,2.7-2.1,5.3-3.5,7.8c-1.4,2.5-2.8,5-4,7.6
	c-0.5,1-0.9,2-1.4,3c0-0.1,0.1-0.2,0.1-0.4C297.9,161.6,296.9,153.9,297.5,146.5z M235.9,145.8c-4.8-3.8-10.4-6.8-15.8-9.5
	c-5.9-2.9-12-5.6-17.6-9.1c-5.4-3.4-10.5-7.4-15.3-11.7c-8.2-7.3-16.3-15.1-21.9-24.7c-5.5-9.6-7.4-20.5-7-31.5
	c0.2-6.7,1.3-13.3,2.9-19.8c0.8-3.1,1.8-6.2,2.9-9.2c0,0.9,0.1,1.7,0.1,2.6c0.2,5.3,0.8,10.6,2.1,15.7c2.6,10.2,7.5,20.5,15.8,27.3
	c8.7,7.1,20.2,9.8,28.4,17.6c3.9,3.7,7.5,7.8,10.6,12.1c3.3,4.6,6,9.7,8.8,14.6c2.9,5.1,5.8,10.3,6.9,16.1c0.1,0.5,0.2,1,0.2,1.6
	c-0.7-0.6-1.3-1.1-1.9-1.8c-1.1-1.2-2.2-2.5-3.3-3.7c-2.2-2.4-4.7-4.5-7.3-6.4c-5.3-3.7-11-6.6-16-10.6c-4.9-3.9-9.2-8.4-13.1-13.3
	c-4.4-5.4-8.5-11.2-12.6-16.9c-0.9-1.2-2.7,0.2-1.9,1.4c7.3,10.1,14.4,20.6,23.9,28.9c5,4.3,10.6,7.5,16.1,11.1
	c2.7,1.8,5.4,3.8,7.7,6.1c2.3,2.2,4.2,4.9,6.6,6.9c0.9,0.8,1.7,1.5,2.3,2.5c0.1,1.8,0.1,3.5,0.1,5.3
	C237.1,146.8,236.5,146.3,235.9,145.8z M179.5,403.1c-0.7-9.1-1.7-18.3-3.9-27.1c-1.1-4.4-2.3-8.7-3.5-13.1
	c-1.2-4.2-2.2-8.5-3.5-12.8c-2.5-8.6-5.7-16.9-8.6-25.4c-2.8-8.3-5.3-16.7-6.7-25.4c-1.4-8.9-1.3-17.9-0.9-26.9
	c0.4-9.5,1-19.1,1.4-28.6c0.4-9.6,0.7-19.2,1.1-28.8c0.4-9.5,0.9-19,1.8-28.5c0.8-9.3,2.1-18.6,2.2-27.9c1.4,1.9,2.7,3.9,3.9,5.9
	c2,3.6,3.4,7.5,4.4,11.5c2.2,8.8,3,18,3.3,27c0.6,18.9-1.8,38,2.1,56.7c1.9,9.3,5.2,18.2,8,27.2c2.9,9.1,5,18.2,6,27.7
	c1.1,9.7,1.4,19.5,1.6,29.2c0.2,9.8,0.2,19.7-0.5,29.5c-0.7,9.5-2.1,19-4.8,28.1c-0.1,0.3-0.2,0.6-0.3,0.9c-0.3-1.5-0.4-3.1-0.4-4.7
	c0-2.6,0-5.3,0-7.9c-0.1-10.8-1-21.5-1.9-32.2c-1-10.6-2.2-21.1-4.1-31.5c-2-10.5-5.2-20.7-7.3-31.2c-2.4-12.1-4-24.5-5.3-36.8
	c-0.2-1.4-2.4-1.2-2.2,0.3c1.1,10.8,2.5,21.7,4.3,32.4c1.8,10.5,5,20.7,7.2,31.1c2.2,10.3,3.5,20.7,4.5,31.1
	c1,10.5,1.9,21.1,2.3,31.7c0.1,3.1,0.2,6.2,0.2,9.2c0,2.6-0.2,5.1,0.2,7.7c0.3,1.8,0.7,3.7,1.1,5.6c-0.4,1.2-0.8,2.4-1.3,3.6
	C179.8,408.1,179.7,405.6,179.5,403.1z M120.6,513.9c1.5-1.9,3-3.7,4.7-5.4c3.4-3.4,7.4-6.2,11.7-8.4c4.1-2.1,8.4-4,12.9-4.9
	c10.1-2.1,20.7,1.1,30.7-1.8c4-1.1,7.4-3.5,10.6-6.1c4.3-3.6,8.5-7.4,12.5-11.3c4.6-4.5,9-9.3,13.1-14.3c1.4-1.7,2.8-3.4,4.1-5.2
	c-0.8,3.3-1.7,6.6-2.6,9.9c-1.9,6.6-3.9,13.1-6.2,19.6c-4.2,11.5-9.8,22.9-18,32.1c-7,8-16.3,14-27.1,14.9
	c-13.1,1.2-24.6-6.2-37.4-7.4c-3-0.3-6-0.3-9,0.5c-0.4,0.1-0.7,0.2-1.1,0.3c3.3-2.2,6.8-4,10.5-5.5c6.1-2.5,12.5-3.8,19.1-4.4
	c6.7-0.6,13.4-1,19.9-3c6.1-1.8,11.9-4.4,17.4-7.5c6.2-3.5,12.2-7.7,17.4-12.6c1-0.9-0.1-2.6-1.3-1.7c-5,3.9-10,7.8-15.5,11
	c-5.5,3.3-11.3,6-17.4,8c-3.2,1-6.4,1.8-9.7,2.3c-3.4,0.5-6.8,0.7-10.2,1c-6.5,0.5-12.9,1.7-19,4c-5.7,2.1-11,5.1-15.9,8.7
	c0.1-1.4,0.2-2.7,0.3-4.1C117,519.5,118.7,516.7,120.6,513.9z M43.4,332.6c-0.4-4.5-0.2-8.9,0.1-13.4c0.6-9.2,2.1-18.3,2.4-27.5
	c0.2-4.6,0.1-9.3,0-13.9c0-4.6-0.1-9.3-0.8-13.9c0-0.2-0.1-0.3-0.1-0.5c0.5,0.3,1,0.7,1.6,1c2,1.3,4,2.6,5.6,4.4
	c2.5,2.7,4,6.1,4.7,9.6c2,9.6,1.3,19.6,1.2,29.3c-0.1,5.2,0,10.5,0.9,15.6c0.8,4.6,2.2,9.1,4,13.4c4.1,9.8,10.1,18.8,16.1,27.5
	c3.1,4.5,6.3,9,9.4,13.5c3,4.3,6.3,8.3,9.2,12.6c3.1,4.5,5.5,9.3,7.8,14.2c2.3,4.9,4.3,10,6,15.1c3.1,9.6,5.1,19.4,6.2,29.4
	c1.1,10.2,1.4,20.6,0.3,30.8c-0.4,3.1-0.9,6.1-1.5,9.1c0-0.1,0-0.2,0-0.3c-0.2-2.8-0.3-5.6-0.4-8.4c-0.1-2.7-0.3-5.4-0.7-8.1
	c-0.4-2.9-1.2-5.8-2-8.6c-1.5-5.7-3.5-11.3-5.5-16.8c-4.1-11.1-8.6-22.1-13.6-32.8c-2.6-5.4-5.3-10.7-7.9-16.1
	c-2.6-5.4-5.2-10.8-7.7-16.2c-5.7-12.1-11.3-24.2-17.8-35.9c-0.7-1.2-2.5,0.1-1.8,1.3c5.8,10.5,10.9,21.3,15.9,32.2
	c2.5,5.4,5,10.7,7.5,16.1c2.6,5.4,5.3,10.7,7.9,16.1c5.1,10.6,9.7,21.5,13.8,32.5c2.1,5.5,4.2,11.1,5.8,16.7
	c1.6,5.5,3,11.1,3.4,16.8c0.2,3.1,0.3,6.2,0.5,9.4c0.2,3.2,0.6,6.3,0.7,9.5c0,0.2,0,0.3,0,0.5c-0.4,1.5-0.8,3-1.3,4.4
	c0-0.2-0.1-0.4-0.1-0.6c-1.4-10.1-3.2-20.1-5.8-29.9c-2.5-9.8-5.5-19.7-10-28.8c-2.2-4.5-5-8.8-7.6-13.1c-2.4-3.9-4.8-7.9-7.2-11.7
	c-9.5-15.1-19.6-30-27.4-46.1c-3.9-8.1-7.2-16.5-9.5-25.2C44.6,341.4,43.8,337,43.4,332.6z"/>
</svg>
