<?xml version="1.0" encoding="utf-8"?>
<!-- Generator: Adobe Illustrator 21.0.0, SVG Export Plug-In . SVG Version: 6.00 Build 0)  -->
<svg version="1.1" id="Layer_1" xmlns="http://www.w3.org/2000/svg" xmlns:xlink="http://www.w3.org/1999/xlink" x="0px" y="0px"
	 viewBox="0 0 500 500" style="enable-background:new 0 0 500 500;" xml:space="preserve">
<style type="text/css">
	.st0{fill:#70706F;}
	.st1{fill:#010101;}
</style>
<g id="Group_2" transform="translate(-142.787 -97.782)">
	<path id="Path_1" class="st0" d="M299,460.4c2.1,1.4,3.3,3.7,3.2,6.2c0,1.7-0.5,3.4-1.6,4.7c-1.1,1.4-2.6,2.3-4.3,2.7
		c2,0.3,3.8,1.4,5.2,2.9c1.3,1.6,1.9,3.6,1.9,5.6c0.1,2.7-1.2,5.3-3.4,6.8c-2.8,1.8-6,2.7-9.3,2.5h-16v-33.7h15.5
		C293.3,457.9,296.4,458.7,299,460.4 M293.2,470.7c0.8-0.7,1.3-1.7,1.2-2.8c0.1-1-0.4-2-1.2-2.7c-1-0.7-2.2-1-3.4-0.9h-7.5v7.4h7.5
		C291,471.8,292.2,471.4,293.2,470.7 M294,484.5c1-0.7,1.6-1.8,1.5-3c0-1.2-0.6-2.3-1.5-2.9c-1.3-0.8-2.8-1.1-4.2-1h-7.5v8h7.5
		C291.3,485.7,292.8,485.3,294,484.5"/>
	<path id="Path_2" class="st0" d="M352.1,491.8l-2.6-6.5h-15.6l-2.6,6.5h-7.8l14.6-33.7h7.8l14.4,33.7H352.1z M336.4,479.2H347
		l-5.3-13.1L336.4,479.2z"/>
	<path id="Path_3" class="st0" d="M382.1,458.1h7.6v14.1h15.3v-14.1h7.6v33.7h-7.6v-13.3h-15.3v13.3h-7.6V458.1z"/>
	<path id="Path_4" class="st0" d="M453.7,489.2c-2.3,2.1-5.2,3.1-8.3,2.9c-4.3,0-8.3-1.9-11-5.2l3.5-5.4c1,1.1,2.3,2.1,3.6,2.8
		c1.1,0.6,2.3,0.9,3.5,1c1.1,0.1,2.2-0.4,3-1.2c0.8-0.9,1.1-2.1,1.1-3.3v-16.3h-11.6v-6.4h19.3V481
		C456.8,484.1,455.8,487,453.7,489.2"/>
	<path id="Path_5" class="st0" d="M505.7,491.8l-2.6-6.5h-15.6l-2.6,6.5h-7.8l14.6-33.7h7.8l14.4,33.7H505.7z M489.9,479.2h10.6
		l-5.3-13.1L489.9,479.2z"/>

		<rect id="Rectangle_1" x="385.2" y="205.7" transform="matrix(0.7071 -0.7071 0.7071 0.7071 -36.3654 341.6597)" class="st0" width="18" height="18"/>

		<rect id="Rectangle_2" x="385.2" y="394.3" transform="matrix(0.7071 -0.7071 0.7071 0.7071 -169.6913 396.8655)" class="st0" width="18" height="18"/>
	<path id="Path_6" class="st1" d="M393.5,304.6c-0.7-2.1-2.9-3.3-5.1-2.8c-10.6,2.4-20.1,12.8-24.9,18.9c-5.4,6.8-21.1,22-21.1,22
		c-0.8-5.3-0.4-10.7,1.4-15.8c2.8-8.9,25.4-24.4,35.4-36.9s10.2-26,9.9-42.5s-10.6-24.2-16.5-19.9s-27,22.2-32.8,27
		c1.6-11.7,30.5-36.3,41.6-53.6c11-17.3,6.5-54.2,6.5-54.2l-1.3-6.4c-2.6,17.1-0.7,40.9-12.5,55.5c-17.6,21.8-35.4,38.5-38.3,49.4
		c-2.9,11-2.4,33.5-2.1,35c0.3,1.5,2.3,3.1,11-2.8c-8.3,10.6-9.8,27.9-6.6,37.7c-5.1,10.9-3.9,47.9-1.5,49
		c10.4-3.2,40-32.6,47.6-38.9c-4.2,24.2-48.7,60.9-48.7,60.9s-9.9-35.7-13.4-44.8s-6.6-8.5-7.8-6.6c-27.9,39.9-17.4,82.8,2.8,116.9
		h8.5c-15.5-20.2-19.3-37.1-20.3-50.8c-1.4-18.9,13.5-32.2,17.8-39.3c4.1,1.7,8,45.8,12.3,43.9c4.3-1.9,10.5-7.9,24.4-21.7
		c13.9-13.8,33.3-42.1,34.5-48.6C395.9,324.5,395.9,312.2,393.5,304.6 M376.3,249.6c4.8-2.2,6.6,6.2,5,10.1
		c-1.6,3.9-13.7,24.6-17.2,27c1.9-6.3-0.2-19.8-4.3-21.7C359.8,264.9,371.5,251.8,376.3,249.6 M350.4,281.5
		c7.5-8.3,2.8,22.1-0.8,18.8C342.5,293.5,350.4,281.5,350.4,281.5 M348.1,498.8c9.9,22.1,6.9,39.1,7.7,59.2
		c9.5-19.5,12.2-41.5,7.1-59.2H348.1z"/>
</g>
</svg>
