<?xml version="1.0" encoding="utf-8"?>
<!-- Generator: Adobe Illustrator 21.0.0, SVG Export Plug-In . SVG Version: 6.00 Build 0)  -->
<svg version="1.1" id="Layer_1" xmlns="http://www.w3.org/2000/svg" xmlns:xlink="http://www.w3.org/1999/xlink" x="0px" y="0px"
	 viewBox="0 0 96 202.5" style="enable-background:new 0 0 96 202.5;" xml:space="preserve">
<style type="text/css">
	.st0{fill:#008EC4;}
</style>
<g>
	<path class="st0" d="M71.6,121.7c-0.1-0.2-0.2-0.3-0.4-0.5c0-0.1,0.1-0.2,0.1-0.4c0.2-0.6-0.6-1-1-0.7c0,0-0.1-0.1-0.1-0.1
		c-0.2-0.1-0.3-0.1-0.5-0.1c-1.1-0.5-2.4-0.8-3.7-0.9c-3-0.4-6.1-0.7-9.1-1c-0.8-0.3-1.6-0.5-2.5-0.7c0.2-0.1,0.5-0.2,0.7-0.3
		c2.2,0,4.3-0.3,6.5-0.7c1.2-0.2,2.4-0.6,3.7-0.9c0.3-0.1,1-0.2,1.8-0.3c-0.2,0.1-0.4,0.3-0.7,0.5c-0.2,0.2,0,0.6,0.3,0.6
		c0.3,0,0.6-0.1,0.9-0.2c0.1,0.1,0.1,0.1,0.2,0.1c0.6,0.2,1.1-0.3,1.6-0.6c0.1-0.1,0.2-0.1,0.2-0.2c0.2-0.1,0.3-0.3,0.5-0.5
		c0.1-0.1,0.2-0.4,0.1-0.5c-0.8-1.1-3.9-0.1-5,0.2c-2.1,0.5-4.2,1.1-6.3,1.4c0.4-0.1,0.9-0.2,1.2-0.4c2.9-1.1,5.4-2.8,7.9-4.6
		c0.3-0.2,0.2-0.6-0.1-0.7c0.3-0.5-0.4-1.2-1-0.9c-0.9,0.5-1.5,0.8-2.2,1.5c-0.3,0.2-0.1,0.6,0.2,0.7c-0.1,0.2,0,0.5,0.1,0.6
		c-2.2,1.5-4.6,2.7-7,3.3c-0.7,0.2-1.5,0.3-2.3,0.5c4.2-3,7.1-9.1,7.7-13.6c0-0.3-0.2-0.6-0.5-0.5c-3.2,0.8-5.3,3.2-7.9,5.1
		c-3.4,2.4-7.1,4.2-10.8,6c0.7-0.9,1.3-1.8,1.9-2.8c1-1.5,2.1-2.9,3.1-4.4c0.1-0.1-0.1-0.3-0.2-0.2c-2.5,1.9-3.6,5.3-5.5,7.7
		c-0.1,0-0.1,0.1-0.2,0.1c-0.7,0.3-1.7,0.8-2.7,1.4c2.3-2.5,3.9-5.8,6-8.3c1.9-2.2,4.1-4.5,7-5.5c1.7-0.6-0.5,3.9-0.7,4.4
		c-0.8,1.6-2.1,2.9-3.2,4.3c-0.1,0.1,0,0.3,0.2,0.2c3-2,4.9-5.8,5.5-9.3c0-0.3-0.1-0.5-0.4-0.5c-7.9,0-11.3,10.5-15.8,15.5
		c-2.2,1.4-4.6,3.1-5.8,5.1c1.2-5.4,2.6-10.7,4.1-15.9c0.7-2.5,1.5-4.9,2.2-7.4c4.5-0.6,9.8-1.1,13.7-3.2c1.1-0.6,6-3.2,5.2-5
		c-1.2-2.7-7-0.9-8.8,0c-2.8,1.3-6.8,3.2-9.3,5.8c1.6-4.9,3.4-9.8,5.3-14.6c0.1-0.1,0.2-0.1,0.3-0.2c2.2,0.5,5.2-0.1,7.2-0.5
		c2.1-0.4,5.5-1,6.5-3.2c1.1-2.5-2.4-3.3-4-3.3c-3.5,0-6.4,1.9-8.9,4.2c1.1-2.7,2.3-5.4,3.5-8c3.2,0.7,17.4,0,13.7-5.6
		c-1.7-2.6-8.5-0.5-11.9,1.9c1.1-2.4,2.3-4.7,3.5-7.1c2.1,0.4,4.9-0.3,6.9-0.6c1.8-0.3,5.2-0.7,6.2-2.6c1-2.1-2.6-3-3.9-3
		c-2.6,0.2-5.4,1.6-7.6,3.3c1.1-2,2.2-4,3.3-5.9c0,0,0,0,0,0c3.2,0.6,7.1-0.5,9.9-2c1.4-0.7,3.1-2.5,1.1-3.5
		c-2.1-1.1-5.3-0.2-7.4,0.5c-0.3,0.1-0.6,0.2-0.9,0.4c0.6-1,1.3-2,1.9-3.1c0.3-0.1,0.5-0.1,0.8-0.2c2.8,0.6,6-0.3,8.5-1.3
		c1-0.4,3.2-1.8,2.4-3.2c-1.1-1.9-4-1.5-5.7-0.9c-1.3,0.4-2.5,1.1-3.5,2c1.1-1.7,2.3-3.4,3.4-5c0,0,0,0.1,0.1,0.1
		c0.2,0.1,0.4,0.2,0.6,0.2c0,0,0,0,0,0c-0.2,0.1-0.1,0.4,0.1,0.3c0.2,0,0.5-0.1,0.7-0.1c1.8,0.5,3.9,0.4,5.6,0
		c1.2-0.3,3.3-1,3.1-2.6c-0.3-1.7-3.3-1.8-4.4-1.6c-1.5,0.2-3,1-4.4,1.9c1-1.5,2.1-2.9,3.2-4.3c0.2,0,0.4,0.1,0.6,0.1
		c-0.1,0.1-0.1,0.4,0.1,0.4c0.2,0,0.3,0,0.5,0c0.9,0.6,2.5,0.5,3.4,0.3c1.1-0.1,2.7-0.5,3.2-1.6c0.4-1.2-1.8-2.1-2.6-2.2
		c-1.2-0.1-2.4,0.3-3.5,0.9c0.1-0.2,0.3-0.4,0.4-0.5c0.1,0,0.2,0,0.2-0.1c0.1-0.2,0.2-0.4,0.2-0.5c0,0,0-0.1,0.1-0.1
		c0-0.1,0-0.1,0-0.2c0.1-0.2,0.2-0.5,0.2-0.7c0.2-0.3,0.3-0.5,0.5-0.8c0,0.1,0.2,0.2,0.3,0.2l0.1,0c0,0,0.1,0,0.1-0.1
		c1.1,0,2.3-0.6,3.2-1c0.7-0.3,2.8-1,2.7-2.1c-0.1-1.3-1.9-1-2.6-0.6c-0.9,0.4-1.6,1.1-2.3,1.7c-0.3,0.3-0.6,0.6-0.9,0.9
		c0.3-0.5,0.5-0.9,0.7-1.3c0.5-0.9,1.7-3.3,0.5-4.2c-3.5-2.5-4.1,5.6-4,8.3c0,0.2-0.1,0.3-0.1,0.5c-0.1,0.2,0,0.4,0.2,0.5
		c-0.2,0.3-0.5,0.6-0.7,0.9c-0.4,0.3-0.8,0.6-1.1,0.9c-0.2,0.1,0,0.3,0.2,0.3c-0.2,0.2-0.3,0.4-0.5,0.6c0.6-1.5,0.6-3.3,0.6-4.8
		c0-1.1-0.2-3.4-1.8-3.3c-1.7,0.1-1.8,2.8-1.7,3.9c0.1,1,0.3,2,0.6,3c0.2,0.8,0.2,1.9,0.7,2.6c0,0,0.1,0,0.1,0c0,0,0,0.1,0,0.1
		c0,0.1,0,0.2,0.1,0.3c-0.8,1.1-1.6,2.2-2.4,3.3c-0.1,0-0.1,0.1-0.2,0.1c0,0,0,0,0,0c0,0,0,0,0,0c0.7-2.3,0.2-12-2.8-9.8
		c-2.2,1.6,0.1,10.2,2.2,10.8c-1.2,1.7-2.4,3.4-3.5,5.1c1-3.7,0.4-11.5-3.1-10.7c-2.4,0.5-1.8,4-1.5,5.8c0.3,1.6,1.2,6.3,3.3,6.6
		c0.1,0,0.1,0,0.2-0.1c0,0,0,0,0,0c-1.2,1.8-2.4,3.7-3.5,5.6c-0.3,0.2-0.5,0.5-0.8,0.8c0.4-2.8,0.1-5.9-1.1-8.4
		c-0.9-1.8-2.6-4.3-4.5-2.1c-1.4,1.7-0.2,5.3,0.4,7.1c0.6,1.8,1.8,5.5,4,6c-1.3,2.1-2.5,4.3-3.6,6.5c0.2-2.4-0.3-5-1.2-7
		c-0.6-1.2-2-3.3-3.5-2.3c-1.8,1.1-1,4.3-0.5,5.8c0.7,2.1,1.9,4.7,4,5.7c-1.5,2.9-2.9,5.8-4.3,8.7c0.2-3.2-0.2-6.6-1.5-9.4
		c-0.9-1.8-2.6-3.7-4.3-1.6c-1.6,1.9-0.4,5.1,0.4,7c0.9,2.1,2.4,4.8,4.4,6c-1.2,2.6-2.3,5.2-3.4,7.8c0.2-2.8-0.1-5.8-1.3-8.1
		c-1-2-3-3.6-4.8-1.5c-1.4,1.8,0,5.1,0.7,6.8c0.8,1.9,2,4.6,3.8,5.9c-0.3,0.2-0.6,0.5-0.7,0.9c0,0.1,0.1,0.2,0.2,0.2
		c0.1,0,0.2,0,0.3,0c-2,5.1-3.9,10.3-5.6,15.6c-2-8-1.7-16.3-1.7-24.5c0-5.9-0.3-11.6-3.6-16.7c-0.2-0.3-0.7-0.3-0.8,0.1
		c-1.1,4.1-2.3,8.2-2,12.4c-0.3-1.3-0.4-2.7-0.6-4c-0.1-0.8-0.2-1.7-0.3-2.5c0-0.3-0.1-0.6-0.1-0.9c0.1-0.5-0.1-0.8-0.4-1
		c0,0,0,0,0-0.1c0-0.1,0-0.1,0-0.2c0.1,0.2,0.1,0.2,0-0.1c0-0.1,0-0.3,0.1-0.4c0.7-1.2,0.6-2.4,0.2-3.7c-0.2-0.6-1.1-0.6-1.3,0
		c-0.3,1.2-0.3,2.1,0,3.1c0,0.1,0,0.3,0,0.4c0,0.3,0.2,0.5,0.5,0.5c0,0,0.1,0.1,0.1,0.1c0,0,0,0.1,0,0.1c0,0,0,0,0,0
		c0,0.1,0,0.2,0.1,0.2c0.7,3.2,0.6,6.4,1.7,9.5c-0.1-0.1-0.2-0.3-0.3-0.4c-0.9-3.5-2.5-6.8-3.7-10.3c0.2-1.4,0-2.5-1-3.6
		c-0.5-0.5-1.2,0-1.3,0.6c-0.1,1.6,0.3,2.8,1.3,4.1c0.2,0.2,0.7,0.2,0.6-0.2c0-0.1,0-0.1,0-0.2c0,0,0.1,0,0.1-0.1
		c1.2,2.8,2.1,5.7,3.1,8.6c-2-2.6-4.3-5-6.5-7.6c-0.1-0.2-0.4-0.1-0.6,0c-2.3,2.6-1.6,7.9-0.3,11.9c-1.2-2.6-2.7-5.1-4.4-7.3
		c0-0.1-0.1-0.1-0.2-0.1c0,0,0-0.1,0-0.1c0,0,0,0,0,0c0.2,0.1,0.4-0.2,0.3-0.4c-0.2-0.2-0.3-0.4-0.4-0.7c0-0.1,0-0.2,0-0.3
		c-0.2-0.6-0.4-1.1-0.7-1.7c-0.3-0.6-1.4-0.3-1.3,0.4c0,0.2,0.1,0.4,0.1,0.6c-0.2,0.2-0.3,0.6,0,0.9c0.7,0.7,1,1.4,1.3,2.3
		c0.1,0.4,0.7,0.4,0.9,0.1c2.2,3,3.3,6.6,5.5,9.5c0.1,0.1,0.2,0.1,0.3,0c0.4,0.7,0.8,1.4,1.3,2.1c-2.4-3-5.3-5.5-8.4-7.8
		c0-0.1-0.1-0.2-0.2-0.3c0,0,0,0-0.1,0c-0.1-0.1-0.2-0.2-0.4-0.2c-0.4-0.2-0.8-0.5-1.2-0.7c-0.3-0.2-0.7,0-0.8,0.3
		c-0.3,0.2-0.5,0.6-0.2,0.9c0.1,0.1,0.2,0.1,0.2,0.2c0.3,1,1.1,2,2.2,1c0.1-0.1,0.2-0.2,0.2-0.2c3.1,1.5,5.9,4.2,8.1,6.9
		c-4.6-2.3-13.2,0.2-15.8,3.7c-0.2,0.3-0.1,0.7,0.3,0.7c6.3-0.3,13.2,1,18,5.1c4.4,3.7,9.7,6.7,11,12.7c0,0,0,0.1,0.1,0.1
		c-0.3,1.1-0.7,2.2-1,3.3c-0.9,2.9-1.7,5.9-2.5,8.8c-1.2-5.1-3-10.1-6-14.4c-0.9-1.3-4.2-5.5-6-3.6c-2.5,2.6-0.2,7.8,1.2,10.2
		c2.4,4,6.4,7,10.3,9.6c-1.1,4.1-2.1,8.3-3,12.5v0c0,0.1,0,0.1,0,0.2c-0.4,2-0.8,4.1-1.2,6.1c-1.3-4.7-5.2-11.6-9-9.2
		c-2.2,1.4-0.2,5.3,0.8,6.8c1.9,2.6,4.8,4.7,7.4,6.5c-3.2,18.4-4.6,37.2-3.3,55.6c0,0.7,1.2,0.7,1.1,0c-1-16.1-0.1-32.4,2.3-48.5
		c0.1,0,0.2-0.1,0.2-0.2c0,0,0,0,0-0.1c2.4-0.4,4.9-3.3,6.5-4.9c1.3-1.3,4.3-4.3,2.8-6.3c-1.7-2.4-5,0.2-6.2,1.7
		c-1,1.3-1.8,2.8-2.4,4.5c0.7-4.3,1.6-8.6,2.5-12.9c0.8-1,1.8-1.6,3-1.9c5.7-0.3,9.5,6.1,12.8,9.7c3.2,3.4,7.3,5.9,11.9,7
		c0.3,0.1,0.5-0.2,0.4-0.5c-1.8-5.3-4.6-10.7-9.3-13.9c5.3,1.3,12.7,3.5,17.6,0.6c0.2-0.1,0.2-0.3,0.2-0.5c-0.8-2.4-5-4.5-7.1-5.7
		c-0.8-0.5-1.6-0.9-2.5-1.2c1.5,0.2,3,0.3,4.5,0.5c1.6,0.2,4,0.2,5.6,1.1c-0.1,0.2,0,0.4,0.2,0.6c0.8,0.7,0.7,0.7,1.6,1.2
		C71.4,122.5,71.8,122,71.6,121.7z M47.5,91.4c2-1.2,4.1-2.1,6.4-2.4c1-0.1,2,0,2.9,0.2c1.9,0.4-0.1,2.1-0.5,2.5
		c-2,1.8-4.6,3-7.2,3.6c-1.7,0.4-3.4,0.5-5.2,0.7c0.9-0.5,1.7-1,2.5-1.6c0.3-0.2,0.1-0.7-0.3-0.6c-2.1,0.5-4,1.5-5.8,2.6
		C42.3,94.3,45.2,92.8,47.5,91.4z M81.9,20c0.5-0.4,1.2-0.8,1.9-0.9c0.5-0.1,0.9,0.4,0.5,0.8c-0.8,0.9-2.1,1.3-3.3,1.6
		c0.3-0.2,0.6-0.5,0.7-0.9c0-0.1-0.1-0.2-0.2-0.1c-0.4,0.2-0.8,0.5-1.2,0.7C80.9,20.8,81.3,20.4,81.9,20z M77.6,20.4
		c-0.2,0.4-0.3,0.7-0.4,1.1c0-0.2,0-0.5,0-0.7c0.1-1,0.2-2,0.5-2.9c0.2-0.8,1.9-2.6,2.5-1c0.5,1.3-1.1,3.5-1.7,4.5
		c-0.3,0.4-0.5,0.8-0.8,1.2c0.1-0.7,0.3-1.4,0.3-2.1C77.9,20.3,77.6,20.3,77.6,20.4z M75.8,27c1-0.6,2-1.2,3.1-1.5
		c0.9-0.3,1.7-0.2,2.5,0.3c0.4,0.2,1.1,0.6,0.6,1.1c-0.7,0.7-2.1,0.8-3,0.8c-0.5,0-1.1,0-1.6-0.1c0.2-0.1,0.3-0.2,0.5-0.4
		c0.3-0.2,0-0.7-0.4-0.6c-0.6,0.2-1.3,0.5-2,0.6C75.7,27.1,75.8,27.1,75.8,27z M73.3,27.8c0-0.6-0.1-1.2-0.1-1.7
		c0-0.2-0.4-0.2-0.4,0c0,0.3,0,0.7,0,1c0,0,0,0,0,0c-0.3-1.5-0.7-2.9-0.7-4.4c0-0.9,1.2-2.9,1.8-1.1c0.2,0.7,0.2,1.5,0.2,2.2
		C74,25.3,73.7,26.5,73.3,27.8z M79.2,31.3c2.5,1.3-2.1,2.3-3,2.4c-0.8,0.1-1.6,0-2.4-0.1c0,0,0,0,0,0c0.3-0.2,0.2-0.7-0.2-0.7
		c-0.6,0-1.2,0-1.9,0.1C74.1,31.6,76.7,30,79.2,31.3z M69.6,32.9c-0.1-0.3-0.1-0.6-0.2-1c-0.1-0.7-0.2-1.4-0.5-2
		c-0.1-0.2-0.4-0.2-0.4,0.1c0,0.5,0.1,1,0.2,1.5c0,0.1,0,0.3,0.1,0.4c0.1,0.3,0.1,0.6,0.2,1c-0.6-1.1-1-2.8-1.1-3.3
		c-0.4-1.5-1.4-4.4,0.2-5.5c1.1-0.9,1.7,3.8,1.8,4.2C69.8,29.7,70,31.5,69.6,32.9z M66.3,40.6c2.3-2.2,5.4-4.1,8.5-3.4
		c1.9,0.4,1.1,1.9,0,2.6c-0.8,0.5-1.8,0.8-2.6,1.1c-1.7,0.5-3.4,0.6-5.1,0.7c0.4-0.3,0.8-0.6,1.1-1.1c0.2-0.2-0.2-0.5-0.4-0.4
		c-0.6,0.4-1.2,0.8-1.8,1C66,41.1,66.1,40.8,66.3,40.6z M64,38.6c0,0.1,0,0.2,0.1,0.3c0,0.4,0.1,0.9,0.2,1.2
		c-2.1-2.4-4-11.3-0.8-10.9c2,0.2,2,4.5,2.1,5.9c0,1.6-0.1,3.1-0.5,4.6c0-0.8-0.2-1.5-0.5-2.2c-0.1-0.1-0.2-0.1-0.3-0.1
		c-0.1-0.2-0.3-0.2-0.4,0C63.9,37.8,64,38.2,64,38.6z M62.5,46.7c2-1.3,4.9-1.7,6.9-1.7c0.8,0,2.9,0.3,2,1.5
		c-0.7,0.9-2.1,1.4-3.1,1.8c-1.7,0.7-3.4,0.9-5.2,1.1c0.4-0.3,0.8-0.6,1-1.1c0.1-0.2-0.1-0.5-0.3-0.4c-0.7,0.1-1.4,0.4-2,0.8
		c-0.2,0.1-0.5,0.2-0.7,0.4C61.5,48.3,62,47.5,62.5,46.7z M61.3,49.4c0.3-0.2,0.6-0.3,0.9-0.4c0.3-0.1,0.6-0.2,0.8-0.3
		c-0.5,0.4-1.3,0.7-1.9,1c-0.1,0-0.2,0-0.3,0.1C60.9,49.6,61.2,49.5,61.3,49.4z M59.6,48.5c0,0,0-0.1,0-0.1c0-0.1-0.1-0.1-0.1-0.1
		c-0.1-0.3-0.3-0.6-0.5-0.8c-0.2-0.7-0.5-1.4-0.8-2.1c-0.1-0.3-0.6-0.2-0.5,0.2c0.2,0.5,0.3,1.1,0.5,1.7c-0.1,0.1-0.1,0.2,0,0.3
		c0.1,0.3,0.2,0.6,0.4,0.8c0,0.2,0.1,0.3,0.2,0.5c-2.4-2.4-3.5-7.2-3.4-10.1c0-1.8,1.5-2.4,2.6-0.9c0.6,0.8,1,1.8,1.3,2.7
		c1,2.7,0.5,5.5,0.3,8.3C59.6,48.7,59.6,48.6,59.6,48.5z M56.6,57.1c2-1.6,4.4-2.7,6.8-3.4c1.6-0.5,3.6-0.5,4.6,1
		c0.7,1.1-1.2,1.8-1.9,2.1c-2.7,1-5.4,1.1-8.2,1.3c0.2-0.2,0.4-0.5,0.5-0.8c0.1-0.3-0.3-0.5-0.5-0.4c-0.3,0.2-0.7,0.3-1,0.4
		c-0.1,0-0.3,0.1-0.4,0.1C56.4,57.4,56.5,57.2,56.6,57.1z M54.5,58c0,0,0.1-0.1,0.1-0.2c0-0.5-0.2-1-0.5-1.4
		c-0.1-0.3-0.2-0.5-0.3-0.8c-0.1-0.2-0.3-0.2-0.4,0c0,0,0,0,0,0.1c-0.2,0-0.4,0.2-0.4,0.4c0.1,0.3,0.2,0.5,0.3,0.8
		c-1.7-2.2-3-5.3-2.6-7.7c0.5-3.4,3,0.3,3.5,1.5c0.9,2.6,0.5,5,0.5,7.6C54.7,58.2,54.6,58.1,54.5,58z M51.5,67.3
		c2.8-2.5,11-5.8,12.2-1.9c1.1,3.4-6.4,3.8-10.8,3.8c1-0.2,2-0.7,2.6-1.3c0.2-0.2,0-0.6-0.3-0.6c-1.1,0-2,0.4-3,0.8
		c-0.5,0.2-0.9,0.3-1.3,0.5C51.1,68.1,51.3,67.7,51.5,67.3z M49.1,68.5c0.1-0.1,0.1-0.1,0.1-0.2c-0.1-0.5-0.3-1.5-0.8-1.9
		c-0.2-0.5-0.4-1.1-0.6-1.6c-0.1-0.2-0.4-0.1-0.4,0.1c0.3,0.9,0.5,1.8,0.8,2.7c-2.1-2.5-3.7-5.7-3.8-8.8c-0.1-1.6,1.5-3.6,3-1.8
		c0.6,0.8,1,1.7,1.3,2.7c0.7,2.1,0.7,4.2,0.8,6.3c-0.6-1.4-1.2-2.8-1.6-4.2c-0.1-0.3-0.5-0.1-0.4,0.1c0.5,2.1,1.2,4.1,2.1,6.1
		c0,0.2,0,0.5,0.1,0.7c0,0.1-0.1,0.1-0.1,0.2C49.4,68.8,49.3,68.7,49.1,68.5z M46.3,78.9c2.3-2.3,4.9-4.1,8.2-4.6
		c1.6-0.2,4.5-0.3,4.7,1.9c0.1,1.1-1.5,1.8-2.3,2.2c-3,1.3-6.2,1.4-9.4,1.5c0.1-0.1,0.2-0.1,0.4-0.2c1.7-0.5,3.5-0.9,5.1-1.7
		c0.1-0.1,0.1-0.3-0.1-0.3c-1.1,0.1-2.2,0.4-3.3,0.7c0-0.1,0.1-0.1,0.1-0.1c0.3-0.4-0.1-0.8-0.5-0.6c-1,0.5-1.9,1.2-2.9,1.4
		C46.3,79,46.3,79,46.3,78.9z M40.1,69.7c-0.1-1.6,1.2-3.5,3-1.8c0.8,0.8,1.3,2,1.6,3c0.9,2.8,0.1,5.8,0.3,8.6
		c-0.1,0.1-0.1,0.3-0.2,0.4C42.2,77.6,40.3,73,40.1,69.7z M32.9,57.9c0.5-1.8,2.7,6.9,2.7,6.8c0.3,2.1,0.4,4.2,0.5,6.3
		c0.3,5.9,0.2,11.9,0.7,17.7c-0.9-4.3-1.9-8.5-3.1-12.6c-0.5-1.9-1.3-3.5-2.2-5.1C31.1,66.4,31.6,62.3,32.9,57.9z M26.9,84.3
		c1.6,1.7,3,3.6,4.4,5.4c-2.7-2.5-5.9-5-9-6.7c-1.4-0.8-12-3.3-12.9-2c3.2-4.2,11.8-4,16.1-1.8c0.1,0.2,0.3,0.4,0.4,0.6
		c0.1,0.1,0.2,0.1,0.2,0c2.1,3,4.4,5.8,6.3,9c0.8,1.5,2.5,3.6,3.7,5.8c-1.3-2.1-3.2-3.7-4.7-5.7c-1.3-1.7-2.4-3.7-4.3-4.9
		C26.9,84,26.8,84.2,26.9,84.3z M34.5,91.4c-2-3.3-3.8-6.7-6.1-9.8c-2.4-3.2-4.7-6.4-5.8-10.4c-0.3-1.3-0.4-2.7-0.6-4
		c0-0.2,0.2-6.2,1-5.3c2.8,3.3,5.8,6.2,8,10c2.3,3.9,2.8,8.5,3.7,12.9c0.6,2.7,1.3,5.4,1.9,8.1c-0.9-2.6-2.2-5.1-3.3-7.7
		c-1.9-4.3-3.4-8.9-6.2-12.6c-0.1-0.1-0.3,0-0.2,0.1c2,3.8,3.6,7.6,5.3,11.5c1.7,3.7,3.7,7.3,4.8,11.3C36.3,94,35.2,92.5,34.5,91.4z
		 M22.2,95.5c0.7-3.5,4.6,1.3,5.2,2c1.3,1.6,2.3,3.5,3.1,5.4c1,2.3,1.5,4.8,2.3,7.2c-0.8-1.9-2-3.9-3.7-4.7c-0.3-0.1-0.5,0-0.5,0.3
		c0,0.2,0,0.3,0,0.5c-0.2-0.1-0.5,0.1-0.3,0.4c0.2,0.3,0.4,0.6,0.6,0.9c0.6,1.7,2.1,3.2,3.2,4.5c0.2,0.3,0.7-0.1,0.5-0.4
		c-0.8-1.2-1.8-2.3-2.7-3.5c-0.3-0.5-0.5-1.1-0.6-1.7c1.9,1.3,2.5,4.1,3.8,5.9c0.1,0.2,0.4,0.1,0.3-0.2c0,0,0,0,0-0.1
		c0.1,0.4,0.3,0.8,0.4,1.1C28.1,109.3,20.8,103.2,22.2,95.5z M28.2,135.2c0-0.1,0-0.1,0-0.2c-0.3-0.7-0.7-1.4-1.1-2.1
		c-0.1-0.2-0.3-0.2-0.5-0.1c-0.2-0.3-0.3-0.5-0.5-0.8c-0.2-0.3-0.6,0-0.4,0.3c0.3,0.5,0.6,1.1,0.9,1.7c-2.9-2.2-6-4.5-6.2-8.3
		c-0.1-2.4,2-2.1,3.4-1.3c1,0.6,1.6,1.6,2.2,2.6c1.5,2.5,2.2,5.1,3.2,7.8c-0.1,0.4-0.1,0.8-0.2,1.2
		C28.7,135.6,28.4,135.4,28.2,135.2z M31.5,136.9c-0.4,0.5-0.8,1.1-1.2,1.8c0.3-0.9,0.7-1.8,1.2-2.6c0.7-1.3,1.6-2.6,2.8-3.5
		c1.1-0.8,4-1.1,3.8,1c-0.2,2.1-2.7,4.2-4.2,5.5c-1.2,1.1-2.6,2.1-3.9,3.1c0.7-0.9,1.4-1.7,2-2.7c0.1-0.2,0-0.3-0.1-0.3
		c0-0.1,0.1-0.1,0.1-0.2c0.1-0.2-0.2-0.3-0.3-0.2c-0.7,0.7-1.3,1.5-1.9,2.4c0.2-0.6,0.6-1.1,0.8-1.5c0.5-0.8,1.1-1.7,1.3-2.6
		C31.9,136.9,31.6,136.8,31.5,136.9z M32.6,123.8c0.9-4,6.3-7.2,9.5-8.9c4.4-2.3,8.8-4.3,13.1-7c1.6-1,2.9-2.2,4.4-3.3
		c3.9-2.9,2.3,1,1.3,3.3c-1.7,3.9-4.4,7.1-8,9.2c-1.6-0.2-3.1-0.4-4.7-0.4c-1.5,0-3.1,0.2-4.8,0.6c1.3-0.5,2.6-0.9,3.8-1.4
		c3.6-1.6,7.3-3.5,9.5-6.8c0.1-0.1-0.1-0.2-0.2-0.1c-4.2,3.9-8.9,6.3-14.3,8.3c-2.8,1.1-6.3,1.9-8,4.7
		C33.5,122.5,33,123.2,32.6,123.8z M58.6,136.8c1.8,4.1-2.9,1.1-4.7,0.1c-2.4-1.4-4.5-3.6-6.4-5.6c-2.4-2.5-5.6-7.4-9.5-8.2
		c0.9,0,1.8,0.1,2.8,0.2c2.7,1,4.8,2.6,6.9,4.8c1.8,2,3.3,4.5,5.5,6.1c0.1,0.1,0.3-0.1,0.2-0.2c-1.7-2.8-4.2-5.4-6.5-7.7
		c-0.9-1-2-1.8-3.2-2.4c2.2,0.5,4.3,1.1,6,1.6c0,0.1,0,0.1,0.1,0.1C53.8,128.6,56.5,132.1,58.6,136.8z M66.2,126.6
		c-4.1,1.4-9.6-0.4-13.7-1.3c-4.5-1-12.2-4.1-17.5-2.5c2.1-0.9,4.8-1.1,6.8-1.3c4.7-0.4,9,1.4,13.5,2.1c0.1,0,0.2-0.2,0.1-0.2
		c-5.3-1.9-10.7-3.1-16.3-2.2c-1.4,0.2-3.4,0.6-5,1.4c4.3-4.4,11.7-5.4,17.8-4.7c0,0,0.1,0.1,0.2,0.1c0,0,0.1,0,0.1,0
		c0.3,0,0.6,0.1,0.8,0.1c0,0.1,0.2,0.2,0.3,0.1c0,0,0,0,0.1-0.1c0.5,0.1,1,0.2,1.5,0.3C56.1,118.7,69.9,125.3,66.2,126.6z"/>
	<path class="st0" d="M44.5,78.7c0.1-0.7,0-1.3-0.3-2c-0.1-0.1-0.2-0.1-0.3-0.1c-0.1-0.5-0.3-1-0.3-1.5c-0.1-0.3-0.6-0.3-0.5,0
		c0.2,1.2,0.4,2.5,0.9,3.6c0,0.1,0.1,0.1,0.2,0.2c0.1,0.1,0.1,0.1,0.2,0.2c0.1,0.1,0.3,0,0.3-0.1C44.5,78.9,44.5,78.8,44.5,78.7z"/>
	<path class="st0" d="M26.2,105c-0.3-0.5-0.6-1-0.9-1.6c-0.1-0.2-0.4,0-0.3,0.1c0.2,0.5,0.4,1,0.6,1.5c0.2,0.5,0.5,1.1,1,1.4
		c0.1,0.1,0.3-0.1,0.3-0.2C26.7,105.8,26.4,105.4,26.2,105z"/>
	<path class="st0" d="M35.7,80.1c-0.2-3.7-0.7-7.6-1.7-11.3c0-0.1-0.3-0.1-0.2,0c0.5,3.7,1,7.6,1.8,11.2
		C35.5,80.3,35.7,80.2,35.7,80.1z"/>
	<path class="st0" d="M29.9,75.3c-0.7-2.1-1.9-4-3-5.8c-0.1-0.2-0.5,0-0.4,0.2c1,1.9,2,3.9,3.1,5.7C29.7,75.5,30,75.4,29.9,75.3z"/>
	<path class="st0" d="M21.5,79.4c-0.2-0.2-0.4,0.2-0.2,0.4c1,0.7,2.1,1.3,3.1,1.9c0.1,0.1,0.2-0.1,0.2-0.2
		C23.8,80.5,22.4,80.2,21.5,79.4z"/>
	<path class="st0" d="M20.9,76.3c0.3,0.1,0.6,0.3,0.9,0.4c0.2,0,0.2-0.2,0.1-0.3c-1.9-1.3-4.4-1.9-6.7-2.6c-0.1-0.2-0.3-0.4-0.6-0.5
		c-0.6,0-1.1-0.1-1.7-0.1c-0.1,0-0.2,0-0.3,0.1c-0.1,0-0.1,0-0.2,0c-0.7,0-0.9,1.2-0.1,1.3c0.1,0,0.1,0,0.2,0c0,0,0,0,0,0
		c0,0,0,0,0,0c0.7,0.1,1.4,0.1,2.2-0.1c0.2,0,0.4-0.2,0.5-0.3c0.8,0.2,1.5,0.5,2.3,0.7c1.1,0.3,2.1,0.6,3.2,1c0.1,0,0.2,0.1,0.3,0.1
		C20.8,76.2,20.8,76.3,20.9,76.3z"/>
	<path class="st0" d="M46.2,120.4c-0.1,0-0.1,0.2,0,0.2c2.7,0.3,5.4,0.9,8.1,1.2c0.1,0,0.2-0.2,0.1-0.2
		C51.7,120.7,48.9,120.6,46.2,120.4z"/>
	<path class="st0" d="M55.3,111.5c-1.6,2.4-4.5,3.9-7.2,4.8c-0.1,0,0,0.1,0,0.1c3-0.5,5.7-2.3,7.4-4.8
		C55.6,111.5,55.4,111.4,55.3,111.5z"/>
	<path class="st0" d="M48.2,107.8c-0.7,0.6-1.2,1.4-1.5,2.3c-0.1,0.1,0.1,0.3,0.2,0.1c0.4-0.8,1-1.5,1.5-2.3
		C48.4,107.8,48.2,107.7,48.2,107.8z"/>
	<path class="st0" d="M53.6,133.6c0.1,0.1,0.2,0,0.2-0.1c-0.5-1.3-1.5-2.4-2.2-3.6c-0.1-0.2-0.5,0-0.3,0.2
		C51.9,131.2,52.7,132.5,53.6,133.6z"/>
</g>
</svg>
