<?xml version="1.0" encoding="utf-8"?>
<!-- Generator: Adobe Illustrator 21.0.0, SVG Export Plug-In . SVG Version: 6.00 Build 0)  -->
<svg version="1.1" id="Layer_1" xmlns="http://www.w3.org/2000/svg" xmlns:xlink="http://www.w3.org/1999/xlink" x="0px" y="0px"
	 viewBox="0 0 462.1 369" style="enable-background:new 0 0 462.1 369;" xml:space="preserve">
<style type="text/css">
	.st0{fill:#468CC0;}
</style>
<path class="st0" d="M0.4,321.9c0.4-2.8,2-2.5,2.8-4.3c-0.6-1.6-2.1-2.5-2.3-1.1c-0.9-2.8,1.6-1.9,2.4-2c0.7,1.2,0.6,2.6,0.4,3
	c0.6,1.2,1.3,1.1,2,2.9c-1.3-3.6,0.9-1.4,1.1-4.3c-1.3-1.9-0.9,0.6-2-0.7c0.7-0.4,0.8-2.1,2.2-0.6c0.5,0.7-0.2,0.5-0.2,1.4
	c0.6,0.7,1.1,0.1,1.1,1c1.3,0.9-0.7-2.7,1-0.7c-0.7-1.3-1.7-2.4-1.5-4c1-0.4,0.6,1.3,1.7,2.1c0.2-1.1-0.3-2-0.8-2.9
	c0.3-0.3,0.9,0.3,1-0.7c1.8,1.4,0.6,3.6,2.1,5.1c-0.2-1.1-0.2-2.3-0.7-3.3c0.1-2,2.1,1.3,1.9-1.4c1.2,0.7,1.3,1.7,2.1,2.5
	c0.4-1.9,1.7-1.2,2.7-1.2c-0.5-2.9,1.4-2.7,2.6-3c0.9,0.6-0.5,1.9,0.9,2.4c0-2.8,1.6-1.9,2.9-2.6c0.6-1.2-1.1-1.7-0.8-2.9
	c1.1-0.9,1.1,2.3,2.5,2.8c0.5-0.3,0.6-0.8,0.3-1.9c3.8,3.7,3.5-3.8,6.6-1.9c-0.3-2.9,0.4-2.6,1.2-4.8c0.4-0.2,1.3,1.3,2,0.7
	c1,1.9-0.9,1.5-0.9,2.9c1.8,0.8,2.2-1.2,2.6-3c1.3,0.3,1.2,1.4,2.5,2.8c0.6-0.8,1.6,0.1,1.2-2.1c0.5,0.4,1,0.9,1.5,1.3
	c-1.2-2,0.8-3.7,2.7-1.2c-0.4-3.1,0.7-2.1,2-1.9c0.3-1.7-0.3-0.4-1-1.5c0.1-1.2,1-0.4,1.4-0.9c1.6,1.6,1,1.8,1.2,3.2
	c0.9-0.3,2.1-0.1,3.9,1.9c0,0.6-0.2,0.7-0.5,0.6c0.7,1.5,2.4,0,3.4-0.1c-2.7-0.4-3.3-3.1-5.8-3.1c0.7-4.1,3.2,1.6,4.5,0.4
	c-0.7-1.7-3-2.9-3.4-4.7c1.2,1.3,2.5,0.5,3.8,2.4c0-1.9-0.7-3.6-0.8-5.5c0.8,2.9,1.9,2.4,3.2,3.5c0.8,0.9-0.1,2.4,1.2,3.2
	c-0.1-1.4,0.1-1.5-0.7-3.3c0.5-0.3,1.9,0.9,0.6-1.1c0.7-0.2,1.7,0.7,2.7,1.4c0.5,1.2-1.9,0.8-0.5,3.2c0.6-1.8,4.5-7,5.3-2.1
	c0.7-0.1,0.7-2.2,1.8-1c-0.5-4.1,2.9-1.9,3.1-6.2c1.4,2.5,2.1,0.4,2.5,2.8c1,0.4-0.2-2.2,0.5-3.2c1.7-0.3,3.8,0.2,4.6-2.7
	c1,2.1,2.2,1,1.8-0.5c1.4,1.9,1.6,0.3,2.7,1.4c-0.7-1.2-1-1.1-2.1-2.9c0.7-0.5,2.3,0.7,3.1,1.7c1.3,0-0.3-2.5,2.2-0.7
	c-0.2-0.7-0.8-1.2-0.5-2c-0.7,0.8-1.9,0.5-3.3-0.3c1.6-0.5,3.3-0.7,4.8-1.5c0.3,0.4,0.3,0.8,0.7,1.1c-0.4,1-2.4-0.2-1.6,2.3
	c1.6,0.9,1.4-2.6,3.9-0.7c0.1-0.7,0.1-1.4,0.6-1.1c-0.1-0.7-0.3-1.4-1-1.9c0.4-1.7,1.9-0.5,2.4-2c1.1,0.6,0.9,1.5,1.8,2.1
	c0.5-1.3-1.2-1.8-0.1-2.2c1.2,0.8,0.2,2.1,1.4,1.8c0.4-0.8-0.6-1.3-0.5-2c5.2,3.6,7.4-2.5,11-1.2c0.7,0.7,0,1.8,0.5,2.5
	c1.5,0.4,1.4-3.6,3.9-0.7c-0.1-0.7-0.3-1.4-1-1.9c-0.1-1.6,0.7-0.7,0.7-2c0.8,0.5,0.6,1.3,0.5,2c1,0.8,1.2-0.6,2.1-0.2
	c0-0.6-0.6-1-1-1.4c-0.1-1.5,0.9-0.3,1-1.2c0.3,0.6,0.2,1.4,1,1.9c0.1-0.6,0.2-1.2,0.3-1.9c0.9,0.6,0.7,1.6,1.8,2.1
	c1.9-1.3,3.7-2.6,5.9-3.1c-0.4-0.3-0.7-0.7-1.1-1c0.6-0.1,0.5-2.1,1.5-1.3c0.8,0.5,0.6,1.3,0.5,2.1c1.6,0.5,3.1-2.3,3.4-3.3
	c1,1.5,1.6,1.7,2.1,0.3c-1.7-1.2-0.7-1.5-0.5-2.5c-1.7,1.4-3.4-0.6-5.2,1.1c0.1,0.8,0.3,0.2,0.7,0.7c0.2,1.9-1.2-0.7-1,1.2
	c-1.4-1.7-1.3-1.2-2.9-2.6c3.2,0.8,5.3-3.7,8.2-1.6c0-0.4-0.3-0.8-0.2-1.3c0.5-1.1,0.4,1.6,1.4,1.8c0.1-3.7,2.1-2.1,3.7-2
	c-0.5-2.3,0.5-2.4,1.6-2.3c0.3,1.7,0.1,3.5,1.4,4.9c-0.5,0.7-1.8,0.4-1.2,2.1c0.7-0.5,0.9-0.2,1.9,1.2c-0.3-1.9,0.4-1.7,0-3.1
	c0.5-0.9,1.8,0.4,1.9-1.5c2,2.6,3.3,0.4,4.4-1.3c1,2.4,1.7,1.9,2.1-0.2c0.4,0.6,0.7,1.3,0.5,2.1c1.9,0.6,2.3-2.5,4.1-2.2
	c0.1-0.9-1.2-1.4-0.9-2.4c0-1.2,1.6,1.7,1.3-0.4c0.6,0.5,0.9,1.2,1,1.9c0.8,0.1-0.9-2.2,0.6-1.5c0.9,0.6,1.4,1.3,1.3,2.2
	c0.6-1.5,3.5-0.1,2.9-2.7c0.9,0.6,0.7,1.6,1.8,2.1c-0.9-2.4,1-0.8,0.9-0.7c1.4-0.8,0.7-4.1,3.3-2.3c-0.6-2.4,1.6-1.9,2.5-2.5
	c0.3,0.6,0.2,1.4,1,1.9c-0.3-2.8,1.7-0.7,1.8-3.7c-0.3-1.8-1.9-1.7-2-0.7c-0.5-0.2,0.3-2.1,0.7-2c-0.3-2-1.2-0.1-1.6-0.4
	c-0.5-0.6-0.1-1.4-0.1-2.2c0.3-0.3,2.2,2.1,2.2-0.7c0.9,0.7,1.8,1.5,1.7,2.6c1.3,1.2,1.3-1.2,2.9,0.4c-0.2-1.1-1-2.4,0-2.6
	c0.7,3.1-0.2,5.7-1.1,7.9c0.8,0,1.9,0.7,2.8,0.9c0-0.9-0.5-2.5,0.6-1.5c0-0.7-0.5-1.3-0.5-2c0.6-1.4,0.9,0.8,2.3,1.5
	c-1.5-3.3,2.2-5,4-1.7c-0.8-2,0.9-0.3,0.8-2.4c-1.3-1.2-1.2,1.1-2.5-0.1c-0.6-1.5,1.8-0.7,2.6-0.8c-0.2-0.8-0.3-1.7,0-2.7
	c0.2-1.1,1,1.1,0.6,1.6c1,0.4,0-2.3-0.8-2.8c-0.3,0.7-1.2-0.1-1.1,1.7c-0.5-0.7-0.8-1.5-1.4-2.2c0.6-1.5,2.5,0.6,3.1-0.9
	c0.8,1.5,0.2,4.9,1.8,4.7c-1.1-2.1-0.1-1.2,0.3-2.3c1,2.3-0.3,1.3,1.8,2.1c-0.5-1.6-0.6-2.1,0-3.1c1.5,2.9,1.2-1.6,3.2,0.8
	c-2.5,1.3-3.5,4.4-7.2,3.6c2.1,2.3-1.5,1.9,0.1,4.8c0.7,0.7,0.9,0.1,1.5,0.9c-0.6-2.7,2-1.4,2.9,0c-1.5-2.1,0.2-2.4-1.5-4.4
	c0.6-0.1,0.7-1.5,1.8-0.6c0.9,1.1-1.8,0.4,0.5,2c0.2,1.9-1.3-0.7-1,1.2c0.7,0.5,0.7,1.3,1.4,1.8c0.2-3,1.4-1.1,2.4,0.6
	c-1.3-3.3,2.4-2,3.4-3.3c-0.1-1.6-0.5-1-1.4-1.8c0.4-3.1,3.8-1.5,3.5-4.2c1.3,0.6,0.6,1.9,1.3,2.7c-1.1,0.5-2.1,1.4-3.5,1.1
	c0,1.2,0.4,2.2,1.2,3.2c0-0.9,0.4-0.6,0.9-0.3c-0.1-0.6-0.2-1.1-0.6-1.6c2.2,2,4.5-1.5,4.3-4c1,4.2,2.3,1.4,4,4.1
	c0.1-0.8,0.4-1,0.9-0.7c-0.4-2.3-1.1-0.1-1.9-1.2c-1-1.5-0.2-3,0-5.8c1.9,1.8,0,2.6,0.7,4.2c1.7,1.2,0.8-0.5,1.5-1.8
	c-0.7-0.8-0.9-1.8-1.3-2.7c0.3-0.8,1.5,0.9,1.4-0.9c-1.6-1.3-1.2,2.3-3.3-0.3c-0.5,2-1,3.8-2.2,3.8c-0.8-0.8,0.7-1,1-1.2
	c-0.1-1.3-1.3-1.1-1.1-0.2c0.1,0.2,0.1,0.3,0.2,0.5c-0.1-0.2-0.2-0.4-0.2-0.5c-2.7-6.9,6-2.9,8.3-6.5c-0.5-0.4-1.1-0.9-1-1.4
	c-1-1-0.6,1.5-1.7,0.1c-0.6-1.1,0.6-3.1,1.9-1.5c-1.2-1.7-0.3-4.8,1.3-3.1c0.4,0.3-0.6,2.1-1.4,1.3c1.2,2.2,0.4,2.5,1,4.6
	c1.3,0.6,1.2,1.3,2.7,1.8c-1.2,1.4-2.8,0.1-3.5,3.8c1.7,1.6,0.7,1.9,2.5,2.8c-0.6-1.3-1.9-2.4-1.1-4.1c1.4-0.5,3.2-0.2,4.4-1.4
	c-0.9-0.6-1.4-1.3-1.4-2.2c-0.8-0.2-1.5,0-2.1,0.2c-0.4-1.1,0.2-2.1,0.4-2.8c0.7,0.4,0.7,1,0.6,1.6c1.7,0.6-0.6-2.4,1.1-2.1
	c0.6,1.2,0.5,2.5,1.2,3.6c0.4-3.5,4.5-1.5,4.9-5.1c0.7,0.8,0.5,1.9,1.7,2.6c0.4-1.2,1.7-0.4,1.6-2.7c-0.9-0.6-1.4-1.3-1.8-2.1
	c0.7-1.3,2-0.9,2.5-2.5c1.1,1.4,1.1,4.8-0.8,2.9c1,1,0.6,2.5,1.6,3.5c-0.2-3.1,1.2-2.3,2.3-4.7c-1.1-1.5-0.7,1.1-1.7,0.1
	c-0.7-2,1.2-0.7,1.2-2.6c0.7,0.5,0.7,1.3,1.4,1.8c-1.2-4.4,2.6-0.7,2.9-3.1c1.8,2.7-0.8,2.6-0.2,4.5c0.4,0.3,0.4-0.3,0.5-0.6
	c1.3,0.5,0.1,1.8,1.4,2.2c0.3-1.5,2-0.5,0.8-2.5c0.1-2,1.8,0.3,2.2-0.7c0.6,1,0.8,2.6-0.3,1.9c1.3,2.7,1.9-3.1,3.7,0.6
	c0.1-0.9,0.3-1.9,0.4-2.8c-0.8-0.5-0.9-1.2-1.4-1.8c0.5-1.2,1.1,0.3,1.9,1.2c0.1-3.6,2.6-1,5.5-0.4c0.4-2.6,4.5-0.4,5.8-2.7
	c-0.7-1.9-1.1-0.1-2-0.7c-0.5-2.2,1.8-2.4,2.9-2.7c1.2,1.8-1.4,0.5-0.3,2.3c1,0.7,1.8,1.1,2.2,1.9c0.2-1,0.2-3.7,0.3-5.4
	c0.8-0.9,1.6,1.8,2.6,2.3c0.6,0.1,1.3-2.8,2.1-0.2c0.6-1.9,1.7-2.5,3-2.7c0.3-1.2,1-2.4,2.3-3.4c2.6-1.9,5.4-1.4,7.2,0.3
	c0.8-1,2.2-0.3,3-1c0.5,1.2,0.3,2.6,0.7,3.8c1.2,0.3,3.4,3.1,4,1.4c1.8,2.1,2.5,3.3,4.6,3c-0.9-0.6-1.7-0.4-2.2-1.9
	c0.2-1.3,1.1-1,1.8-1c0.1-0.9-0.9-1.5-0.5-2.5c-0.8,0.4-3.2-1.2-2.6,0.8c-0.5-0.9-1.1-1.7-0.9-2.8c0.7-0.5,1.4,2,1.4-0.9
	c1.3,0.5,0.1,1.7,1.4,2.2c-1.1-2.3,0.1-2.6,1.5-1.8c-0.1-1.7-1-1.8-1.5-1.3c0.1-0.9,0.6-0.6,0.6-1.5c0.6,0.8,2.3,1.3,2.2,2.4
	c0.5,0.1,1-2.8,1.7-0.1c1,0.5-0.3-3.9,1.2-3.1c0.5,0.6,0.2,1.4,0.1,2.2c1.2-0.1,4.1,1.4,3.5-1.1c0.2-0.4,2-0.3,1.5,1.3
	c1.8-0.9,3.3-4.3,2.1-9.1c0.5-0.3,1.1,0,1.4-0.9c1.4,1,0.3,2.9,2,3.8c-0.4,1.9-0.8,0.8-1.7,0.6c-0.5,1.6-0.2,3,1.1,4.1
	c0.1-0.5-0.4-0.8-0.7-1.1c0.4-0.9,0.6-2.1,1.8-1c0.9,0.9-0.6,0.4-0.2,1.9c1.2,1.5,0.7-1.5,2.1,0.2c-1.1-4,2.3-2.1,4.7-0.6
	c0.1-1.6-0.4-4.6-1.9-4.3c1.2,1.9,0,1.5-1,1.2c-0.5-0.6,0.1-0.8,0.5-0.6c-1.1-1.7-2.8,0.4-4.2,0c1.8-3,5.8-3.5,9.2-4.9
	c1.1-0.4,2.1-1,2.9-1.7c0.4,0.5,0.2,1.1,0.2,1.7c0.8,0.4,1.5,0.5,1.4-1.4c1.4,2.4,1,0.1,2.4,1c1,0.7-0.7,2.3,0.9,2.8
	c-0.2-2.8,0.8-1.5,2.7-1.3c-0.1-2.2,0.1-3.8,2.3-1.6c0-2,1.2-1,1.2-3.1c4.5,4.7,7-0.8,12,0.5c-0.8-1.7-0.4-3.5,1-1.2
	c0.5-1.2-0.1-2-0.4-3c0.2-0.3,0.4-0.5,0.9-0.3c0.4,1.2,1.1,2.3,0.8,3.8c1.6,0.9-0.2-2,0.6-1.9c0.2,0,0.4,0.2,0.8,0.5
	c-0.8-2.9,0-2,1.2-2.6c0.8,0.8,0.7,1.9,0.5,3c1.2-2.8,5.1-2.1,4.7-7.3c0.7-1.2,1.2,0.1,2.1,0.2c1.1,1,0.4,2.5,1.6,3.5
	c0.4-1.3-0.2-2.3-0.8-3.3c1.2,0.1,0.4-1.1,1.1-2.1c1.5,1.9,1.2,5,0.1,5.3c0.7,0.4,0.7,1.1,0.3,0.8c2.4,1.8,5.5,3.5,6-1.5
	c1.2,0.8-0.2,2.4,1.3,3.1c-0.1-2.5,3-0.7,4.4-1.4c0.2-0.8-0.3-1.4-0.1-2.2c0.3,0.6,0.3,1.4,1,1.9c0.7-0.4,0-0.6,0.2-1.9
	c0.4,0.5,0.1,1.1,0.6,1.6c1.6,1.3,2-0.4,1.1-2.2c0.4,0.5,0.7,0.5,0.8,0.2c0.4,0.5,0.2,1.1,0.2,1.7c2.1-0.6,6.4,1.2,6.5-2.2
	c2.9,1.5,1.2-1.2,2.9-0.1c-0.1-3.5,0.8-3.2,1.5-5.4c-0.9-0.9-1.3-0.3-2-0.7c0.1-1.6,1.6,0.3,1.8-1c0.4,0.4,0.2,1.1,0.2,1.7
	c1.4-0.3,3.5,0.9,4.9,0.6c0.4,0.5,0.2,1.1,0.2,1.7c0.7-0.1,1.6,0.3,1.8-1.1c-1.1-4.5,5.7-0.1,6.7-3.6c-2.8,0.2-5.5,0.8-8.4,0.6
	c0.5-1.3,1.7-0.7,2.6-0.9c-0.4-2-1.3-0.1-2-0.7c0.1-0.9,0.2-1.9,0.4-2.8c0.7,0.5,0.7,1.2,1.4,1.7c1.4-1.6-0.2-5.2,2.6-4.5
	c0.8,1.3-0.8,2.1-0.8,3.4c0.4,0.9,1.3,1.6,1.3,2.7c0.2-0.7-0.7-5.9,1.8-4.6c0.6,0.7,0.8,1.5,0.5,2.5c1.5,1.1,0.3-3.9,2.1-3.4
	c1.3,0.7,0.2,2.3,1.7,3c0.1-0.3-0.1-0.6-0.3-0.8c-0.5-1.1,1.1-0.6-0.1-2.7c0.5,0.2,2.2,0.2,1-1.7c0.6,0.2,0.8-1,1.7-0.1
	c0.6,1.4-0.3,3.4,0.7,4.7c0.3-0.7,0.9-1.5,1.2-2.6c0.9,0.6,0.7,1.5,1.8,2.1c1.1-1,2.6-0.9,3.9-1.3c0.8,0.8-0.6,0.8-0.3,2.3
	c2.2,0.6,0.3-4.9,3.2-2.4c0.3-0.5-0.1-2.8,0.7-2c0.1-1.3-0.7,0.1-1.5-1.3c0.1-0.5,0.1-0.9,0.2-1.4c1.9,1.1,2.6-0.9,4.6,0.3
	c0.9,2-0.8,2.8-2.2,1.2c-0.2,1.2-0.5,2-1.1,2.2c0.7-0.4,3.5,1.9,3.5-1.2c1.4,0.9,0.7,2.4,2.1,3.3c-0.3-3.1,2.4-3.7,4.3-4.6
	c1.1,1.3-0.5,0.7-0.2,1.9c0.9-0.3,1,1.1,2.3,1.9c0.7-1.6,2.3-0.9,2.8-2.7c2.6,1.9,1.4-1.1,2.6-4.5c-0.9,0.6-1.4,1.8-2.7,1.4
	c-0.2,0.7,0.2,1.1,0.6,1.6c-0.3,0.8-0.9,1-1.7,0.6c-0.8-0.5,0.2-1.3,0.6-1.1c-0.8-1.2-4.4-4-4.5-1.2c-1.7-2.1-4-1.1-5.1,0.4
	c-1-1-1.1-2-1.2,0c-3.3-1.8-5.8-1.6-7.6,0.3c-1.2-2.7-2.6,0.2-3-2.6c0,0.9-0.8,1.1-1.5,1.8c0.7,0.6,0.9,0.1,1.6,0.8
	c-0.3,0.5-0.7,0.7-1,1.2c-0.4-0.6-0.7-1.3-0.6-2c-1.1-1.1-1.3,0.1-2.4-1c-0.2,0.7,0.3,1.1,0.2,1.7c-1-1-1.9-1.8-1.7,0.1
	c-0.6-0.5-1.4-1.4-1.6-0.8c-0.9-0.6,0.5-1.9-1-2.4c0.4,3.3-3.9,3.2-5.6,1.4c-1.2-0.6,0.2,1.3-0.2,1.9c-0.1,0.3-0.4,0.1-0.5,0.6
	c-1.2-0.6-1-1.7-2.2-2.4c-0.4,3-4.1,1.8-6.5,1.7c0.1,1.7-0.6,1.4-0.7,2.5c1.8,1.4,0.3-1.7,1.8-1c0,1.4,0,1,1.3,2.7
	c-0.4,3-2.2,2.1-3.4,0.2c0-1.6,1.9,1.4,1.7-0.6c-1,0.3-2.4-1.8-2.1-3.3c-1.4,0.5-3.2-0.2-4.6,0.2c-0.5-2.3-0.3-1.4-1.8-2.1
	c0.5-0.8,1.5-0.4,2.8,0.8c0.1-0.9-1.2-1.4-1-2.4c-0.6,0.8-1.8-0.1-2.6,0.4c-0.1,1.2,1.1,2,2.1,2.9c-1,1-2.7,0.2-3.2,2.4
	c0.3,1.1,1.1,2,1.3,3.1c-1.1,1-0.9-2-2.2-2.4c-0.5-0.7,0.2-0.5,0.2-1.4c-2.4-2.3-4.5,0.4-7.2-2.1c-0.7,3.1-3.1,2-4.9,2.5
	c-1.4-1.8,0.5-2.1-0.3-4.4c-2-1.1-0.6,3.2-2.4-0.5c0.1,1.4,0.7,2.7,1.6,3.9c-1.1,1.5-2.8,1.5-4.7,1.1c0.8,3.2-1.2,2.5-2.4,2.6
	c-0.4-0.5-0.2-1.1-0.2-1.7c0.2-0.5,1,0.4,1.6,0.8c0.1-0.5,0-0.9-0.3-1.3c0-0.3,0.1-0.6,0.1-0.9c-1.2-0.7-1.1,1.9-2.9-0.4
	c0.1-1.2,1-0.4,1.4-0.9c-0.6-2.2-1.7-0.6-2.4-1c0.1-3.8-1.9,0-3.6-1c0.6,1.2,1.2,3.5,0.3,3.9c-0.2-2.2-1.4-1.8-2.4-4.1
	c0,0.6-0.2,0.7-0.5,0.6c1.3,2-0.3,2.3,0.3,4.4c-0.5-0.1-2-0.9-3-0.5c-0.4,0.2-0.7,0.6-0.8,1.3c-1.2-0.8-0.9-2.1-1.3-3.2
	c-1.6-0.6-2.8-0.3-4-1.4c-0.1,0.6-0.2,1.2-0.2,1.9l1.5,1.3c-0.1-2.5,1.7-0.2,2.6-0.4c-0.3,2-2.3-0.1-2.7,1.8c-1.9-4.8-3.2-1.3-5.9-3
	c0.9,0.3,1.1-1,2.1-0.3c-0.7-2-2.2-0.7-2.9-0.4c0.2,1.1,0.7,2.1,0.8,3.3c-0.9,1-1.4-1.9-2.2-2.4c0,0.9-0.4,0.6-0.9,0.3
	c1,2.5-0.1,2.8-2.2,0.7c1.7,2.4,0,1,0,3.6c-2.1-1.8,0.8-2.4-1.6-3.9c0.8,3-0.3,2.5-0.2,4.5c-1.8-1.5,0.5-2.3-0.4-3.4
	c-1.1,0.3-1.3,0.4-1.2,2.6c-1.7-1.4,0.3-1.2-0.5-2.5c-3-2.2-2.3,1.3-3.7,3c-0.9-0.8-1-1.7-2.2-2.4c-0.2,2.1-1.8,0.7-2.4,2.1
	c-0.7-1-0.7-2.1-1.3-3.1c0-0.8,0.5-0.5,0.6-1.1c1,0.5,0.6,1.6,0.9,2.4c1.1-0.8,1-2.4,2.8-2.2c-1.2-0.3-2.7-1.4-3.3-0.3
	c-1.2-0.9,1.1-0.5-0.2-1.7c1.3,0.4,2.2-0.3,3.4-0.2c0-0.6-0.7-1-0.6-1.6c0.5-1.1,0.9,1.4,1.9,1.6c0.1-0.8,0.4-1,0.9-0.7
	c-1.9-4.9,2.6,0.4,2.5-3c1.2,0.8,0.8,2.5,1.8,2.1c0-1.8-1.5-3.1-1.5-4.9c-1-1-1.1,0.6-2.1-0.2c0,0.6,0.6,1,1.1,1.4
	c-0.2,1.6-1.3,0.8-2.2,0.7c-0.7-1.4,0.4-0.9-0.1-2.6c0.8-0.6,1.9-0.2,2.3-1.6c1.2,0.8,0.8,2.5,1.8,2.1c-0.9-6.2,5.5-3.7,8.1-4.9
	c0.6,1,0,2.4,0.8,3.3c-2.8,0.3-6-0.3-8.4,1c0.2,1.5,1.5,1.1,1.3-0.4c1.2,1.1,1.9,0.5,1.8,2.5c0.6-0.6,1.2-1.2,1.9-1.5
	c0.6,1,0.2,2.3,1.7,3c-0.2-2.5,0.3-1.8,1.5-1.8c1.2,0.6,0.6,1.9,1.8,2.5c1.8,0.2,3.1-2,3.4-3.8c0.3,0.7,1,1.2,1,1.9
	c-0.2,1.3-0.9-2-0.9,0.3c1.8,1,2.6-0.4,4.1,0.1c0.1,0,0.3,0.1,0.4,0.2c0.1-1.1,0.3-2.2,0.4-3.3c0.9,0.9,1.3,2,2.6,2.7
	c-0.2-3-1.6-2.4-2.5-3.6c0.2-1.7,2.7,2.2,2.5-0.4c1.7,1.2,0.4,3.4,2.3,4.6c0.1-0.5-0.4-0.8-0.7-1.1c1.1-1.9,3.3-1.2,5.2-1.3
	c0.2-2-1.9-3.2-2.6-2.7c0.5-1-0.2-5,1.3-3.5c1,1.4-0.7,0.8,0.1,2.2c1.1,1.6,0.5-1.3,1.6,0.4c-0.1-1.7-0.9-2,0-3.1
	c0.8,0.6,1.1,1.4,0.9,2.4c1.8,1.2-0.2-3.5,1.5-2.3c0.8,1.1-0.2,2.7,1.2,3.6c0.5-1.2-0.2-2,0-3.1c0.2-0.3,0.4-0.5,0.9-0.3
	c0.6,1.3-0.6,1.7,0.4,3.4c1-0.5,1.3,0.8,3.1,2.1c2.6,0.8,3.9-2,5.3-2.6c-0.1,3.3,4.1,0.4,6.1,1.1c0.8,2.1-2.1,0.4-2,2.9
	c2.6,1.3,2.4-3.3,4.7-1.1c0-0.6-0.6-1-1.1-1.4c-0.2-2.1,1.1-0.5,1.1-2.2c3.2,3.3,3.9-1.1,6.1,1.5c1.2-2.5,3.3-0.7,3.8-4
	c-0.8,0.1-0.5-0.5-1.5-1.3c1.4-3.4,3.8,0.8,5.3,4c-0.1-1.8-1.2-3.2-1.5-4.9c1.1,0.1,2-0.4,3.3,0.2c0.7,0.9-0.5,1.2-0.7,2.2
	c0.6-0.3,3.9,0.4,4.2-0.3c0.7,0.2,1.5,2.3,0.6,1.6c0.8,1.9,0.9-0.3,1.3-0.4c0-0.6-0.6-1-1.1-1.4c1.7-0.7,6.4,3,7.9,0
	c0.6,0.5,1.3,1.1,1.9,1.6c0.1-0.9,1.1,0.3,1-1.2c3.6,3.5,3.8-1.3,7.3,2c1.1-2.7,3.7-1.8,6.7,0c-0.7,1.7-0.4,2.5-0.9,3.9
	c2.1-0.8,3.2-4.3,5.3-2.2c-1.4-3.3-0.5-5.4-2.7-8.9c1.3,0.1,2.8,0.7,4.1,0.9c-1.5-3.4-4.5,0.1-6.2-4.2c0.1-1.1,1.4,0.9,1.9,1.1
	c-0.9-2.5,1.7-0.8,1.6-3.2c0.4,1.4,0.8,2.7,2.5,3.6c-0.9-1.9-0.4-2.5,0.1-4c1.3,1.3,3.4,2.8,2.4,0.5c1.2,0.8,1.4,2.3,2.3,1.9
	c1.1,1.3,0.3,1.1,0.2,2.2c1.1,0,2.2,0.1,2.7-1.4c1.3,1.1,0.3,2.9,1.6,3.9c0.1-0.7-0.9-4,0.7-2.5c-0.3-1-0.1-2.1-1.3-2.7
	c0.9-1.3,0.8-0.9,0.4-3.3c-0.1-1.5,1.7,1.8,1.6,0.3c0.4-1.8-1.2-1.4-1.8-2.1c0.4-0.5,1.5,0.4,1.7-0.6c0.9,0.9,0,2.4,1.3,3.1
	c-0.4-1.8,1.2-1.3,1.2,0c0-3.5,2.9-2.8,5.9-0.7c-0.3-0.9-0.2-2-0.5-3c-1.3-0.5-0.9-0.7-2.3-1.9c-0.3,0.8,0.4,1.3,1,1.9
	c-1.6,1.2-4.3-0.5-6.6-0.9c0.9-1.9,3.8,0.7,4.7-1.2c-1-0.2-2-0.4-3.2-1.1c0.5-1.2,2.2,0.5,2-2.5c0.9,0.9,0.5,2.2,1.7,3
	c0.1-0.9,0.6-0.6,0.6-1.5c0.8,0.5,0.6,1.3,0.6,2c0.8,0.6,0.6-0.9,1.6,0.3c-0.7-2.3,1.3-1.4,0.4-3.7c1.7,0.9,1.1,2.6,2.5,3.6
	c0.4-1.5,3-0.7,3.7,0.5c0.7-1.9,1.8,0.6,2.6-0.9c1.1,1.3-0.5,0.7-0.2,1.9c1.9,1.3,2.4-0.9,4.2-0.1c0-1.4-0.1-1.8-0.8-3.7
	c0.9,0.1,2-1.1,1.2-3.1c1.3,0.5,0.1,1.7,1.4,2.2c0.9,0.3,0.9-1.4,2.1-0.3c0.4-1.3-0.5-2,0.3-2.3c1.3,1.1,0.1,2.9,0.8,4.2
	c0,1.3-2.1-2.2-1.7,0.1c1,1.8,2.6,0.9,3-0.6c1.1,0.5,0.9,1.5,1.8,2c0.5-1.7,2.1-4.1,3.2-2.4c0.5,0.3,0.1-0.8-0.3-1.3
	c0.7-0.6,1.3-1.3,2.9,0.4c-0.1-1.7,0.8-0.8,0.7-2.5c-0.4,1.6-3-2-3,0.6c-1.5-1.7-0.9-2.8-2.9-3.5c0.1-3.1,1.7-0.4,2.1-0.3
	c0.1-2.2-1.5-1.1-2.2-2.8c0.1,1.4-0.3,1.5-1.3,0.4c0.1,1.7-0.9,0.9-0.3,2.3c1.1,0.6,1.2-0.6,1.9,1.6c-0.2,0.9-1.7-1.3-1.7,0.1
	c-1-1.4-0.3-2.2-1.8-2.5c1.6,2.5-1,0.3-1.7,0.6c-0.3-0.3-0.8-1.8-0.5-2.2c-0.9-0.3-2.8-1.6-3.3-0.5c-2.2-3.1-2.6-0.4-4.6-3.3
	c-0.8,1.1,0,2.7-1.2,3.1c-0.5-0.6-0.2-1.4-0.2-2.2c-2-2.2-2.3-0.3-3.6-1c0.1,1.1,0.5,1.5,1.1,1.4c0.2,2.1-1.5,0.5-0.7,2.5
	c-0.2-0.3-1.3-2.4-1.5-1.3c-1.1-1.3-0.3-1.1-0.2-2.2c-1.7-1-2.1,1.3-4.4-1.2c1.3,4.3-2.4-1.3-2,2.4c-0.8-2.5-1.3-0.7-2.2-2.4
	c0.7-0.6,1.3-1.3,2.9,0.4c-0.7-3.5,2.5-1.6,4.6-0.2c-0.4-1.1-0.7-2.1-0.5-3.4c-1.1,3.2-8.3-3.6-7.5,3.8c-1.5,0.1-2.7,1.1-4.6,0.2
	c0.1,1.1,0.5,1.5,1.1,1.4c-0.1,0.9-0.2,1.9-0.3,2.8c-0.3,0.4-0.9,0.2-1.6-0.3c0.1-1.5,1.3-0.3,1.1-2.6c-1.1-0.8-1.7-0.5-2.8-1.3
	c-0.1,0.6-0.1,1.2-0.2,1.9c-0.3,0.2-0.8,0.1-1.2,0c-0.8-0.8-0.7-1.9-0.5-3c-1.9-0.2,0.7,4.1-1.6,3.2c0.1,0.7,0.4,1.4,1,1.9
	c-0.2,0.8-0.4,1.3-1,1.2c-0.6-3.7-4.3-3.5-6.1-4.6c0.9-1.4,5-0.1,3.7-3c1.3-0.5,3.1,0.4,4.2-0.5c-0.8-2.3-1.8-0.1-2.8-0.8
	c0.6-1.4,1-0.5,0.8-2.9c1.9,3.2,1.4,0,3.3,3.3c0.5-1.8-0.6-3.1-1.6-4.4c0.5-1,1.6,1.5,2.3,1.9c0.1-1.1,0.8-0.8,0.7-2.5
	c1.1,0.5,0.9,1.5,1.8,2.1c0.2-2.3,0.5-0.3,1.7-0.1c0.5-1.6,1.9-0.9,2.4-2.6c1.3,0.6,0.6,1.9,1.3,2.7c-0.8,1-3.5-0.2-2,2.9
	c0.7,0,0.6-1.6,1.1-2.2c0.3,0.5,0.6,1,1.1,1.4c0.2-2,0.4-2.2,1.8-1.1c0.6-1.9-1.3-2.8-0.7-4.7c0.1-0.3,0.4-0.1,0.5-0.6
	c1.2,0.8,0.9,2.1,1.3,3.1c1.4,1.7,1.2-0.2,2.4,1c0.2-0.7-0.2-1.1-0.6-1.6c0.9-1.4,3.7,1.8,3.6-2.1c2.9,0.5,4-1.8,7,0.3
	c-0.1-2.2,1.2-1,1.8-1.5c-0.5-2-1-2.3-0.8-3.7c-1.7-1.4-1.5-0.9-3-2.5c0.3,2.1,0.5,1.4,0.4,3.4c-0.7,0.9-2.2-0.2-2.3,2.1
	c-1.2-1.3-0.3-3.2-0.7-4.7c-0.9-0.8-2,1.1-2.8-1.3c-1.7-0.1-2,3.2-4.7,0.7c0.4-1.5,1.5-1.1,2-2.4c-0.7-0.2-1.1,0.5-2.4-1
	c0.5,1.7,0.3,1.8-0.9,0.3c-0.5,3.4-3.9-0.3-5.1,1.3c-1.2-0.5-0.5-1.6-0.5-2.5c-1.2-1.2-1.1,0.4-2.1-0.2c1,1.3,1.6,2.7,3.3,3.8
	c0.3,0.6,0.5,1.3,0.6,2c-0.4,0.3-1.1,0.1-1.7,0.1c-0.6-0.7-0.2-1.7-1.4-2.2c-0.3,0.8,0.1,1.4,0.2,2.2c-0.1,0.4-0.8-0.3-0.9,0.3
	c-1.2-1.5,0.1-1.1-0.5-2.5c0.2-1.2,1.9,0.9,1.8-1c-7.4,0.6-14.1,3-21.9,2.5c0.9,3.4-2,2.4-3.3,0.2c0.3,1.9,1.6,3.3,1.9,5.2
	c-0.9,1.2-2.1-2-2.9-0.4c-0.4-0.5-0.2-1.1-0.2-1.7c-1.3-0.1-1.6,2.1-3.1,1.5c-0.5-4.7-3.5-1.5-6.6-4c-0.5,1.1,0.7,1.5,1.4,2.2
	c-1.8,0.4-1.2-0.3-3.2-0.7c0,0.7,1.1,1.1,1,1.9c-0.3,0.4-0.9,0.2-1.6-0.4c0.3,0.8,0.3,1.7,0.1,2.6c-0.4,1.6-1.5-1.8-1.7,0.6
	c-0.6-0.7-0.8-1.5-0.5-2.5c-3.1-0.3-3.1-1.6-5.9,0.6c-0.4-0.6-0.7-1.3-0.6-2c-1.1,3-4,1.4-5.4,3.6c-0.3-0.5-0.6-1-0.6-1.6
	c-0.8,0.2-1.1,1.7-1.3,3.5c-1-0.5-1.3-1.3-1-2.4c-2.2,1.8-6.6-1.7-7.5,3.4c0,0.1,0,0.1,0,0.2c-0.2,1.5-1.1,3-2.3,3.9
	c-0.6,0.4-1.1,0.8-1.7,1.3c-1.3,1-2.9,1.3-4.5,1.1c-1.6-0.2-3-1.1-3.9-2.3c-0.3-0.4-0.5-0.8-0.7-1.3c-0.7,0.9-1.6,1.5-3.1,1.2
	c-0.4-0.5-0.1-1.1-0.6-1.6c-0.7-0.6-0.9-0.1-1.6-0.8c-0.2,1.8,0.3,1.7-0.3,2.8c-0.4-0.8-0.9-1.5-1.8-2.1c-0.7,1.2-2,1.1-3.1,1.5
	c-0.9-0.8,0.1-1.6,0.6-1.1c-1.8-2.1-2.5,1.3-2.1,3.8c-1.5-0.7-1-2.1-0.8-3.3c-1.5,0.5-1.7,4.3-3.8,3.5c-0.7-0.4-0.3-2.2,0.4-1.4
	c-0.9-1.3-1.9-1.6-2.9-1.4c0.3-0.2,1.1-1-0.2-1.7c0.3-0.6,1.2,0.6,1-1.2c-1.3-1.2-1.4,0.5-2.5-0.1c0.7,1,0.9,3.1-0.3,2.3
	c0,0,0,0,0,0c0,0,0,0,0,0c0.1,0.8,0.5,0.2,1.1,0.9c-0.3,0.6-0.7,1-1,1.6c-0.2,0.5-0.4,1.3-0.4,2.4c-1.5-0.7-0.4-2.3-1.7-3
	c-0.1,1.5-1.2,1.9-0.5,3.7c-2,0.1-4.6-0.3-5.5,0.9c0.4,0.9,1,1.8,0.5,3c-1.6-2-0.9-3.6-2.9-3.5c-0.1-1.8,1-0.9,1.4-1.4
	c-0.9-2-1.9,1-3,0.5c0.2,0.7,0.8,1.2,0.6,2c-1-0.6-1.3,0.1-2.7-1.8c-0.4,1.2,0.5,1.9,0,3.1c-0.5,0.5-2.7-3.1-2.5,0.4
	c-0.9-0.6-0.7-1.5-1.8-2.1c0.1-1.2,0.8-1,1.4-0.9c-4.8-2.8-8.4,2.7-12.8,2.9c-0.5-1-0.5-2.2-0.4-3.4c-1-0.2-1.3,1.3-2.5,0.4
	c-0.2,1.1,0.4,1.9,0.9,2.8c-1.9,0.7-6.9-1.9-6.7,4c-1.4-1.6,0.2-1.6-0.4-3c-1.4,0.4-1.7,0.6-3,0.5c0.1,0.7,0.6,1.3,0.6,2
	c-1.1,1.2-5.3-2.5-4.7,1.1c-0.9-0.8-1-1.8-2.2-2.4c-0.5,0.7-0.4,2.8-1.8,1c0.7,4.5-4.1,0.3-4.6,3.7c-0.1-0.8-1.4-1.3-1.4-2.2
	c-0.1,0.2-0.3,0.5-0.4,0.7c-0.6,1-1.2,1.9-3,0c0,1.2-0.3,1.7-0.7,2c-0.3-0.5-0.5-1-1.1-1.4c0.3,1.3-0.9,1.7-0.9,0.3
	c-0.2,1.4-1.5,1.5-3,1c1,1.6,0.4,1.9-0.3,2.3c-0.4-0.5-0.2-1.1-0.2-1.7c-1.3-0.3-2.1,0.9-3.4,0.7c0.1-2.2,1.3,0,0.7-2.5
	c-0.8-0.2-1.7-0.6-2.1,0.2c-0.5-0.6-0.2-1.4-0.1-2.2c0.8-0.2,2.6,2.1,2.5-0.4c-0.7,0.8-1.6-2.5-2.3-1.5c-1-1.7-0.2-2.1,0.4-2.8
	c0.8,0.8,0.6,1.9,0.9,2.8c1.3,0.8,0.8-1.3,0.7-2.5c0.7-0.2,1.2-1.1,2.5,0.1c-1.8,0.1-0.2,2.9-1.6,2.7c0.2,1.6,1.7,0.2,0.9,2.4
	c-0.3,1.5-0.8-2.5-1.1-1c-0.5,2.1,0.2,1,1.4,2.2c-0.2,0.3-0.4,0.5-0.9,0.3c1.5,1.1,3.4-2.1,5.6-1.4c-1.4-2.1,0.6-0.7-0.1-2.6
	c-1,0.4-1.9,1-2.4,2.6c-2.6-5.1,1.6-4.6,2.1-6.5c2.4,1.4,1.6,3.9,3.4,5.6c-0.6-1.5,0.1-1.2,0.7-1.2c0.4,0,0.9-0.1,0.8-1.1
	c-0.2,0.3-0.7,0.3-1.3,0.2c-0.8-0.2-1.6-0.9-1.8-2.3c0.4,0.4,0.7,0.6,0.9,0.6c0.9,0.3,0.1-2.2,2.1-1.2c1.4,0.9,0.7,2.4,2.1,3.3
	l0.3-2.3c-0.5-0.4-1.1-0.8-1.1-1.4c1.2-2.6,3.6-2.5,5.1-4.3c-1.4-1.7-1.5,0-2.4-0.6c0.7-1.7,2.4-3.5,4.2-0.5
	c-0.7-0.1-1.1,0.4-1.1,2.1c0.4,1.6,1.2,0.1,1.4,1.8c1.2-0.8,1.1-4.4,3.5-1.1c-0.1-1.8,0.8-1,1.4-0.9c-0.3-0.7-0.1-1.5-0.6-2
	c2.1,0.8,3.7-2.9,5.8-0.1c0.9-0.5,1.5-1.5,2.3-2.1c0.3,0.6,0.5,1.3,0.6,2c1.1,0.6,0-1.7,0.3-2.3c1.4,1,1.4,2.5,1.6,3.9
	c1.3,0.4,2.1-0.9,3.5,1.5c-0.3-1.7-1.8-3-1.5-4.9c-1.8-0.7,0.9,3.6-1.5,2.3c-0.9-1.5-1-2.5-0.4-3.4c1.4-1.3,4.6,2,5.8,0.3
	c1.5,2-0.2,1.5-0.4,2.8c1.2,0.9,1.4-0.6,1.9-1.5c-0.3-0.5-0.5-1-1.1-1.4c0.4-0.6,1.2,0.6,0.6-1.1c1.9,1.2,1.4-3.3,4.2,0
	c-0.6-1.8,1.1-2.7,2.2-0.7c-0.7-3.6,1.4-4.1,3.3-3.3c0.2-0.7-0.3-1.1-0.2-1.7c1.7,0.9,2.4-0.7,3.5,2c0.1-1.1,0.3-2.2,0.4-3.3
	c2,0.8,0.6,2.8,2,3.8c0.3-1.9,1.4-1.9,2.7-1.3c-0.4-1.4,0-3-0.3-4.4c1.2,1.4,0.2,3.5,1.9,4.7c-1.5-3.8,1.3-4.6,3.3-3.3
	c0.8-1.1-0.3-3.5,1.2-3.1c0.5,1.4,0.4,3.3,1.4,2.2c0.7,1.1,0.6,2.5,0.3,3.9c0.3,0.4,0.4,0.1,0.4-0.1c0,0,0.1,0.1,0.1,0.1
	c0.2,0.2,0.4,0.4,0.6,0.6c0.3-1.3-0.7-2.1-0.4-3.4c0.6-1.5,1.8,1.7,3.4,2.4c0.2-1.8,1.9,0.2,2.2-1.2c-1.8-1.9-2.4-1.1-2.9,0.1
	c-0.4-0.9-1.3-1.7-2.2-2.4c1.1,0.1,0.3-1.6,2.1-0.2c0.7-1.1-1.2-1.4-0.5-2.5c1.7,1.6,3.5,0.5,5.3,0.5c-0.2-1.1-1.8-0.8-2-0.2
	c-1.5-3,0.8-3.3,2-2.9c1.4,1.7-1.5,0.6-0.2,1.9c1.9,1.7,0.3-1.7,1.8-1c0.3,4.2,3.1-1.6,6,1.6c-0.2-1.8,1.1-3.2,1.5-5.4
	c1.3,3.5,3.5-0.7,3.6-2.1c0.5,0.4,1.1,0.8,1.1,1.4c-0.1-1.3,1.3-0.3,1.5-2.3c1.9,2.6,1.5-0.5,2.7-1.8c0.7,0.8,0.5,1.9,1.8,2.5
	c1.8-3,4-1.6,6.3-3.9c0.7,0.9,0.6,2,1.4,1.7c-1.3-3.2,1-1.8,2.5,0.1c-1.4-2.2-0.7-4.4,0.9-3.9c1.2,1.8-1.4,0.5-0.3,2.3
	c0.7,0.6,0.9,0.1,1.6,0.8c-0.1-1.1-1-1.9-0.2-2.2c0.5,0.6,0,1.5,0.6,2c1.8,0.6,1.8-0.8,1.1-2.2c0.8-1,1,2.5,1.9,1.6
	c-0.9-1.9-0.3-2.8,0.4-3.7c1.3,2.2,0.7-0.2,2.3,1.5c-0.7-1.7,0.5-1.9,1.4-1.4c0.5,0.9-0.3,0.6,0.6,2c-0.7-2.6,3.8-1,1.8-4.6
	c1.2,0.8,0.6-2.9,1.9-2c1.3,1.5-0.2,1.4,0,3.6c1.1,0.4,1.5-0.8,2.5-0.4c-1.7-5.1,2.2-3.7,2.7-4.9c0.5,1.5-0.3,2.5-0.4,3.2
	c-0.7-0.4-0.7-1-0.6-1.6c-1.3-0.6-0.2,1.4-1.1,2.1c1.6,0,1.8-0.6,4.3,2.1c0.5-1.2-0.9-1.8-0.9-2.8c2.5,2.4,6.2-2.3,8.5-2
	c0.2-0.4,1.1-2.1,0-3.1c0.4-2.1,2.8,0.9,1.5-2.3c1.1,0.8,0.8,2.1,1.3,3.1c-0.2,0.5-1-0.4-1.6-0.8c0,1.8,1.5,2.3,0.4,3.4
	c1.1-0.3,0.8-1.5,1.6-3.2c0.3,0.5,0.6,1,1.1,1.4c0.2-1.6-0.9-0.8-1.3-2.7c0.3-1,1.6,0.2,1.5-1.8c-4.1-0.8-7.5,0.2-10.9,1
	c-1.3-0.5-0.1-1.8-1.4-2.2c-0.8,0.3-0.2,1.1-0.3,2.3c-1.5-1.3-0.8-3.3-0.6-5.1c1.9-0.5,5.4,2.3,6.7-0.9c0.6-0.3,1.9,1.1,2.4,0.5
	c-1.3-1.5-1.1-1.4,0.5-1.1c0.4-1-0.6-1.6-0.5-2.5c2.9,2.4,2.3,0,3.8-0.4c0.9,0.6,0.7,1.5,1.8,2.1c-0.8-1.7-0.6-3.1,0.7-2.5
	c0.9,0.6-0.5,1.9,1,2.4c0-0.9,0.4-0.6,0.9-0.3c-0.2-0.7-0.3-1.4-0.2-2.2c2.2,0.3,3.3,0.3,5.6,1.7c-1-3.5,1.8,0.3,1.9-2
	c1.1,1.3-0.6,0.8-0.3,2.3c0.7-0.4,1.4-1,2.5-0.4c0.3-0.5-0.2-2.8,0.7-2c-1.1-2-0.8-1.8-0.4-3.9c-1.5,1-3.2-1.2-3.8,0.9
	c-1.5-1.5-0.1-1.6-1.3-2.7c-0.4,1.5,0,2.7,0.8,3.7c-0.3,0.8-1,0.5-1,1.7c-1.1-2.6-2-0.8-2.5,0c-1.3-1.5,0.3-1.8-0.4-3.9
	c-1,0-0.7,0.7-0.6,2c-0.5-0.5-1.8-1.9-3.1-1.6c0.5,1,0.1,2.3,0,3.6c-0.8-1.2-1-2.6-2.5-3.6c-0.1,1.4-1.2,0.3-1.7,0.6
	c-0.1-1-1.1-1.7-1.3-2.7c-2,1.5-4.6,1.6-7.2,1.5c-0.3,2.9-3-0.1-3.6,2.1c-4-3.3-4.5,4.3-8.2-0.3c0.2,1.6-0.7,0.8-0.7,2
	c-1.2-1.3-1.8-1.2-2.7-1.8c0.5-1.3,1.9,0.1,1.1-2.6c0.5,2.2,0.9,0.8,1.9,1.1c-0.2-1.8-0.8-1.1-1.5-1.3c0.2-2.2,1.7-1.5,2.7-1.8
	c0.7,0.6-0.4,1.6-1,1.2c1.2,1.9,2.5-1,3.8-0.8c-1.1-1.3-0.9,0.7-2-0.7c2.2-0.2,2.1-2.4,3.7-3.5c1,0.7-0.7,2.3,0.9,2.8
	c0.1-0.6,0.1-1.2,0.2-1.9c2.5,1,4.2-1.2,4.9-3c-0.3,2.6,1.5,1.3,2.7,1.3c-0.3-1.1-0.1-2.2-1-1.9c0.3-3.5,2.4,1,2.7-1.8
	c1.1,1,1.3,2.2,1.7,3.5c0.8,0.4,0.7-2.6,0.4-3.3c0.5-1.3,3.6,1.7,2.6-1.3c0.4-0.1,2.3,0.5,2.3,1.4c0.1-2.1,2.2-3.4,4.8-2.5
	c-0.8,1.3-0.8,0.9-0.8,3.4c1.1,0.6,2,1,3.1,1.6c0.4-0.7-1.8-2.6-0.6-2c-0.5-2.2-1,0.4-1.3,0.4c-1.3-2.5,0.5-5.1,2.8-2.7
	c1.5-0.3,0.8-5.9,3.3-3.8c0.1-0.6,0.1-1.2,0.2-1.8c1,0.5,0.6,1.6,1,2.3c1.1,0.4,0.7-3,2.3-1.7c1.1,1.3-0.4,1.3-0.3,2.3
	c2-1.9,3.6-4.2,6.4-1.7c0.7-0.4,1.5-0.3,1.5-2.3c-0.8-0.5-1.2-1.1-1-1.9c1.7,1.6,2.9-1.7,5.4-0.1c-0.1,1.2-0.2,2.3-1,1.7
	c1,1.2,3.3,0.4,4.5,0.2c0.2-2.3-0.7,0.2-1.9-1.6c0.2-1.6,1.4-0.6,1.5-2.3c-0.4-0.6-0.7-1.2-0.6-2c-1-0.9-0.8,0.1-1.5-1.3
	c0.2-0.2,0.5-0.4,0.5-1.1c2.3,2.6,2.3,1.7,4.3,2.6c0.1,2.2-1.9-0.6-1.8,1.5c1.1,1.3,1.2,0.1,2.3,1.4c-1.1-1.4,0.3-3.4,1.2-3.5
	c0.4,0.4,0.2,1.1,0.2,1.7c1.4,1.7,1.2-0.3,2.4,1c0-0.9-1.2-1.4-1.4-2.2c0.9-1.9,3.3-0.4,4.4-1.9c-0.9-2.1-1,0.7-2-0.2
	c-0.3-0.3-0.3-0.8-0.7-1.1c1.4,0.4,1.1-1.2,1.9-2.5c-1-2.2-1.7-1.1-1.3,0.9c-1.4-0.7,0-2.7-1.4-2.2c0.2-1.4,1.5-2.4-0.4-3.9
	c-0.6,0.2-0.5,1.2,0.6,2c-0.1,0.5-0.7-0.2-1.2-0.5c-0.4,1.2,0.2,2,0.1,3.1c-1.3,0.4-2.9,0.1-3.5,2.1c-3.2-3.4-3.3,0.6-5.4,0.1
	c-1.2-3.2,1.9-2,0.9-4.8c-1.9,2.1-4.5-0.2-5.8,3.8c-1.4-1.5-2.4-2.8-2.5,0c-1.3-1.5-1.8-3.6-1.1-4.5c-0.8-1-0.6,0.4-1.2,0
	c1,1.2,0.1,2.9,1.6,3.9c-2.3-1.5-2.6,1.9-4.3,1.9c1.3-2.3,1.8-4.5,2.2-4.8c-1.8-2.6-2.7,2.3-3.7,3.5c-0.9-2-2.2-0.9-2.9-0.4
	c0,0.6,0.7,0.9,0.7,1.6c-0.1,0.3-0.4,0.1-0.5,0.6c-0.3-0.6-0.3-1.4-1-1.9c-1.8,0.6-2.9,2.8-4.6,3.8c-0.3-0.3-0.3-0.8-0.7-1.1
	c1.6-1.5,1.6-3.1,3-4.6c-2.2-1.3-3.1,0.8-5,0.4c0.1,1.6,0.9,0.2,1.5,1.3c0,1.1-0.4,1-0.6,1.5c-1.5-0.8-1.6-3-2.6-2.7
	c-0.1,0.8,0.4,1.4,0.2,2.2c0.4,0.3,0.4-0.3,0.5-0.6c0.9,0.7,2.1,3.9,1.5,1.3c2.2,1.7,1,3.1,0.1,3.1c0.6-1.6-1.8-1-1.7-3
	c-0.9-0.5-0.3,2.4-1.1,2.1c-1.3-1.3-0.1-2.8,0.4-3.3c0.1-1.2-1.4-1.9-1.3-3.1c-1.2-0.7-1.2,1.3-2.5,0.4c-0.7-1.7,0.4-1.5,0-3.6
	c-1.7-2-1.3,1.3-2.9-0.4c0.2,1.6,1.3,0.4,2.3,1.9c-0.7,0.2-1.2,0.7-2.1,0.3c1.6,1.3,1.5,2.4,2,4.2c-0.1,0.3-0.4,0.1-0.5,0.6
	c-1.3-0.5-0.1-1.7-1.4-2.2c0.1,2.9-5.7,2.7-6.6-0.5c0,1.6-1,1.1-0.3,2.8c-1.6-0.8-1.4-2.2-2.5-3.2c1.2,0,1.7-1.9,3.1-1.5
	c-1.4-1.5-3.9-0.9-5,0.3c-0.7-0.6-0.3-1.7-1.4-2.2c-0.4,1.5-0.8,3.2-3.1,1.5c0.7,2.1-0.3,2.1,1.2,4.1c-1.3-1.5-1.1,1.4-2.9,0.1
	c1.8,2.6-1.3,1.8-0.4,3.7c-2-0.6-0.1-2.7-1.7-3.5c0,1.8-0.6,2.1-1.4,1.8c-0.5-0.9-0.6-1.9-0.9-2.8c1.8-1.8,4.5-1,5.4-3.6
	c-1.1-1.3-0.6,1.2-2-0.7c-0.9,5.4-6.6-0.6-7.9,4c-4.3-3-7.6,2.9-10.6-0.9c-1,0-1.8,0.3-2.9,0.1c0.8,3.1-1.6,1.5-2.4,2.6
	c-0.4-0.6-0.3-1.4-1-1.9c0.8,2.1-0.7,2.7-1.3,0.9c-1,2.2-3.1,1.6-4.8,1.8c-0.5,0-0.9,0.1-1.3,0.3c-0.2,0.3-0.4,0.6-0.6,0.8
	c0.8,0.8,0,1.8-0.1,2.4c-0.5-0.5-0.3-1.4-0.3-2.1c-0.2,0.2-0.4,0.4-0.7,0.6c-1.6,1.2-3.3,1.4-4.8,1.1c-0.2,0.1-0.3,0.2-0.5,0.3
	c-0.1-0.2-0.2-0.4-0.2-0.5c-0.8-0.3-1.5-0.8-2.1-1.4c-0.6,0.1-1.1,0.8-0.9,1.7c-1-1.3-1-0.2-1.9-1.1c0.7,4.7-6.2,0.1-7.2,4.6
	c-3.7-3.7-4.2,4.6-7.5,0.7c0.8,0.2,1.2-0.6,1.8-1c-1.4-2-2.3,1.8-4.3,1.4c-0.8-0.1-4.3-1.7-3.4,0.7c-0.1,1.1-1.3-0.9-1.9-1.1
	c-0.9,2.1-2.9,1.2-3.7,3.4c-2.4-0.9-6,0.8-8.9,1.6c-18.8,3.7-37.2,8.4-55.2,13.9c-55.1,16.7-107.2,40.4-159.7,63.9
	c-1-0.7-0.8-1.8-0.8-2.8c6.4,0.7,9.9-6.1,16.1-5.8c-0.2-1.8,0.1-1.7,0.8-2.4c0.5,0.7-0.2,0.5-0.2,1.4c1.2,0.7,0.9-2.6,2.6-0.8
	c0.2-1.3-0.9-2.1-0.8-3.3c3.8,3,6.9,0.4,9.1-2.8c2.6-0.3,5.5,0,7-3.1c0.4,0.3,0.6,0.7,0.7,1.1c2.8-3.7,9.2-2.8,10.4-6.8
	c1,0.9,0.6,1.4,1.5,1.3c0-0.6-0.6-1-1-1.4c5.8,0.8,7.6-5.6,13.8-4.3c-0.6-2.8,2.8-1.2,3.9-1.7c1.9-0.7,2.3-3.9,4-2.1
	c1-2.3,2.7-3.1,5.2-1.6c0.7-1.1-1.1-1.4-0.5-2.5c-0.1-0.9,1.4,0.4,1.5,1.1c0.4-2.2,2.2-0.9,2.8-2.5c0.6,0.4,0.6,1,0.6,1.6
	c0.7-2.6,2.7-1.7,3.8-3.4c1.3,2.9,0.2,0.3,1.9,1.2c-0.4-1-0.2-2.1,0.3-2.3c0.3,0.7,0.8,1.2,1.4,1.8c-0.2-3.3,3.5,0,4.3-4
	c0.6,0.5,0.9,1.2,1,1.9c2.1-1.8,8.3-3.1,8.1-5.2c1.1-0.9,3.4,1.3,3.6-2c1.9,1.4,4.5,1.8,4.2-0.4c8.5-1.5,14.9-6.4,23.7-8
	c0.2-0.7-0.2-1.1-0.2-1.7c1.1,0.9,1.2,0.4,2.7,1.4c3.3-4.1,11.1-1.9,14.8-7.1c-3.1-2.1-4.5-6.9-0.6-9.8c4.6-3.4,9.7,0.9,9.5,5.3
	c0,0,0,0,0.1,0c0.7,0.9,0.2,2.6-0.6,2.1c-0.1,0.2-0.2,0.3-0.3,0.5c0.6,1.2,2.2,1,1.4-0.5c1,0.5,1.7,0.6,2.4,0.4
	c2.1-0.5,3.4-3.1,6.4-1.5c-0.5-2.9,1.7-2.7,3.8-0.8c0.2-0.7-0.2-1.1-0.6-1.6c2.9,0.5,5-1.4,7.9-0.8c-0.1-0.7-0.6-1.3-0.6-2
	c4,0.1,7.7-4.3,11.8-1.6c0-0.5-0.4-0.8-0.7-1.1c4.1-0.6,7.4-3.3,12.2-2.2c2-2.7,7.2-2.6,10.7-3.5c0.5-1.2-0.9-1.8-0.5-3
	c0.2-0.3,0.4-0.5,0.9-0.3c0.9,4.6,3.5,1.1,5.1,1.9c-0.5-2.3-1.1-0.1-1.9-1.2c-1.1-1.5,0.5-1.5,0.7-2c3.5,4.6,5.1,0.5,8,1.8
	c0.5-1.2-0.9-1.8-0.5-3c0.2-0.4,0.8,0.3,0.9-0.3c0.5,0.6,0.2,1.4,0.2,2.2c1.1,0.8,1.7,0.6,1.8-1c-0.3-0.8-1.4-1.3-0.9-2.4
	c-0.7-0.6-0.6,0.9-1.6-0.4c0.1-1.8,1.7,0.1,1.5-2.3c1.6,2.1,1.9,0.7,2.8,0.9c1,1.9-1.6,0.1-1.5,1.8c2.5,2.2-0.2,1.2-0.3,2.3
	c3.2,2.1,1.7-1,4.5,0.3c0-0.9-1.2-1.4-1.4-2.2c0.1-0.4,0.5,0,0.8,0.2c-0.1-1.1-0.5-1.5-1.1-1.4c0.2-2.6,1.6-2.1,1.8-4.6
	c1,0.6,1.4,0.5,1.8,2.1c0.9-0.3,0.5-3.9,2-2.9c0.8,0.6,0,1.8,0.1,2.6c1.1,0.8,0.9-1.4,0.3-2.3c0.2-1.4,1.9,1.2,2.1-0.3
	c0.6,0.7,0.1,1.7,1.4,2.2c-0.3-3.3,2.7-5.2,4-2.2c0.8-0.6,2.3,0.5,2.3-2.1c2.5,2.8,2.7-1.5,4.4,1.2c-0.8-5.1,5,1.1,5.3-3.1
	c2.2,0.4,3.5-1.4,5.8-0.6c1,0.9-1,0.5,0.6,1.6c1.4-4.6,6.3-0.5,8.3-3.6c-0.7-0.6-0.9-0.1-1.6-0.8c-0.4-0.5-0.2-1.1-0.6-1.6
	c1.4-0.1,3.5,1.4,4.8,1.1c-0.2-1.1-0.7-0.7-1.1-1c-1-1.3,1.1,0,0.6-2c0.5,1,0.9,1.3,1.5,1.3c-0.7-4.8,4,0.4,4.5-3.3
	c0.4,0.2,0.6,0.5,0.9,0.8c0.5,0.7,0.7,1.4,0.4,2.4c1.1,1.2,1.1-0.4,2,0.2c0-0.7-0.9-1.2-1.5-1.7c-0.1-1.9,0.6-1.6,1.1-2.1
	c0.6,0.7,0.8,1.5,0.5,2.5c0.9-2,2.9-1.2,4.3-1.9c0.6,0.7,0.2,1.7,1.4,2.2c-0.8-4.4,4.9-3.1,5.6-5.5c1.3,1.8,2.8,0.7,2.1,2.9
	c1.1,0.1,0.7-1,0.3-2.3c0.8-0.6,2.7,3.4,3.2,1.2c-1-1.2-0.9,0.3-1.6-0.3c0.1-0.5,0-0.9-0.3-1.3c2.2-0.6,5.3,0.9,6.1-3
	c0.8,2.2,0.9,1.9,2.5,3.6c0.2-1.4-1.2-2.3-2.1-3.3c-0.2-3.6,3.1,1.1,3.1-1.9c1.9,1,0.7,3.1,2,4.2c0.2-1.7-0.8-3-1.1-4.5
	c0.2-1.7,1.5,1.2,1.6,0.4c0.5,0.6,0.2,1.4,0.2,2.2c1,0.3,1.7-1.3,0.7-2.5c2.6,2.1,1.6-0.3,3.9,2.3c0.8-2,1.1-1.5,3-1
	c-0.2-1.1-1.5-1.9-0.9-3.3l-1.9-1.6c-0.8,0.2,0.5,2.2-1.3,0.4c-0.2,0.7,0.2,1.1,0.6,1.6c-1.4,0.3-5.1,2.6-6-1.5
	c-0.8-0.8-0.4,1.5-0.6,2c-1.4-1.3-1.4-2.8-0.8-3.7c-0.6-0.3-2.7,0.6-1.1,2.1c-0.7,0.9-2.3-0.5-2.3,2.1c-0.8-0.8,0.1-2.1-0.5-3
	c-1.4-1.3-2.3,2.5-3.2-1.2c-0.9-0.7-0.3,1.5,0.2,1.7c-0.7,0.4-1.6,0.5-2.8-0.4c0.1,0.7,0.6,1.3,0.6,2c-0.2,0.8-1.1,0-1.3,0.9
	c-0.3-0.6-0.5-1.3-0.6-2c-1.2,2.2-3.1,2.7-5.3,2.7c-1-0.9,0.6-0.4,0.2-1.9c-0.2-0.2-0.4-0.2-0.5-0.2c-0.6,0-0.8,1-1.9-0.3
	c-0.5,2.7-2.8-2.9-3.3-0.2c0.6,0.2,1,0.1,1.6,0.3c0.3,2.3-1.3-0.1-1.1,2.2c-0.8-0.5-0.6-1.3-0.6-2c-0.4,0-0.5,0.7-1.2,0
	c0.8,2.8-3.6,2.5-5.6,2.3c-0.2-0.2-0.2-0.4-0.3-0.5c-2.3,1.2-4.8,2-7.7,1.8c-0.5-0.6-0.2-1.4-0.2-2.2c-1.7-1.7-1.3,1.3-0.7,2.5
	c-1.1,0.9-1-2.3-2.6-2.7c-0.8,1.3,1.6,1.5,1.3,2.7c-1.8,0.5-2.6,3.5-5.5,1.4c0.5,3-0.8,2-1.6,3.2c-1.1-0.5-0.9-1.5-1.8-2.1
	c-0.7,2.1-2.2,2.2-3.6,2.5c-0.9-1.4,0.7-1.4,1-1.7c-1.6-1.3-2.7,0.4-3.2,2.4c-1.2-0.6-0.6-1.9-1.8-2.5c0.1-1.5,1.4-0.8,0.7-2.5
	c-2.8,0.8-4.1,2.4-5.6,5.4c-1.7-0.8-0.2-2.6-1.6-3.5c-2.2,1-4.3,2.3-7.5,0.7c-0.1,2.9-1.8,1.1-2.6,0.8c-0.1,0.9,0.9,1.5,0.5,2.5
	c-2.7-2-4.9,3.5-6.6,0c-2.5,1.3-7.2,0.2-8.2,3.1c-2.3-1.8-2.6,1.1-5.2-1.4c0,2.5-1.8,0.9-1.7,3.7c-1.1-0.5-0.9-1.5-1.8-2.1
	c-5,1.6-9.6,4.2-15.6,3.4c0.2,0.8,0.2,1.7,0.6,1.9c0.1,0,0.3,0,0.4,0c-0.2,0.1-0.3,0-0.4,0c-4.6,0-9,0.3-12.3,3.3
	c-0.6,1.3-2.8-1.2-3.6-0.6c0,0.6,0.7,1,0.6,1.6c-1.6-0.4-3.6-0.8-4.7,1.5c-0.7-0.6-1.5-1.3-2.2-1.9c-3.5,3.6-8.5,3.5-13.3,3.8
	c0,0.4,0.3,0.8,0.3,1.3c-2.2,0.2-4.2,0.7-6.3,1.2c-5.7,1.6-10.9,4.2-16.8,5.3c-0.2,2.8-6.3,2.3-9.5,3.5c-1.8,0.6-2.6,2.6-4.7,1
	l-0.2,1.9c-2-2.6-2.4,2-4.9-0.2c-1,1.6-2.6,2.3-4.5,2.8c-0.3,1.1-1,2.2-2.2,3c-2.8,2.1-5.7,1.3-7.6-0.6c-4.4,4.1-10.9,2.9-15,7.6
	c-3.4-1.6-4.3,3.1-7.6,1.5c-0.5,2.8-3,0.5-3.7,2.9c-4.6-0.3-8.2,2-11.7,4.6c-9.1,2.3-16.7,8.4-25.8,10.7l-0.3,1.9
	c-0.2,0.5-0.7-0.5-0.7-1.1c-4.1,3-7.6,4-11.7,7.2c-0.5-0.4-1-0.9-1.5-1.3c-0.8,0.6,0.8,3-1.1,2.1c-0.5-0.7,0.2-0.5,0.2-1.4
	c-0.8-0.3-1.5,0.4-1.1,1.6c-6.8,2.6-13.4,5.5-19.9,8.6c0.4,0.5,0.7,1,1.1,1.5c1,1.3,1.3,2.9,1.1,4.4c-0.2,1.6-1.1,3-2.3,3.9
	c-1.2,0.9-3,1.3-4.4,1.1c-1.5-0.2-3-1.1-3.9-2.3c-0.4-0.6-0.8-1.1-1.3-1.7c-0.4-0.5-0.7-1.1-0.9-1.7c-21.1,10.8-41.4,23.1-62.9,33.7
	l-0.5,70.9c0.4,1,0.5,2.1,0.4,3.1c-0.1,0.5-0.2,0.9-0.4,1.4l-0.7,94.3C-1.6,323.1-1.3,320.4,0.4,321.9z M411.7,180.9
	c0.2,1.3,0.2,2.4-0.3,2.8c-0.3-1.8-1.2-0.4-0.5,0.6c-1-0.7-1.1-1.7-1.3-2.7C410.7,181.7,410,180.7,411.7,180.9z M396.6,184.6
	c-0.9,0.1-2.4,1.7-3.3-0.2C394.2,184,395.1,183.6,396.6,184.6z M391.9,185.3c-0.2,0.8-2.4-0.3-2.7-1.8
	C389.9,184,391.6,183.6,391.9,185.3z M365.9,190c0.6-0.4,1.4-0.2,2.4,0.5C368.7,192.8,366,190.7,365.9,190z M373.9,182.9
	c-0.3,1.6-0.2,4-1.6,2.8C372.5,184,372.9,182.6,373.9,182.9z M371.6,188.1c1.2,1.9,1.3,0.8,2.7,1.8c-1.3,0.9-0.7,5.6-2.8,2.7
	C372.4,191.6,371.6,189.9,371.6,188.1z M371.3,193.5c-1.4-0.7-1.4-1.9-2.6-2.7c0.2-1.2,0.9-1,1.4-1.4
	C370.3,190.9,371.3,192.1,371.3,193.5z M367.4,184.6c0,0.9-1.3,1.4-0.3,2.8c1.1,1.5,1.8-1.2,2.4,1c-0.8,0.3-1.4,1.1-2.9-0.4
	c0.2-0.8-0.2-1.4-1-1.9C365.9,184.8,366.5,184.3,367.4,184.6z M356.5,188.7c1.1,0,2.1,2.3,2.5,0.1c-0.5-1.4-1.7-0.5-1.8-2.5
	c0.8-0.3,1.7,0.2,2.7,1.8c-0.3,2.6-2.2,4.4-3.6,2.1C357,190.4,356.3,189.4,356.5,188.7z M356.9,198.3c-0.7,1.2-1.7,2-3.4,0.7
	C354.3,197.9,355.8,198.5,356.9,198.3z M354.6,190.2c-0.2,1.1-0.8,1.3-1.7,0.6c0.1-0.6,0-1.2-0.2-1.7
	C353.2,189,353.8,189.3,354.6,190.2z M350,187.2c0,1.5-1.4-0.1-2.1-0.2C347.7,184.8,349,186.4,350,187.2z M347.9,193.7
	c0.4,1.8-1.1,1.5-0.5,4.2c-1.6-0.5,0.1-2.1-0.9-2.8c-0.9-0.6-0.5,2-1.7,0.6C345.1,193.4,346.6,193.8,347.9,193.7z M342.5,187
	c0.2,0.5,0.6,3-0.3,2.3C341.8,188.3,341.1,186.3,342.5,187z M338.6,191.4c1.6,1.1,2.3,3.9,1.5,4.4
	C339,194.5,338.5,193.1,338.6,191.4z M336.2,194c1.3,2.4,1.3,0.1,2.7,1.3c-0.3,1.8-2.1,0.2-2.4,2.1c-0.7-0.6-1.2-0.9-1.6-0.8
	C335.7,195.3,336.5,196.8,336.2,194z M333.1,185.7c-0.1,0.8-0.2,1.6-0.3,2.3c-1-0.7-0.8-1.8-0.9-2.8
	C332.4,185.6,332.5,185,333.1,185.7z M329.7,192.6c0.5,0.3,0.8-0.1,1.6,0.8c-0.7,0.9,0.2,2.1-1,1.7
	C330.3,194.2,329.2,193.6,329.7,192.6z M334.3,196c-1.3,0.2-3.8,3.9-5.4-0.5C331.4,197.8,332.4,193.3,334.3,196z M322.5,196.7
	c0,0.7,0.5,1.3,0.6,2c-1.1-1.3-0.9,0.7-2-0.7C321.3,197.1,321.7,196.4,322.5,196.7z M311.9,197.5c-0.1,0.9-0.2,1.9-0.4,2.8
	c-1.6-2-1,1.1-2.4-0.5C309.7,198.1,310.9,197.9,311.9,197.5z M307.6,198.5c-0.5,0.9-0.3,3.3-1.5,2.3
	C306.3,199.2,306.4,197.3,307.6,198.5z M305.8,200c-0.9,0.9-2.1,1-3.4,0.7C303.1,199.5,304.6,197.8,305.8,200z M302,200.3
	c0,1.6-0.7,1.5-1.4,1.4C300.1,200.5,300.8,199.2,302,200.3z M403.2,165c0.8-0.8,2.3,2.6,1,2.4C404.2,166.5,402.9,166,403.2,165z
	 M443.1,144.8c0,0.7,0.4,1.3,0.2,2.2c-0.7-0.7-0.9-0.2-1.6-0.8C441.8,144.8,442,143.6,443.1,144.8z M437.2,145.9
	c1.5,2.6,0.8-0.5,2.1,0.2C440.4,148.6,436.7,148.6,437.2,145.9z M429.9,143.9c1.1,0.9,1.1,2.8,2.2,2.4c-0.3,3.3-2.6-1.4-4-1.3
	C428,143,430.1,146.3,429.9,143.9z M419.9,140.2c0.9,2,1.2,0.4,1-1.2c1.7,2,0.7,5.5-0.9,4.3C419.3,141.8,419.5,140.5,419.9,140.2z
	 M429.5,126.2c-0.7-0.2-1.6,1.4-1.9-1.1C428.3,126.1,429,123.9,429.5,126.2z M420.3,123.1c0.6-0.5,0.8-2.1,2.2-0.7
	C422.5,124.5,421.6,124.2,420.3,123.1z M425.2,123.6l1.1,1c0,0.7,0.4,1.3,0.2,2.2c-1.3-2.1-0.9-0.3-2-0.7c0.1-0.8-1-1.1-1-1.9
	C424.6,124.1,424.9,125.6,425.2,123.6z M424.6,118c-1.5,0.2-2.5,1.9-4.3,1.5C420.8,117,423.4,116.8,424.6,118z M414.3,124.6
	c0.4,0.3,0.8,0.6,1.1,1c0.2,1.8-0.8,1-1.4,0.9C414.1,125.9,414.2,125.3,414.3,124.6z M407.6,125.1c-0.6,0.4-0.2,3.1-1.5,1.8
	C406.3,125.5,406.2,123.7,407.6,125.1z M404.1,126.3c0.4,0.3,0.8,0.6,1.1,1c-0.1,0.5-0.1,0.9-0.2,1.4c-0.1,0.9,1.2,1.4,1,2.4
	c-1.2-1.6-0.5,1.3-1.6-0.3C404.5,129.1,403.8,127.9,404.1,126.3z M392.6,159.7c0.9,0.7,1.8,1.5,1.8,2.5
	C394,162.4,392.4,161,392.6,159.7z M403.6,155.1c-1.1,0.4-0.7-1.7-2.2-2.4c0.1-0.8,0.2-1.5,0.3-2.3c0.6,0.8,1.7,0,1.9,1.6
	c-0.3,0.6-1.2-0.2-1.7,0.1C402,153.2,404.1,153.7,403.6,155.1z M413.6,140.5c0.4,0.5,1.1,0.8,1.1,1.4c-0.7-0.4,0.3,2-1.3,0.4
	C413.5,141.7,413.6,141.1,413.6,140.5z M414.1,143.9c-0.3-0.2-0.5-0.4-0.8-0.6c0.1,1.3,0.7,2.4,1.2,3.6c-0.8-0.6-0.6,0.9-1.6-0.3
	c0.6-3.4-2.1-0.8-2.5-3.2C411.7,144.2,412.7,141,414.1,143.9z M415.2,152c-1.5-0.7-0.6,0.6-1.7,0.6c0.5,0.9,0.4,2,0.5,3
	c-0.4,0.5-1,0.7-1.7,0.6c-0.7-1.1-0.9-2.4-1.2-3.6c0.1,3.2-1.2,2.6-2.1,3.4c-2.1-2.4-2.7-1.7-4.7-2.4c-0.2-2.3,2.8-1.5,4.3-1.5
	c-0.7-0.5-0.9-1.2-1-1.9c1.3-0.5,1.9,0.1,1.9,1.6C410.2,151,412.7,148.5,415.2,152z M409.1,143.4c0,0.6,0.5,1,1.1,1.4
	c-0.7,1.3-2.8-0.8-3.4,0.7C407,143.5,407.8,143.7,409.1,143.4z M408.5,148.9c-0.7-0.4-1.1,0.2-2-0.7
	C406.5,146.7,408.4,147,408.5,148.9z M406.6,143.8c0.1,1.6-1.9,1.3-2.4-0.5C405.2,143.9,405.5,142.8,406.6,143.8z M404.4,148.6
	c-0.1,0.6-0.1,1.2-0.2,1.9c-0.7-0.5-0.8-1.2-1.5-1.7C402.7,147.4,403.4,147.6,404.4,148.6z M400.9,132.3c0.8,0.1,1.9,0.9,2.8,1.3
	c-0.8,0.6-1.3,2.1-2,2.9c0.1-0.8-0.2-1.4-1-1.9C400.7,133.9,400.8,133.1,400.9,132.3z M401.9,144.9c0.4,1,0.3,2.6-0.3,2.8
	c-1.3-0.5-0.1-1.7-1.4-2.2C400.3,144.4,400.9,144.2,401.9,144.9z M398.4,132.7c0.9,3.7-2.2,2.9-2.9-0.4
	C397,135.1,397,132,398.4,132.7z M399,148.1c-1.8-1.1-2.1,1.4-3.8,0.4c1.3,0,1.3-3.3,3.2-1.9C398.3,147.2,399,147.6,399,148.1z
	 M395.5,135.5c-1.5,0.4,0.4,2.4-1.1,2.6C393.9,136,393.8,134.8,395.5,135.5z M393.6,158c0.2,1.6,1,0.2,1.9,1.6
	c-0.1-2.6,1.9-0.2,2.3-1.7c1.4,1.7,2.1,2,3.1,1.6c0.1-0.8-1-1.1-1-1.9c2.8,1.5,2.4,3.5,2.9,7.1c-0.8-0.5-0.7-1.3-1-1.9
	c-0.1,0.8-1.1-0.6-1.2,0c0.7,0.5,1.2,1.1,1.5,1.7c-0.3,1.5-1.4,0.3-0.3,2.3c-0.5,0.1-0.8,0.8-2-0.7c-0.1-0.9,0.7-0.7,0.2-1.4
	c-0.7,0.3-1.6,0.2-2.5-0.1c0.3-1.7-0.3-0.4-1.1-1.4c-0.1-1.8,1.3,0.4,1.4-0.9c-1.6-1.9-2-0.8-3.1-1.6
	C394.1,160.1,392.2,157.8,393.6,158z M391.8,128.7c0,0.6,0,1.2,0.6,1.6c0.5-1.1-0.4-1.7-0.1-2.6c1.6,1.1,0.7,3,1.1,4.5
	c-0.9-0.1-1.3-2.4-1.5-1.3c0,1,0.9,1.8,0.9,2.8c-0.5-0.4-1-0.8-1.5-1.3c0.1-0.8,0.2-1.6-0.6-2C390.8,129.2,390.9,128.1,391.8,128.7z
	 M390.3,141.2c-0.1,0.6-0.1,1.2-0.2,1.9c-0.6-0.8-1.5-1.6-1.8-2.5C389.4,141.9,389.1,139.9,390.3,141.2z M383.9,142
	c0.7-0.5,1.2-1.5,2.2-1.2C386.1,143,384.9,142.1,383.9,142z M386.2,123.4c-0.5,1.5-1.6,1.3-3,0.5C383.5,122,384.4,121.8,386.2,123.4
	z M382.2,152.4c0.7-2.9-1.6-7.2,0.8-6.5c-0.7,1.8-0.2,7,2.4,7.7c0.6,1.4-0.3,1.2-0.7,2c-1.3-2.2-1.9-0.1-3.2-0.7
	c0-2.7-0.9,0.3-2.3-1.9C379.8,151.8,381.5,153.2,382.2,152.4z M379.7,146.1c0.5,0.4,0.6-0.2,1.2,0.5c0.9,1.7-0.2,4-1.6,3.2
	C379.4,148.6,379.5,147.4,379.7,146.1z M377.1,136.7c0,1.7-2.4,0.9-2.9-0.4C375.2,136.6,375.7,135.6,377.1,136.7z M374.3,125.2
	c0,2-1.6,0.1-1.5,2.3c-0.7-0.5-1.2-1.1-1.4-1.7C372.1,125,372.6,123.6,374.3,125.2z M368.2,165.1c-1.9-1.6-1.8,1.7-3.7-0.1
	C363.8,163.3,367.8,162.4,368.2,165.1z M360.5,163.2c0.9,1,0.9-0.2,1.9,1.1c-0.4,1.7-0.4,1.2-0.4,3.3c-1.5-1.7-1.9-0.6-3.1-1.6
	C359.1,164.3,360.8,166.3,360.5,163.2z M357.2,129.1c0.1,1.7-0.8,0.8-0.7,2.5C354.6,130.1,356.1,128.3,357.2,129.1z M353.8,167.3
	c-0.3,1.4-1.4,1.1-2.2,1.2C351.8,167,352.3,166,353.8,167.3z M345.2,168.7c-0.3,1.1,1.4,1.6,0.9,2.8
	C344.9,171.2,344.2,168.4,345.2,168.7z M342.6,169.6c0.9,0.6,0.9-1,2.1,0.2C344.7,171.2,342.8,170.9,342.6,169.6z M344.4,135.1
	c0,1.3-0.7,1.1-1.7,0.1C342.8,133.9,343.5,134.2,344.4,135.1z M342.4,161.2c0-0.7-0.5-1.5,0.5-0.6c0.2,0.8,0.3,1.7,0.1,2.6
	c-1.8-1.2-2.1,1.4-3.5,1.1C339.1,161.3,340.9,162,342.4,161.2z M340.7,155.6c0,1.3-0.7,1.1-1.7,0.1
	C339,154.3,339.7,154.6,340.7,155.6z M337.2,133.1c0.1,1.2,0.7-0.1,1.1,1.4c-0.3,2-2.6,2.1-3.7-0.1
	C336.4,136.3,336.3,133.4,337.2,133.1z M334.1,161.3c1,1.4,1.5,1.9,1.7-0.1c0.7,0.5,1.2,1.1,1.4,1.8c0,1.6-0.8,1.4-1.1,2.1
	c-1.3-1.5-1.7-0.8-2.4-1C334.4,163,333.9,163,334.1,161.3z M333,170.1c-0.5,0-1.1-0.3-1.9-1.1C330.9,167,333.1,168.7,333,170.1z
	 M329.8,168.9c-0.2,1.4-0.6,2.1-1.5,1.8C328.9,170.4,328.6,167.7,329.8,168.9z M326.1,168.8c0.7,1.8-0.2,2.5-1.4,1.3
	C324.6,168.4,325.6,169.3,326.1,168.8z M325.3,171.8c0,0.8-0.2,1.1-0.4,1.4c-0.2,0.2-0.5,0.4-0.7,0.8c0.3,0.2,0.6,0.1,0.9,0.3
	c0.1,0.1,0.2,0.3,0.3,0.6c0,0.1-0.1,0.1-0.1,0.2c-0.9,1.1-2.1-0.2-3.5-1.2c0-0.7-0.4-1.3-0.1-2.2c1.2,0.6,1.1,1.7,1.8,2.5
	c0.5-2,0.9-2.3,0.2-4.5c0.4-0.2,0.7,0.2,0.9,0.6C324.6,170.7,324.9,171.3,325.3,171.8z M320.1,163.7c0.7,0.5,1.2,1.1,1.4,1.8
	c-0.1-1.8,1-2.1,1.9-1.4c0.4,0.3,0.8,0.7,1,1.3c-0.4-0.3-0.6-0.4-0.8-0.3c-0.6,0.3-0.7,1.9-2.1,0.3c-0.1,1.7-0.9,2-2.2,0.7
	C319.4,164,320.6,166.1,320.1,163.7z M322.3,168.7c1.3,3.8-2,3-4,2.2C319.1,168.9,320.7,168.6,322.3,168.7z M319.3,175.9
	c0.1,2-1.9,0.2-2.4-1C317.3,172.8,317.9,175.1,319.3,175.9z M316.8,169.7c0.4,0.5,1.1,0.8,1.1,1.4c-1-1,0,2.9-1.4,0.9
	C316.6,171.2,316.7,170.4,316.8,169.7z M315.7,138.8c-0.4,2.1-1.6,2.1-2.8,2.2C313.4,139,314.5,138.9,315.7,138.8z M314.7,166.8
	c-0.4,2.9-3.4-0.2-3.8-2.8C312.2,165.4,312.3,166.2,314.7,166.8z M300.4,138.5c0.9,0.6,1.4,1.3,1.4,2.2c-1.2-0.2-1.2,2.4-3,0.5
	C299,139.5,300,139.8,300.4,138.5z M258.6,194.4c0.3-1,0.8-1.7,1.5-1.8c-0.2,0.7,1.9-0.3,1.8,2.1
	C260.7,194.2,259.7,194.5,258.6,194.4z M267.7,219.9c-1.3-1.3-0.9,0.7-2.2,0.7c-0.2-0.8-0.3-1.7-0.1-2.7c1.3,1.7,1.2-0.2,2.4,1
	C267.7,219.3,267.7,219.6,267.7,219.9z M268.1,191.7c1.3,0.4,1.4-2.2,3.4-0.2c-0.6,1.6-1.9,0.1-1.9,2
	C269,192.9,268.1,192.5,268.1,191.7z M269.2,186.9c-0.1,0.9,1.2,1.4,0.9,2.4c-0.6,0-1.1,0.5-1.7,0.6
	C268.5,188.3,267.9,186.8,269.2,186.9z M268.5,219.6c0.1-1.8,0.9-1.9,1.9-1.5C269.8,218.8,269.6,220.3,268.5,219.6z M269.1,224.7
	c1-0.7-0.4-3.2,0.5-3.7c1.5,0.4,1.4,3.6,2.1,2.9c0-1-1-1.8-0.4-3c1.1,1,1.2,2.3,1.6,3.5C271.5,224.3,271.1,226.5,269.1,224.7z
	 M273.1,219.4c0.1-0.8-1-1.2-1-1.9c0.9,0.6,0.9-1,2.1,0.2C274.1,219,274,220.1,273.1,219.4z M274.3,192.4c-0.1-1.4-1.1,0-1.9-1.2
	c0.4-1.7,1.6-1.3,2.7-1.3C275.4,190.8,274.9,192.2,274.3,192.4z M278.3,218.2c-1.5-0.7-2.2,0.6-3.7-0.1c0.9-1.4,2.6-0.8,3.9-1.3
	C278.4,217.3,278.4,217.8,278.3,218.2z M278.3,212.5c-0.4-1-0.3-3.3,0.7-2.5C278.7,210.6,279.1,213.1,278.3,212.5z M279.3,217.5
	c0.1-0.6,0-1.2-0.2-1.7c0.8,0.6,2.3-0.4,2.7,1.3C280.6,216.2,280.7,218.9,279.3,217.5z M280.7,190.7c0.4-0.5,1.5-2.5,2.1-0.2
	C282,190.3,281.8,191.7,280.7,190.7z M282.7,219.9c-0.1-1.7,0.8-0.8,0.7-2.5c-0.9-0.8-1.3-0.1-1.4-1.8c0.9,0.3,2.3-1.1,3.2,1.2
	C284.7,218.3,284.6,220.8,282.7,219.9z M289.7,201.6c0.1-1.3,0.4-1.9,1.4-0.9C291,202,290.7,202.6,289.7,201.6z M295.3,184.7
	c-1.5-0.7-1.7-3.9-0.4-3C295.2,182.6,295.8,183.5,295.3,184.7z M296.8,186l1.1,1c0.1,1.8-0.8,0.9-1.4,0.9L296.8,186z M296.2,183.9
	c-0.2-1.1-1.2-2-1.7-3c0-1.3,0.9-0.5,1.7-0.1C295.9,181.7,297,184.3,296.2,183.9z M295.9,179.6c-1.3-1.5-2.2,1.3-2.9-0.4
	C293.8,178.7,295.3,176.2,295.9,179.6z M293,189.4c0.5,2.2-1.6,0.8-1.6-0.4C292,189.4,291.9,187.9,293,189.4z M290.9,183.5
	c1.2,0.8,1.1,2,0.8,3.3c-1.9-1.9-2.2,0.3-3.7-0.6c-0.1-1.8-1.4-2.9-0.3-3.9c1.5,0.7,1.1,2,1.7,3
	C289.8,184.6,290.7,184.9,290.9,183.5z M288.9,189c-0.4-0.2-0.7-0.1-1,0.1c-0.3,0.2-0.6,0.4-1.1,0.1c0-0.4,0.2-0.8,0.5-1.1
	C287.7,187.6,288.5,187.6,288.9,189z M289.5,181.2c-0.3,2.4-1.5-1-2.8-0.9C287.2,179.5,288.8,179.7,289.5,181.2z M286.2,215.2
	c1.1,1.4,0.8-0.5,1-1.2c0.9,0.6,1.4,1.3,1.4,2.2c-1.8-1.3-1.1,2.8-1.7,3.2C285.2,217.7,286.6,217.5,286.2,215.2z M286.1,178.3
	c-0.9-0.7-0.3,1.5-0.2,1.9l-1.5-1.3C284.3,177.3,285.6,176.3,286.1,178.3z M283.5,185.4c-0.5-1.7-0.5-3.2-0.4-4
	c0-0.2,0.1-0.3,0.1-0.4c1.3,3,0.4-1.3,2.1,0.2c-0.2,1-0.4,1.9-0.6,2.7c-0.3,1.3-0.4,2.5-0.3,4.2c-2.8-3-3.7,1.7-5.3,2.6
	c-0.1-0.9,0.8-2-0.1-2.6c-0.3,1.4-1.3,1.2-1.6,2.7c0.5,0.3,1-0.1,1.1,1c-1.3-1.1-2.2,2.2-3.3-0.3c1.5,0.7,1.9-2.8,0.2-4.5
	c1,2.9-2.5,2.2-3,1c0.8-0.2,3.6,0.2,2-2.4c-0.2,0.5-0.6,0.5-1.2,0c0.7-2.6,3.6,2.1,4.7,2.5c0.1-0.8,0.2-1.5,0.3-2.3
	C280.7,187.7,282.1,186.7,283.5,185.4z M277.1,174.1c0.1-0.6,0.2-1.2,0.2-1.9c0.3,0.3,0.6,0.5,0.9,0.8c0.1,0.1,0.2,0.1,0.3,0.2
	c0,0.1,0,0.1,0,0.2C278.4,174.6,278,175.1,277.1,174.1z M270.3,157.9c6.2-4.6,13.4,5,7.2,9.6C271.3,172.1,264.1,162.5,270.3,157.9z
	 M267.7,203.9c0.4,1.1-1.5,3.6-2.3,1.6C266.1,204.6,267,204.6,267.7,203.9z M262.3,182c0.7,0.4,0.9-0.7,2,0.7c-0.5,1.7,0,3-0.2,4.5
	c-0.6-0.6-1.2-0.9-1.6-0.8c0-0.3,0.1-0.6,0.1-0.9c-0.2-0.2-0.4-0.5-0.3-0.8C264.3,186.1,262,182.9,262.3,182z M256.8,189.1
	c1.7,0,2.2,1.1,1.9-1.5c0.8-0.3,1.5,1,1.8,2.1c0.8-2.4,3.8-2.4,5.8,0.3c-2.6-1.2-4.3,0.6-4.9,2.5c-0.1-1.1-0.8-2.1-1.7-3
	c0.6,1.7,0.6,1.9-0.3,2.3c-0.7-0.5-0.7-1.3-1-1.9c0.4,2.3-0.2,0.8-1,1.2c1.3,1.4,0.1,2.2-1,1.2C255.8,191,256.9,191.1,256.8,189.1z
	 M382.1,98c0.8,0.9,0.1,2.9-0.6,2C381.2,99.5,380.8,96.4,382.1,98z M378.5,97c-0.6,1.1,1.2,1.4,0.5,2.5c-0.5-0.4-1-0.8-1.5-1.3
	C377.6,97.1,377.9,96.5,378.5,97z M422.4,50.8c1.7,2.3,0.7-1.8,2.4,0.5c0.2,2.4-2,2.2-2.6,0.9C422.9,52.6,422.2,51.6,422.4,50.8z
	 M389.6,52.2c-0.1,2.4-1.5,0.7-1.7,0.6C388.4,52.4,388.4,51,389.6,52.2z M369.6,74.1c-0.1,1.3-1.5,2.8-2.2,0.7
	C368.2,74.7,368.4,73.1,369.6,74.1z M359,104.4c0.8,0,2.3-1.2,2.9,0.4C361.2,105.1,359.7,106.4,359,104.4z M375.7,89.9
	c1.1,1.7-0.4,2.3,0.9,3.3c-0.2,0.8-0.4,1.3-1,1.2C376,92.8,373.8,89.3,375.7,89.9z M367.2,91c2.1,2.9,0.6-0.6,2.3,1.9
	c0.8-1,2.3-3.4,3.5-1.6c-0.3-0.2-1.3,0.6-0.5,1.1c0.5-0.7,1.3-0.7,2.5,0.1c0,1.6-1,0.8-2.1-0.2c-0.2,1.4-1.7,1.2-0.8,3.4
	c-2.1-1.2-2.2,3.1-4.5-0.3c0.9,2.4-0.7,2.8-1.9,2C367.5,96.1,366,93.4,367.2,91z M356.1,93.8c0.9,2,1.2,0.4,1-1.2
	c0.6-0.1,1,0.3,1.5,1.3c0.7-2.4,3.4-0.1,4.1-2.7c1.1,0.7,1.4,3.5,1.6,0.8c1.2,0.9,2.5,4,0.8,3.3c0-0.6,0-1.2-0.6-1.6
	c1.7,4.5-1.4,4-2.3,5.7c-0.6-0.5-1.2-1.1-1.9-1.6c-0.8,0.5-0.7,3.1-2.3,1.6c-0.6-2.6,1.2-3.7,2.5-3.5c-0.4-0.5-0.2-0.7,0.1-0.9
	c-0.8,0.1-2.2-1.3-2.8-0.8c-0.2,2.6-0.5,4.7-2.4,3C357.1,96.6,355.9,95,356.1,93.8z M355.2,49.5c-0.1,1.8-1.2,1.1-2.1,0.7
	C352.4,48.7,353.8,48.2,355.2,49.5z M352.7,98c1.2,1.5,1.8,1.3,1.7-0.6c0.4,0.3,0.7,0.6,1.1,1c-0.5,1.8-1.9,1.3-3.1,1.5L352.7,98z
	 M348,99.2c0.2-1.4,1.1-1.3,2.5,0.1C350.1,100.4,348.9,99.3,348,99.2z M349.8,52.6c-1.3-0.8-1.5,1.1-3.2-0.7
	C346.9,50.7,349.1,50.7,349.8,52.6z M343.3,100.3c1.5,1.2,2,0.1,2.6-0.9c-0.9-1.2-1.5-2.5-1.2-4.1c0.9,0.4,1.6,0.3,2.7,1.3
	c-0.1,1.5-1.2,0.7-1.1,2.6c1,1.5,2.3,0.1,3.1,1.6c-0.5-0.2-0.8-0.1-0.9,0.7c-0.6-0.5-1.3-1.1-1.9-1.6c-0.7,2.4-1.7,0.8-2.8,2.7
	C344,101.9,342.9,101.3,343.3,100.3z M342.5,100.6c0.1,1.8-1.1,3.3-1.8,1C342,102.2,340.8,99.7,342.5,100.6z M337.1,52
	c-0.1,1.9-1.6,0.5-2.5,0.4C334.9,50.8,335.9,51.3,337.1,52z M335.9,103.2c-0.9,0.6-2.2,0.3-3.3,0.2
	C332.8,101.5,335.2,100.1,335.9,103.2z M334.2,114c-0.1,1.5-1.5,2.8-2.2,0.7C333.3,115.9,332.9,112.9,334.2,114z M332.2,103.1
	c-0.3,1-0.9,1.3-1.5,1.8C330.4,103.2,331,102.5,332.2,103.1z M330.6,54.6c0.6,1.6-0.4,2.5-1.5,1.8C328.4,54.4,329.8,54.5,330.6,54.6
	z M328.9,103.3c-0.1,0.5-0.1,0.9-0.2,1.4c-0.9-0.8-1.3-0.1-1.4-1.8C328,103.6,327.9,102.1,328.9,103.3z M329,106
	c-0.1,0.6-0.1,1.8-0.6,1.5c0-0.3,0-0.6-0.3-0.8c-0.1,0.8-0.4,0.9-0.9,0.8C327.3,106,327.9,105.4,329,106z M319.4,117.9
	c0.8-0.2,1.6-0.3,2.7-0.4c-0.6,1.2-1.6,1.7-2.7,1.6c-0.6,0-1.3-0.2-2-0.5C318.2,118.3,318.8,118.1,319.4,117.9z M317,58.2
	c-0.8-0.2-0.8,1.5-2.1,0.2C314.3,55.6,318,58.4,317,58.2z M309.9,105.5c-0.2,1.2,0.5,1.5-0.2,1.9
	C308.2,106.5,308.5,103.9,309.9,105.5z M306.9,119.9c0.8,0.1,1.8,2.1,2.7,1.3c0.2,2.1-1.1,0.5-1.1,2.1
	C307.2,122.5,306.4,121.4,306.9,119.9z M306.6,58.6c0.7,2.7-2,1.7-3.4,1.1C303.9,58.2,305.7,59.6,306.6,58.6z M292.2,127.8
	c-0.5,1.3-1.3,1.5-2.6,0.9C290.1,127.5,291,127.2,292.2,127.8z M279.9,113.6c0.3,0.2,0.5,0.4,0.7,0.6c0.1-0.3,0.1-0.5,0.4-0.1
	c0.4,2-0.2,3.5-1.6,2.7C279.4,114.9,280.7,115.4,279.9,113.6z M265.3,87.6c6.2-4.6,13.4,5,7.2,9.6
	C266.3,101.8,259.1,92.2,265.3,87.6z M254.6,142.7c-0.3,1,0.5,1.6,0.1,2.6C253.3,144.6,253.5,141.8,254.6,142.7z M236.4,222.8
	c0.1-0.9-1.2-1.4-1.4-2.2c0.1-1.3,0.4-1.9,1.4-0.9C236,220.6,237.8,223,236.4,222.8z M239.8,231c-0.2-0.7,0.2-2.3-0.7-3.8
	c-0.2,1-1.1,0.2-2-0.7c0.7-1.4,0.8-4.2,2.5-3C238.7,226,242.6,232.2,239.8,231z M240.3,224.6c-0.1-2.3,1.1-1.4,1.9-1.5
	C241.6,223.8,241.4,225.3,240.3,224.6z M242.7,191.4c-1.8-1.3-2.4,0.5-4.1-0.5c0.5-2.2,3.3-2,4.3-0.9
	C242.3,189.6,242.5,190.8,242.7,191.4z M241.3,226.1c0-1.4,1.7-1.5,2.1,0.2C242.4,225.5,242.7,227.9,241.3,226.1z M241.4,195.4
	c0.1-0.8,0.1-1.5-0.1-2.2c0.2,0.2,0.5,0.4,0.7,0.6c0.4,2.1,1.2,2.5,2.5,2.7C244,198.8,243,197,241.4,195.4z M255.1,192.4
	c-1.1-1.7-1.4,1.7-2-0.7C253.6,191,254.8,189.7,255.1,192.4z M252.7,191.8c-0.2,1.8-0.8,2,0.6,4.7c-3.2-3.9-4.3,0.6-7-0.4
	c0.9-1.6,3-2.3,4.6-3.2c-0.7-0.8-1.6-1.6-1.3-2.7C251.2,193.4,250.8,190.6,252.7,191.8z M242.9,149.6c-0.9-0.8-1.3-0.1-1.4-1.8
	c0.9-0.3,1.2,1.5,2.6,2.3c0.2-2.3,2.3,0.4,2.3-2.1c-0.7-0.2-1.1,0.5-2.4-1c0-1.3,0.8-0.4,0.7-2c1,0.3,1,3.1,1.8,2.1
	c0.3-1.1-1.4-1.6-0.9-2.8c0.3-0.4,0.9-0.2,1.6,0.4c0.4,1.2,0,2.7,0.7,3.8c0.4-0.4,1.3,0.4,2,0.7c-2.8,1.5-5.7,2.9-9.4,2.1
	C240.4,148.1,242.9,152.1,242.9,149.6z M241.1,184.8c-1.3-0.7-2.4,2.1-3.7-0.6C238.4,184.1,240.1,182.7,241.1,184.8z M237.8,147.7
	c1.5,0.8,1.1,4.1,0,3.1C237.3,149,239,150.1,237.8,147.7z M240.3,197.1c-1.8-1.3-1.6,2.6-3.5,1.1
	C237.9,197.9,239.2,193.3,240.3,197.1z M236.1,148.3c0.4,0.3,0.7,0.7,1.1,1c-0.3,1.5-0.3,3.7-1.6,2.7
	C234.9,150.2,236.2,150.4,236.1,148.3z M235.6,225.2c-0.1,1.3-0.4,1.9-1.4,0.9C234.3,224.8,234.7,224.2,235.6,225.2z M234.6,198.9
	c-2.2-1.6-3.8,1.6-5.3-0.5C231,198.8,233.1,194.7,234.6,198.9z M229.2,192.6c0.5,1.2-0.3,2.4-1.4,1.3
	C228.1,193,228.5,192.3,229.2,192.6z M224.6,152.8c0,1.8,0.1,3.3,1.6,3.5c-0.4,1.1-1.3,0.9-2.5-0.1
	C223.9,154.5,222.7,151.5,224.6,152.8z M188,252.3c-0.5-0.6-1.4-1-1.4-1.8c1.6,0.9,1.9,0.3,1.5-1.8
	C189.6,250.7,188.5,251.3,188,252.3z M191.3,249.4c0.5-1.8,1.7-1.9,2.8-2.2C193.5,248.7,192.9,250.4,191.3,249.4z M194.1,241.5
	c0.4-1.2,1.1-1.4,2.2-0.7C196.2,242.8,195.2,242.1,194.1,241.5z M214.1,199.7c0-1.8,0.6-2.1,1.5-1.8
	C216.2,199.3,215.6,201.5,214.1,199.7z M219.5,200.2c0.6-1.7,0.2-1.2,0-3.1c0.6-0.3,2.1-1.4,2.4,1
	C219.7,196.4,221.6,201.5,219.5,200.2z M221.6,193.7c-0.3,1,0.5,1.6,0.1,2.6c-2.5-2.9-2.7,0.2-4.5-0.8
	C217,192.9,220.2,194.1,221.6,193.7z M217.8,190.9c0-1.6,0.7-1.5,1.4-1.3C219.8,190.9,218.8,191.6,217.8,190.9z M211.5,125.2
	c6.2-4.6,13.4,5,7.2,9.6C212.5,139.4,205.3,129.8,211.5,125.2z M210.8,157.2c-0.6,2.1-0.5,2.2,0.2,4.4c-0.9-1.1-1.4-1-1.3,0.4
	C207.9,159.9,209,156.3,210.8,157.2z M205.1,195.4c-0.7-0.4-0.5,1.5-1.7,0.1C203.2,193.6,204.9,193.8,205.1,195.4z M202.9,202.3
	c1.6,0.6,2.3,0.4,1.6-2.3c1.2,0.5,0.8,1.5,1.4,2.2c0.1-0.8,0.2-1.6,0.3-2.3c2,1.9,1.3,3.5,3.3,3.4c-0.9,0.7-2.6,1.9-3.7-0.2
	c-0.3,1.6-2.6-0.1-1.6,2.7c-0.5-0.4-1-0.9-1.5-1.3C202.6,203,203.5,203.8,202.9,202.3z M192.3,195c4.6-3.4,9.7,1,9.5,5.3
	c0,0,0,0,0.1,0.1c0,0.7,0.5,1.3,0.5,2c-0.4,0.2-0.8,0.1-1.1-0.2c-0.4,0.8-1,1.6-1.9,2.3c-0.1,0.1-0.2,0.1-0.2,0.2
	c-0.1,0.4-0.2,0.8,0.1,2.2c-0.7-0.4-1-1-1.1-1.6C192.4,208,186.6,199.3,192.3,195z M191.2,244.2c0.9-0.3,2.2-2.7,3.4-0.2
	c0.1,1.7-2.2,2.9-3.5,1.1c0.6,3.3-1,0.4-1.7,0.6c1.4,1.9,0.9,3.7,1,5c-1.7-1.4,0-3.8-1.8-5.2c0,0.7,0.4,1.4,0.1,2.2
	c-0.3,0.1-2.2-0.8-2.2-2C188.2,246.6,189.9,237.8,191.2,244.2z M187.1,255.7c0.1-0.3,0.1-0.9,0.5-0.6c-0.1,0.8-0.2,1.5-0.3,2.3
	c-0.9-0.6-1.4-1.3-1.3-2.2C186.3,255.5,186.9,256.2,187.1,255.7z M180.2,248.5c0.3-1.1,2-1.1,2,0.7
	C181.1,247.9,181.5,250.4,180.2,248.5z M182.3,207c-1.3-0.7-0.2,1.9-1.2,2.6C178.9,207.7,181.1,203.7,182.3,207z M171.5,250.3
	c1.3,0,2.3-0.9,3.8-0.3c-0.5,1.1-0.4,2.3-0.8,2.5c-0.2-0.8-1.3-0.6-1.5-0.9c0,0.7,0.5,1.3,0.5,2
	C172.5,254.3,171.3,252.3,171.5,250.3z M168,251.8c0,0.3,0,0.6,0.3,0.8c-0.4,0.9-0.9,1.4-2.1,0.2C166.3,251.3,167.1,251.4,168,251.8
	z M159.8,256.6c0.3-0.9,1.1-1.7,0.5-3.2c1.2,1.7,2.2,3.5,3,5.3c-1.3-0.5-2.8,1.7-3.7-0.2c0.9,0.4,1.2-0.8,1.8-1
	C160.6,256.7,160.4,257.3,159.8,256.6z M157,261c0-0.4-0.2-0.8-0.7-1.1c-0.1,0.5-0.3,1-0.9,0.3c1-0.8,1.9-1.8,3.5-1.1
	C157.9,259.9,157.9,260.7,157,261z M156.4,253.7c0.1,1.6,2,2.6,1.4,4.4c-1.7-1.4-2.3-3.1-2.6-4.9
	C155.8,253.6,156.1,253.6,156.4,253.7z M155.7,255.6c-0.3,1.3,0.6,2.2,0.3,3.4c-1.1-0.4-1.7,0.5-2.9,0c0-0.7-0.7-1.3-1-1.9
	C152.7,255.1,154.1,255.1,155.7,255.6z M151.2,260.6c0.4,0.3,1,1,1.2,0.5c-0.4-0.5-0.3-1.1-0.2-1.7c0.4,0.3,0.7,0.7,1.1,1
	c-0.5,2.1-0.5,1.5-0.1,3.6c-0.7-0.5-0.7-1.2-1.4-1.8c-0.1,0.5,0.2,0.8,0.2,1.3C150.8,262.8,151,261.7,151.2,260.6z M148.1,259.3
	c-0.3,1.2-1.5,0.4-2.2,0.7C145.9,257.8,147.1,257,148.1,259.3z M126.9,264.1c-0.5-0.6-0.6-1.3-1.4-1.8c0.4-1.8,1-2.9,2.7-1.3
	C127.1,261.6,126.5,263,126.9,264.1z M134.3,267.6c-0.6-2.9,0.9-3,2.1-2.9C136.1,266.8,135.7,268.3,134.3,267.6z M133.3,263
	c0.4-2.3,1.7-2.4,3.2-1.9C136,263.3,134.2,261.9,133.3,263z M138,262.5c-0.9-0.6-1.4-1.4-1.3-2.2c0.5,0.4,0.7-0.2,1.2,0.1
	c-0.1,0.6,0.6,1,0.6,1.6C138.2,261.7,138,261.9,138,262.5z M138.4,262.8c1,0.6,1.2-1.1,2.5,0.1C140.7,264.2,139,264.8,138.4,262.8z
	 M142.6,265c-0.1-2.1,1-0.8,1.4-1.3c-0.3-0.4-0.7-0.7-0.7-1.1c0.5,0.4,0.8,0.9,1,1.5C143.9,264.5,143.6,265.7,142.6,265z
	 M135.7,147.5c6.2-4.6,13.4,5,7.2,9.6C136.7,161.8,129.5,152.2,135.7,147.5z M125.6,215.4c0.2-1.6,1.1-3,2.3-3.9
	c1.2-0.9,3-1.3,4.4-1.1c1.5,0.2,3,1.1,3.9,2.3c0.4,0.6,0.8,1.1,1.3,1.7c1,1.3,1.3,2.9,1.1,4.4c-0.2,1.6-1.1,3-2.3,3.9
	c-1.2,0.9-3,1.3-4.5,1.1c-1.5-0.2-3-1.1-3.9-2.3c-0.4-0.6-0.8-1.1-1.3-1.7C125.8,218.5,125.5,217,125.6,215.4z M116.7,273.4
	c-0.7-0.5,0.1,1-0.5,0.6c0.1-1.3-0.7,0.1-1.5-1.3C114.7,271.3,116.6,272.1,116.7,273.4z M86.9,282.9c0-1.4,1.7-1.5,2.1,0.3
	C88.2,283,88.1,284.6,86.9,282.9z M94.1,265c-6.2,4.6-13.4-5-7.2-9.6C93.1,250.8,100.2,260.4,94.1,265z M85,182.3
	c0.2-1.5,1.1-3,2.3-3.9c0.6-0.4,1.1-0.8,1.7-1.3c1.3-1,2.9-1.3,4.4-1.1c1.6,0.2,3,1.1,3.9,2.3c0.9,1.2,1.3,3,1.1,4.4
	c-0.2,1.5-1.1,3-2.3,3.9c-0.6,0.4-1.1,0.8-1.7,1.3c-1.3,1-2.9,1.3-4.4,1.1c-1.6-0.2-3-1.1-3.9-2.3C85.2,185.6,84.8,183.8,85,182.3z
	 M319,30.3c0.1,2.3-1,2-2.2,1.2C316.2,29.7,317.7,29.3,319,30.3z M295.1,34.3c-0.3,0.7,0.2,3.2-1,1.7
	C293.2,34.9,294,32.8,295.1,34.3z M291,50.8c0,1.6-0.7,1.5-1.4,1.3C289.8,51,290,49.8,291,50.8z M280.9,52.3
	c0.6,1.5-0.1,2.4-1.3,0.9C279.9,52.4,280,51.3,280.9,52.3z M275.8,54c-0.3,1.7-0.9,3.8-2.6,4c-0.5-0.9,0.4-2.2-0.9-2.8
	c-0.7,1.6,0.4,2.6,0.3,3.9c-0.7-0.7-0.9-0.2-1.5-0.8c-0.6-3.2,0-4.1-0.4-7C273.5,53.7,273.7,53.4,275.8,54z M269.4,55.6
	c0.1,1.8-0.5,0.8,0,3.6c-0.6-0.4-1.4-1.4-1.5-0.8c-0.1,0.6,0.6,1,0.6,1.6c-1.1-0.4-1,1.9-2.8-0.4c-0.1-2,2-1,0-3.1
	C266.4,55,267.8,55.1,269.4,55.6z M259.4,59.8c0,1.6-0.6,1.8-1.7,0.6C257.7,58.8,258.8,59.9,259.4,59.8z M248.9,61.4
	c-0.5,1.3-1.9,2.6-3,0.5C246.7,61.1,247.4,60.3,248.9,61.4z M227.9,68.4c0.4-0.4,1.4,0.6,1.3,1.7c-0.3-0.2-0.6-0.1-0.7,0
	c-0.2,0.1-0.4,0.1-0.8-0.8C227.7,68.7,227.8,68.5,227.9,68.4z M157.8,92.8c0.5,0.5,0.8,0.5,1.2,0.5c0.4,1,0.2,2.6-0.4,2.8
	C157.4,95.3,157.5,94.1,157.8,92.8z M146.8,100.2c-0.3,0.8-1.6,2.6-2.2,0.7C145.6,101.3,145.4,98.7,146.8,100.2z M120.5,95.4
	c6.2-4.6,13.4,5,7.2,9.6C121.5,109.7,114.3,100.1,120.5,95.4z M90.3,123.5c0.6,0.5,1.1,1.1,1.4,1.8c-0.2,1-1.5,2.3-2.1,0.2
	C90.6,126.3,90.8,124.6,90.3,123.5z M84.5,124c1.4,1.2,1.6,2.7,2.3,4.2c-0.1-2.1,0.9-3.2,1.8-1c-0.9,1.1-2.6,3.3-4.2,0.4
	C86.4,128.3,84.3,125.4,84.5,124z M83.8,129.1c1.1,2.4-1.8,2.7-1.7,0.5C82.8,129.8,82.9,128.5,83.8,129.1z M70.2,140.3
	c-1.3-0.7-2.1,3.5-3.4,0.6C67.9,140.8,68.7,137.4,70.2,140.3z M59.6,142.2c1.1,1.4,1.2,0.3,2,0.7c-0.3,1.4-0.7,2.5-1.9,1.5
	C59.6,143.7,59.3,143,59.6,142.2z M54.6,142.4l1.5,1.3C56.1,145.8,54,143.9,54.6,142.4z M37,299.6c0.9,1.3,2.2,0.4,2.6,2.3
	C38.3,300.3,37.3,302.3,37,299.6z M45.4,148.7c0,1.2,0.8,2,1.1,1c-0.5-0.7-0.8-1.5-0.9-2.4c0.7,0.7,0.6-0.8,1.6,0.4
	c-0.6,1.5,0.9,2.4,0.3,3.9c-0.7-0.4-1.1,0.2-2-0.7C45.6,150.4,44.2,148.2,45.4,148.7z M42.7,150c0.9,1,1.9,3.8,0.4,3
	C43.1,152,42.5,151.1,42.7,150z M41.8,150.7c-0.1,1.3-0.4,1.9-1.4,0.9C40.5,150.3,40.8,149.7,41.8,150.7z M37.9,151.9
	c-0.2,3,1.2,1.3,1.2,3.2c-1.6-1.2-1.8,1.3-3,0.9c0.3-1.4,0.5-2.8-0.2-3.9C36.8,152.9,37,151.5,37.9,151.9z M35.3,172.4
	c6.2-4.6,13.4,5,7.2,9.6C36.3,186.6,29.1,177,35.3,172.4z M27.3,302.5c0.4,0.3,0.7,0.7,1.1,1c-0.9,1.3-0.8,0.9-0.5,3.2
	c-0.8-0.4-1.2,0.2-2.3-1.1C25.8,303.6,26.6,303.1,27.3,302.5z M22.6,308.3c-0.9-0.8-2.1,0.8-2.7-1.4
	C21.6,308.5,21.6,304.8,22.6,308.3z M-1.4,314.9c1,0.6,0.6,1.6,1.3,2.3c-0.2,1.3-1.1,1-1.8,1C-2.5,316.8-1.4,316.9-1.4,314.9z"/>
</svg>
