<?xml version="1.0" encoding="utf-8"?>
<!-- Generator: Adobe Illustrator 21.0.0, SVG Export Plug-In . SVG Version: 6.00 Build 0)  -->
<svg version="1.1" id="Layer_1" xmlns="http://www.w3.org/2000/svg" xmlns:xlink="http://www.w3.org/1999/xlink" x="0px" y="0px"
	 viewBox="0 0 246.3 493.8" style="enable-background:new 0 0 246.3 493.8;" xml:space="preserve">
<style type="text/css">
	.st0{fill-rule:evenodd;clip-rule:evenodd;fill:#D1D3D4;}
	.st1{fill-rule:evenodd;clip-rule:evenodd;fill:#9AD0F1;}
	.st2{fill:#9AD0F1;}
	.st3{fill-rule:evenodd;clip-rule:evenodd;fill:#4F96C6;}
	.st4{fill:#4F96C6;}
</style>
<path class="st0" d="M138.4,30.4c3.3,0,5.9-2.7,5.9-5.9s-2.7-5.9-5.9-5.9c-3.3,0-5.9,2.7-5.9,5.9S135.1,30.4,138.4,30.4"/>
<path class="st0" d="M138.4,44c3.8,0,7.1-3.1,7.1-6.9c0-4-3.3-7.1-7.1-7.1c-3.8,0-7.1,3.1-7.1,7.1C131.3,41,134.5,44,138.4,44"/>
<path class="st0" d="M138.4,60.3c4.6,0,8.4-3.8,8.4-8.2c0-4.6-3.8-8.4-8.4-8.4c-4.6,0-8.2,3.8-8.2,8.4
	C130.1,56.5,133.8,60.3,138.4,60.3"/>
<path class="st0" d="M138.4,79.9c5.6,0,10-4.6,10-10c0-5.6-4.4-10-10-10c-5.6,0-10,4.4-10,10C128.4,75.3,132.8,79.9,138.4,79.9"/>
<rect x="136.6" y="78" class="st0" width="3.5" height="221.3"/>
<rect x="136.6" y="10.8" class="st0" width="3.5" height="10.7"/>
<polygon class="st0" points="138.4,354.3 126.8,339.7 138.4,300.6 149.9,339.7 "/>
<path class="st0" d="M138.4,305.8c2.7,0,5-2.2,5-5c0-2.7-2.2-5-5-5c-2.7,0-5,2.2-5,5C133.4,303.5,135.6,305.8,138.4,305.8"/>
<path class="st0" d="M158.9,117.9c1.3,0,2.5-1.2,2.5-2.5c0-1.5-1.1-2.7-2.5-2.7c-1.5,0-2.7,1.1-2.7,2.7
	C156.2,116.7,157.3,117.9,158.9,117.9"/>
<path class="st0" d="M158.9,123.2c1.3,0,2.5-1.2,2.5-2.5c0-1.3-1.1-2.5-2.5-2.5c-1.5,0-2.7,1.2-2.7,2.5
	C156.2,122.1,157.3,123.2,158.9,123.2"/>
<path class="st0" d="M158.9,128.8c1.3,0,2.5-1.2,2.5-2.7c0-1.3-1.1-2.5-2.5-2.5c-1.5,0-2.7,1.2-2.7,2.5
	C156.2,127.7,157.3,128.8,158.9,128.8"/>
<path class="st0" d="M158.9,134.2c1.3,0,2.5-1.2,2.5-2.7c0-1.3-1.1-2.5-2.5-2.5c-1.5,0-2.7,1.2-2.7,2.5
	C156.2,133,157.3,134.2,158.9,134.2"/>
<path class="st0" d="M158.9,139.5c1.3,0,2.5-1.2,2.5-2.5c0-1.5-1.1-2.7-2.5-2.7c-1.5,0-2.7,1.2-2.7,2.7
	C156.2,138.4,157.3,139.5,158.9,139.5"/>
<path class="st0" d="M158.9,144.9c1.3,0,2.5-1.2,2.5-2.5c0-1.5-1.1-2.7-2.5-2.7c-1.5,0-2.7,1.2-2.7,2.7
	C156.2,143.8,157.3,144.9,158.9,144.9"/>
<path class="st0" d="M158.9,150.3c1.3,0,2.5-1.2,2.5-2.5c0-1.3-1.1-2.5-2.5-2.5c-1.5,0-2.7,1.2-2.7,2.5
	C156.2,149.1,157.3,150.3,158.9,150.3"/>
<path class="st0" d="M158.9,155.9c1.3,0,2.5-1.2,2.5-2.7c0-1.3-1.1-2.5-2.5-2.5c-1.5,0-2.7,1.2-2.7,2.5
	C156.2,154.7,157.3,155.9,158.9,155.9"/>
<path class="st0" d="M158.9,161.2c1.3,0,2.5-1.2,2.5-2.5c0-1.5-1.1-2.7-2.5-2.7c-1.5,0-2.7,1.2-2.7,2.7
	C156.2,160.1,157.3,161.2,158.9,161.2"/>
<path class="st0" d="M158.9,166.6c1.3,0,2.5-1.2,2.5-2.5c0-1.5-1.1-2.7-2.5-2.7c-1.5,0-2.7,1.2-2.7,2.7
	C156.2,165.4,157.3,166.6,158.9,166.6"/>
<path class="st0" d="M158.9,172c1.3,0,2.5-1.2,2.5-2.5c0-1.3-1.1-2.5-2.5-2.5c-1.5,0-2.7,1.2-2.7,2.5
	C156.2,170.8,157.3,172,158.9,172"/>
<path class="st0" d="M158.9,177.3c1.3,0,2.5-1.2,2.5-2.5s-1.1-2.5-2.5-2.5c-1.5,0-2.7,1.2-2.7,2.5S157.3,177.3,158.9,177.3"/>
<path class="st0" d="M158.9,182.7c1.3,0,2.5-1.1,2.5-2.7c0-1.3-1.1-2.5-2.5-2.5c-1.5,0-2.7,1.2-2.7,2.5
	C156.2,181.6,157.3,182.7,158.9,182.7"/>
<path class="st0" d="M158.9,188.1c1.3,0,2.5-1.2,2.5-2.5c0-1.5-1.1-2.7-2.5-2.7c-1.5,0-2.7,1.2-2.7,2.7
	C156.2,186.9,157.3,188.1,158.9,188.1"/>
<path class="st0" d="M158.9,193.4c1.3,0,2.5-1.2,2.5-2.5c0-1.5-1.1-2.7-2.5-2.7c-1.5,0-2.7,1.2-2.7,2.7
	C156.2,192.3,157.3,193.4,158.9,193.4"/>
<path class="st0" d="M158.9,198.8c1.3,0,2.5-1.1,2.5-2.5c0-1.3-1.1-2.5-2.5-2.5c-1.5,0-2.7,1.2-2.7,2.5
	C156.2,197.7,157.3,198.8,158.9,198.8"/>
<path class="st0" d="M158.9,204.4c1.3,0,2.5-1.2,2.5-2.7c0-1.3-1.1-2.5-2.5-2.5c-1.5,0-2.7,1.2-2.7,2.5
	C156.2,203.2,157.3,204.4,158.9,204.4"/>
<path class="st0" d="M158.9,209.7c1.3,0,2.5-1.2,2.5-2.5c0-1.5-1.1-2.7-2.5-2.7c-1.5,0-2.7,1.2-2.7,2.7
	C156.2,208.6,157.3,209.7,158.9,209.7"/>
<path class="st0" d="M158.9,215.1c1.3,0,2.5-1.2,2.5-2.5c0-1.5-1.1-2.7-2.5-2.7c-1.5,0-2.7,1.2-2.7,2.7
	C156.2,214,157.3,215.1,158.9,215.1"/>
<path class="st0" d="M158.9,220.5c1.3,0,2.5-1.2,2.5-2.5c0-1.3-1.1-2.5-2.5-2.5c-1.5,0-2.7,1.1-2.7,2.5
	C156.2,219.3,157.3,220.5,158.9,220.5"/>
<path class="st0" d="M158.9,251.8c6.3,0,11.5-6.9,11.5-15.5c0-8.4-5.2-15.3-11.5-15.3c-6.5,0-11.7,6.9-11.7,15.3
	C147.2,244.8,152.4,251.8,158.9,251.8"/>
<path class="st0" d="M159,39.8c1.1,0,2.1-1,2.1-2.1c0-1.3-1-2.3-2.1-2.3c-1.3,0-2.3,1-2.3,2.3C156.7,38.8,157.7,39.8,159,39.8"/>
<path class="st0" d="M159,44.2c1.1,0,2.1-1,2.1-2.1s-1-2.1-2.1-2.1c-1.3,0-2.3,1-2.3,2.1S157.7,44.2,159,44.2"/>
<path class="st0" d="M159,48.7c1.1,0,2.1-1,2.1-2.3c0-1.1-1-2.1-2.1-2.1c-1.3,0-2.3,1-2.3,2.1C156.7,47.7,157.7,48.7,159,48.7"/>
<path class="st0" d="M159,53.2c1.1,0,2.1-1,2.1-2.1c0-1.3-1-2.3-2.1-2.3c-1.3,0-2.3,1-2.3,2.3C156.7,52.3,157.7,53.2,159,53.2"/>
<polygon class="st0" points="158.9,52.1 166.9,63.2 158.9,115 150.8,63.2 "/>
<rect x="115.3" y="10.8" class="st1" width="2.1" height="146.1"/>
<path class="st1" d="M116.5,59.2c3.1,0,5.8-2.7,5.8-5.8c0-3.3-2.7-5.9-5.8-5.9c-3.3,0-5.9,2.7-5.9,5.9
	C110.5,56.5,113.2,59.2,116.5,59.2"/>
<path class="st1" d="M116.5,32.5c4,0,7.5-3.4,7.5-7.5c0-4.2-3.5-7.7-7.5-7.7c-4.2,0-7.7,3.4-7.7,7.7
	C108.8,29.1,112.3,32.5,116.5,32.5"/>
<polygon class="st1" points="125.1,154.3 116.5,145.5 107.7,154.3 116.5,163.1 "/>
<polygon class="st1" points="122.1,167.2 116.5,161.4 110.7,167.2 116.5,172.9 "/>
<polygon class="st1" points="121.3,176.6 116.5,171.8 111.5,176.6 116.5,181.4 "/>
<polygon class="st1" points="130.3,193.2 116.5,179.2 102.5,193.2 116.5,207.1 "/>
<path class="st1" d="M116.5,214.4c2.1,0,4-1.9,4-4.2c0-2.3-1.9-4-4-4c-2.3,0-4.2,1.7-4.2,4C112.3,212.4,114.2,214.4,116.5,214.4"/>
<rect x="195.3" y="10.8" class="st1" width="1.9" height="233.7"/>
<path class="st1" d="M196.3,154.9c2.9,0,5.2-2.5,5.2-5.4c0-2.9-2.3-5.4-5.2-5.4c-2.9,0-5.4,2.5-5.4,5.4
	C190.9,152.4,193.4,154.9,196.3,154.9"/>
<path class="st1" d="M196.3,130.3c3.8,0,6.9-3.1,6.9-6.9s-3.1-6.9-6.9-6.9c-3.8,0-6.9,3.1-6.9,6.9S192.4,130.3,196.3,130.3"/>
<polygon class="st1" points="204.3,242.2 196.3,234.1 188.2,242.2 196.3,250.4 "/>
<polygon class="st1" points="201.5,254 196.3,248.7 190.9,254 196.3,259.2 "/>
<polygon class="st1" points="200.7,262.7 196.3,258.3 191.9,262.7 196.3,267.3 "/>
<polygon class="st1" points="208.9,278 196.3,265.4 183.4,278 196.3,290.9 "/>
<path class="st1" d="M196.3,297.4c2.1,0,3.6-1.5,3.6-3.6c0-2.1-1.5-3.8-3.6-3.8c-2.1,0-3.8,1.7-3.8,3.8
	C192.4,295.9,194.2,297.4,196.3,297.4"/>
<rect x="44" y="10.8" class="st1" width="2.3" height="140.1"/>
<path class="st1" d="M45.1,41.5c3.7,0,6.5-2.9,6.5-6.3c0-3.6-2.9-6.5-6.5-6.5c-3.5,0-6.3,2.9-6.3,6.5C38.8,38.7,41.7,41.5,45.1,41.5
	"/>
<polygon class="st1" points="55.1,148 45.1,138.2 35.4,148 45.1,158 "/>
<polygon class="st1" points="51.7,162.4 45.1,156 38.8,162.4 45.1,168.9 "/>
<rect x="41.3" y="169.1" transform="matrix(0.7068 -0.7074 0.7074 0.7068 -109.086 82.6308)" class="st1" width="7.6" height="7.6"/>
<rect x="34.2" y="180.5" transform="matrix(0.7071 -0.7071 0.7071 0.7071 -122.2043 88.0174)" class="st1" width="22" height="22"/>
<path class="st1" d="M45.1,214.9c2.5,0,4.6-1.9,4.6-4.4c0-2.7-2.1-4.6-4.6-4.6c-2.5,0-4.6,1.9-4.6,4.6
	C40.5,213,42.7,214.9,45.1,214.9"/>
<rect x="44.2" y="213.8" class="st1" width="2.1" height="192.2"/>
<path class="st1" d="M45.1,285.8c3.1,0,5.8-2.5,5.8-5.6c0-3.1-2.7-5.8-5.8-5.8c-3.1,0-5.6,2.7-5.6,5.8
	C39.6,283.3,42.1,285.8,45.1,285.8"/>
<path class="st1" d="M45.1,265.3c4,0,7.5-3.5,7.5-7.5c0-4-3.4-7.3-7.5-7.3c-4,0-7.3,3.3-7.3,7.3C37.9,261.8,41.1,265.3,45.1,265.3"
	/>
<path class="st1" d="M45.1,392c3.1,0,5.8-2.5,5.8-5.6s-2.7-5.8-5.8-5.8c-3.1,0-5.6,2.7-5.6,5.8S42.1,392,45.1,392"/>
<path class="st1" d="M45.1,374.1c4,0,7.5-3.5,7.5-7.5c0-4-3.4-7.3-7.5-7.3c-4,0-7.3,3.3-7.3,7.3C37.9,370.7,41.1,374.1,45.1,374.1"
	/>
<polygon class="st1" points="53.8,301 45.1,292.4 36.5,301 45.1,309.6 "/>
<polygon class="st1" points="50.7,313.5 45.1,307.9 39.6,313.5 45.1,319.2 "/>
<polygon class="st1" points="49.9,322.9 45.1,318.1 40.5,322.9 45.1,327.5 "/>
<rect x="35.5" y="329.6" transform="matrix(0.7072 -0.707 0.707 0.7072 -226.5822 131.2234)" class="st1" width="19.3" height="19.3"/>
<path class="st1" d="M45.1,405.7c2.3,0,4-1.7,4-4c0-2.1-1.7-4-4-4c-2.1,0-4,1.9-4,4C41.1,403.9,43,405.7,45.1,405.7"/>
<path class="st2" d="M65.7,463.1v-0.5c0-0.1,0.1-0.1,0.1-0.2c0-0.1,0-0.2-0.1-0.2v-0.2c0-0.1,0.1-0.1,0.1-0.2c0-0.1,0-0.2-0.1-0.2
	v-0.2c0.1-0.1,0.1-0.2,0.1-0.3c0-0.1,0-0.2-0.1-0.3l0-0.3h0c0,0,0.2-0.6,0.1-1.4c-0.1-1-0.7-1.3-0.8-1.4c-0.8-3-3.5-11-8.2-13.2
	c0-0.5-0.1-1.8,0.3-3.6c0.3-1.7-0.2-3.8,0.5-6.4c2.7-3.1,4.4-7.3,4.4-11.9c0-9.7-7.5-17.6-16.7-17.6c-9.2,0-16.7,7.9-16.7,17.6
	c0,4.6,1.7,8.8,4.4,11.9c0.7,2.6,0.2,4.7,0.5,6.4c0.3,1.8,0.3,3.1,0.3,3.6c-4.8,2.2-7.4,10.2-8.2,13.2c-0.1,0.1-0.6,0.4-0.8,1.4
	c-0.1,0.8,0.1,1.4,0.1,1.4h0v0.2c-0.1,0.1-0.1,0.2-0.1,0.3c0,0.1,0.1,0.2,0.1,0.3v0.1c-0.1,0.1-0.1,0.2-0.1,0.3
	c0,0.1,0.1,0.2,0.1,0.3l0,0.1c-0.1,0.1-0.1,0.2-0.1,0.3c0,0.1,0.1,0.2,0.1,0.3l0,0.5c-0.1,0.1-0.2,0.3-0.2,0.5c0,0,0.1,2.9,0.1,3.1
	c0,0.4,0,0.8,0.4,0.8h0.3c0,0-0.2,0.5,0,0.7c0.2,0.2,0.4,0.5,0.3,0.6c-0.1,0.1-0.2,0.3-0.2,0.5h-0.2c0,0,0.5,12.2,0.5,12.9
	c0,0.4-0.4,0.9-0.2,1.2c0.1,0.2-0.1,0.4-0.1,0.6c0,0.2,0.3,0.3,0.3,0.4c0.1,0.2,0.1,0.9,0.2,1.2c0,0.2,0.5,0.2,0.7,0.2
	c0.3,0,1.2,0,1.3-0.2c0-0.3,0.1-1,0.2-1.2c0.1-0.2,0.3-0.2,0.3-0.4c0-0.3-0.2-0.4,0-0.6c0.2-0.4-0.1-0.8-0.2-1.2
	c0-0.7,0.5-12.9,0.5-12.9h-0.2c0-0.2-0.1-0.4-0.2-0.5c-0.1-0.1,0.1-0.4,0.3-0.6c0.2-0.2,0-0.7,0-0.7h0.3c0.3,0,0.4-0.4,0.4-0.8
	c0-0.2-0.1-3.1-0.1-3.1c0-0.3-0.2-0.6-0.5-0.7c0.3,0,0.6,0,1,0c0,0.5,0.1,2.2,0.1,2.3c0,0.3,0,0.6,0.3,0.6h0.2c0,0-0.1,0.4,0,0.6
	c0.1,0.2,0.3,0.4,0.2,0.5c-0.1,0.1-0.2,0.2-0.2,0.4H30c0,0,0.4,9.6,0.4,10.1c0,0.3-0.3,0.7-0.1,1c0.1,0.2-0.1,0.3-0.1,0.5
	c0,0.2,0.2,0.2,0.3,0.4c0,0.1,0.1,0.7,0.1,0.9c0,0.2,0.4,0.2,0.6,0.1c0.2,0,1,0,1-0.1c0-0.2,0.1-0.8,0.1-0.9c0-0.1,0.2-0.1,0.3-0.4
	c0-0.2-0.2-0.3-0.1-0.5c0.1-0.3-0.1-0.7-0.1-1c0-0.5,0.4-10.1,0.4-10.1h-0.1c0-0.2-0.1-0.3-0.2-0.4c-0.1-0.1,0-0.3,0.2-0.5
	c0.1-0.2,0-0.6,0-0.6h0.2c0.3,0,0.3-0.3,0.3-0.6c0-0.1,0-1.6,0-2.2c4.4,0.2,8.6,0.8,12.1,0.8s7.7-0.6,12-0.8c0,0.6,0,2.1,0,2.2
	c0,0.3,0,0.6,0.3,0.6h0.2c0,0-0.1,0.4,0,0.6c0.2,0.2,0.3,0.4,0.2,0.5c-0.1,0.1-0.2,0.2-0.2,0.4h-0.1c0,0,0.4,9.6,0.4,10.1
	c0,0.3-0.3,0.7-0.1,1c0.1,0.2-0.1,0.3,0,0.5c0,0.2,0.2,0.2,0.3,0.4c0,0.1,0.1,0.7,0.1,0.9c0,0.2,0.8,0.2,1,0.1c0.2,0,0.6,0,0.6-0.1
	c0-0.2,0.1-0.8,0.1-0.9c0.1-0.1,0.3-0.1,0.3-0.4c0-0.2-0.2-0.3-0.1-0.5c0.1-0.3-0.1-0.7-0.1-1c0-0.5,0.4-10.1,0.4-10.1h-0.1
	c0-0.2-0.1-0.3-0.2-0.4c-0.1-0.1,0.1-0.3,0.2-0.5c0.1-0.2,0-0.6,0-0.6h0.2c0.3,0,0.3-0.3,0.3-0.6c0-0.1,0-1.8,0.1-2.3
	c0.3,0,0.6,0,0.9,0c-0.2,0.1-0.4,0.4-0.4,0.7c0,0-0.1,3-0.1,3.1c0,0.4,0,0.8,0.4,0.8h0.3c0,0-0.2,0.5,0,0.7c0.2,0.2,0.4,0.5,0.3,0.6
	c-0.1,0.1-0.2,0.3-0.2,0.5h-0.2c0,0,0.5,12.2,0.5,12.8c0,0.4-0.4,0.9-0.2,1.2c0.1,0.2-0.1,0.4-0.1,0.6c0,0.3,0.3,0.3,0.3,0.4
	c0.1,0.2,0.1,0.9,0.2,1.2c0,0.2,1,0.2,1.3,0.2c0.2,0,0.7,0,0.7-0.2c0-0.3,0.1-1,0.2-1.2c0.1-0.2,0.3-0.2,0.3-0.4
	c0-0.3-0.2-0.4-0.1-0.6c0.2-0.4-0.1-0.8-0.2-1.2c0-0.7,0.5-12.8,0.5-12.8h-0.2c0-0.2-0.1-0.4-0.2-0.5c-0.1-0.1,0.1-0.4,0.3-0.6
	c0.2-0.2,0-0.7,0-0.7h0.3c0.3,0,0.4-0.4,0.4-0.8c0-0.2,0.1-3.1,0.1-3.1C65.8,463.4,65.8,463.2,65.7,463.1 M53.8,437.5
	c0.2,1,0.3,1.7-0.7,4.1c-0.2,0.4-0.2,1.2-0.2,1.7c-4.2-1-5.5-1.1-7.7-1.1h0h0c-2.3,0-3.5,0.1-7.8,1.1c0-0.5-0.1-1.3-0.2-1.7
	c-1-2.4-0.8-3-0.7-4.1c2.5,1.6,5.5,2.6,8.7,2.6C48.3,440.1,51.3,439.1,53.8,437.5"/>
<path class="st3" d="M71.6,71.5c1.7,0,3.3-1.5,3.3-3.3c0-1.7-1.5-3.1-3.3-3.1c-1.7,0-3.3,1.3-3.3,3.1C68.4,69.9,69.9,71.5,71.6,71.5
	"/>
<path class="st3" d="M71.6,78.2c1.7,0,3.3-1.3,3.3-3.1c0-1.9-1.5-3.3-3.3-3.3c-1.7,0-3.3,1.3-3.3,3.3C68.4,76.8,69.9,78.2,71.6,78.2
	"/>
<path class="st3" d="M71.6,85.1c1.7,0,3.3-1.5,3.3-3.3s-1.5-3.3-3.3-3.3c-1.7,0-3.3,1.5-3.3,3.3S69.9,85.1,71.6,85.1"/>
<path class="st3" d="M71.6,91.8c1.7,0,3.3-1.5,3.3-3.3c0-1.7-1.5-3.3-3.3-3.3c-1.7,0-3.3,1.5-3.3,3.3C68.4,90.3,69.9,91.8,71.6,91.8
	"/>
<path class="st3" d="M71.6,98.5c1.7,0,3.3-1.3,3.3-3.3c0-1.7-1.5-3.1-3.3-3.1c-1.7,0-3.3,1.3-3.3,3.1C68.4,97.2,69.9,98.5,71.6,98.5
	"/>
<path class="st3" d="M71.6,105.2c1.7,0,3.3-1.3,3.3-3.1c0-1.7-1.5-3.3-3.3-3.3c-1.7,0-3.3,1.5-3.3,3.3
	C68.4,103.9,69.9,105.2,71.6,105.2"/>
<path class="st3" d="M71.6,112.1c1.7,0,3.3-1.5,3.3-3.3c0-1.7-1.5-3.3-3.3-3.3c-1.7,0-3.3,1.5-3.3,3.3
	C68.4,110.6,69.9,112.1,71.6,112.1"/>
<path class="st3" d="M71.6,118.8c1.7,0,3.3-1.3,3.3-3.3c0-1.7-1.5-3.1-3.3-3.1c-1.7,0-3.3,1.3-3.3,3.1
	C68.4,117.5,69.9,118.8,71.6,118.8"/>
<path class="st3" d="M71.6,125.5c1.7,0,3.3-1.3,3.3-3.1c0-1.9-1.5-3.3-3.3-3.3c-1.7,0-3.3,1.3-3.3,3.3
	C68.4,124.2,69.9,125.5,71.6,125.5"/>
<path class="st3" d="M71.6,132.5c1.7,0,3.3-1.5,3.3-3.3c0-1.7-1.5-3.3-3.3-3.3c-1.7,0-3.3,1.5-3.3,3.3
	C68.4,130.9,69.9,132.5,71.6,132.5"/>
<path class="st3" d="M71.6,139.2c1.7,0,3.3-1.5,3.3-3.3c0-1.7-1.5-3.1-3.3-3.1c-1.7,0-3.3,1.3-3.3,3.1
	C68.4,137.6,69.9,139.2,71.6,139.2"/>
<path class="st3" d="M71.6,145.9c1.7,0,3.3-1.3,3.3-3.1c0-1.9-1.5-3.3-3.3-3.3c-1.7,0-3.3,1.3-3.3,3.3
	C68.4,144.5,69.9,145.9,71.6,145.9"/>
<path class="st3" d="M71.6,152.8c1.7,0,3.3-1.5,3.3-3.3c0-1.7-1.5-3.3-3.3-3.3c-1.7,0-3.3,1.5-3.3,3.3
	C68.4,151.3,69.9,152.8,71.6,152.8"/>
<path class="st3" d="M71.6,159.5c1.7,0,3.3-1.5,3.3-3.3c0-1.7-1.5-3.3-3.3-3.3c-1.7,0-3.3,1.5-3.3,3.3
	C68.4,158,69.9,159.5,71.6,159.5"/>
<path class="st3" d="M71.6,166.2c1.7,0,3.3-1.3,3.3-3.3c0-1.7-1.5-3.1-3.3-3.1c-1.7,0-3.3,1.3-3.3,3.1
	C68.4,164.9,69.9,166.2,71.6,166.2"/>
<path class="st3" d="M71.6,173.1c1.7,0,3.3-1.5,3.3-3.3c0-1.7-1.5-3.3-3.3-3.3c-1.7,0-3.3,1.5-3.3,3.3
	C68.4,171.6,69.9,173.1,71.6,173.1"/>
<path class="st3" d="M71.6,179.6c1.7,0,3.3-1.5,3.3-3.3c0-1.5-1.5-3.1-3.3-3.1c-1.7,0-3.3,1.5-3.3,3.1
	C68.4,178.1,69.9,179.6,71.6,179.6"/>
<path class="st3" d="M71.6,186.3c1.7,0,3.3-1.3,3.3-3.3c0-1.7-1.5-3.1-3.3-3.1c-1.7,0-3.3,1.3-3.3,3.1
	C68.4,185,69.9,186.3,71.6,186.3"/>
<path class="st3" d="M71.6,193.1c1.7,0,3.3-1.3,3.3-3.1c0-1.7-1.5-3.3-3.3-3.3c-1.7,0-3.3,1.5-3.3,3.3
	C68.4,191.7,69.9,193.1,71.6,193.1"/>
<path class="st3" d="M71.6,200c1.7,0,3.3-1.5,3.3-3.3c0-1.7-1.5-3.3-3.3-3.3c-1.7,0-3.3,1.5-3.3,3.3C68.4,198.4,69.9,200,71.6,200"
	/>
<path class="st3" d="M71.6,231.8c6.6,0,11.9-7,11.9-15.8c0-8.6-5.3-15.7-11.9-15.7c-6.6,0-11.9,7-11.9,15.7
	C59.7,224.8,65,231.8,71.6,231.8"/>
<polygon class="st3" points="71.6,10.8 81.8,20.8 71.6,68 61.6,20.8 "/>
<polygon class="st3" points="38.8,122.9 24.8,109.1 11,122.9 24.8,136.9 "/>
<rect x="177.9" y="10.8" class="st3" width="1.5" height="166.8"/>
<path class="st3" d="M178.6,105.8c2.3,0,4.2-1.9,4.2-4.4c0-2.3-1.9-4.2-4.2-4.2c-2.3,0-4.2,1.9-4.2,4.2
	C174.4,103.9,176.3,105.8,178.6,105.8"/>
<path class="st3" d="M178.6,86.2c3.1,0,5.6-2.5,5.6-5.6c0-3.1-2.5-5.6-5.6-5.6c-3.1,0-5.6,2.5-5.6,5.6
	C173.1,83.7,175.6,86.2,178.6,86.2"/>
<polygon class="st3" points="185.1,175.8 178.6,169.3 172.1,175.8 178.6,182.1 "/>
<rect x="175.6" y="182" transform="matrix(0.7074 -0.7068 0.7068 0.7074 -78.4934 180.3744)" class="st3" width="6" height="6"/>
<polygon class="st3" points="182.3,191.9 178.6,188.4 175,191.9 178.6,195.6 "/>
<polygon class="st3" points="188.8,204.2 178.6,194 168.5,204.2 178.6,214.5 "/>
<path class="st3" d="M178.6,219.7c1.7,0,3.1-1.3,3.1-3.1c0-1.5-1.3-2.9-3.1-2.9c-1.7,0-3.1,1.3-3.1,2.9
	C175.6,218.4,176.9,219.7,178.6,219.7"/>
<path class="st3" d="M216.8,41.7c2.1,0,3.8-1.5,3.8-3.6c0-1.9-1.7-3.6-3.8-3.6c-1.9,0-3.7,1.7-3.7,3.6
	C213.1,40.2,214.9,41.7,216.8,41.7"/>
<path class="st3" d="M216.8,50.2c2.5,0,4.4-1.9,4.4-4.4c0-2.3-1.9-4.2-4.4-4.2c-2.3,0-4.2,1.9-4.2,4.2
	C212.6,48.3,214.5,50.2,216.8,50.2"/>
<path class="st3" d="M216.8,60.1c2.9,0,5.2-2.3,5.2-5.2c0-2.9-2.3-5-5.2-5c-2.7,0-5,2.1-5,5C211.8,57.8,214.1,60.1,216.8,60.1"/>
<path class="st3" d="M216.8,72c3.5,0,6.1-2.7,6.1-6.1c0-3.3-2.7-6.1-6.1-6.1c-3.3,0-5.9,2.9-5.9,6.1C210.9,69.4,213.5,72,216.8,72"
	/>
<rect x="215.8" y="70.9" class="st3" width="2.1" height="121.8"/>
<rect x="215.8" y="11" class="st3" width="2.1" height="25.3"/>
<polygon class="st3" points="216.8,240.6 207.2,228.3 216.8,195.6 226.6,228.3 "/>
<path class="st3" d="M216.8,199.4c2.1,0,3.8-1.5,3.8-3.6c0-1.9-1.7-3.6-3.8-3.6c-1.9,0-3.7,1.7-3.7,3.6
	C213.1,197.8,214.9,199.4,216.8,199.4"/>
<path class="st3" d="M97.3,40c3.8,0,6.9-3.1,6.9-6.9c0-3.7-3.1-6.7-6.9-6.7c-3.6,0-6.7,3.1-6.7,6.7C90.6,36.9,93.7,40,97.3,40"/>
<path class="st3" d="M97.3,55.9c4.6,0,8.3-3.8,8.3-8.2c0-4.4-3.6-8.1-8.3-8.1c-4.4,0-8.1,3.6-8.1,8.1C89.3,52.1,92.9,55.9,97.3,55.9
	"/>
<rect x="96" y="54.4" class="st3" width="2.7" height="161.5"/>
<rect x="96" y="10.8" class="st3" width="2.7" height="18.5"/>
<polygon class="st3" points="97.3,279.6 84.6,263.2 97.3,219.9 110.2,263.2 "/>
<path class="st3" d="M97.3,224.9c2.7,0,5-2.1,5-4.8c0-2.7-2.3-4.8-5-4.8c-2.7,0-4.8,2.1-4.8,4.8C92.5,222.8,94.6,224.9,97.3,224.9"
	/>
<path class="st3" d="M97.3,303.1c1.7,0,3.1-1.3,3.1-3.1c0-1.5-1.3-2.9-3.1-2.9c-1.5,0-3.1,1.3-3.1,2.9
	C94.2,301.8,95.8,303.1,97.3,303.1"/>
<path class="st3" d="M97.3,310.2c2.1,0,3.6-1.7,3.6-3.6c0-2.1-1.5-3.6-3.6-3.6c-1.9,0-3.4,1.5-3.4,3.6
	C93.9,308.5,95.4,310.2,97.3,310.2"/>
<path class="st3" d="M97.3,318.4c2.3,0,4.2-1.9,4.2-4.4c0-2.3-1.9-4.2-4.2-4.2c-2.3,0-4.2,1.9-4.2,4.2
	C93.1,316.5,95,318.4,97.3,318.4"/>
<path class="st3" d="M97.3,328.4c2.9,0,5.2-2.3,5.2-5.2c0-2.9-2.3-5.2-5.2-5.2c-2.7,0-5,2.3-5,5.2C92.3,326.1,94.6,328.4,97.3,328.4
	"/>
<rect x="96.5" y="327.5" class="st3" width="1.7" height="86.2"/>
<rect x="96.5" y="277.6" class="st3" width="1.7" height="20.9"/>
<polygon class="st3" points="97.3,394 89.3,383.9 97.3,356.6 105.4,383.9 "/>
<path class="st3" d="M97.3,359.9c1.7,0,3.1-1.5,3.1-3.1c0-1.7-1.3-3.1-3.1-3.1c-1.5,0-3.1,1.3-3.1,3.1
	C94.2,358.4,95.8,359.9,97.3,359.9"/>
<path class="st4" d="M104.8,427.9c2.8-4.5,0.8-10.6-2.1-13.4c-1.3-1.3-2.4-2-3.4-2.3c-1.7-0.8-3-0.2-4,0.8c0,0-0.1,0.1-0.1,0.1
	c0,0-0.1,0.1-0.1,0.1c-0.5,0.5-1.1,1.1-1.6,1.8c-0.3-0.3-0.5-0.4-0.5-0.4v0c-0.8-0.8-4.6,1.2-8.3,4.9c-3.7,3.7-5.8,7.5-4.9,8.3v0
	c0,0,6.3,7.5,15.9,13c0.8,0.5,1.5,0.9,2.1,1.2c0,0,0,0,0,0c0.9,0.4,3.5-1,6-3.6c2.6-2.6,4-5.1,3.6-6c0,0,0,0,0,0
	c-0.1-0.3-0.3-0.6-0.5-1C106.3,430.2,105.6,429,104.8,427.9 M97.1,417.8c-0.6-1.2-0.7-2.3-0.1-3c1.2-1.2,3.6-0.6,5,1.8
	c1,1.6,1.6,3,2,4.1c0.4,2.1-0.1,3.7-0.8,4.8c-2.1-2.9-4.2-5.3-6-7.2C97.2,418.2,97.2,418,97.1,417.8"/>
</svg>
