<?xml version="1.0" encoding="utf-8"?>
<!-- Generator: Adobe Illustrator 21.0.0, SVG Export Plug-In . SVG Version: 6.00 Build 0)  -->
<svg version="1.1" id="Layer_1" xmlns="http://www.w3.org/2000/svg" xmlns:xlink="http://www.w3.org/1999/xlink" x="0px" y="0px"
	 viewBox="0 0 300 107.9" style="enable-background:new 0 0 300 107.9;" xml:space="preserve">
<style type="text/css">
	.st0{fill:#969595;}
</style>
<path class="st0" d="M284.9,90c-0.5-0.2-0.3-0.2-0.7-0.6c-0.3,0.2,0,0.4,0.1,0.6c-0.3,0.1-0.7,0.1-1,0.1c-0.6-0.1-1.2-0.4-1.8-0.5
	c0,0,0,0,0,0c0.7-0.5,1.5,0.4,2.3-0.1c-0.4-0.1-0.8-0.1-1.2-0.4c0.4-0.3,0.9,0.2,1.3-0.6c0.2,0.3-0.1,0.6,0.3,0.9
	c0.2-0.2,0.4-0.2,0.5-0.4c0.3,0.1,0.1,0.4-0.1,0.6c0.2,0.2,0.4-0.2,0.7,0.1c0.1-0.7,0.8-0.4,0.8-1.1c0.6,0.3,0,0.8,0.5,1.1
	c0.4-0.4,1.5-0.2,1.6,0.2c0.6-0.5,0.7,0.2,1.3-0.2c0.3,0.4-0.3,0.2-0.4,0.6c0.7,0.3,1.3-0.3,1.9-0.1c0.2-0.4,0.2-0.5,0.2-1.1
	c0.4,0,1.1-0.3,1-0.9c0.5,0.1-0.2,0.5,0.3,0.6c0.4,0.1,0.6-0.4,1-0.1c0.4-0.4,0.1-0.6,0.5-0.7c0.4,0.3-0.4,0.9-0.3,1.2
	c-0.2,0.4-0.6-0.6-0.8,0.1c0.2,0.5,1.1,0.2,1.5-0.2c0.4,0.1,0.2,0.4,0.5,0.6c0.5-0.5,1.6-1.4,1.9-0.9c0.2,0.1,0.2-0.3,0.1-0.4
	c0.4-0.2,0.8-0.5,1.3,0c0.2-0.5,0.5-0.3,0.7-0.8c-0.4,0.5-1.1-0.5-1.5,0.3c-0.4-0.5,0-0.8-0.9-0.9c0.5-0.9,0.8-0.2,1-0.2
	c0.3-0.7-0.5-0.3-0.6-0.8c-0.2,0.4-0.4,0.5-0.7,0.2c-0.2,0.5-0.5,0.3-0.5,0.7c0.4,0.1,0.7-0.2,0.6,0.4c-0.2,0.3-0.6-0.3-0.8,0.1
	c-0.3-0.4,0.2-0.7-0.5-0.7c0.4,0.7-0.5,0.1-0.9,0.2c-0.1-0.1-0.1-0.5,0.1-0.6c-0.4-0.1-1-0.4-1.4-0.1c-0.5-0.9-1.1-0.1-1.6-0.9
	c-0.5,0.3-0.4,0.8-1,0.9c-0.1-0.2,0.1-0.4,0.3-0.6c-0.6-0.6-1-0.1-1.5-0.3c-0.1,0.3,0,0.4,0.3,0.4c-0.2,0.6-0.8,0.2-0.7,0.7
	c0-0.1-0.2-0.7-0.5-0.4c-0.3-0.4,0-0.3,0.3-0.6c-0.6-0.3-1.1,0.3-1.8-0.4c-0.1,1.2-0.8-0.4-1.2,0.7c0-0.7-0.5-0.2-0.6-0.7
	c0.4-0.1,0.8-0.4,1.2,0.2c0.3-1,1.3-0.4,2.1,0c0-0.3,0-0.7,0.4-1.1c-0.9,1.3-3.2-1.1-4,1.1c-0.7,0-1.3,0.3-2,0
	c-0.1,0.3,0,0.4,0.2,0.4l-0.6,0.8c-0.2,0.1-0.4,0-0.7-0.2c0.3-0.4,0.6,0,0.9-0.7c-0.3-0.3-0.7-0.2-1-0.5l-0.4,0.5
	c-0.2,0-0.4,0-0.5-0.1c-0.2-0.2,0-0.5,0.3-0.8c-0.8-0.1-0.4,1.2-1.2,0.8c-0.1,0.2-0.1,0.4,0.1,0.6c-0.2,0.2-0.4,0.3-0.6,0.3
	c0.4-1-1.3-1.2-1.8-1.6c0.6-0.3,2.2,0.2,2.1-0.7c0.6-0.1,1.3,0.3,1.9,0.1c0-0.7-0.8-0.1-1.1-0.4c0.5-0.4,0.5-0.1,0.8-0.8
	c0.3,1,0.6,0.1,0.9,1.1c0.5-0.5,0.2-0.9,0-1.3c0.4-0.2,0.4,0.5,0.7,0.6c0.2-0.3,0.5-0.2,0.7-0.7c0.4,0.2,0.2,0.4,0.5,0.6
	c0.4-0.6,0.3-0.1,0.7,0c0.5-0.4,1-0.2,1.4-0.7c0.5,0.2,0,0.5,0.2,0.8c-0.5,0.3-1.5-0.1-1.3,0.8c0.3,0,0.5-0.5,0.8-0.6
	c0,0.1,0.1,0.3,0.2,0.4c0.4-0.6,0.5-0.6,0.9-0.3c0.6-0.5-0.1-0.8,0.4-1.3c0.1-0.1,0.2,0,0.3-0.2c0.4,0.2,0.1,0.6,0.1,0.9
	c0.3,0.5,0.6-0.1,0.9,0.3c0.2-0.2,0.1-0.3,0-0.5c0.6-0.4,1.4,0.5,1.9-0.6c1.2,0.1,2-0.6,3.1,0c0.3-0.6,0.7-0.3,1-0.5
	c0-0.6-0.1-0.7,0.2-1.1c-0.6-0.4-0.6-0.2-1-0.7c-0.1,0.6,0,0.4-0.3,1c-0.4,0.3-0.9,0-1.3,0.7c-0.3-0.4,0.3-0.9,0.3-1.4
	c-0.3-0.2-1,0.3-1-0.4c-0.7,0-1.3,1-2.1,0.2c0.4-0.4,0.8-0.3,1.2-0.7c-0.3,0-0.5,0.1-0.9-0.3c-0.1,0.5-0.1,0.5-0.4,0.1
	c-0.7,1-1.6,0-2.4,0.4c-0.4-0.2,0-0.5,0.1-0.7c-0.3-0.4-0.5,0.1-0.8-0.1c0.2,0.4,0.3,0.8,0.8,1.1c0,0.2,0,0.4,0,0.6
	c-0.2,0.1-0.5,0-0.7,0c-0.1-0.2,0.2-0.5-0.3-0.6c-0.2,0.2-0.2,0.4-0.3,0.6c-0.1,0.1-0.3-0.1-0.4,0.1c-0.3-0.5,0.2-0.3,0.1-0.7
	c0.3-0.3,0.7,0.3,0.9-0.3c-1.6,0-3.2,0.2-4.8,0.2c-1.6,0-3.2-0.1-4.7-0.3c-0.2,1-1.2,0.5-1.4-0.2c-0.2,0.5,0.1,1-0.1,1.5
	c-0.6,0.3-0.5-0.7-1.1-0.3c-0.1-0.2,0.1-0.3,0.2-0.5c-0.5-0.1-1,0.4-1.5,0.2c0.6-1.3-1.2-0.6-2-1.6c-0.4,0.2,0,0.5,0.2,0.7
	c-0.8-0.1-0.4-0.2-1.2-0.5c-0.1,0.2,0.3,0.4,0.1,0.6c-0.2,0.1-0.4,0-0.6-0.2c0,0.2-0.1,0.5-0.4,0.7c-0.5,0.4-0.3-0.6-0.8,0
	c-0.1-0.2,0-0.5,0.2-0.7c-1.2-0.4-1-0.7-2.4-0.4c-0.1-0.2-0.1-0.4,0.1-0.6c-0.9,0.6-1.8-0.1-2.8,0.3c0-0.2-0.1-0.3,0-0.5
	c-0.4,0-0.7,0.3-1.1,0.7c-0.3-0.2-0.3-0.5,0.1-0.7c-1.2,0.2-2.2-1.2-3.5-0.1c-0.3-0.3,0.1-0.5-0.2-0.8c0.2-0.2,0.4,0.2,0.6-0.2
	c-0.9,0.1-2.1,0.7-3.2,0c-0.2,0.5,0.7,0.5,0.1,0.9c-0.5-0.5-0.8-1-1.3-0.9c-0.4,0.7,0.4,0.1,0.6,0.4c-0.4,0.5-0.7,0.1-1.1,0.2
	c0-0.4,0.2-0.8,0.3-1.1c-1,0-1.8,0.8-2.8,0.2c-0.1-0.2,0.2-0.3,0.1-0.5c-0.1-0.2-0.3-0.1-0.4-0.4c-0.4,0.4-0.2,0.4-0.7,0.6
	c0-0.2-0.1-0.5-0.3-0.7c-0.5,0.2-1-0.1-1.4-0.1c-0.2-0.3,0.3-0.4,0.4-0.2c-0.3-0.8-1.2-0.1-1.5,0.6c-0.4-0.4,0-0.6,0.3-0.9
	c-0.7-0.1-1.5,0.7-2.1,0.2c-0.2-0.2,0.2-0.5,0.4-0.3c-0.1-0.4-0.4-0.6-0.8-0.7c0.1,0,0.6,0,0.3-0.4c0.2-0.1,0.3,0.3,0.6-0.1
	c-0.2-0.5-0.6-0.1-0.9-0.4c0.1,0.3-0.3,0.9-0.6,0.5c-0.1,0.2,0.1,0.1,0.2,0.4c-0.4,0.1-0.8,0.1-1.3,0.7c-0.4-0.4,0.3-0.6,0-0.9
	c-0.3,0.3-0.8,0.2-0.9,0.8c-0.8-0.3-1.6-0.8-2.2-0.7c0,0.3,0,0.6-0.4,0.7c-0.2-0.7,0.4-0.9-0.4-1.3c0.3-0.4,0.5,0,0.8-0.1
	c0.1-0.6-0.9-0.1-1.2-0.4c-0.1,0.2,0.1,0.4-0.2,0.5c-0.3-0.3-0.5-0.2-0.6-0.8c-0.4,0.2-0.2,0.5-0.6,0.7c-0.3,0-0.4-1.1-1-0.3
	c-0.2-0.3,0-0.5-0.3-0.8c0.3-0.3,0.5-0.1,0.7,0c-1.2-1.4-3.6-0.8-5.2-1.5c0-0.3,0.2-0.6,0.5-0.8c-0.3-0.2-0.7,0.1-1-0.3
	c-0.3,0.2-0.2,0.5-0.2,0.8c-0.8-0.2-2.1-1.6-3.2-0.3c-0.2-0.6,0.4-0.3,0.4-0.7c-0.6-0.2-0.7-0.2-1.2-0.4c-0.1,0.2,0,0.4-0.2,0.5
	c-0.6,0.1-1.4-1.5-1.9-0.6c-0.2-0.3,0-0.6-0.3-0.9c-0.3,0.1-0.7,0.5-0.8-0.1c-0.6,1.1-1.5-0.6-2.4,0c0.1-0.2-0.3-0.5-0.1-0.7
	c-0.5,0.1-1,0.5-1.4-0.4c-0.2,0.3-0.4,0.3-0.6,0.3c0-0.2,0-0.3-0.1-0.5c-0.1,0.3-0.6,0.2-0.4-0.1c-0.3,0.3-0.8,0.1-1.3-0.3
	c0,0.5-0.2,0.5-0.6,0.5c-0.1-0.2,0.1-0.3,0.3-0.4c-0.4-0.3-0.9-0.2-1.4-0.4c0.5-0.5,0.5,0.2,0.7-0.4c-0.3-0.2-0.5-0.4-0.8-0.3
	c-0.1-0.2,0.2-0.3,0.4-0.5c0.3,0.1,0.5,0.9,1,0.4c-0.4,0.1-0.1-0.8-0.5-0.7c0-0.5,0.3-0.5,0.7-0.5c0.1,0.3-0.2,0.5-0.2,0.8
	c0.3,0.4,0.5-0.2,0.7-0.4c0.3,0.1,0.6-0.1,0.9,0.4c-0.7-0.3-0.6,0.6-1.1,0.3c-0.2,0.4,0.5,0.3-0.1,0.7c-0.4,0.3,0.2-0.7-0.2-0.4
	c-0.6,0.4-0.1,0.3,0.1,0.7c-0.1,0-0.3,0-0.4-0.1c0.3,0.5,1.6,0.1,2.3,0.6c-0.1-0.7,0.4-0.1,0.5-0.6c-0.4-0.1-0.9-0.1-1.4,0.2
	c0-1.6,1.5-0.7,2-1.1c0.6,0.7-0.2,1.1,0.2,1.8c0.2-0.7,0.6,0.3,1-0.2c-0.3,0.1-1.1-0.4-0.7-1c0.4,0.9,0.5-0.3,1.2,0.4
	c0.3,0.4-0.2,0.7,0.1,1.1l0.6-0.5c-0.1-0.2-0.2-0.4-0.1-0.5c1-0.4,1.8,0,2.7-0.1c-0.2-0.6-0.5-0.3-0.8-0.5c0.6-0.3,1.6-0.4,1.6,0.6
	c-0.2-0.1-0.5-0.1-0.8,0.3c-0.2,0.4,0.4,0.2,0.2,0.6c0.6,0,1.2-0.8,1.5,0.3c0.3-0.4,0.5-0.1,0.7,0c0-0.2,0.3-0.3,0.2-0.5
	c0.6,0.5,1.9,0,2.1,1c0.4,0,0.8-0.1,1.3-0.1c0,0.2-0.1,0.4-0.2,0.5c0.3,0.3,0.3-0.4,0.6-0.5c0.3,0.5,0,0.8-0.2,1.1
	c0.4,0.3,0.9,0.2,1,0.9c0.2-0.4-0.1-1,0.4-1.3c-0.5-0.5-0.4,0.9-1,0.3c0-0.5,0.1-0.7,0.5-0.8c0.7-0.1,1.3,1.2,2,1
	c0.2,0.7-0.4,0.3-0.7,0.6c0.3,0.4,0.6,0.1,1,0c0-0.2,0-0.3-0.1-0.5c0.3-0.1,0.3,0.3,0.4-0.1c0.4,0.6,1.2-0.5,1.5,0.7
	c0.1-0.5,0.9-0.4,0.9,0.2c0.5-0.9,1.3-0.7,1.8-0.2c0.2-0.1,0.1-0.3,0.3-0.4c0.4,0.5,1,0.3,0.9,1l0.8-0.7c0.6,0.5-0.3,0.7,0,1.2
	c0.5-0.4,0.9-0.2,1.2,0.1c0.1-0.4,0.6-0.7,0.7-1c0.2,0.5-0.6,0.8-0.2,1.4c0.2-1.1,1.3-0.8,1.8-0.2c0.5-0.1,0.5-0.8,1-0.5
	c-0.1,0.4-0.5,0.8,0.1,0.7c0,0.4-0.3,0.7-0.6,0.9c0,0.1,0.1,0.1,0.2,0l0.2,0.3c0.3-0.2,0.2-0.6,0.5-0.8c0.5-0.3,0.3,0.6,0.8,1.1
	c0.4-0.4,0.7,0.3,1,0.1c-0.3-0.7-0.7-0.6-1.1-0.4c0-0.3-0.1-0.6-0.4-0.9c0.4,0.2,0.4-0.3,0.8,0.3c0.4-0.2-0.2-0.5,0.3-0.7
	c0.3,0.6,1.2,0.6,1.9,0.9c0.2-0.3-0.5-0.5-0.7-0.4c0-0.9,0.9-0.6,1.3-0.4c0.2,0.6-0.7-0.1-0.4,0.4c0.4,0.7,0.4-0.3,0.9,0
	c-0.7,1,1.4,0.1,1.9,1.2c0.3-0.4,1-0.6,1.6-1.1c-0.2,1,1.5,0.3,1.7,0c0.1,0.2,0.3,0.3,0.1,0.5c0.2-0.3,0.5,0.1,1-0.4
	c0.2,0.9,0.7,0.1,1.3-0.1c0.1,0.3-0.1,0.5,0.2,0.8c1.2-0.5,1.8,0.1,3-0.2c0.1,0.3-0.1,0.6,0.2,0.6c0.1-0.9,0.7-0.3,0.9,0.3
	c-0.2-0.7,0.5-1.2,1-0.9c0.1,0.6-0.6,0-0.5,0.5c0.1,0.2,0.3,0.1,0.5,0.4c0.2-0.3-0.1-0.6,0.3-0.6c0.1,0.2-0.3,0.4-0.1,0.6
	c0.6,0.3,0.8,0,0.8-0.4c0.5-0.2,0,0.7,0.4,0.6c0-0.6,0.4-0.7,0.8-0.9c0.1,0.7,0.3,0,0.6,0.6c0-0.5,0.5-0.4,0.8-0.2
	c0,0.3-0.2,0.1-0.1,0.6c0.2-0.7,1.6,0.1,1.5-1c0.3,0.3,0.7-0.7,1.1-0.3c0.3,0.5-0.3,0.3-0.6,0.9c0.3,0.2,0.7-0.1,1,0.1
	c0.2-1.4,1.5-0.8,1.8-1.1c0,0.4-0.5,0.6-0.7,0.8c-0.2-0.1-0.1-0.3,0-0.5c-0.4-0.3-0.3,0.4-0.8,0.5c0.6,0.1,0.8,0,1.3,0.9
	c0.4-0.3,0-0.5,0.1-0.8c0.6,0.8,2.8-0.1,3.6,0.1c0.1-0.1,0.8-0.5,0.5-0.8c0.5-0.6,1,0.4,0.9-0.5c0.3,0.3,0,0.6,0,0.9
	c-0.2,0.1-0.3-0.2-0.5-0.3c-0.3,0.5,0.3,0.7-0.4,1c0.5,0,0.6-0.4,1.1-0.8c0,0.1,0.1,0.3,0.2,0.4c0.3-0.4-0.2-0.3-0.1-0.8
	c0.3-0.2,0.6,0.2,0.8-0.4c-1.5-0.4-2.9-0.3-4.4-0.4c-0.4-0.2,0.2-0.5-0.2-0.7c-0.4,0-0.2,0.3-0.5,0.6c-0.4-0.4,0.2-0.9,0.6-1.4
	c0.8,0,1.7,1,2.7,0.2c0.3,0,0.6,0.4,0.9,0.3c-0.3-0.5-0.2-0.4,0.4-0.3c0.3-0.3,0-0.5,0.2-0.7c0.7,0.8,0.9,0.1,1.5,0.1
	c0.3,0.2,0.1,0.5,0.4,0.7c-0.1-0.5,0.2-0.9,0.6-0.6c0.3,0.2-0.5,0.5,0,0.7c0.1-0.3,0.2-0.2,0.4-0.1c0-0.2,0.1-0.4,0.2-0.6
	c0.8,0.1,1.2,0.2,1.9,0.6c0.1-1,0.6,0.1,1-0.5c0.2,0.4-0.3,0.2-0.4,0.6c0.3-0.1,0.7-0.2,1.1,0c0.2-0.1,0.3-0.8,0.5-0.5
	c-0.2-0.6-0.1-0.5,0.4-1.1c-0.7,0.3-1.1-0.4-1.6,0.1c-0.4-0.5,0.2-0.4-0.2-0.8c-0.3,0.4-0.3,0.7-0.2,1.1c-0.2,0.2-0.4,0.1-0.6,0.4
	c-0.1-0.7-0.7-0.3-1-0.1c-0.3-0.5,0.4-0.5,0.4-1.1c-0.4,0-0.4,0.2-0.5,0.5c-0.1-0.2-0.4-0.6-1-0.6c0,0.3-0.3,0.7-0.5,1
	c-0.1-0.4,0-0.8-0.4-1.1c-0.2,0.4-0.5,0-0.7,0.1c0.1-0.3-0.2-0.5-0.1-0.8c-1,0.3-2,0.2-2.9,0c-0.5,0.8-1.1-0.2-1.6,0.3
	c-1-1.2-2.4,0.8-3-0.7c-0.2,0.4-0.4,0.1-0.6,0.5c-0.2-0.4-0.5-0.4-0.7-0.7c0.4-0.3,0.7,0.2,0.8-0.6c-0.2,0.6,0.2,0.3,0.5,0.4
	c0.2-0.5-0.1-0.4-0.4-0.4c0.4-0.6,0.8-0.3,1.3-0.3c0.2,0.2-0.4,0.4-0.5,0.2c0.2,0.6,1.1-0.1,1.5,0.1c-0.2-0.4-0.4,0.1-0.6-0.3
	c0.8,0.1,1.1-0.5,1.9-0.6c0.3,0.3-0.6,0.6-0.1,0.8l0.4-0.5c0.8,0.4,1.7-0.1,2.2-0.5c-0.5,0.7,0.4,0.4,0.8,0.5c0-0.3,0.3-0.6-0.1-0.6
	c0.6-0.9,0.7,0.4,1.2-0.3c0.3,0.3,0.2,0.7,0.2,1c0.3,0.2,0.6-0.7,0.6-0.9c0.3-0.3,1.1,0.6,1.2-0.3c0.2,0,0.8,0.2,0.7,0.5
	c0.3-0.6,1.3-0.9,2.1-0.5c-0.4,0.3-0.4,0.2-0.7,0.9c0.3,0.2,0.6,0.3,1,0.6c0.3-0.2-0.4-0.8,0-0.6c0.1-0.6-0.4,0.1-0.5,0.1
	c-0.2-0.7,0.8-1.4,1.4-0.7c0.6-0.1,1-1.7,1.7-1.1l0.3-0.5c0.3,0.2,0,0.5,0.1,0.7c0.4,0.1,0.6-0.9,1-0.5c0.2,0.4-0.3,0.4-0.4,0.7
	c1-0.5,1.8-1.2,2.6-0.5c0.3-0.1,0.6-0.1,0.8-0.7c-0.2-0.1-0.3-0.3-0.2-0.5c0.5,0.4,1.3-0.6,2-0.1c-0.1,0.3-0.3,0.7-0.6,0.5
	c0.3,0.3,1.2,0.1,1.7,0c0.3-0.7-0.3,0.1-0.6-0.4c0.2-0.5,0.6-0.2,0.8-0.7c-0.1-0.2-0.1-0.3,0-0.6c-0.3-0.2-0.3,0.1-0.4-0.3
	c0.1-0.1,0.2-0.1,0.3-0.3c0.6,0.7,0.7,0.4,1.3,0.6c-0.2,0.6-0.6-0.1-0.8,0.5c0.3,0.3,0.4,0,0.7,0.3c-0.3-0.4,0.4-1,0.8-1.1
	c0.1,0.1,0,0.3-0.1,0.5c0.4,0.4,0.5-0.1,0.8,0.2c0.1-0.3-0.3-0.3-0.3-0.6c0.5-0.6,1.3-0.3,1.8-0.8c-0.2-0.6-0.4,0.3-0.8,0
	c-0.1-0.1-0.1-0.2-0.2-0.3c0.5,0.1,0.5-0.4,0.9-0.8c-0.2-0.6-0.6-0.3-0.6,0.3c-0.5-0.1,0.2-0.8-0.3-0.6c0.2-0.4,0.7-0.8,0.2-1.1
	c-0.2,0.1-0.3,0.4,0.1,0.6c-0.1,0.2-0.3,0-0.4-0.1c-0.3,0.4-0.1,0.6-0.2,0.9c-0.5,0.2-1.1,0.2-1.5,0.8c-0.9-0.9-1.3,0.3-2,0.2
	c-0.2-0.9,0.9-0.7,0.8-1.5c-0.8,0.7-1.6,0.1-2.5,1.3c-0.4-0.4-0.6-0.8-0.9,0c-0.3-0.4-0.3-1,0-1.3c-0.2-0.3-0.3,0.1-0.4,0
	c0.2,0.3-0.2,0.9,0.2,1.1c-0.7-0.4-1.1,0.6-1.8,0.6c0.7-0.7,1.1-1.3,1.3-1.4c-0.4-0.7-1.2,0.7-1.7,1.1c-0.1-0.6-0.7-0.3-1-0.1
	c0,0.2,0.2,0.3,0.1,0.5c-0.1,0.1-0.2,0-0.2,0.2c-0.1-0.2,0.1-0.4-0.2-0.5c-0.7,0.1-1.4,0.8-2.1,1c-0.1-0.1,0-0.2-0.1-0.3
	c0.7-0.4,0.9-0.9,1.6-1.3c-0.7-0.4-1.2,0.2-1.8,0c-0.1,0.5,0.3,0.1,0.4,0.4c-0.1,0.3-0.3,0.3-0.4,0.4c-0.4-0.2-0.2-0.9-0.6-0.8
	c-0.1,0.2,0,0.4-0.2,0.6c0.1,0.1,0.2-0.1,0.2-0.2c0.2,0.2,0.3,1.1,0.4,0.4c0.6,0.5,0,0.9-0.3,0.9c0.4-0.4-0.5-0.3-0.3-0.9
	c-0.3-0.2-0.4,0.7-0.6,0.6c-0.3-0.4,0.3-0.8,0.5-0.9c0.2-0.3-0.3-0.6-0.1-0.9c-0.3-0.2-0.6,0.3-0.9,0c0-0.5,0.3-0.4,0.4-1
	c-0.4-0.6-0.6,0.3-1-0.2c-0.1,0.4,0.4,0.1,0.6,0.6c-0.3,0-0.5,0.1-0.8,0c0.4,0.4,0.2,0.7,0.2,1.2c-0.1,0.1-0.2,0-0.2,0.2
	c-0.4-0.2,0.2-0.5-0.2-0.7c-0.3,0.8-2.3,0.5-2.3-0.4c-0.2,0.5-0.5,0.3-0.5,0.8c-0.5-0.3-0.2-0.7-0.5-1c0.4,0.1,0.8-0.4,1.3-0.3
	c-0.3-0.5-1.3-0.4-1.8-0.2c-0.2-0.2,0.1-0.5-0.2-0.7c-0.3,0.4-0.7,0.8-1.3,0.2c0,0.6-0.4,0.5-0.1,1.2c-0.3-0.5-0.6,0.3-1-0.1
	c0.3,0.8-0.7,0.4-0.7,1c-0.6-0.3,0.3-0.7-0.1-1c-0.2,0.5-0.5,0.5-0.8,0.4c0-0.3,0-0.5,0.1-0.8c0.9-0.3,1.7,0,2.3-0.6
	c-0.2-0.4-0.4,0.3-0.6-0.3c-1,1.4-2.2-0.6-3.3,0.5c-0.5-0.6-1.3-0.5-2-0.5c-0.7,0-1.3,0-1.6-0.6c-0.3-0.1-0.7-0.1-1-0.3
	c-0.2,0.9-0.8,0.2-1.2,0.4c0-0.2,0.1-0.4-0.1-0.6c-0.1,0.6-0.7,0.6-0.6,0.1c-1,0.7-1.9-0.4-2.8-0.1c0.3,0.3-0.2,0.5-0.4,0.7
	c-0.1-0.3,0.4-0.5,0.3-0.8c-0.8-0.6-1.6,0.1-2.4,0c0.1-0.9-0.9-1-1.1-0.5c-0.1-0.4-0.3-0.2-0.5-0.5c-0.5,1.2-2.1-0.7-3.2,0.2
	c-0.6-1.4-2.3,0.5-2.7-0.9c0.2,0.2,0.5,0,0.8,0c-0.1-0.7-1.1,0.1-1.7-0.3c-0.3-0.2-1.2-1-1.3-0.3c-0.2,0.2-0.3-0.4-0.5-0.5
	c-0.7,0.3-1.2-0.2-1.9,0.3c-0.7-0.5-2.2-0.7-3.4-1c-3.7-1-7.4-2.1-11.1-3.1c-3.8-1.1-7.6-2-11.4-3c-7.6-1.9-15.3-3.6-23-5.2
	c-15.4-3.2-30.9-6.1-46.3-9.1c-0.2-0.3,0.1-0.5,0.3-0.8c2.1,1.3,4.7,0.5,6.9,1.7c0.3-0.4,0.4-0.3,0.7-0.4c0,0.2-0.2,0.1-0.3,0.3
	c0.3,0.4,0.8-0.4,1.1,0.3c0.3-0.2,0.1-0.6,0.4-0.8c0.8,1.3,2.4,1.4,3.8,1c1,0.4,2,1,3.1,0.6c0.1,0.1,0.1,0.3,0,0.4
	c1.7-0.3,3.8,1.1,5.1,0.4c0.2,0.4-0.1,0.4,0.3,0.5c0.1-0.1,0-0.3-0.1-0.5c1.9,1.2,3.8,0.2,5.8,1.6c0.3-0.7,1.2,0.2,1.7,0.3
	c0.8,0.2,1.6-0.4,1.9,0.3c0.8-0.3,1.6-0.2,2.2,0.6c0.4-0.1-0.1-0.5,0.3-0.6c0.1-0.2,0.5,0.5,0.3,0.5c0.6-0.5,1,0.2,1.5-0.1
	c0.2,0.2,0,0.3-0.1,0.5c0.8-0.4,1.3,0.1,2-0.1c-0.1,0.9,0,0.1,0.5,0.6c0.1-0.3,0.3-0.5,0.6-0.4c0,0.2,0,0.4,0.2,0.6
	c0.6-0.8,1.3,0.6,2.3-0.1c0.1,0.2,0.1,0.4,0,0.6c1.1,0,3.6,0.8,3.9,0.3c0.6,0,1,0.9,1.7,0.2c0.4,0.7,1.3,1.2,1.6,0.6
	c3.3,1.2,6.6,1.2,10.1,2.4c0.2-0.1,0.1-0.3,0.3-0.4c0.2,0.4,0.3,0.3,0.7,0.8c2-0.3,4.4,1.6,6.8,0.9c0.1,0.2,0,0.4,0.2,0.6
	c0.9,0.1,1.8-0.1,2.6,0.4c0-0.3,0-1.4,0.8-1.5c0.2,0.5-0.1,0.7,0.4,1c0.1,0.4-0.6,0.7-0.7,0.2c-0.4,0.5,0.5,0.9,0.5,0.4
	c1,1.1,2.4,0.1,3.4,1.2c0.4-0.7,1.1-0.3,1.5,0.5c0.2-0.1,0.2-0.3,0.1-0.5c1,0.6,2,0.5,3,1.2c0.1-0.2,0-0.4,0.2-0.5
	c1.4,0.7,3.6,0.3,4.5,1.6c0.1-0.1,0-0.2,0-0.4c1.6,0.5,3.3,0.5,4.8,1.5c1.2-0.3,3,0.6,4.4,0.9c0.4-0.2,0-0.5,0.4-0.7
	c0.1,0,0.2-0.1,0.3,0.1c-0.5,1.2,1,0.8,1.4,1.2c0.3-0.6-0.4-0.2-0.5-0.6c-0.1-0.5,0.4-0.3,0.6-0.4c0.4,1.6,1.7,0.9,2.4,1.6
	c0.4-0.2,0-0.5,0.4-0.8c0.1-0.1,0.2,0.2,0.3,0.1c0.1,0.2-0.2,0.4-0.3,0.5c0.2,0.3,0.5,0.4,0.8,0c0-0.2-0.2-0.5,0.1-0.7
	c-0.1-0.3-0.4,0.1-0.5-0.3c0.3-0.4,0.6,0.3,0.9-0.3c0.2,0.7,0.5,0.4,0.8,0.6c0,0.6-0.6-0.2-0.8,0.2c0.5,0.9-0.3,0.3-0.5,0.5
	c0.7,1,0.8,0,1.5,0.7c0.2-0.2-0.2-0.5-0.1-0.7c0.1-0.1,0.2,0.1,0.2,0.2c0.2-0.3,0.1-0.4-0.1-0.5c0.5-0.6,0.9-0.2,1.4-0.8
	c0.2,0.3,0.4,0.3,0.3,0.7c0.4,0,0.9-0.9,1.2-0.4c0.2,0.3-0.3,0.4-0.4,0.6c0.2,0.4,0.5-0.2,0.5-0.5c0.3-0.3,0.5,0.5,0.8,0.2
	c0.1,0.2-0.2,0.4,0.1,0.7c0.5-0.8,1.8-0.8,1.7,0c0.4,0,0.7,0.4,1.1-0.2c0.4,1,1.2,0,1.3,0.8c0.5-1.3,1.5,0.9,2.3-0.1
	c0.7,0.4,1.4,0,2.1,0.5c0.2,0.3-0.4,0,0,0.5c1.2-1,2.2,0.6,3.3,0c-0.1-0.2-0.3-0.1-0.4-0.4c-0.1-0.2,0.1-0.3,0-0.5
	c0.5,0.1,1,0.7,1.5,0.7c0.1-0.3-0.1-0.2-0.2-0.4c-0.1-0.4,0.4,0.1,0.5-0.4c0,0.3,0.1,0.4,0.3,0.5c0.4-1.3,1.3,0.5,2-0.4
	c0.3,0.3,0.3,0.6,0,0.9c0.2,0.4,0.4,0,0.7,0.2c0.1-0.2-0.1-0.4-0.2-0.6c0.2-0.5,0.4-0.4,0.6-0.5c0.1,0.2,0,0.5-0.2,0.7
	c0.6-0.5,1.1-0.1,1.7-0.1c0.1,0.2-0.2,0.5,0.2,0.7c0.3-1.2,2-0.5,2.6-1.1c0.2,0.6,0.8,0.4,0.4,0.9c0.4,0.1,0.4-0.2,0.4-0.6
	c0.3-0.1,0.5,1.1,0.9,0.5c-0.2-0.4-0.3,0-0.5-0.2c0.1-0.1,0.1-0.2,0.1-0.4c0.8,0,1.7,0.6,2.4-0.5c0,0.6,0.1,0.5,0.4,1.1
	c0.2-0.4-0.1-0.7-0.3-1c0.3-1,0.9,0.4,1.2-0.4c0.5,0.4-0.1,0.9,0.2,1.2c0.3-0.5,0-0.9,0.1-1.3c0.3-0.5,0.4,0.4,0.5,0.2
	c0.1,0.2-0.1,0.4-0.2,0.6c0.3,0.1,0.7-0.3,0.5-0.6c0.6,0.7,0.6,0,1.1,0.7c0.5-0.6,0.5-0.4,1.1-0.2c0-0.3-0.3-0.6,0-0.9l-0.5-0.5
	c-0.3,0-0.1,0.6-0.5,0.1c-0.1,0.2,0,0.3,0.1,0.5c-0.5,0.1-2,0.6-1.8-0.6c-0.2-0.2-0.3,0.4-0.4,0.5c-0.3-0.4-0.1-0.8,0.1-1.1
	c-0.2-0.1-1,0.1-0.6,0.5c-0.3,0.2-0.7-0.2-1,0.5c-0.2-0.2,0.3-0.6,0.2-0.8c-0.3-0.4-1,0.6-0.9-0.5c-0.2-0.2-0.2,0.4-0.1,0.5
	c-0.3,0.1-0.6,0.1-0.9-0.2c-0.1,0.2,0,0.4,0,0.6c-0.2,0.2-0.4-0.1-0.5,0.2c0-0.2,0-0.4,0-0.6c-0.7,0.5-1.3,0.5-2,0.4
	c-0.2-0.3,0.2-0.1,0.3-0.5c-0.2-0.3-0.5,0.2-0.7-0.3c-0.5,0.7-0.5-0.9-1-0.3c0.2,0.1,0.3,0.1,0.5,0.2c-0.2,0.6-0.4-0.1-0.6,0.5
	c-0.2-0.2,0-0.4,0.1-0.6c-0.1,0-0.3,0.1-0.4-0.1c-0.1,0.8-1.5,0.4-2.1,0.2c0-0.1,0-0.1,0-0.2c-0.9,0.1-1.8,0.1-2.8-0.2
	c-0.1-0.2,0.1-0.4,0.3-0.6c-0.3-0.6-0.6,0.2-0.6,0.6c-0.5,0.1,0-0.7-0.5-0.9c-0.5,0.3,0.3,0.5,0.1,0.8c-0.7-0.1-1.4,0.6-2-0.2
	c-0.3,0.8-0.6,0.4-1,0.6c-0.3-0.3-0.1-0.5-0.3-0.7c-0.5,0.5-1.1,0.3-1.6,0.2c-0.1-0.4,0.4-0.3,0.6-0.3c-0.3-0.5-0.9-0.2-1.4,0.2
	c-0.3-0.3,0.1-0.5-0.2-0.8c0.3-0.4,0.6,0,0.6-0.5c-1-0.1-1.7,0.1-2.7,0.7c-0.4-0.4,0.3-0.7,0-1c-0.9,0-1.8,0-2.6-0.8
	c-0.5,0.7-0.8,0-1-0.1c-0.2,0.2,0.1,0.5-0.2,0.7c-0.6-0.9-2.2,0.2-2.2-0.9c-1,0-2.4-1-3.3-0.4c-0.4-0.7-1.1-0.1-1.5-1.1
	c-0.5,0.6-0.7-0.1-1.2,0.6c-0.3-0.3,0-0.5-0.2-0.8c-2-0.4-4-0.5-6-1.7c-0.1,0.2-0.3,0.4-0.1,0.5c-1.6-0.7-3.2-1.4-4.9-1.3
	c-0.5,0.2-0.7-0.7-1.2-0.7c-0.1,0.1,0.1,0.3-0.1,0.5c-0.5-0.3-1.1-0.8-2-0.5l-0.4-0.8c-1.9,0.2-3.7-0.7-5.5-1.4
	c-0.1,0.1,0,0.2-0.2,0.3c-3.1-1.2-6.4-1.4-9.5-2.5c-0.6,0.6-2.7-0.6-4.1-0.9c-0.8-0.2-1.4,0.1-1.9-0.6l-0.4,0.4
	c-0.2-0.9-1.2,0-1.7-0.9c-1.7,0.5-3.7-1-5.6-0.8l-0.3-0.5c-2.5,0.2-4.6-1.3-7.1-1c-0.9-0.9-2.1-0.1-3-1c-0.7,0.5-1.2-0.4-1.9,0
	c-1.6-0.9-3.3-1-5.1-1.1c-3.7-1.1-7.6-1.1-11.3-2.3l-0.5,0.4c-0.2,0.1-0.1-0.2,0-0.4c-2.1-0.1-3.5-0.5-5.6-0.6l-0.3-0.5
	c-0.4,0-0.3,0.8-0.8,0.3c-0.1-0.2,0.2-0.1,0.3-0.3c-0.2-0.2-0.6-0.2-0.7,0.2C154,25,139.3,23.8,124.4,21l-0.3,0.3
	c-1.9-0.8-4.2-0.2-6-1.3c-0.4,0.1-0.8,0.7-0.8,0c-0.3,0.3-1.2,0.3-1.7-0.3l-0.5,0.3c-0.7-0.2-1.3-0.6-2.1-0.3
	c-3.2-1.4-6.9-0.7-10.1-2.7l-0.5,0.3c-0.4-0.7-1.5-0.8-1.8-0.3c-0.1-0.2,0-0.4-0.1-0.6c-0.4,0.8-0.6,0.2-0.8-0.1c-1,0.5-2,0-3.2-0.3
	c-0.1-0.2-0.1-0.4,0-0.6c-0.3-0.2-0.5,0.7-0.9,0.1c-0.1,0.1,0,0.2,0,0.4c-0.3,0.1-0.5-0.4-0.9,0.1c-0.2-0.2,0-0.3,0.1-0.4
	c-0.4,0.2-1.1,0.4-1.6,0.2c-0.1-0.6,0.4-0.2,0.7-0.5c-1.2,0.2-2.4,0.2-3.5,0.3L90,14.8c0.2-0.5-0.3,0.2,0.1,0.5
	c-0.5,0.3-0.9,0.3-1.4,0.3c-0.1,0-0.3,0-0.5,0.1c0-0.1,0-0.2-0.1-0.3c-0.2-0.3-0.5-0.3-0.1-0.5c-0.3-0.3-0.4,0.6-0.9-0.3
	c-0.5,0.3,0.1,0.4,0.2,0.6c0,0,0,0,0,0c-0.8,0.4-1.3-0.3-2.1,0.2c-0.1-0.2,0.2-0.3,0.3-0.4c-0.1-0.2-0.4,0.1-0.5-0.4
	c0,0.7-0.4,0.2-0.8,0.6c-1.4-1.3-3.7,0.6-4.8-1c-0.2,0.3-0.4,0.5-0.7,0.5c-0.5,0.1-1,0-1.4,0c0.1-0.3,0.2-0.3,0.4-0.3
	c0.3,0,0.6,0.2,0.9,0c-0.1-0.3-0.3-0.2-0.4-0.5c0.6-0.2,1.3-0.7,1.8-0.7c-0.3,1.2,1.4,0.4,1.7,0.3c0,0,0,0,0,0
	c-0.5-0.5-1.3-0.7-2.2-0.6c-0.6,0-1.2,0.2-1.7,0.5c-0.1-0.2,0.2-0.3,0.4-0.5c-0.6,0-1.8-0.3-2,0.7C76,13.7,76.2,13,76,12.8
	c-1,0.4-1.6,0.3-2.5,0.6c-0.2,0.1-0.5,0.1-0.7,0.2c-1.4-0.4-2.8-0.7-4.5,0c-0.8-0.4-2.2-0.2-2.9,0.4c-1.7-0.9-5.3,1.1-7.3-1.1
	c0.3,1.6-1.5,0.4-1.7,1.7c-0.5-0.2-1.3,0.9-1.5,0c-2.2,0.7-4.1,0.3-5.8-1.3c-0.3,0.3-0.7,0.6-0.6,1c-0.3,0-0.6-0.2-0.8-0.7
	c-0.4,0.4-0.6,0.1-0.9,0.1c-0.3,0.6-0.5,0.4-0.8,0.9c0.1,0.3,0.4-0.1,0.5,0.2c-1.4,0.5-3.3-0.1-4.6-1.6c-0.4,0.8-0.9,0.8-1.5,0.5
	c-1.5,1.4-3.2,1.9-4.8,2.1L35.4,15c0,0.8-0.9,0.3-1.4,0.6c0-0.2,0-0.3,0.1-0.4c-1.1,0-2.2-0.1-3.2,0.2c-0.2,0.1-0.5,0.2-0.7,0.3
	c-1.4-0.1-3.4-0.3-4.7,0.8c-0.9-0.4-2.9,0.5-3.8,0.8c-1.5,0.5-2.7,0.9-3.9,1.8c0.3,0.1,0.3,0.5,0.4,0.8c-0.3,0.3-0.5-0.1-0.8,0.2
	c0.4,0.3,0.7,0,0.8,0.5c0.6-0.7,1.2,0.7,1.5-0.1c0.3-0.2,0.3,0.6,0.5,0.8c0.6,0,1.2,0.1,1.8,0.2C21.2,22,21,21.9,20,22.7
	c2.2,0.3,5.2,0.9,8,0.1c0.3-0.1,0.5,0.2,0.7,0.5c0.1-0.2,0.1-0.4,0-0.6c0.3,0.1,0.6,0,0.9-0.1c0.2,1.1,1.6-0.2,2.2-0.8
	c0.2,0.5-0.3,0.7-0.6,1c0.3-0.1,0.6,0.4,0.5,0.8c-0.6,0.4-0.5-0.1-1,0.5c0.1,0.4,0.6-0.6,0.7,0.1c0.4-0.1,0.2-0.4,0.5-0.6
	c0.1,0,0.3,0,0.4,0.1c-0.1,0.4-0.6,0.6-0.6,1c-0.1,0-0.2-0.1-0.3,0c0.4-0.6-0.5-0.3-0.9-0.3c-0.1-0.2,0-0.4-0.1-0.6
	c-0.9,0.1-1.3,1.2-2.1,1.3c0-0.4,0.8-0.6,1.1-1c-0.3-0.1-1.1-0.1-1,0.5c-0.8-0.6-1.9,0.1-2.9,0.4c0.5,0.5,1.2-0.2,1.8-0.4
	c-0.6,1-1.7,1-2.2,0.3c-0.8,0.4-1.7,0.7-2.3,0.1c-2.5,0.9-4.6-0.1-7,0.5c0.4,0.7,0.9,0.4,1.2,1.4c0.6-0.1,1.1,0.1,1.5,0.8
	c0.2-0.1,0.1-0.3,0.3-0.4c0.2,0.9,0.8,0.3,1.1,0.7c0.1,0.3-0.2,0.5-0.5,0.7c0.4,0.6,1,0.2,1.4,0.5c0.3,0.4-0.3,0.5-0.1,0.8
	c0.6,0.5,1.2-0.2,2.1-0.2c0.1,0.7-0.9,0.9-1.3,1.1c0.1,0.1,0.3,0.2,0.4,0.5c0.1-0.1,0-0.2,0-0.4c0.4-0.2,0.5,0.4,0.8-0.2
	c0.1,0.2,0,0.4,0.1,0.6c0.7-0.2,1.3,0.1,1.9,0.4c0.3-0.2,0.4-0.5,0.2-0.9c0.3-0.2,0.5-0.3,0.6-0.3c0.1,0.5,0.1,1,0,1.5
	c-0.8-0.1-2.1,0.5-2.5,1.4c-1.2-0.1-2.4,0-3.4-0.7c0.1,1-0.7,0.4-1.1,0.2c0-0.5,0.5,0.2,0.7-0.1c-0.4-0.6-1.1,0.2-1.6,0.2
	c-0.3-0.4,0.3-0.5-0.1-0.6c-0.3,0.7-1.5,0.4-2.1,0c-0.7,0.6-1.3,0.1-2.1,0.2c-0.2,0.7,0.6,0.3,0.8,0.5c-0.7,0.3-2.5,0.7-3.4-0.4
	c-1,0.7-3.4-0.9-4,1c-0.6-0.5-1.1,0.5-1.5,0c0.1-0.4,0.4-0.2,0.5-0.7c-1.6,0.4-3.3,1.1-3.7,2.6c0.3,0.4,0.8,1,0.5,1.5
	c0.7,0.7,1.9,0.9,1.8,2.4c0.5-0.5,1.1-0.1,1.4-0.8c-0.1-0.2-0.3,0-0.4,0.1c-0.1-0.5,0.1-0.3,0.4-0.5C5.8,38.8,6,39,6.3,39
	c0.2,0.3,0,0.6-0.3,0.7c0.2,0.1,0.5,0.1,0.5-0.2c0.4,1,1.8,0.6,2.8,0.4c0.8,1.3,2.2,0.2,3.4-0.3l0.1,0.3c-0.7,1.1-1.7,0.8-2.4,1.5
	c0.1,0.4,0.4,0.2,0.4,0.6c1.8-0.8,2.7-0.1,4.4-0.5c0,0.1-0.1,0.2,0,0.4c-0.6,0-1.5,0.3-1.9,0.8c0.2,0.4,0.5,0.1,0.7,0.5
	c0-0.5,0.3-0.5,0.5-0.2c0-0.3,0.1-0.6,0.2-0.9c0.5,0.4,1.8,0.3,1.7-0.6c0.3-0.3-0.1,0.7,0.4,0.5c0,0.2-0.4,0.1-0.3,0.6
	c0.4,0.2,0.9-0.6,0.8-0.9c0.3-0.1,0.1,0.6,0.3,0.9c0.6-0.2,0.3-0.6,0.7-0.9c0.3-0.2,0.2,0.4,0.1,0.5c0.3,0.3,0.4-0.4,0.5-0.6
	c0.1,0.1,0.4,0.5,0.4,0.8c-0.3,0.4-0.5,0.2-0.8,0.4c0.5,0.6,0.9-0.2,0.9-0.7c0.7,0.1,1.3,0.2,1.9-0.6c0.4,0.4-0.2,0.6,0,0.9
	c-0.4,0.1-0.8,0.1-1.2,0.1c0.2,0.6,0.1,1-0.3,1.3c0.2,0.3,0.5,0.1,0.5-0.2c-0.1,0.6,0.4,0.2,0.4,0.8c0.6-0.5,1.1-0.3,1.8-0.1
	c0.1,0.4-0.6,0.4-0.7-0.1c-0.1,0-0.1,0.1-0.1,0.2l-0.2,0.2c0.3,0.5,0.7,0.2,1.1,0.1c0.1,0.5-0.2,0.9-0.1,1.4
	c0.3-0.4,0.3-0.2,0.7-0.5c0.3,0.4,0.1,0.6,0.3,0.9c0.3-0.1,0.3-0.3,0.4-0.5c0.2,0.3-0.1,0.5,0.2,0.8c0.6-0.1,1.1,0.1,1.7,0.3
	c0.1,0.6-0.3,0.2-0.6,0.6c0.2,0.4,0.6-0.2,0.8,0.4c0-0.2,0.3-0.3,0.2-0.5c1.2,0.8,2.8,0.1,4.1,0.8c0.1-0.1,0-0.3-0.1-0.5
	c0.3-0.2,0.6-0.4,0.8-0.4c0,1.9,1.9,0,2.6,0.6c-0.6,1.5-1.5,0.8-2.4,1.3c0.3,0.5,1-0.2,0.9,0.7l0.7-0.5c0.2,0.3,0.1,0.4,0.1,0.6
	c-0.2-0.1-0.6,0.3-0.8,0c0,0.5-0.3,0.2-0.5,0.7c0.2,1,1.1-0.9,1.3,0.2c0.5-0.5,1.1-1,1.6-1.5c0.3,0.4,0,0.7-0.2,0.9
	c0.2,0.7,0.6,0.3,0.8,0.5c0-0.3,0.2-0.6,0.6-0.8c-0.1-0.2-0.4,0.1-0.5-0.4c0.4-0.2,0.7-0.1,0.9,0.3l1.1-0.7c0,0.7-0.3,0.5,0.3,0.7
	c0.4,0.4-0.3,0.5,0,0.9c0.4-1.1,0.8-0.6,1.6-1.3c0.5,0.3,1,0.5,1.5,1c0.7-0.9,1.2-1,2-1.4c0.3,0.4-0.4,0.5-0.4,0.8
	c0.9,0.1,2-1.1,2.6-1.8c-0.8-0.5-1.4,0.9-2,1c-0.1-0.2-0.1-0.4,0-0.6c-0.2-0.3-0.7,0.3-0.5,0.6c-0.6-1.1-2.6,1.1-3.4-0.4
	c0.9-1.1,2.3-0.8,3.2-0.4c0.9-1.4,2.2-0.9,3.4-0.7c-0.5,0.6-0.8,1-1,1.8c0.4-0.4,0.5-0.1,0.9-0.4c0.5,1.4,1.3-0.3,1.8,0.9
	c1-0.3,0.7-0.2,1.5-0.3c-0.2-0.3,0.1-0.4,0-0.6c0.3-0.1,0.5,0.1,0.8-0.2c0.3,0.5-0.2,0.7-0.5,0.6c0,0.5,1.2,0.2,1.2-0.3
	c0.4,0.2,0.8-0.2,1,0.6c0.5,0.2,1.3-0.8,1.7-0.3c0.2,0.7-0.5,1.2-0.9,1.8c0.7,0.1,1.2-0.7,2-0.3c0.2,0.5,0,0.6,0.4,0.6
	c0.4-0.3-0.5-0.3-0.1-0.6c-0.3-0.1-0.5-0.3-0.8-0.1c0-0.6,0.1-0.5-0.4-0.6c-0.1-0.2,0.2-0.3,0.3-0.4c0.3-0.1,0.3,0.7,0.6,0.7
	c0-0.2,0.3-0.3,0.2-0.5c0.3-0.1,0.6,0.2,0.9,0.3c0.1,0.3,0,0.4-0.3,0.4c-0.2,0.1,0-0.2-0.2-0.4c-0.1,0.3-0.3,0.6-0.2,1
	c1.6-1.4,2.8-1,4.3-1.5c0.1,0.2,0.2,0.4,0.1,0.5c0.2-0.3,1.3-0.7,1.9-0.6c0,0.6-1.1,0.6-1.1,1c-0.1-0.6-0.4-0.4-0.1,0.1
	c1.1-0.2,2.1-0.3,2.9,0c0.1,0.8-1.1,0.2-1.2,1.1c0.4,0.1,0.4,0.3,0.7-0.1c1.1,0.9,3.6-0.2,4.9-0.1c0.2,0.4-0.8,0.4-0.4,0.8
	c0.3-0.6,0.8-0.6,1.2-0.7c-0.2-0.2-0.5-0.5-0.8-0.4c0-0.1,0.1-0.2,0-0.4c0.6-0.2,1,0.7,1.7,0.1c0.1,0.2,0,0.4,0.1,0.6
	c0.6-0.4,0.9,0.1,1.4,0c0.1,0.2,0.1,0.4,0,0.6c0.2,0.2,0.5-0.2,0.6,0.3c0.2-0.1,0.2-0.3,0.1-0.4c1.7,0.6,2.8,0.7,4.6,0.8
	c0.1,0.3-0.1,0.5-0.3,0.6c0.3,0.1,0.6,0,0.8,0.1c0.5-0.2-0.1-0.7,0.4-0.8c0.3,0.6,0.8,0.5,1.3,0.2c0.2,0.3-0.1,0.5,0.2,0.8
	c0.2-0.2,0.1-0.5,0.3-0.8c0.4,0.8,0.4,0.1,1.1,0.1c0.2,0.3-0.1,0.5,0.2,0.8c0.1-0.2,0.2-0.3,0-0.6c0.6-0.2,1.7,0.9,1.5,1.7
	c1-0.2-0.5-0.9,0.1-1.4c0.3,0.1,0.2,0.4,0.5,0.8c0.5-0.3,0.9,0.3,1.3-0.6c0.4,0.1,0.9,0.2,0.9,0.9l0.6-0.4c-0.2-0.7-0.2,0.4-0.4-0.3
	c0.4-0.8,1.6,0.2,2.6-0.2c-0.2,0.4-0.2,0.8-0.7,0.9c0.5,0.8,0.9-0.7,1.6-0.6c0.3,0.8,0.8,0.3,1.3,0.2c0.4,0.8,1,0.6,1.5,0.6
	c0,0.5-0.5,0-0.8,0.4c0.1,0.4-0.4,0.6-0.3,1c0.6-0.5,1.4-0.4,2-1.1c0.1,0.3,0.4,0.1,0.7,0.4c0.1,0.7-1.1-0.2-0.6,0.8
	c-0.4,0.4-0.5-0.3-0.9,0.1c0.2,0.6,1.1-0.1,0.9,0.6c0.4-0.3,0.7-0.1,1.2-0.3c-0.2,0.9,0.5,0.2,0.9,0.9c0.7-0.5,1.2-0.2,1.8-0.4
	c0.1-0.5-0.3-0.9-0.6-0.7c0.2-0.8,0.9-0.1,1.3,0c0,0.4-0.3,0.7-0.5,0.7c0,0.4,0.2,0.5,0.2,1c0.2-1,0.6-0.1,1.2-0.7
	c-0.1-0.6-0.4,0-0.6-0.5c0.3,0,0.7-0.3,0.9,0.3c0,0.2-0.2,0.1-0.4,0.3c0.1,0.3,0.4,0.2,0.2,0.4c0.3,0.4,0.3-0.7,0.5,0
	c0-0.4-0.1-0.8,0.3-1.1c0.4,0.1-0.1,0.4,0.2,0.8c0.3-0.2,0.3-0.5,0.3-0.8c0.2,0,0.3,0.2,0.5,0c0.4,0.6-0.5,0.9-0.2,1.5
	c0.2-0.3,0.4-0.5,0.4-0.8c0.4-0.4,0.5,0.7,1,0.1c0.3,0.4,0.1,0.6,0.3,0.9c0.5-0.3,0.8,0.1,1.2,0.3c0.4-0.7,1-0.3,1.5-0.1
	c0.2,0.3-0.6,0.3-0.2,0.7c0.6-0.6,0.9-0.1,1.6,0c0.4-0.1-0.1-0.6,0.3-0.8c0.6,0,0,0.7,0.3,1.1c0.2,0,0.4-0.1,0.5-0.3
	c0.6,1.5,2-0.1,2.7,0.8c0.5-0.7,0.6-0.5,1.3-0.8c0.2,0,0.2,0.5,0.6,0.5c0,0.6-0.6,0.1-0.9,0.5c0.5,0.5,1,0.2,1.5-0.1
	c0.4,0.3,0.1,0.5,0.3,1.1c0.4-0.1,0.5,0.3,0.8-0.2l0.3,0.6c0-0.7,1-0.6,1.2,0.2c0.5-0.7,0.6-0.3,1.1,0c0.5-0.3,0-0.1-0.1-0.5
	c0.3-0.2,0.4,0.1,0.7,0.1c0.2,0.6,0,0.6-0.2,0.9c0.4,0.1,0.8,0.4,1,1.1c-0.1,0.1-0.2,0.1-0.3,0c0,0.4,0.9,0.5,1.2,0.6
	c-0.9-0.6-0.6-1.3-1.5-1.7c1.1-0.7,0.8,0.9,1.5,0.9c0.1-0.5-0.5-1.2-0.3-1.6c0.2,0.5,0.8,0.6,0.9,1.2c0.4-0.4,0.5-0.9,0.8-1.3
	c-0.3,0.8,0.2,0.9,0.5,1.3c0.1,0.4-0.5,0.5-0.2,0.9c0.2-0.3,0.3-0.3,0.4-0.8c0.2,0,0.5,0.6,0.4-0.1c0.3,0.1,0.5,0.5,0.7,0.8
	c-0.1,0.4-0.8-0.2-0.8,0.6c0.6-0.3,3-0.6,2.3,0.6c0.3,0.1,0.7-0.3,0.8,0.1c0.6-1,1.4,0.1,2.3-0.8c0,0.8,0.7,0.5,0.3,1.1
	c0.3,0.3,0.4-0.5,0.8-0.6c0.7,0.3,1.3,0.8,2.2,0.3c-0.1,0.6,0.6,0.6,0.7,0.2c0.1,0.7,0.5,0.4,0.7,0.8c0-0.4-0.1-0.4-0.2-1
	c0.4,0,0.7,0.6,0.8,0.9c0.5,0.2,0.4-0.6,0.9,0.3c0.1-0.2,0-0.4,0.2-0.5c-0.4,0-0.8-0.2-1.1-0.7c0.7,0.2,1.3,0.5,2,0.6
	c0,0.1,0,0.2,0,0.4c-0.4,0.1-0.8-0.5-1,0.2c0.4,0.5,1-0.3,1.5,0.6c0.2-0.1,0.3-0.3,0.4-0.1c0.1-0.2,0.2-0.4,0-0.6
	c0.5-0.3,0.8,0.2,1.3,0c0.3,0.3,0,0.5,0.2,0.8c0.4-0.2-0.1-0.6,0.4-0.5c0.3,0.4-0.3,0.5,0.1,0.6c0.3-0.1,0-0.4,0.2-0.5
	c1.1,1.7,3.1,0.8,4.2,1.8c0.1,0.3-0.4,0.4-0.3,0.6c0.5,0.4,1.2-0.5,1.5,0.6c0.1-0.2,0.2-0.4,0-0.6c0.3-0.4,0.4,0,0.6-0.3
	c0.2,0.3,0,0.4-0.2,0.5c0.2,0.4,0.6,0.1,0.8,0.3c0.1-0.1,0-0.3-0.1-0.5c0.3-0.3,0.4,0.1,0.6-0.1c0,0.2-0.2,0.3,0,0.6l0.5-0.3
	c0.2,0.3-0.1,0.5,0.2,0.8c0.9,0.1,1.8,0.1,2.7,0.4l-0.2-0.4c0.2,0.1,0.6-0.4,0.8,0c0.2,0.3,0,0.4-0.2,0.5c0.5,0.4,1.6,0.1,1.9-0.1
	c0,0.5,0.2,0.7,0.7,0.4c-0.4-0.6,0-0.5,0.3-0.6c-0.9,0-1.1-0.7-2.1-0.7c-0.1,0.2,0.1,0.1,0.1,0.3c-0.3,0.4-0.3-0.4-0.6,0.1
	c-0.2-0.6-0.2-0.5-0.5-1.1c1,0.8,2.6,0.2,3.2,1.1c0.1-0.1,0-0.2,0.2-0.3c0.4-0.1-0.2,0.4,0.2,0.6c0.7-0.8,1.2-0.1,1.7,0.2
	c0.3-0.6,0.7-0.4,1-0.2c-0.2,0.4-0.6,0.8-0.5,1.3c-0.3,0.1-0.7-0.2-0.8,0.2c0.4,0,0.4,0.1,0.5,0.6c0.3-0.5,0.5-0.3,0.6-0.7
	c0.3-0.1,0.6,0.4,1,0c0.2,0.9,1.1,0.7,1.8,0.5c-0.1,0.7,0.2,0.7,0.8,0.3c0,0.2,0,0.4-0.2,0.5c0.5,0.5,1.3-0.1,1.9,0.3
	c0.2-0.2-0.1-0.5,0.1-0.7c0.2-0.3,0.2,0.7,0.5,0.2c0.1,0.2,0.1,0.4,0,0.6c0.3,0.2,0.1-0.6,0.5-0.2c0.2,0.3,0.2,0.5,0,0.7
	c0.5-0.2,1.2,0.6,1.6,0c0.2,0.3-0.1,0.5,0.2,0.8c0.1-0.7,0.5,0,0.5,0c0.7,0.1,1.1-0.8,1.6,0.1c0.3-0.6,1-0.1,1.4-0.1
	c0,0.2-0.2,0.3,0,0.6c0.4-0.7,0.7,0.2,1.4-0.5c0.2-0.4-0.4-0.7-0.6-0.5c-0.1-0.1,0.5-0.4,0.6-0.3c0.3-0.5-0.4-0.2-0.5-0.4
	c-0.1-0.2,0.2-0.3,0.4-0.5c0.2,0,0.4,0.8,0.9,0.2c0.2,0.3,0.4,0.6,0.1,0.9c0.3,0.5,0.7,0,0.9,0.6c0.1-0.3,0.1-0.7,0.5-0.6
	c-0.4,0.8-1.2,1.2-2,1.5c0.3,0.2,0.5,0.5,0.8,0.7c0.2-0.2,0.3-0.6,0.5-0.2c0.1-0.2,0.1-0.4,0.2-0.5c0.5-0.2,0.2,0.3,0.5,0.7
	c0.1-1,1.8-0.7,1.8,0.4c0.1-0.6,0.4,0.1,0.8-0.4c-0.2-0.5-0.6,0-0.9-0.5c0.1-0.4,0.8,0.2,1.1,0.3c0.1-0.2,0.2-0.4,0.5-0.6
	c0.3-0.2,0.1,0.4-0.1,0.5c0.3,0.3,0.5-0.5,0.3-0.8c-0.2,0.1-0.4-0.2-0.7,0.2c0-0.2,0-0.5,0-0.7c0.5-0.2,0.8,0.6,1.3,0.3
	c0,0.5-0.9,1.1-0.3,1.3c0-0.6,0.2-0.3,0.6-0.4c-0.1,0.7-0.4,0.2,0.2,0.8c0.1-0.4,0.2-0.6,0.6-0.7c0,0.9,0.7-0.1,1,0.7
	c-1.1-0.2-2.1,0.3-3.3-0.5c0.3,0.9-0.9,0.1-0.9,1.1c0.1,0.3,0.3,0.2,0.4,0.5c0.3-0.7,1,0,1.1,0.5c-0.1-0.7,0.5-0.5,0.3-1.2
	c0.2,0.1,0.6-0.2,0.7,0.2c0.1,0.4-0.7-0.2-0.2,0.5c-0.3,0.5-0.3-0.4-0.6,0.1c0.1,0.2,0,0.4,0.2,0.6c0.7-0.6,0.7,0,0.8,0.6
	c0.2-0.9,1.2,0,1.9-0.1c0.3-0.4,0-0.3-0.2-0.6c0.8-0.6,1.6,0.4,2.1-0.3c0.3,0.4-0.2,0.5-0.1,0.8c-0.5-0.1-1-0.1-1.5-0.4
	c-0.2,0.3-0.3,0.6-0.2,0.9c0.2-0.2,0.3-0.1,0.4,0.1c0.1-0.1,0.1-0.3,0.1-0.5c0.4,0.8,1.9,0.5,2.3-0.1c-0.4,1.1,0.6,0.7,0.6,1.6
	c0.2-0.2,0.3-0.1,0.5,0c0.3-0.6-0.4-0.2-0.5-0.6c-0.1-0.5,0.5-0.7,1.1-1.2c0.3,0.7-0.5,0.5-0.6,1c0.4,0.6,0.4,0,0.9-0.1
	c-0.1-0.3,0-0.5,0.1-0.8c0.3-0.1,0.4,0.5,0.7,0.1c-0.3-0.6-0.9,0.3-1.1-0.6c-0.6,0.4-1.1,0.6-1.5,0.4c-0.1-0.3,0.5-0.1,0.6-0.1
	c0.2-0.3-0.2-0.5-0.3-0.3c0.4-1.9,2.7,0.5,4.2,0.1c-0.1-0.2-0.2-0.4-0.1-0.5c-0.1-0.4-0.5,0.2-0.6-0.3c0-0.3,0.8-0.6,1,0
	c-0.1-0.6,0.8-1.1,1.1-0.4c0.1,0.2-0.6,0.3-0.8,0c0,0.7-0.3,0.6-0.5,1.2c0.4,0.4,0.2,0.5,0.6,0.9c-0.7,0.1-1-0.5-2,0.2
	c0.3,0.6-0.1,0.5,0.4,1c0.1-0.4-0.2-0.8,0.4-1.1c0.6,0.1,1.2,0.5,1.8,0.5c-0.2-0.3-0.2-0.5,0-0.7c-0.3-0.2-0.5-0.3-0.8-0.3
	c0.1-0.3,0.5-0.4,0.7-0.5c0.2,0.2,0,0.3-0.1,0.5c0.5,0.4,0.3-0.6,0.8-0.3c0,0.3-0.3,0.6-0.3,1c0.8-0.7,1.9,0.5,2.8-0.2
	c0.1,0.3-0.2,0.5,0.1,0.9c0.4-0.2,0.7,0.2,1.1-0.3c-0.2-0.3-0.3-0.5-0.2-0.8c0.5-0.2,0.9,0.2,1.4-0.1c0.1,0.5-0.6,1.2-0.9,0.5
	c0.1,0.4-0.3,0.6-0.1,1c0.5-0.7,0.9-0.3,1.8-0.6c-0.1-0.5-0.5,0.1-0.6-0.3c0.1-0.6,0.6,0,0.9-0.4c0.1,0.2,0,0.4,0.2,0.6
	c0.4-1.2,1.1,0.3,1.7-0.2c0.1,0.9-0.8,0.4-1,0.9c0.1,0.1,0.2,0,0.3,0c0.4,0.3-0.3,0.4,0.1,0.7c0.4-0.3,0.8,0.2,0.8-0.4
	c0.4-0.4,0.6,0.4,0.9,0.2c0,0.3-0.2,0.7-0.5,0.4c-0.1,0.8,1.3-0.3,1.2,0.8l0.7-0.5c-0.2-0.2-0.1-0.4-0.2-0.6
	c0.4-0.2,0.3,0.2,0.5,0.6c0.7-0.8,1.1,0.2,2.1,0.9c0.7-0.5,1.7,0.7,2.6,0.4c0.1-0.5-0.4-0.2-0.6-0.5c0.2-0.6,1.1-0.2,1.6-0.1
	c0.1,0.6-0.6-0.1-0.6,0.4c0.2,0.3,0.4,0.5,0.4,0.8c0.3-0.2,0.8-0.8,1.2-1.1c0.5-0.1,0.2,0.7,0.5,1c0.2,0.1,1-0.4,0.8,0.3
	c0.8-0.4,1.5-0.1,2.2,0.2c0.4,0.4-0.5,0.6-0.1,1c0.6-0.2,0-0.7,0.5-0.9c0.5-0.2,0.3,0.7,0.6,1.1c0.3-0.2,0.5,0.2,0.7,0.2
	c-0.1,0.3-0.1,0.6,0.2,1c0-0.2,0.2-0.5,0.3-0.3c0.3-0.3-0.3-0.1-0.3-0.5c0.3-0.3,0.5,0.1,0.7,0.2c0.2-0.3-0.3-0.5-0.4-0.4
	c0-0.3,0.2-0.5,0.2-0.8c0.4,0.1,0.3,0.5,0.6-0.1c0.3,0.6-0.2,0.4-0.2,0.8c0.3,0.4,0.4-0.2,0.6-0.5c0.5-0.1,0.8,0.3,1.3,0.3
	c0,0.3-0.4,0.6-0.5,0.9c0.4,0.3,0.6,1.3,1.2,1c0.2,0.8,0.3,1.2,1.1,1.4c-0.2-0.3-0.5-0.4-0.4-0.8c0.3-0.3,0.6,0,0.9,0.1
	c0.2-0.2-0.1-0.5,0.3-0.6c-0.4,0-0.9-0.8-1.1-0.3c0-0.3-0.1-0.6,0.2-0.8c0.3,0,0.1,0.7,0.7,0c0.4,0.3-0.3,0.4,0.1,0.7
	c0-0.7,0.6-0.6,0.9-0.1c0.3-0.4,0-0.6-0.3-0.5c0.2-0.2,0.3,0,0.5-0.2c0.1,0.3,0.6,0.7,0.3,0.9c0.2,0.1,0.9-0.4,0.6,0.3
	c0.3,0.3,0.6-0.9,1.1-0.5c0.1,0.2-0.2,0.3-0.4,0.5c0.4,0.2,1.2,1,1.5,0.4c0.2-0.1,0.8,0.3,0.3,0.5c0.8,0.1,2-0.4,2.5-1.7
	c0.2,0,0.4,0.2,0.7,0c0.3,0.5-0.5,0.7,0,1.2c-0.5,0.3-0.5,0-0.7-0.2c-0.5,0.3-0.7,0.6-0.4,1.1c0.1-0.1,0-0.2,0-0.4
	c0.3-0.1,0.6-0.4,0.9,0.1c0.2,0.4-0.3,0-0.5,0.4c0.2,0.5,0.6-0.2,0.7,0.4c0.4-1.1,1.2-0.1,1.8,0.7c0.4-0.3,0.8-1.1,0.1-1.3
	c0.1,0.6-0.3,0.3-0.6,0.1c-0.1-0.2,0.2-0.2,0.3,0c-0.1-0.5-1.1-0.4-1.5-0.7c1.6-0.5,3.8,0.7,5.7,0.6c0.1,0.2-0.1,0.3-0.3,0.4
	c0.2,0.2,0.4,0.4,0.8-0.1c0,0.8,0.4,0.2,0.7,0.6c0.2,0.3-0.7,0.4-0.2,0.8c0.5-0.7,0.6-0.2,1.2,0.2c0.4-0.5,0.8-0.8,1.2,0
	c0.4-0.5,0.6,0,1-0.5c0.7,1.8,2.7,1,4.3,2.1c0-0.5,0.5-0.8,0.6-0.1c0.4-0.2,0.4-0.5,0.4-0.7c0.1,0,0.3,0,0.4,0.1
	c-0.1,0.3,0,0.7-0.5,1c0.5,0.6,0.3-0.9,0.8-0.1c0.3-0.8,0.4-0.5,1-0.4c0.2,0.3-0.1,0.5-0.4,0.7c1-0.4,2.3,0.4,3.2-0.9
	c0.5-0.2,0.4,0.2,0.7,0.4c0.2,0.4-0.4,0.6-0.1,1c0.4-0.2,0.4-0.6,0.3-0.9c0.5,0.2,0.4-0.2,0.9-0.3c0.2,0.7-0.5,1.3-1,1.2
	c0.2,0.2,0.1,0.4,0,0.2c0.6,0.8,1.4,1.7,2.6,0.6c0.3,0.4-0.5,0.5-0.1,0.9c0.4-0.6,1.3,0.3,2,0.4c0.2-0.2,0.1-0.4,0.4-0.5
	c0,0.2-0.2,0.4,0,0.6c0.4,0,0.1-0.1,0.5-0.4c0.1,0.2-0.2,0.3-0.1,0.5c0.4,0.5,0.9,0.2,0.9-0.3c0.1,0.2,0.2,0.2,0.3,0.2
	c0.1,0.2-0.1,0.3-0.3,0.4c0.9,0.2,2.3,1.3,3,0.5c0.8,0.8,0.7-0.1,1.2,0.4c0.6-0.8,0.9-0.6,1.7-1c-0.2-0.3-0.5-0.2-0.7-0.4
	c0.4-0.4,0.6,0.3,0.9,0c0.1,0.2-0.1,0.3-0.3,0.4c0.6,0.1,1.2,0.7,1.9,0.8c0.1,0.2-0.1,0.3-0.3,0.4c0.3,0.1,0.6,0.3,0.9,0
	c0.4-1.2,2.4,0.7,3.5,0c-1.2-0.3-2.4-0.5-3.6-1c0.4-0.2,0.8,0.1,1.3,0.1c0.2-0.5-0.5-0.2-0.7-0.4l0.7-0.6c0.2,0.2,0.1,0.4,0.3,0.6
	c0.9-0.2,1-1.3,2-0.7c0.1,0.4-0.7,0.4-1,0.7c0,0.3,0.2,0.6,0,0.8c0.2-0.1,0.9-1.5,1.7-0.9c0.1,0.2,0,0.5-0.3,0.7
	c0.4,0.4,0.9-0.9,1.5-0.5c0.4,0.3-0.3,0.6,0.1,0.9c0.1-0.1,0.1-0.1,0-0.2c0-0.3,0.6,0,0.5-0.6c0.2,0.1,0.9,0.3,0.8-0.3
	c0.2,0.1,0.5-0.2,0.7,0.2c0,0.4-0.8,0.8-0.6,1.2c0.3-0.1,0.7-0.3,1-0.5c0.3,0.2,0,0.5,0.4,0.7c0.7-0.1,1.3,0.1,1.9,0.1
	c0.2,0.3-0.4,0.1-0.6,0.5c0.8,0.4,1.1-1.2,1.9-0.2c0.2-0.1,0.5-0.7,0.7-0.4c0.3-0.3-0.3,0-0.4-0.5l0.3-0.3c0.6,0.4,1.3,0,2,0.5
	c0,0.6-0.9,0.6-1.2,0.1c-0.3,0.3-0.6,0.5-0.9,0.4c0.4,0,1.2,0.8,1.8,0c0.4,0.4-0.2,0.7,0.3,1c0.5-0.8,1.8-0.7,2.8-0.8
	c0.2,0.4-0.3,0.1-0.5,0.5c0.5,0,0.2,0.4,0.6,0.7c0.6-0.3,1.2-0.1,1.8-0.5c0.8,0.7,0.8-0.2,2-1c-0.5,0.1-1,0.4-1.5,0.2
	c-0.2,0.2-0.1,0.3,0,0.5c-0.3,0.2-0.6,0.2-0.9,0c-0.3-0.2,0.4-0.3,0.5-0.2c-0.2-0.4-1.2-1.4-1.8-0.6c-0.3-0.7-1.6-0.6-2.3-0.4
	c-0.2-0.3-0.1-0.6-0.5-0.1c-1.1-0.8-2.2-0.9-3.4-0.7c0-0.8-1.2-0.2-0.8-1c-0.2,0.2-0.5,0.2-1,0.3c0.2,0.2,0.4,0.1,0.5,0.4
	c-0.2,0.1-0.4,0.1-0.7,0.2c-0.1-0.2-0.1-0.4,0.1-0.6c-0.3-0.4-0.6-0.1-0.8-0.5c-0.2,0.1-0.1,0.3-0.2,0.4c-0.2-0.3-0.4-0.6-0.7-0.2
	c-0.2-0.2-0.3-0.5-0.5-0.4c-0.3-0.2,0.6-0.4,0.1-0.7c-0.5,0.9-2.3,0.3-2.6-0.3c-0.4-0.3-0.2,0.3-0.5,0.4c-0.1,0.1-0.2,0-0.3,0.1
	c-0.4-0.3-0.1-0.5-0.4-0.9c-0.7,0.7-2-0.1-3-0.4c-0.3,0.4-0.5,0.2-0.8,0.5c0.5,0.6,0.4-0.4,0.9,0c-0.3,0.3-0.2,0.2,0,0.8
	c-0.7,0.7-1.3,0.2-1.4-0.4c0.3-0.4,0.5,0.6,0.8,0.1c-0.5-0.1-0.6-0.8-0.2-1.1c-0.6-0.1-1.3-0.5-1.9-0.6c0.3-0.6,0.1-0.4-0.3-0.7
	c0.4-0.1,0.7,0.1,1,0.6c0.2-0.2-0.2-0.5,0.1-0.7c-0.4,0.1-0.7-0.3-1.1-0.3c-0.3,0.3,0.1,0.6,0.3,1c-0.6,0.1-1.1-0.3-1.8,0.1
	c-0.1,0.3,0.1,0.6-0.1,0.9c-0.6,0.1,0.1-0.6-0.4-0.9c-0.1-0.2,0.2-0.1,0.3-0.3c-0.5-0.9-1.9-0.6-2.4-1.6c-0.9,0.6-1.6,0-2.4-0.2
	c-0.2-0.6,0.6-0.4,0.8-1c-0.5-0.6-0.9,0.6-0.8-0.5c-0.2,0.3-0.3,0.7-0.2,1.1c-0.7,0.2-1.4-0.1-2-0.5c-0.3,0.8-1,0.4-1.4,0.2
	c-0.1-0.2,0.1-0.3,0.3-0.4c0.2-0.1,0.3,0.3,0.4,0.4c0.1-0.1,0.2-0.2,0.2-0.3l0.2-0.2c-0.3-0.4-0.8,0.2-1-0.5c0.3-0.3,0.5,0.1,0.7,0
	c0.2-0.6-0.5-0.4-0.7-0.6c0.8-0.8-0.7-0.3-1.2-0.8c0,0.4-0.2,1-0.6,0.9c0.4-0.5-0.2-0.6-0.1-1.3c-0.1,0.1-0.2,0.1-0.3,0.1
	c0.1,0.7-0.6,0.5-0.8,1c-0.2-0.1-1-1-1.6-0.4c-0.3-0.4,0.1-0.6,0.2-0.9c-0.5-0.4-1-0.5-1.2-1l-0.5,0.4l0.3,0.5
	c0.5-0.6,0.7,0.2,1,0.3c-0.5,0.4-0.9-0.4-1.4-0.1c0.2-1.4-0.9-0.8-1.6-1.6c0.3,0.2,0.6-0.1,0.8,0.3c0.1-0.6-0.7-0.5-1-0.6
	c-0.1,0.3-0.2,0.6-0.3,0.9c-0.5,0.1-0.2-0.6-0.3-0.9c-0.2,0.2-0.3,0.1-0.4-0.1c-0.1,0.7-0.6,0.6-0.9-0.2c0.2,0.8-0.2,0.2-0.7,0.8
	c-0.4-0.7,0.8-0.4,0.2-1.1c-0.3,0.8-0.6,0.5-0.9,1c-0.4-0.6,0.6-0.4,0.5-0.8c-0.5-0.1-0.6-0.1-0.9,0.4c-0.3-0.6,0.4-0.2,0.3-0.6
	c-0.7-1-1.1-0.1-1.9,0c-0.2-0.3,0-0.6-0.3-0.9c-0.5,0.4-0.8-0.2-1.3,0.1c-0.1-0.3,0.2-0.6,0.2-0.9c0,0,0,0,0,0
	c0.1-0.1,0.2,0,0.4-0.1c0,0,0,0,0,0.1c0.2,0.3-0.1,0.4-0.2,0.6c0.6,0,0.8-0.4,1.4,0c-0.4-0.3-0.7-0.8-1.1-0.6c0,0,0,0,0,0
	c-0.2-0.4,0.5,0.1,0.3-0.4c0.1,0.1,0.2,0.1,0.3,0.2c0.3,0.1,0.5,0.2,0.8,0.3c0.1,0,0.1,0,0.2,0.1c0.1-0.1-0.1-0.3,0.1-0.5
	c0.4-0.2,0,0.4,0.4,0.7c0,0,0,0,0,0c0,0,0,0,0,0c0.2-0.1,0.3-0.1,0.4,0c0,0,0,0,0.1,0c0,0,0,0,0-0.1c0.2-0.9,0.6-0.2,1,0
	c0.1,0,0.2,0,0.3,0c0.1,0,0.1-0.1,0.2-0.2c0,0.1,0.1,0.1,0.1,0.2c0.1,0.3-0.2,0.5,0.2,0.6c0.2-0.2,0.2-0.4,0.2-0.6
	c0-0.3,0-0.5,0.2-0.7c0,0,0-0.1-0.1-0.1c0,0,0,0-0.1-0.1c-0.2-0.1-0.4,0-0.6-0.2c-0.1,0.1,0,0.3,0.1,0.5c-0.4,0.3-0.6,0-0.9-0.2
	c0-0.4,0.3-0.1,0.5-0.6c0.3,0,0.6,0.2,0.9,0.1c0.1,0,0.2,0,0.3-0.1c0.2,0.3,0,0.5,0.1,0.6c0,0.1,0.1,0.1,0.2,0.2
	c0-0.1,0.1-0.1,0.1-0.2c0.2-0.3,0.4-0.4,0.7-0.4c0.9-0.1,2.2,0.8,3.1,0.9c0,0.3-0.5,0.5-0.3,0.9h0c-0.6-0.2-1.1-0.5-1.7-0.7
	c-0.2-0.1-0.4-0.1-0.5-0.2c-0.2-0.1-0.4-0.1-0.5-0.2c0.1,0.3,0.3,0.4,0.4,0.5c0,0.1,0,0.2-0.2,0.4c0.3,0,0.7-0.1,1,0
	c0,0.3-0.4,0.5,0,0.9c0.4-0.6,0.5-0.4,0.9-0.2c0.3,0.3-0.2,0.5,0.1,0.9c0.6,0.3,1.5,0.1,2-0.3c0,0.2,0.1,0.4,0,0.6
	c-0.3,0.3,0.1-0.6-0.4-0.1c0.5,0.6,1.1,0.3,1.6,0.8l0.8-0.7c0.1,0.3,0.1,0.7,0.4,1c0.5-0.7-0.1-0.8-0.2-1.2c0.4-0.3,0.6,0.9,1,0.3
	c0.4,0.5-0.5,0.8,0,1.4c0.1-0.1,0-0.2,0-0.4c0.8-0.3,1.5,0.2,2.2,0.5c0.5-0.4-0.1-1-0.4-1c0.4-0.1,0.9-1.2,1.2-0.6
	c0.1,0.5-0.4,0.1-0.4,0.5c0.1,0.5,0.4-0.2,0.5,0.3c0.3-0.4,0.1-0.6,0.6-0.7c0.2,0.3,0.2,0.5-0.1,0.7c0.5,0.6,0.6-0.8,1-0.3
	c0.1,0.4-0.6,0.6-0.2,1c0.4-0.2,0.3-0.5,0.6-0.7c0.1,0,0.3-0.1,0.4,0.1c0,0.4-0.6,0.3-0.5,0.8c0.5,0,0.3,0.4,0.8,0.9
	c0.9,0.6,1.9,0.1,2.6,0.2c-0.7,0.7,1.5,0.7,2.2,1.2c-0.1,0.6-0.9-0.2-1.4,0.4c0.7,0.7,1.6-0.4,2.1,0.4c0.1-0.1-0.1-0.3-0.1-0.5
	c0.3-0.5,0.5,0,0.9-0.4c0.6,1.2,1.7,0.3,2.1,1.2c1-0.4,1.5,0.3,2.3-0.4c-0.4-0.1-0.1-0.2-0.4-0.5c1.2-0.6,1.4,0.7,1.4,1.6
	c0.3-0.4,0.1-0.9,0.3-1.4c0.4,0.2,0.9,0.2,1.3,0.5c0.1,0.3-0.5,0.2-0.7,0.4c0.3,0,1.5,0.6,1.8,0.5c0.2,0.1,0.2,0.8,0,0.5
	c0,0.6,0.4,0,0.6,0c0.1-0.1-0.1-0.3-0.2-0.5c0.9,0,2.1,1.5,3.3,0.9l0.5,0.6c0.2-0.2,0.4,0.2,0.6-0.2c0.8,1.3,1.8,0.1,2.7,1.2
	c1-0.6,1.9-0.1,2.9,0.6c-0.6,0.4-0.6,0.6-1.1,0.9c1.1,0,2.2-0.8,2.7-0.1c0-1,0.8-1.5,0.5-2.6c0.5,0.1,1.1,0.4,1.6,0.5
	c-0.1-1-2-0.3-1.9-1.5c0.2-0.3,0.4,0.3,0.6,0.4c0.1-0.5,0.4-0.4,0.8-0.4c0.2,0,0.4-0.1,0.5-0.3c-0.1,0.3-0.1,0.6,0.1,0.9
	c0.1,0.1,0.2,0.2,0.3,0.3c0-0.3,0-0.4,0.2-0.5c0.1-0.2,0.3-0.3,0.6-0.5c0,0,0,0,0,0c0.3,0.4,0.9,0.9,1,0.3c0.2,0.1,0.2,0.3,0.3,0.4
	c0,0.1,0.1,0.2,0.2,0.2c0,0,0.1,0,0.2,0c0.2,0.4,0,0.3-0.3,0.6c0.5,0.1,1,0.1,1.4-0.2c0.4,0.3-0.4,0.8,0,1.2
	c0.2-0.2,0.3-1.1,0.8-0.6c0.1-0.3,0.3-0.6-0.1-0.8c0.5-0.3,0.5-0.2,0.7-0.6c0-0.1,0-0.1,0.1-0.2c0.1-0.2,0.2-0.1,0.3,0
	c0.1,0.2,0.3,0.4,0.4,0.1c0.2-0.2,0.2-0.3,0-0.4c-0.2-0.1-0.4-0.1-0.5-0.2c0.2-0.1,0.5,0.1,0.7,0c0.1,0,0.1,0,0.2-0.1
	c0.2,0.3-0.4,0.7,0,0.9c0.1-0.5,0.8-0.3,0.6,0.1c0.5-0.8,1.5-0.7,2.4-0.2c0.1,0.1,0.2,0.1,0.3,0.2C284.6,90.6,284.8,90.3,284.9,90z
	 M293.4,87.7c-0.1,0.2,0,0.4-0.3,0.6c-0.2-0.2-0.4,0-0.6-0.2C292.8,87.7,293.1,87.3,293.4,87.7z M290.5,88.1c0.3,0.7,0.4-0.2,0.9,0
	C291.6,88.8,289.9,88.9,290.5,88.1z M287.6,87.5c0.4,0.3,0,0.8,0.6,0.7c-0.7,0.9-0.9-0.4-1.6-0.4C286.9,87.2,287.3,88.2,287.6,87.5z
	 M283.7,86.3c0.1,0.6,0.4,0.1,0.6-0.3c0.4,0.6-0.6,1.6-1.1,1.2C283.2,86.7,283.5,86.4,283.7,86.3z M289.4,82
	c0.2,0.3,0.8-0.3,0.7,0.3C289.8,82.3,289.2,82.8,289.4,82z M288.7,82.5c-0.3-0.6-0.3-0.1-0.8-0.2c0.2-0.2-0.3-0.3-0.2-0.6
	c0.5,0,0.4,0.4,0.8-0.2l0.4,0.3C288.9,82.1,288.9,82.3,288.7,82.5z M289.2,80c-0.7,0.1-1.3,0.6-2.1,0.4
	C287.7,79.7,288.8,79.6,289.2,80z M287.6,81.3c-0.3,0.6-0.7,0.5-1,0.2C286.9,81.3,287.2,80.8,287.6,81.3z M283.7,81.7l0.3,0.3
	c-0.2,0.5-0.5,0.3-0.7,0.2L283.7,81.7z M219,65.9c-0.4-0.4,0.3-1,0.5-0.6C219.2,65.4,219.3,65.7,219,65.9z M274.8,72.9
	c0.2,0.3-0.4,0.8-0.6,0.5C274.2,73.2,274.6,72.3,274.8,72.9z M296.1,60.2c0.4,0.6,0.4-0.6,0.8,0c-0.1,0.7-0.9,0.8-1,0.4
	C296.1,60.7,295.9,60.5,296.1,60.2z M284,60.8c-0.3,0.6-0.6,0.1-0.7,0.1C283.5,60.8,283.7,60.4,284,60.8z M273.8,65.6
	c-0.2,0.3-1,0.6-0.9,0C273.2,65.7,273.5,65.3,273.8,65.6z M272.2,58.1c-0.3,0.5-0.6,0.2-0.8,0C271.4,57.7,271.9,57.6,272.2,58.1z
	 M264.9,72.4c0.3,0.1,1.1,0,1,0.4C265.6,72.8,264.8,73,264.9,72.4z M273.4,73l-0.4-0.4c0.2-0.3,0.4-0.4,0.6-0.2
	C273.2,72.6,273.8,72.8,273.4,73z M273.6,70.3c0.2,0.5-0.5,0.6-0.2,0.9c-0.2,0.2-0.4,0.3-0.6,0.2C273.3,71,273,69.9,273.6,70.3z
	 M270.2,69.8c0.3,0.9,0.3-0.1,0.5,0.7c0.5-0.1,1.4-0.7,1.6-0.1c-0.1-0.1-0.6,0-0.4,0.2c0.3-0.1,0.6-0.1,0.9,0.2
	c-0.3,0.4-0.5,0.1-0.7-0.2c-0.3,0.4-0.8,0.2-0.9,0.8c-0.6-0.5-1.4,0.6-1.7-0.5c-0.1,0.7-0.7,0.7-1,0.3
	C269.5,71.2,269.4,70.3,270.2,69.8z M269.9,58.4c-0.3-0.3-0.7,0.1-1-0.5C269.2,57.7,269.9,57.9,269.9,58.4z M266.2,69.3
	c0.2,0.1,0.3,0.2,0.3,0.5c0.7-0.5,1.3,0.3,2-0.3c0.3,0.3-0.1,1,0.5,0.4c0.3,0.3,0.3,1.3-0.2,0.9c0.1-0.2,0.2-0.3,0-0.5
	c-0.1,1.3-1.2,0.9-1.8,1.2l-0.4-0.6c-0.4,0-0.8,0.7-1.1,0.2c0.2-0.7,1.1-0.8,1.5-0.6c-0.1-0.2,0.1-0.2,0.2-0.2
	c-0.3,0-0.6-0.5-0.9-0.5c-0.5,0.6-1,1.1-1.4,0.5c0.8,0.1,0.6-0.5,0.9-0.7C265.6,70.1,266,69.7,266.2,69.3z M265.6,57
	c-0.3,0.5-0.6-0.1-0.9-0.2C265,56.5,265.3,56.7,265.6,57z M263.6,70.1c0.2,0.5,0.5,0.5,0.7,0.1l0.3,0.4c-0.5,0.4-0.9,0.1-1.4,0
	L263.6,70.1z M262.9,56.9c0,0.5-0.5,0.6-0.8,0.3C262.2,56.6,262.6,56.8,262.9,56.9z M262.6,70.2c-0.3,0.2-0.6-0.1-0.9-0.3
	C262,69.6,262.3,69.7,262.6,70.2z M259.7,69.6c0.3,0.5,0.7,0.3,1.1,0.1c-0.1-0.4-0.1-0.8,0.3-1.1c0.3,0.2,0.5,0.3,0.8,0.7
	c-0.3,0.4-0.6,0-0.9,0.5c0.1,0.5,0.8,0.3,0.9,0.8c-0.1-0.1-0.3-0.1-0.5,0.1l-0.4-0.6c-0.7,0.5-0.8,0-1.5,0.3
	C259.7,70,259.4,69.8,259.7,69.6z M258.5,69.6c0.4,0.3,0.4-0.4,0.8,0C259.1,70,258.4,70.2,258.5,69.6z M257.6,56.1
	c-0.2-0.2-0.6,0.2-0.8-0.2C257.1,55.2,257.9,56.3,257.6,56.1z M256.5,69.3c-0.4,0-0.8-0.2-1.3-0.4C255.6,68.5,256.8,68.5,256.5,69.3
	z M255.1,68.8c-0.3,0.2-0.6,0.2-0.9,0.2C254.5,68.6,254.8,68.5,255.1,68.8z M252.9,71.5c0.3,0.4,0.7-0.3,0.9,0.1
	C253.6,72,252.8,72.1,252.9,71.5z M253.5,68.7c-0.2-0.3-0.4-0.2-0.2-0.6c0.2,0.3,0.4-0.1,0.5,0.3L253.5,68.7z M254,54.8
	c-0.2,0.7-1,0.1-1.4-0.2C253.1,54.3,253.5,54.9,254,54.8z M253.4,69c-0.2,0.1-0.4,0.4-0.5,0.3c0.1-0.1,0.1-0.1,0-0.2
	c-0.2,0.2-0.3,0.2-0.5,0.1C252.8,68.8,253.1,68.7,253.4,69z M248.8,70.7c-0.7,0.3-1.3,0.1-1.9-0.4C247.7,70.4,248,70.5,248.8,70.7z
	 M246.6,66.1c-0.3,0.3-0.1,0.4-0.4,0.4C245.8,66.1,246.4,65.6,246.6,66.1z M242.8,68.9c0.3,0.1,0.3,0.8,0.7,0.7
	c-0.3,0.5-0.5-0.1-0.8,0.3C242.4,69.6,242.3,69.2,242.8,68.9z M235.9,68.3c-0.4,0.2-0.8,0.1-1.1-0.2C235.2,67.9,235.6,68,235.9,68.3
	z M234.2,63.1l0.1,0.3c0.1,0,0.1-0.1,0.2,0c-0.2,0.5-0.8,0.7-1.1,0.3C233.8,63.3,234.2,63.6,234.2,63.1z M262.8,49.6
	c-0.3,0.6-0.6,0.4-0.9,0C262,49.2,262.6,49.2,262.8,49.6z M254.2,47.5c-0.2,0.1-0.5,0.8-0.6,0.3C253.5,47.4,254.1,47,254.2,47.5z
	 M250,50.7c-0.3,0.4-0.5,0.2-0.7,0.1C249.5,50.6,249.8,50.4,250,50.7z M246.2,49.6c-0.1,0.4-0.5,0.5-0.6,0
	C245.8,49.4,246.1,49.2,246.2,49.6z M242.9,47.7c0.5,1,0.6,1,1.2,1.4c-0.4,0.3-1,0.7-1.6,0.5c0-0.3,0.5-0.4,0.2-0.8
	c-0.5,0.2-0.4,0.6-0.6,0.9c-0.1-0.3-0.3-0.2-0.4-0.4C242.1,48.5,242.5,48.4,242.9,47.7z M240.1,48.1c0.6-0.2,1,0.1,1.5,0.4
	c-0.3,0.4-0.3,0.1-0.7,0.8c-0.1-0.2-0.2-0.5-0.4-0.4c-0.1,0.1,0,0.3-0.1,0.5c-0.3-0.3-0.7,0.3-0.9-0.5
	C239.9,48.3,240.4,48.9,240.1,48.1z M237.3,47.8c-0.3,0.4-0.5,0.3-0.7-0.2C236.9,47.3,237,47.7,237.3,47.8z M233.2,46.4
	c-0.4,0.2-1.2,0.3-1.2-0.4C232.5,46,232.9,45.9,233.2,46.4z M224.1,44.5c0.3-0.4,0.7,0.2,0.4,0.4C224.3,44.8,224,45,224.1,44.5z
	 M194.5,37.6c0.1,0.2,0.2,0.3,0.3,0.3c-0.1,0.3-0.4,0.6-0.7,0.5C193.8,38.1,194.1,37.8,194.5,37.6z M188.2,37
	c0.3,0.3,0.7-0.3,0.9,0.2C188.8,37.4,188,37.6,188.2,37z M163.7,32.5c0.2,0.3,0.6,0,0.6-0.3c0.1,0.2,0.2,0.4,0.2,0.6
	C164.2,33,163.5,33,163.7,32.5z M162.2,31.2c0.3,0.5,0,0.9,0,1.3c0.4-0.5,1-0.5,0.8,0.1c-0.5,0.1-1.6,0.2-1.6-0.7
	C162,32.5,161.8,31.4,162.2,31.2z M160.2,31.9c0.2,0.2,0.5-0.1,0.7,0.2C160.8,32.9,159.8,32.4,160.2,31.9z M25.6,21.7
	c-0.2-0.4,0.2-0.6,0.2-0.9c0.2,0.2,0.4,0,0.6,0.5C26.1,21.5,25.9,21.3,25.6,21.7z M8.4,35.2c0.1-0.4,0.6-0.5,0.9-0.4
	C9.2,35.1,8.6,35.6,8.4,35.2z M23.6,44.3c-0.2-0.4-0.2-0.5-0.4-0.1c-0.3-0.5,0.6-0.7,0.6-0.3C23.7,44,23.7,44.2,23.6,44.3z M24.2,43
	c-0.6,0.1-0.7,0.2-1.4,0.8c-0.1-0.6-0.4-0.3-0.7-0.1C22,43.1,22,43,22,42.3c-0.6,0.3-0.4,0.8-0.3,1.3c-0.7-0.5-0.4-1.5,0.2-2
	c0.4,1,1.4-0.3,2,0.3c0.2,0.6-0.4,0.2-0.3,0.6C23.8,42.4,24.3,42.5,24.2,43z M24,42c0.3-0.1,0.6-0.3,0.7,0.2
	C24.4,42.5,24.2,42.4,24,42z M26.4,30.7C26,31,26,31.4,25.7,30.8C25.8,30.5,26.3,30.3,26.4,30.7z M25.7,42.8
	c0.5-0.2,1.1-0.4,1.4,0.1C26.7,42.8,26.1,43.4,25.7,42.8z M27.1,31.9c-0.2-0.2-0.6,0.5-0.8,0.7c-0.3-0.3,0-0.5,0-0.7
	c-0.1,0-0.2,0-0.2-0.2c0.5,0,0.8,0.2,0.8-0.6C27.2,31.2,27.2,31.6,27.1,31.9z M28.2,43.7c0.1,0.4,0.5-0.2,0.6,0.3
	C28.6,44.4,28,44,28.2,43.7z M32.2,24.1c0.9-0.4,1.6-0.4,2.2-1.2l0.3,0.6C34.1,23.5,33.2,24.8,32.2,24.1z M35.2,23.8
	c-0.1-0.3-0.1-0.5,0-0.7c0.6,0.1,1.3-0.1,1.9,0.1C36.5,23.5,35.9,23.5,35.2,23.8z M38.5,49.7c-0.2,0.2-0.4,0.2-0.5,0.2
	c-0.3-0.7,0.5-0.9,0-1.7c0.4,0,0.8-0.4,1,0.2C38.5,48.2,38.1,48.9,38.5,49.7z M40.1,23.7c-0.6,0.4-1.6,0.6-2.4,0.8
	c-0.2-0.5,0.1-0.8,0.5-1.1c0.5-0.2,1.1,0.1,1.9-0.2C40.1,23.4,40.2,23.6,40.1,23.7z M45.7,48.2c0.2-0.4,1-0.7,1.2-0.3
	C46.5,48.3,46.1,48.2,45.7,48.2z M62.8,51l0.5-0.3l0.2,0.4C63.1,51.4,63,51.1,62.8,51z M63.5,50.6c0.4,0.2,1,0,1.3,0.5
	C64.3,51.4,63.8,51.3,63.5,50.6z M65,50.8c0.2,0.5,0.7-0.2,1,0.2C65.6,51.5,64.9,51.4,65,50.8z M73,14.4c0.2-0.2,0.3-0.4,0.5-0.3
	c-0.1,0.1,0,0.3,0.1,0.5C73.3,14.8,73.2,14.7,73,14.4z M74.6,13.9c-0.3,0.4-0.4,0.3-0.7,0.8c-0.2-0.5,0.1-0.8,0.1-1.2
	c0.1,0.1,0.2,0.1,0.2,0.1c0.2-0.1,0.4-0.2,0.5,0.2C74.6,13.9,74.6,13.9,74.6,13.9z M75.2,15.1c0.6-0.3,0.2-0.4,0-0.6
	c-0.1-0.1-0.2-0.2-0.1-0.4c0.1-0.1,0.2-0.2,0.3-0.3c0,0,0,0,0,0c0.1,0.5,0.1,0.5,0.4,0.7c0,0,0.1,0,0.1,0.1
	C75.9,14.8,75.5,15.6,75.2,15.1z M77.2,14.3C77.2,14.3,77.2,14.4,77.2,14.3c-0.5,0.1-0.6,1-1.1,0.9c0-0.3,0-0.6,0.1-0.8
	c0.1-0.1,0.1-0.3,0.3-0.3c0.1,0.1,0.1,0.2,0.1,0.3c0,0.1,0.1,0.1,0.2,0.1c0,0,0-0.1,0.1-0.1c0.1-0.3,0.2-0.9,0.5-0.7
	C77.3,13.8,77.1,14,77.2,14.3z M81.7,53.8c0.4-0.3,0.6,0.3,1,0.2C82.3,54.3,82,54.2,81.7,53.8z M92.4,55.6c0.4,0.3,0.4-0.4,0.8,0
	C93.2,55.9,92.1,56.3,92.4,55.6z M94.2,56.6c-0.3,0.2-0.6,0-0.8-0.1c0.1-0.4,0.4-0.2,0.8-0.6C94.4,56.1,94.1,56.3,94.2,56.6z
	 M104.1,59c-0.2-0.3-0.9-0.2-0.7-0.8C103.6,58.8,104.4,58,104.1,59z M106.2,59.6c-0.2-0.2-0.5-0.2-0.6-0.7c0.5-0.4,0.9-0.4,1.2-0.3
	l0.2,0.4C106.5,59.1,106.6,59,106.2,59.6z M111.3,60.8c-0.1-0.6-0.9-0.4-0.5-1C110.9,60.2,111.6,60.3,111.3,60.8z M132.6,66
	c-0.2-0.2-0.6,0.2-0.7-0.4C132.2,65.3,132.8,65.5,132.6,66z M139.9,29.5c-0.3-0.5-0.9,0-1.3-0.4c0.4-0.2,0.7-0.5,0.7-0.9
	c0.2,0.4,0.6,0.1,0.8,0.3C139.4,29.2,140.2,29.1,139.9,29.5z M141,29c0.3-0.3,0.5-0.3,0.7,0.1C141.4,29.3,141.2,29.4,141,29z
	 M141.7,29.8c0.2-0.2,0.1-0.5,0.4-0.7C142.3,29.5,142.1,30.2,141.7,29.8z M143.5,30.3c-0.2-0.2-0.4-0.2-0.6-0.5
	c0.2-0.1,0.1-0.8,0.4-0.5c-0.2,0.2-0.1,0.6,0.2,0.4c0-0.2,0-0.5,0.1-0.7c0.1,0.3,0.4-0.1,0.5,0.4C143.7,29.6,144,30.1,143.5,30.3z
	 M144.4,69c-0.2-0.2-0.2,0.2-0.3,0c0.3-0.3-0.3-0.1-0.3-0.6C144.1,68.2,144.6,68.7,144.4,69z M147.9,29.7l0.3,0.6
	C147.8,30.6,147.4,29.9,147.9,29.7z M149.3,31c0.1-0.2,0.1-0.4,0.4-0.5c0.1,0.5,0.4,0.3,0.6,0.5C149.9,31.3,149.5,31.5,149.3,31z
	 M149.9,68.9c-0.1-0.2,0-0.4-0.2-0.6c0.5-0.3,0.9-0.4,1.2,0.2C150.5,68.4,150,68.6,149.9,68.9z M153.9,32.1
	c-0.3-0.4-1.4,0.4-1.3-0.5C152.9,31.8,153.9,31.2,153.9,32.1z M151.9,71c0.3-0.7,0.9-0.5,1.3-0.2C152.7,71.1,152.2,71.4,151.9,71z
	 M152.4,69.8c0.6-0.4,1.1-0.2,1.5,0.2C153.3,70.4,152.9,69.7,152.4,69.8z M154.1,69.8c0.1,0.2,0.3,0.1,0.4,0.2
	c-0.2,0.1,0,0.3-0.1,0.4c-0.1-0.1-0.2-0.1-0.3,0C154,70.3,153.9,70,154.1,69.8z M154.2,70.7c0.3,0.3,0.6,0,0.9,0.5
	C154.8,71.4,154.1,71.2,154.2,70.7z M155.3,72c0.4-0.5,0.5,0,0.8,0c0-0.1-0.1-0.3,0-0.4c0.1,0.2,0.1,0.3,0.1,0.5
	C155.9,72.1,155.6,72.3,155.3,72z M158.4,71.7c-0.4,0.2-0.6-0.2-0.9-0.3C157.9,71,158.5,71.1,158.4,71.7z M159.3,73.7
	c-0.2-0.2,0-0.4-0.2-0.6c-0.1,0.1-0.1,0.2-0.2,0.3c-0.3-0.4-0.1-0.6,0.3-0.8c0.1,0.1,0.2,0.4,0.3,0.3c-0.1-0.2,0.1-0.3,0.3-0.4
	l0.2,0.4C159.5,73.3,159.6,73.1,159.3,73.7z M160.2,72.6c0.1-0.2,0-0.4,0-0.6c0.6-0.3,1.1-0.1,1.6,0.3c-0.4,0.2-0.2,0.6-0.6,0.8
	C161,72.8,160.6,72.9,160.2,72.6z M161.3,73.7c0.1-0.1,0.1-0.2,0-0.4c-0.1,0.1-0.3,0.2-0.4-0.1c0.5,0,1,0,1.5,0.4
	C161.8,73.6,161.6,73.8,161.3,73.7z M162.1,73.2c-0.3-0.6-0.2-1.1,0-1.5c0.1,0.2,0.2,0.3,0.3,0.3C162.2,72.4,162.7,72.9,162.1,73.2z
	 M163.9,74.3c-0.4-0.3-1.3-0.1-1.3-0.7c0.2,0.2,0.6,0,0.8,0.1c-0.1-0.3-0.3-0.2-0.4-0.5c0.3-0.1,0.7-0.2,0.8-0.6
	C164,73.2,164,73.8,163.9,74.3z M166.9,73.9c-0.3,0.1-0.6,0.1-0.8-0.3c0.4-0.3,0.6-0.1,0.8,0.1C166.9,73.8,166.9,73.8,166.9,73.9z
	 M169.2,75c0.1-0.2-0.4-0.4-0.4-0.5c-0.1,0.2-0.1,0.4-0.2,0.5c-0.5,0-0.5-0.7-0.1-1.1c0.5,0.2,1,0.2,1.4,0.6
	C169.6,74.8,169.4,75.1,169.2,75z M172.6,75.7c-0.1-0.5-0.5,0.1-0.6-0.5C172.3,75,172.9,75.3,172.6,75.7z M172.8,78.4
	c-0.2-0.3-0.2-0.5,0-0.7c0.1,0.1,0.2,0.4,0.3,0.3c0.1,0,0.2-0.2,0.3,0L172.8,78.4z M174.1,77.4c-0.1-0.2-0.3-0.5-0.2-0.6
	c0.4,0.5,0.6,0.4,0.9-0.1C175,77.4,174.4,77.3,174.1,77.4z M175.8,77.4c0.5-0.3,1-0.1,1.4,0C176.7,77.6,176.2,77.9,175.8,77.4z
	 M176.6,76.4c-0.4,0.8-0.4-0.1-0.7-0.2c0.1,0.7-0.4,1-0.6,1.3c-0.4-0.6,0.7-0.8,0.4-1.4c-0.1,0.2-0.1,0.4-0.4,0.5
	c-0.1,0-0.6-0.6-0.4-0.8c0.4,0.5,2.8-1.1,2,0.5c0.4,0.1,1.3-0.2,1.2,0.6C177.8,77.2,176.7,77,176.6,76.4z M178.4,76.2
	c0.4-0.2,0.7-0.1,0.9,0.2C178.9,76.8,178.6,76.5,178.4,76.2z M180.9,66.6c-0.3-0.4-0.4,0.4-0.9,0.3
	C179.6,66.2,181.1,65.7,180.9,66.6z M185.3,66.5c0.3-0.1,0.6-0.3,0.8,0.1C185.8,66.9,185.5,66.8,185.3,66.5z M187,69.7
	c-0.4-0.5,0.2-0.8,0.5-1.2c0.1,0.2,0.3-0.1,0.4,0.2C187.5,69.4,187.4,68.9,187,69.7z M188.2,69.1c-0.4-0.8,0.8-1,1.1-0.4
	c-0.1,0.2-0.1,0.4-0.2,0.5C188.4,69.2,188.8,68.3,188.2,69.1z M190.1,70c-0.4,0.3-0.9-0.5-1.1,0.3l-0.3-0.5c0.3-0.4,0.5,0,0.6-0.4
	c0.5,0.4,0.7,0.5,1-0.2c0.3,0.3,0,0.5,0,0.7l0.6-0.4c0.3,0.8-0.2,1,0.5,1.3C190.9,70.6,190.1,70.6,190.1,70z M191.4,68.2
	c-0.2-0.2-0.5,0.2-0.6-0.3C191,67.4,191.6,67.8,191.4,68.2z M200.9,60.9c-0.6,0.3-0.6,0.4-0.8,1c-0.1-0.4-0.3-0.5-0.5-0.1
	C199.3,60.9,200.4,60.4,200.9,60.9z M200.6,71.8c-0.1,0.3-0.6,0.5-0.8,0C200.1,71.7,200.4,71.6,200.6,71.8z M197.9,78.9
	c-0.3,0.1-0.2,1-0.6,0.7c0.2-0.2-0.2-0.5-0.1-0.7C197.5,78.6,197.7,78.5,197.9,78.9z M197.6,69.4c-0.1,0.4-0.6,0.3-0.8,0
	C197.1,69.1,197.4,69.2,197.6,69.4z M196.3,70.1c0.1,0,0.2,0.1,0.3,0.1c0.3,0.2,0.7,0.4,1,0.5c-0.3,0.2-0.1,0.4-0.5,0.6
	c-0.3-1.1-1-0.4-1.5-1C195.8,70.1,196.1,70.1,196.3,70.1z M193.8,70.7c0.4-0.4,0.6-0.3,0.9-0.1C194.6,70.9,193.9,71.3,193.8,70.7z
	 M195.8,79.9c0.3-0.3,0.5-0.3,0.7,0C196.2,80.3,196,80.3,195.8,79.9z M195.6,71.7c0.6-0.3,0.3-0.2,0.6-0.7c0.3,0,1,0.1,0.6,0.6
	C196.4,70.9,196.1,72.4,195.6,71.7z M196.9,82c0.1-0.2,0.5-0.5,0.5-0.9c-0.3,0.2-0.4-0.1-0.6-0.5c0.5-0.2,1.1-0.8,1.5-0.2
	C197.5,80.7,197.6,82.7,196.9,82z M199.1,81.6c-0.2-0.3-0.6,0.2-0.7-0.4C198.6,80.9,199.3,81.1,199.1,81.6z M198.3,80.7
	c0.4-0.5,0.7-0.1,1,0C198.9,80.7,198.5,81,198.3,80.7z M201.3,74.1c-0.5-0.7-1.7-0.3-1.8-1C200,73.4,201.6,72.9,201.3,74.1z
	 M203.7,74.7c-0.4-0.6-1.1,0.3-1.5-0.4C202.6,74.5,204,73.7,203.7,74.7z M271.7,96.9c0.5,0.1,0.4-0.2,1.1,0
	c-0.2,0.4-0.4,0.7-0.7,0.7c0.2-0.5-0.5-0.2-0.3,0.1C271.5,97.4,271.6,97.2,271.7,96.9z M265.4,96.5c-0.4-0.1-1.4,0.1-1.4-0.4
	C264.5,96,265,96,265.4,96.5z M262.5,95.4c0.2,0.2,1,0.3,0.8,0.7C263.1,96.3,262.3,95.8,262.5,95.4z M256.2,93.3
	c-0.4,0.4-0.9,0.9-1.2,0.5C255.4,93.4,255.8,93.1,256.2,93.3z M254.2,94.2c0.1,0.6,0.4,0.4,0.7,0.8c-0.7,0-1.4,1.2-1.7,0.2
	C253.9,95.2,253.9,94.7,254.2,94.2z M253,95.5c-0.4-0.4-0.2-0.6-0.5-1c0.3-0.2,0.6-0.1,0.8-0.1C253.1,94.7,253.3,95.1,253,95.5z
	 M253.2,92.8c-0.2,0.2-0.8,0.1-0.7,0.6c0.2,0.5,1,0,0.8,0.6c-0.4,0-0.8,0.1-1.1-0.5c0.2-0.2,0.2-0.4,0-0.6
	C252.6,92.7,252.9,92.6,253.2,92.8z M251.6,93.9c0.3,0,0.6,0.1,0.9,0.5C252.1,94.9,251.4,94.1,251.6,93.9z M248.1,92.2
	c0.4,0.2,0.3,0.8,1,0.4c0.1-0.4-0.6-0.4-0.2-0.8c0.4,0.1,0.6,0.3,0.7,0.8c-0.6,0.6-1.7,0.7-1.8-0.1
	C247.9,92.7,247.8,92.3,248.1,92.2z M246.5,91.7c0.2,0.1,0.4,0.2,0.5,0.6c-0.3,0.2-0.6,0.2-0.8-0.1C246.4,92,246.4,91.8,246.5,91.7z
	 M245.8,90.9c-0.3,0.3-0.5-0.2-0.8-0.4C245.4,90,245.6,90.5,245.8,90.9z M246.3,94.5c-0.5,0.2-1.1,0.2-1.5-0.4
	C245.3,94,245.8,94.3,246.3,94.5z M243,89.7c0,0.1-0.4,0.8-0.6,0.5C242.5,89.9,242.6,89.3,243,89.7z M243.7,92
	c-0.2,0.5-0.7,0.2-1,0.9c-0.5-0.4,0.5-0.5,0.2-0.8c-0.2-0.3-0.6,0.4-0.8-0.1C242.7,91.5,243.2,91.9,243.7,92z M240.6,90.1
	c0.4,0.5,0.1,1.2-0.3,1.2C240.1,90.8,240.2,90.4,240.6,90.1z M239.3,87.6c0.1,0.2,0.3,0.1,0.3,0.3l-0.6,0.5
	C238.8,88,239.1,87.8,239.3,87.6z M239.2,90.2c0,0.7,0.5,0.2,0.8,0.7c-0.5,0.3-0.8-0.3-1.3,0.1c-0.1-0.2-0.3-0.4-0.4-0.4
	C238.7,90.5,238.7,90.9,239.2,90.2z M237,88.9c0.1,0.1,0.3,0.1,0.4,0.4c-0.5,0.1-0.3,0.5-0.7,0.2C236.9,89.3,236.6,89,237,88.9z
	 M236.1,89.4c0.5,0.9,1.8,0.1,1.9,1C237.5,90.2,235.8,90.6,236.1,89.4z M233.5,88.6c-0.1,0.2-0.1,0.4-0.2,0.5
	c-0.1-0.5-0.5,0-0.6-0.5C233,88.5,233.3,88.4,233.5,88.6z M229.5,87l-0.7,0.6c-0.2-0.7-0.6,0.1-0.8-0.5
	C228.6,86.7,229,86.9,229.5,87z M226.4,80.6c-0.1,0.3,0,0.6-0.4,0.7C225.5,80.9,226.1,80.2,226.4,80.6z M226.2,81.9l0.2,0.4
	c-0.3,0.4-0.5,0.1-0.7,0L226.2,81.9z M224.4,79.3c0.1,0.1,0.1,0.2,0.1,0.4c-0.4,0.3-0.4,0-0.5-0.2c-0.1-0.2-0.1-0.4-0.3-0.4
	C223.9,78.9,224.2,79,224.4,79.3z M223.7,78C223.7,78,223.8,78,223.7,78c0.2,0.1,0.2,0.2,0.1,0.4c-0.2-0.3-0.4,0.3-0.5,0.4l-0.3-0.5
	C223.3,78,223.5,78,223.7,78z M221.9,75.6l0.2,0.4c-0.1,0.1-0.1,0.1-0.2,0.2c-0.2,0.1-0.3,0.1-0.4-0.1c0,0,0-0.1-0.1-0.1L221.9,75.6
	z M217.6,79.1c0,0.3-0.5,0.5-0.8,0.4c0.2-0.3-0.4-0.2-0.5-0.6C216.8,78.6,217.2,78.9,217.6,79.1z M213.9,64.8
	c-0.2-0.3-0.4-0.2-0.2-0.6c0.4,0.1,0.1,0.5,0.5,0.9c0.5-0.5,0.7,0.5,1.3-0.1c-0.2-0.2-0.5-0.1-0.6-0.6c0.2-0.3,0.4,0,0.6-0.3
	c0.3,0.2-0.2,0.9,0.2,0.8c0.3-0.2-0.2-0.6,0.2-0.8c0.2,0,0.4,0.1,0.5,0.4c-0.1,0.3-0.5,0.6-0.5,0.9c0.2,0,0.4,0.3,0.6,0.5
	c-1.3-0.2-2.6-0.3-3.8-1.2C213.3,64,213.4,65.3,213.9,64.8z M214.9,78.9c-0.1-0.2-0.3-0.5-0.2-0.6c0.4,0.3,0.9-0.2,1.2,0.5
	C215.5,79.1,215.3,78.5,214.9,78.9z M215.1,84.2c-0.2,0.1-0.6,0.7-0.8,0.4C214.4,84.3,214.9,83.8,215.1,84.2z M214.2,76.6
	c-0.1-0.2-0.2-0.4-0.4-0.4L214,76c0-0.1-0.1-0.2,0-0.2c0.4,0.6,0.2-0.5,0.5-0.6c0,0,0.1,0.1,0.1,0.1c0,0,0,0,0,0
	c0.2,0.1,0.4,0,0.5,0.4C214.6,76,214.6,76.3,214.2,76.6z M212.4,63.5c0.4,0.4-0.4,1.1-0.6,0.7C212,63.6,212.4,64.2,212.4,63.5z
	 M211.7,63.3l0.2,0.4c-0.4,0.3-0.8,0.7-1.1,0.3C210.9,63.5,211.3,63.8,211.7,63.3z M209.4,75.7c0.3-0.1,1-0.1,0.6,0.5
	C209.9,75.6,209.1,76.3,209.4,75.7z M206.7,62.3c-0.4,0.4-0.6,0.7-0.1,1c-0.4,0.2-0.6,0-0.9-0.4C206.1,62.6,206.3,61.7,206.7,62.3z
	 M204.4,74.5C204.4,74.5,204.4,74.5,204.4,74.5c0.2-0.2,0.3-0.3,0.3-0.4c0,0,0-0.1,0.1-0.1l0.1,0.1l0.1,0.1
	c-0.1,0.1-0.1,0.3-0.1,0.4c0,0.3,0.2,0.5,0.5,0.7C204.7,75.7,204.7,75.1,204.4,74.5z M205.7,73.9c-0.4-0.6-1-0.3-1.4-0.8
	c0.6-0.4,1.6,0.1,1.7,0.5C205.9,73.4,205.7,73.7,205.7,73.9z M205.2,71.7c0-0.1-0.1-0.2-0.1-0.3c0.3,0.1,0.9,0.1,1.1,0.4
	c0.1,0.1,0.1,0.2,0.1,0.4C206.1,71.8,205.4,72.1,205.2,71.7z M206.3,75.6c-0.1,0-0.1-0.1-0.2-0.1c0.2,0,0.3-0.1,0.5-0.1
	c0.3,0,0.6,0,0.9,0.1c0.3,0,0.6,0.1,0.9,0.1c0-0.1-0.1-0.2-0.1-0.3c0-0.2,0-0.4,0.2-0.5c0,0.3,0,0.5,0.1,0.5c0.1,0.1,0.3,0,0.6,0.2
	c0.1,0,0.1,0.1,0.2,0.2c-0.2,0.2-0.4,0.3-0.5,0.4c0,0-0.1,0.1-0.1,0.1c-0.1,0.1-0.1,0.3-0.1,0.6C208.1,75.5,207,76.1,206.3,75.6z
	 M208.2,84.1c0.1-0.2,0.2-0.4,0.5-0.6c0.1,0.6,0.5,0.2,0.7,0.6l-0.2,0.2C208.9,83.9,208.6,84.4,208.2,84.1z M210.1,86.3
	c-0.5-0.3-1.1,0.1-1.4-0.6c0.5,0,0.5-0.8,0.9-0.7c0.5,0.4-0.2,1,0.2,1c0.2-0.2,0-0.6,0.4-0.7C210.4,85.6,210.2,85.9,210.1,86.3z
	 M209.5,84.5c0.4-0.4,0.7-0.3,1,0C210.1,84.5,209.7,84.8,209.5,84.5z M210.8,77.2c0.3-0.2,0.6-0.2,0.9-0.1c-0.2,0.1,0.7,0.3,0.2,0.8
	C211.6,77.6,211.2,77.5,210.8,77.2z M211.2,85.2c0.2-0.1-0.1-0.4,0-0.6c0.2,0.3,0.5-0.1,0.7,0.4C211.6,85.3,211.3,85.5,211.2,85.2z
	 M211.1,80.8c0.4-0.1,0.8,0.1,1.2,0C212.2,81.2,211,81.4,211.1,80.8z M213.3,85.9c-0.4-0.4-0.9-0.3-1.3-0.7c0.6-0.1,1.1,0.3,1.7,0.4
	L213.3,85.9z M212.1,77.3c0.2-0.3,0.1-0.6,0-1c-0.1,0.5-0.2,0.5-0.6,0.5c-0.2-0.2,0-0.4,0-0.6c-0.3,0.6-0.2,0.1-0.6,0.1
	c0.2,0.5-0.4,0.5-0.6,0.1c0.1-0.4,0.4-0.2,0.8-0.6c0.6,0.3,0.6,0.6,1,0c0.4,0.1,0.4,0.5,0.2,0.8c0.7-0.3,1.6,0,1.9,0.8
	c0,0.1,0.1,0.2,0.1,0.3c-0.1-0.1-0.2-0.2-0.3-0.2C213.5,77,212.7,77.1,212.1,77.3z M213.7,85.8c0.2-0.1,0.2-0.3,0.3-0.4
	c0.2,0.3,0.9,0.3,0.7,0.8C214.5,85.8,214,86.4,213.7,85.8z M216,86.7c-0.5,0.2-1,0.8-1.5,0.2c0.3-0.4,0.5,0,0.8-0.4
	c-0.2-0.3-0.4-0.2-0.2-0.6C215.3,86.1,216.1,86.1,216,86.7z M216,78.1C216,78.1,216,78.1,216,78.1c0,0-0.1,0-0.1,0
	c-0.2-0.1-0.4-0.1-0.6-0.2c0.4-0.3,0.5-0.7,0.9-0.5C215.9,77.6,216.2,77.9,216,78.1z M217.4,87.2c-0.4-0.6-1,0.4-1.2,0.4
	c-0.3-0.7,0.3-0.5,0.6-1c0.1,0.5,0.4,0,0.6-0.1C217.5,86.7,217.6,87,217.4,87.2z M220.3,80.5c-0.3-0.2-0.6,0.1-0.8-0.3
	C219.7,80.2,220.5,79.9,220.3,80.5z M220.6,84.1c0.3-0.3,0.5-0.3,0.7,0C221,84.5,220.8,84.5,220.6,84.1z M222.8,81.2
	c-0.2-0.2-0.6-0.1-0.8-0.3c0.1-0.1,0.2-0.1,0.3-0.1c0.2-0.1,0.4,0,0.5,0.1C222.8,80.9,222.9,81.1,222.8,81.2z M222.1,79.5
	c-0.3,0.2-0.5,0.4-0.8,0.8c-0.2-0.6-0.7-0.6-1.2-0.5c-0.4,0.1-0.9,0.2-1.2,0.2c0.1-0.2,0.7-0.3,0.5-0.6c-0.4,0.2-0.7,0-1.1,0.3
	c0.1,0.1,0.4,0.1,0.2,0.4c-0.3-0.5-1.2,0.1-1.1-0.6c0.3,0.3,0.9-0.1,1-0.6c0-0.1,0-0.2,0-0.4c-0.1,0.3-0.2,0.4-0.4,0.4
	c-0.3,0-0.7-0.3-0.8-0.5c0-0.1,0-0.1,0-0.2c0,0,0,0,0,0c0.1,0,0.3,0.1,0.5,0.2c0.3,0.1,0.7,0.1,0.6-0.4c0,0,0,0,0,0c0,0-0.1,0-0.1,0
	c0,0,0,0,0,0c-0.1,0-0.2-0.1-0.3-0.2c0.3-0.2,0.6,0,0.7,0.3c0.1,0.2,0.2,0.4,0.3,0.6c0.1,0.2,0.1,0.3,0.2,0.4l0.4-0.4l0.1-0.1l0,0
	c0,0,0,0,0,0c0.6,0.8,1.3,0.9,2.1,0.8c0.1-0.4,0.3-0.7,0.5-0.9c0.1-0.1,0.1-0.1,0.2-0.1c-0.1,0.9,0.4-0.2,0.7,0.4
	C222.7,79.2,222.4,79.3,222.1,79.5z M223.7,81.7c0.2,0.2,0.4-0.2,0.5,0.4C224,82.6,223.5,81.9,223.7,81.7z M224.2,81.2
	c-0.1-0.2-0.2-0.3-0.3-0.4c-0.3-0.2-0.7,0-0.9-0.4c0.3-0.4,0.1-0.9,0.6-0.9c0.4,0.4,0,0.6,0,0.9c0.3-0.1,0.6,0.1,0.9-0.1
	c0.1,0.1,0.1,0.3,0.1,0.4C224.6,80.9,224.4,81.1,224.2,81.2z M224.5,86c0.1-0.3,0.6-0.5,0.8-0.1C225,86.3,224.8,86.1,224.5,86z
	 M227.7,86.5c-0.3,0.1-0.8,0.7-1,0.2C227.1,86.4,227.5,86,227.7,86.5z M226.8,86.5c-0.5,0-0.9-0.1-1.4-0.4
	C225.9,85.9,226.7,85.8,226.8,86.5z M226.4,81.4c0.1-0.3,0-0.6,0-0.9c0.3-0.3,0.4,0,0.6,0.3C226.8,80.8,226.6,81.6,226.4,81.4z
	 M227.3,80.1c0,0.1,0,0.1-0.1,0.2c-0.2-0.5-1.1-0.1-1-0.6c0.2,0,0.8-0.1,1,0.1C227.3,79.9,227.3,80,227.3,80.1z M235.6,79.4
	c0.2,0.5,0.1,0.7,0.9,1.2C235.8,81.2,235.3,80.1,235.6,79.4z M235.7,82.8c0.6-0.4,0.3,0.2,0.7,0.6C236.1,83.9,235.7,83.2,235.7,82.8
	z M236.8,82.1c-0.2-0.4-0.6,0.7-0.7,0l0.6-0.5C236.8,81.8,237,82,236.8,82.1z M236.9,72.8c-0.4-0.2-0.9,0.3-1.2-0.4
	c0.4-0.4,0.7-0.1,1.1-0.3C237,72.3,237.1,72.6,236.9,72.8z M237,82.2c0.7-0.3,1.3-0.1,1.9,0.2C238.7,83.4,237.6,82.7,237,82.2z
	 M238.9,84.2c-0.6,0.1-0.8-0.4-1.1-0.8c0.1-0.1,0.1-0.2,0.1-0.2c0-0.1,0.1-0.2,0.2-0.3c0.1,0.1,0.2,0.3,0.2,0.4c0,0.2-0.1,0.3,0,0.5
	c0.3-0.2,0.4-0.3,0.6-0.4c0.2-0.1,0.3-0.3,0.4-0.6c0.3,0.1,0.2,0.4,0.3,0.7c0,0,0,0.1,0,0.1c-0.3,0.4-0.5,0.2-0.8,0.3
	C238.7,83.9,239,83.9,238.9,84.2z M239.5,83c0.3-0.4,0.5,0,0.8-0.1C240.2,83.5,239.7,83.5,239.5,83z M239.3,81.5
	c-0.4,0.4-0.7,0.3-0.9-0.2c0.5-0.5,0.5,0.2,0.8-0.4C239.2,81.1,239.3,81.3,239.3,81.5c0.4-0.6,1.2-0.1,1.1,0.5
	C240.1,81.4,239.6,82.2,239.3,81.5z M242.3,74.6c-0.5,0.4-1,0.2-1.5,0.1C241.4,74.3,241.9,74.4,242.3,74.6z M240.8,83.8
	c0.3,0,0.7-0.7,0.9-0.2C241.4,83.9,241.1,84,240.8,83.8z M242.7,84.4c-0.2-0.1-0.4-0.2-0.5-0.6C242.5,83.3,243,84.1,242.7,84.4z
	 M244.8,83.7c-0.2-0.5-0.5-0.5-0.7-0.6c0.4-0.2,0.3-0.2,0.7-0.6c0.1,0.5,0.2,0.7,0.7,0.2c0.1,0.2,0.2,0.4,0.2,0.6
	C245.4,83.8,245.1,83.6,244.8,83.7z M246.4,85.7c0.2,0.3,0.6-0.1,0.8,0.4C246.9,86.4,246.3,86.1,246.4,85.7z M247.4,86.7
	c-0.4-0.3-0.1-1,0.2-0.8C247.3,86.2,247.8,86.5,247.4,86.7z M248.2,84c-0.1,0.1-0.2,0.3-0.4,0.4c-0.5-0.5-1.1,0-1.6-0.3
	c0.1-0.2,0.2-0.3,0.3-0.3c0.1,0,0.2-0.1,0.3-0.1c0.3,0,0.6,0.1,1,0.1c0,0,0.1,0,0.1,0c0.1-0.2,0.1-0.4,0.3-0.1
	C248.3,83.8,248.3,83.9,248.2,84z M247.8,82c0.3-0.3,0.5-0.1,0.7,0.2C248.2,82.5,247.9,82.4,247.8,82z M250.1,86.8
	c0.4-0.3,0.8-0.5,1.1,0C250.8,87.1,250.5,86.9,250.1,86.8z M251.6,77c-0.5,0.4-1.4,0.1-1.4-0.6c0.3,0.7,0.8,0,1.2,0.1
	C251.2,76.8,251.7,76.6,251.6,77z M253.1,77.8c0.3-0.3,0.5-0.2,0.7,0.2C253.5,78.3,253.3,78.2,253.1,77.8z M254.4,88.1
	c-0.3-0.6-0.6-0.4-0.9-0.8c0.4-0.4,0.7,0.3,1.2-0.4c0.2,0.4,0.4,0.1,0.5,0.5C254.7,87.7,254.8,87.6,254.4,88.1z M257.3,88.3
	c-0.4-0.6-1,0.2-1.5-0.5C255.9,87.3,257.7,87.6,257.3,88.3z M259.1,78.8c-0.5-0.6,0.5-0.8,0.7-0.5C259.5,78.7,259.3,78.4,259.1,78.8
	z M266.2,82.4c-0.3,0.4-1.1,0-1.1-0.4C265.5,82.2,265.9,82,266.2,82.4z M265.2,85.4l0.4-0.4c0.1,0.2,0.3,0,0.4,0.3
	c0,0.2-0.1,0.3-0.2,0.4c-0.3,0.3-0.8,0.4-1.1,0.2L265.2,85.4z M266.3,86.3c-0.2,0.5-0.2,1,0.3,1.2c0,0.4-0.4,0.3-0.6,0.4
	c-0.1-0.7-0.8-0.2-1.2-0.5c0.5-0.7-0.4,0-0.6-0.7c0.5-0.2,0.9,0.3,1.3,0.2c0.2-0.2,0.4-0.4,0.5-0.6c0.4-0.6,0.4-1.3,1.1-1
	C266.7,85.5,266.4,85.9,266.3,86.3z M266.2,79.7c-0.2-0.2-0.3-0.4-0.3-0.6c0.4-0.1,0.9-0.4,1.3,0.2
	C266.8,79.7,266.6,79.1,266.2,79.7z M278.5,86.7c-0.1,0.2,0.1,0.3,0.2,0.4c-0.5,0.3-1.1-0.3-1.6,0C277.5,86.6,277.8,86.7,278.5,86.7
	z M277.2,88.2c-0.3-0.2-0.5,0-0.8-0.3C276.8,87.4,277.5,87.7,277.2,88.2z M276.3,86.4c0.3,0.2,0.6,0,1,0.3
	C277.1,87.1,276.3,86.9,276.3,86.4z M280.8,81.6c-0.3,0.1-0.6,0.8-0.9,0.4C280.2,81.7,280.5,81.2,280.8,81.6z M279.2,81.8l0.3,0.3
	l-0.3,0.4c-0.2,0.2,0.3,0.4,0,0.7c-0.2-0.5-0.4,0.3-0.6-0.2C278.9,82.6,278.8,82.2,279.2,81.8z M276.8,83.3c0.3,0.1,0.6,0.3,0.9,0.5
	c-0.5,0.1-0.9,0.5-1.3,0.7c0.2-0.2,0.1-0.4-0.1-0.6L276.8,83.3z M274.6,82.9c0.2,0.8,0.7,0,1.1,0.3
	C275.4,84.2,274.3,83.8,274.6,82.9z M275.5,87.8l-0.4,0.5c-0.2-0.2-0.1-0.4-0.3-0.6C275,87.4,275.3,87.5,275.5,87.8z M275.1,86.7
	c0,0.3-0.4,0.7-0.6,0.7c-0.5-0.2,0.3-0.5-0.2-0.7C274.5,86.4,274.8,86.4,275.1,86.7z M272.9,82c0.2-0.3,0.5-0.6,0.7-0.4
	c-0.1,0.2-0.2,0.3,0,0.5c0.4-0.2,0.1-0.5,0.4-0.7c0.5,0.4-0.2,0.9-0.3,1.3c-0.4-0.1-0.1-0.7-0.4-0.4c-0.2,0.3,0.1,0.5-0.1,0.8
	l-0.4-0.4C273,82.4,273.2,82.2,272.9,82z M272.3,79.8c-0.4,0.4-0.9,0.2-1.3-0.1C271.4,79.3,271.8,79.3,272.3,79.8z M270.1,84.5
	c0.2,0.4,0.5-0.1,0.7,0.4l-0.4,0.5C270.3,85,270.1,84.7,270.1,84.5z M268.1,84.4c0.4-0.1,0.8-0.3,1.1-0.1
	C268.8,84.9,268.4,84.5,268.1,84.4z M268.8,90.5c-0.2,0-0.6-0.5-0.3-0.8C268.7,90,269,90.3,268.8,90.5z M272,92.8
	c0.2-0.2-0.3-0.5,0-0.7C272.5,91.9,272.5,92.9,272,92.8z M271.9,92c-0.2-0.2-0.1-0.4-0.1-0.6c-0.2,0.2-0.4-0.3-0.5-0.1
	c0.2,0.2,0.3,0.4,0.3,0.6c-0.4,0.4-0.7,0-0.6,0.6c-0.3,0-0.5,0.1-0.7-0.4c0.2-0.2,0.4-0.1,0.3-0.3c-0.4,0-0.7-0.1-1.1-0.2
	c0.4-0.4,0-0.1-0.2-0.5c0.3-0.5,0.5,0.2,0.8-0.1c-0.3-0.6-0.7-0.4-1-0.7c-0.1-0.2-0.4-1,0.1-0.8c-0.2,0.4,0.4,0.1,0.5,0.6
	c0.4-0.7,0.8,0.1,1.3-0.2c0.3,0.6,0.5,0.7,1,0.7c0.2-0.2-0.2-0.4-0.1-0.6C272.9,90.5,272.4,91,271.9,92z M273.3,87.3
	c-0.6-0.4-1.1,0.2-1.7-0.2c0.6,0.1,1.1-0.8,1.7-0.3C273.2,87,273.4,87.1,273.3,87.3z M273.1,84.3c0.2-0.6,0.3-0.9,0.9-0.6
	C273.4,83.7,273.8,84.4,273.1,84.3z M273.8,88.5c-0.1,0.3,0.7,0.6,0.2,0.9c-0.5,0,0-0.5-0.5-0.8l0.5-0.6c0.1,0.3,0.8,0.1,0.5,0.6
	C274.3,88.8,274.1,88.5,273.8,88.5z M278.8,89.4c0.1,0.3-0.2,0.6-0.3,0.8c-0.3,0.1-0.6,0.2-0.9,0.1c-0.1-0.3,0-0.7,0.1-1
	c-0.2,0.4-0.4,0.5-0.6,0.6c-0.3,0.1-0.5,0.1-0.8,0.1c0,0,0,0-0.1,0c-0.5-0.8-0.9-0.6-1.6-1c0.3-0.6,1.5-0.2,2.1-0.1
	c-0.2-0.2-0.2-0.4-0.1-0.6c0.6,0,0.8,0.2,0.5,0.6c0.5-0.2,2-0.7,2.5,0.4C279.1,89.1,279.2,89.5,278.8,89.4z M280.3,86.9
	c-0.2,0.4-0.1,0.7-0.1,1c-0.2-0.2-0.4,0.2-0.7-0.2c0.8-0.9-0.8-0.3-0.6-1c0.4,0.3,1.4-0.6,1.5,0.3L280.3,86.9z M281.2,86.6
	c-0.2-0.1-0.2,0.6-0.6,0.1l0.4-0.5C281,86.3,281.3,86.4,281.2,86.6z"/>
</svg>
