<svg id="shopping_bag_1_" xmlns="http://www.w3.org/2000/svg" width="25.839" height="33.271" viewBox="0 0 25.839 33.271">
  <path id="Path_9" data-name="Path 9" d="M36.908,36.238,34.444,14.057a1.993,1.993,0,0,0-1.972-1.664H28.9v-2.4a4.929,4.929,0,1,0-9.858,0v2.4H15.529a1.9,1.9,0,0,0-1.972,1.664L11.093,36.238a1.8,1.8,0,0,0,.431,1.355,2,2,0,0,0,1.54.678H34.937a2,2,0,0,0,1.54-.678A1.8,1.8,0,0,0,36.908,36.238ZM20.273,9.991a3.7,3.7,0,1,1,7.394,0v2.4H20.273Zm15.28,26.8a.714.714,0,0,1-.616.246H13a.941.941,0,0,1-.616-.246.461.461,0,0,1-.123-.431L14.728,14.18a.74.74,0,0,1,.739-.555h3.574v4.313a.616.616,0,1,0,1.232,0V13.626h7.394v4.313a.616.616,0,1,0,1.232,0V13.626h3.512c.37,0,.739.246.739.555l2.465,22.181A.506.506,0,0,1,35.553,36.792Z" transform="translate(-11.081 -5)" fill="#231f20"/>
</svg>
