<svg xmlns="http://www.w3.org/2000/svg" width="29.344" height="30.516" viewBox="0 0 29.344 30.516">
  <path id="_4619670_avatar_human_people_profile_user_icon" data-name="4619670_avatar_human_people_profile_user_icon" d="M87.128,77.326a8.2,8.2,0,1,0-6.689,0A14.7,14.7,0,0,0,69.112,91.613a.55.55,0,0,0,.55.55H97.906a.55.55,0,0,0,.55-.55A14.7,14.7,0,0,0,87.128,77.326ZM76.686,69.844a7.1,7.1,0,1,1,7.1,7.1A7.106,7.106,0,0,1,76.686,69.844Zm-6.464,21.22a13.573,13.573,0,0,1,27.124,0Z" transform="translate(-69.112 -61.647)"/>
</svg>
